<svg width="40" height="40" viewBox="0 0 40 40" fill="none" xmlns="http://www.w3.org/2000/svg">
<path fill-rule="evenodd" clip-rule="evenodd" d="M13.099 15.0023C13.4194 15.1598 13.6257 15.4818 13.9365 15.7857C14.0732 15.9193 14.5957 16.4555 14.6496 16.5646C14.4215 16.5057 13.1589 16.0932 12.9856 15.8964C12.6868 15.9182 7.71254 13.9687 6.7273 13.6072C6.33352 13.4627 4.96638 12.9006 4.68431 12.883L4.69319 14.7292C5.01874 14.9855 13.3507 18.5186 13.687 18.788C13.4386 18.9003 1.34656 19.219 0 19.2237L0.00713399 20.9389L13.7468 21.2405C13.5741 21.4091 9.81934 23.0752 9.26214 23.3118C8.48514 23.6417 7.78436 23.996 6.98166 24.3452C6.24214 24.667 5.45928 25.0241 4.73742 25.3592L4.74061 27.231C5.24195 27.2288 11.8548 24.4669 13.4522 23.9391C13.8918 23.7938 14.1997 23.604 14.6628 23.5038C14.5621 23.6603 14.1836 24.0382 13.9897 24.23C12.713 25.4936 10.6486 27.7482 9.42114 29.0986L6.12226 32.5435C5.88062 32.7944 5.71108 32.9544 5.47134 33.2469C4.80238 34.0631 4.6572 33.6747 4.78909 35.2485C6.2277 35.3186 6.03925 35.2461 6.7582 34.5226L9.51582 31.8864C9.77495 31.6264 9.9955 31.4492 10.1998 31.2222L15.0091 26.5923C15.2597 26.3391 16.1654 25.4181 16.403 25.308L14.5635 30.3097C14.3274 30.9041 12.7641 34.9588 12.7389 35.2604C13.1294 35.1397 13.7407 35.2176 14.182 35.2229C14.8164 35.2306 14.6541 35.103 14.9167 34.5741C15.426 33.5482 16.1398 31.7101 16.6611 30.6279C17.177 29.5567 17.507 28.6785 17.9729 27.6524C18.597 26.2779 18.5356 26.8612 18.0965 25.7128C17.9715 25.3857 17.8184 25.0337 17.6777 24.7201C17.0854 23.4002 16.6073 22.059 15.9897 20.7189C15.7628 20.2265 15.6694 20.1467 15.8584 19.6634C16.6128 17.7333 17.5783 15.5587 18.3438 13.6344C18.4624 13.3363 18.1803 12.9795 18.0506 12.6622C17.7803 12.0012 17.4562 11.402 17.1506 10.6854C16.8647 10.015 16.5998 9.4575 16.2671 8.75147C15.9823 8.14703 14.7057 5.17825 14.4851 4.86816L12.6265 4.87528C12.7023 5.3262 14.2388 9.16401 14.5234 9.87602C14.8448 10.68 15.1517 11.5163 15.4756 12.3514C15.7743 13.1217 16.0841 14.1182 16.4121 14.7888C16.2529 14.7418 14.0044 12.5339 13.6119 12.1924L9.42506 8.22798C8.75951 7.58328 7.22427 6.22469 6.64868 5.61045C5.79509 4.69962 5.88944 4.87679 4.66943 4.90572C4.64881 5.11488 4.63496 5.86507 4.66708 6.05537C4.70295 6.26774 5.56435 7.13292 5.74485 7.307L8.60394 10.2697C8.90214 10.5705 13.0281 14.7685 13.099 15.0023Z" fill="#EF8458"/>
<path fill-rule="evenodd" clip-rule="evenodd" d="M33.4321 5.09945L30.9231 7.51417C30.7523 7.66778 30.7659 7.66957 30.6203 7.82494L29.9888 8.41782C29.1667 9.23497 27.9489 10.3033 27.1705 11.1166C26.7872 11.5171 26.3307 11.8999 25.9214 12.3194C25.6873 12.5593 23.6089 14.5926 23.3626 14.7146L27.0199 4.89742C26.9734 4.78079 27.0417 4.86148 26.8817 4.82744L25.1419 4.82741C24.9046 5.43025 24.5583 6.10602 24.2936 6.72127L21.7888 12.3606C21.7146 12.5179 21.3832 13.2146 21.3529 13.3271C21.2583 13.6783 24.0436 19.5652 24.0304 20.0087C24.0241 20.2198 22.0389 24.8929 21.6779 25.8388C21.557 26.1558 21.3115 26.4426 21.4497 26.7747L25.2898 35.1748L27.1244 35.1688C27.1484 34.9367 25.984 32.0023 25.7417 31.4291L23.387 25.2536C23.5907 25.329 24.6596 26.3863 24.8167 26.5412L30.3506 31.7952C30.8053 32.2791 31.2765 32.6607 31.7293 33.1143C31.9392 33.3245 33.7177 35.0742 33.9544 35.1295L35.0923 35.1151C35.1522 33.942 35.2085 33.9343 34.5918 33.3198C34.1575 32.8869 31.3296 30.029 31.2123 29.7287C31.0349 29.7101 30.8991 29.5093 30.7699 29.3587C30.6111 29.1738 30.5253 29.1231 30.3758 28.9552C30.2514 28.8153 30.1538 28.6732 30.0118 28.5241C29.6482 28.1423 28.1485 26.6992 28.1133 26.4994C27.7437 26.3332 25.6124 23.9442 25.124 23.4488C25.2666 23.487 27.4361 24.2457 27.6532 24.4036C28.0247 24.4708 30.754 25.5515 31.3535 25.7771C31.95 26.0015 32.6047 26.2693 33.1896 26.4534C33.6858 26.6095 34.5618 27.0548 35.067 27.1244L35.0346 25.2294C33.7136 24.6087 26.8973 21.696 26.3243 21.3668C26.0548 21.2119 26.2196 21.3651 26.1176 21.1793L39.9435 20.7818C40.0374 20.4543 39.9911 19.4676 39.9697 19.0832C37.6627 18.9516 35.3059 19.02 32.9684 18.9403L26.2763 18.7732C26.119 18.7486 26.1777 18.7552 26.1211 18.7269C26.2381 18.6284 26.2363 18.6372 26.4068 18.5508C26.4817 18.5129 26.5631 18.4733 26.652 18.4356L28.1786 17.7492C29.1597 17.3471 34.026 15.0066 34.3473 15.0089C34.3596 14.9964 34.3763 14.9811 34.3857 14.9731C34.3949 14.9653 34.4125 14.9479 34.424 14.9387C34.6195 14.7815 34.7859 14.7482 35.0119 14.6541L35.0026 12.7707C34.565 12.8384 34.2931 13.0778 33.7898 13.1776C33.5884 13.3058 32.6391 13.6582 32.304 13.7728C31.7722 13.9548 31.3097 14.1577 30.7902 14.3605C30.4246 14.5031 27.9783 15.4705 27.7514 15.4608C27.5794 15.6329 27.3759 15.6735 27.1073 15.7676C26.4888 15.9843 25.7642 16.3336 25.1115 16.5139C25.529 15.9382 27.4947 14.0087 28.1657 13.2707C28.2906 13.1333 28.433 12.9658 28.575 12.8225C29.1434 12.2487 29.7236 11.605 30.2993 10.9914C30.6058 10.6647 31.8541 9.31092 32.0797 9.19281C32.1133 9.1232 32.0854 9.17271 32.1427 9.0921L34.0951 7.00384C34.2531 6.83252 34.6461 6.53195 34.6826 6.30942C35.0206 6.12081 34.9926 6.06796 34.9868 5.634C34.9831 5.35404 34.9973 5.0702 34.9673 4.79234C33.6438 4.69046 33.8181 4.81242 33.4321 5.09945Z" fill="#EF8458"/>
</svg>
