<svg width="40" height="40" viewBox="0 0 40 40" fill="none" xmlns="http://www.w3.org/2000/svg">
  <g clip-path="url(#clip0_7262_87788)">
    <path
      d="M39.5625 20C39.5625 30.8125 30.8125 39.5625 20 39.5625C9.1875 39.5625 0.4375 30.8125 0.4375 20C0.4375 9.1875 9.1875 0.4375 20 0.4375C30.8125 0.4375 39.5625 9.1875 39.5625 20ZM20 1.625C9.8125 1.625 1.625 9.8125 1.625 20C1.625 30.1875 9.875 38.375 20 38.375C30.1875 38.375 38.375 30.125 38.375 20C38.375 9.8125 30.1875 1.625 20 1.625Z"
      fill="url(#paint0_linear_7262_87788)" />
    <path
      d="M20 1.625C9.8125 1.625 1.625 9.8125 1.625 20C1.625 30.1875 9.875 38.375 20 38.375C30.1875 38.375 38.375 30.125 38.375 20C38.375 9.8125 30.1875 1.625 20 1.625ZM20 37.1875C10.5 37.1875 2.8125 29.5 2.8125 20C2.8125 10.5 10.5 2.8125 20 2.8125C29.5 2.8125 37.1875 10.5 37.1875 20C37.1875 29.5 29.5 37.1875 20 37.1875Z"
      fill="url(#paint1_linear_7262_87788)" />
    <path opacity="0.4"
      d="M20 39.5625C30.8125 39.5625 39.5625 30.8125 39.5625 20C39.5625 9.1875 30.8125 0.4375 20 0.4375C9.1875 0.4375 0.4375 9.1875 0.4375 20C0.4375 30.8125 9.1875 39.5625 20 39.5625ZM20 0C31 0 40 9 40 20C40 31 31 40 20 40C9 40 0 31 0 20C0 9 9 0 20 0Z"
      fill="url(#paint2_linear_7262_87788)" />
    <path
      d="M1.375 20.0625C1.375 9.8125 9.6875 1.375 20 1.375C30.3125 1.375 38.625 9.75 38.625 20.0625C38.625 30.3125 30.3125 38.625 20 38.625C9.6875 38.625 1.375 30.3125 1.375 20.0625ZM7.1875 7.1875C3.875 10.5 1.8125 15.0625 1.8125 20.0625C1.8125 25.0625 3.875 29.625 7.125 32.875C10.4375 36.125 15 38.1875 20 38.1875C25 38.1875 29.5625 36.1875 32.8125 32.875C36.125 29.625 38.125 25.0625 38.125 20.0625C38.125 15.0625 36.0625 10.5 32.8125 7.1875C29.5625 3.875 25 1.8125 20 1.8125C15 1.8125 10.4375 3.875 7.1875 7.1875Z"
      fill="white" />
    <path opacity="0.4"
      d="M20 37.25C15.375 37.25 11.0625 35.4375 7.8125 32.1875C4.5625 28.9375 2.75 24.625 2.75 20C2.75 15.375 4.5625 11.0625 7.8125 7.8125C11.0625 4.5625 15.375 2.75 20 2.75C24.625 2.75 28.9375 4.5625 32.1875 7.8125C35.4375 11.0625 37.25 15.375 37.25 20C37.25 24.625 35.4375 28.9375 32.1875 32.1875C28.9375 35.4375 24.625 37.25 20 37.25ZM20 36.75C24.4375 36.75 28.6875 35 31.8125 31.875C35 28.6875 36.6875 24.5 36.6875 20.0625C36.6875 15.625 34.9375 11.375 31.8125 8.25C28.625 5.0625 24.4375 3.375 20 3.375C15.5625 3.375 11.3125 5.125 8.1875 8.25C5 11.3125 3.25 15.5625 3.25 20C3.25 24.4375 5 28.6875 8.125 31.8125C11.3125 35 15.5625 36.75 20 36.75Z"
      fill="url(#paint3_linear_7262_87788)" />
    <path
      d="M35.1875 28.125C34.875 27.875 22.8125 18.3125 22.8125 18.3125L20 2.25C19.8125 2.3125 19.5625 2.5 19.4375 2.75L17.4375 18.375L5 27.9375C5 27.9375 4.75 28.25 4.625 28.4375C4.5625 28.5625 4.5625 28.75 4.5625 28.9375L19.9375 22.625L35.3125 28.9375C35.4375 28.625 35.3125 28.3125 35.1875 28.125Z"
      fill="white" />
    <path
      d="M20.125 20.5005L20 23.3755L34.125 29.063C34.625 29.313 35 29.188 35.375 28.938L20.3125 20.438C20.25 20.3755 20.125 20.438 20.125 20.5005Z"
      fill="#565F64" />
    <path
      d="M20.125 20.5005C20.125 20.5005 20.9375 21.938 21.875 22.938C23.1875 24.3755 24.9375 25.3755 24.9375 25.3755L34.125 29.063C34.625 29.313 35 29.188 35.375 28.938L20.3125 20.438C20.25 20.3755 20.125 20.438 20.125 20.5005Z"
      fill="url(#paint4_linear_7262_87788)" />
    <path
      d="M35.3125 28.375C35.3125 28.3125 35.25 28.25 35.1875 28.125L22.3125 18.6875L20.5625 19.8125C20.5625 19.8125 20.6875 19.875 20.75 19.8125C20.9375 19.75 21.3125 19.6875 21.6875 19.8125C22 19.9375 35.3125 28.4375 35.3125 28.4375C35.3125 28.4375 35.3125 28.4375 35.3125 28.375Z"
      fill="#A4AAAE" fill-opacity="0.6" />
    <path
      d="M34.875 27.8125L22.875 18.3125L22.3125 18.6875L35.1875 28.1875C35.125 28.0625 35 27.9375 34.875 27.8125Z"
      fill="#333E46" />
    <path
      d="M20.3125 19.5625C20.25 19.625 20.25 19.625 20.25 19.625C20.25 19.625 20.25 19.75 20.375 19.6875C20.4375 19.625 22.25 18.6875 22.875 18.3125L20.6875 3.3125C20.625 2.75 20.375 2.5 19.9375 2.3125L20.1875 19.6875L20.3125 19.5625Z"
      fill="#565F64" />
    <path
      d="M19.25 3.3125V4.125L17.875 17.9375C17.875 18.125 17.9375 18.3125 18.125 18.4375L18.9375 19.0625L19.5 3.8125L19.5625 2.625C19.375 2.75 19.3125 3 19.25 3.3125Z"
      fill="#A4AAAE" fill-opacity="0.6" />
    <path
      d="M18.5 19.3125L17.75 18.6875L5.0625 27.875C5.0625 27.875 4.6875 28.125 4.625 28.375L5.0625 28.125L18.375 19.75C18.625 19.625 18.6875 19.5 18.5 19.3125Z"
      fill="#A4AAAE" fill-opacity="0.6" />
    <path
      d="M19.8125 20.5005C19.8125 20.438 19.75 20.3755 19.6875 20.438L4.5625 29.0005C4.9375 29.2505 5.3125 29.313 5.8125 29.1255L19.9375 23.438L19.8125 20.5005Z"
      fill="#565F64" />
    <path
      d="M20.25 19.625L20.3125 19.5625C20.25 19.625 20.25 19.625 20.25 19.625C20.25 19.625 20.25 19.6875 20.3125 19.6875H20.375C20.4375 19.625 22.25 18.6875 22.875 18.3125L22.625 16.5L20.6875 3.3125C20.6875 3.0625 20.625 2.875 20.5 2.75C20.5 2.75 21.4375 15.375 21.4375 16.75C21.4375 18.5625 20.25 19.625 20.25 19.625Z"
      fill="url(#paint5_linear_7262_87788)" />
    <path
      d="M19.8125 20.5005C19.8125 20.438 19.75 20.3755 19.6875 20.438L4.5625 29.0005C4.9375 29.2505 5.3125 29.313 5.8125 29.1255L19.9375 23.438L19.8125 20.5005Z"
      fill="url(#paint6_linear_7262_87788)" fill-opacity="0.8" />
    <path opacity="0.8"
      d="M5.8125 29.0625L19.9375 23.375L19.8125 20.625C19.5625 21.375 19.125 22.1875 17.9375 22.8125C17.0625 23.3125 8.6875 27.4375 5.6875 28.875C5.5 29 5.25 29.0625 5.125 29.125C5.375 29.25 5.5625 29.1875 5.8125 29.0625Z"
      fill="url(#paint7_linear_7262_87788)" />
    <path
      d="M20.3125 19.5625C20.25 19.625 20.25 19.625 20.25 19.625C20.25 19.625 20.25 19.75 20.375 19.6875C20.4375 19.625 22.25 18.6875 22.875 18.3125L20.6875 3.3125C20.625 2.75 20.375 2.5 19.9375 2.3125L20.1875 19.6875L20.3125 19.5625Z"
      fill="url(#paint8_linear_7262_87788)" />
    <path
      d="M20.3125 19.5625C20.25 19.625 20.25 19.625 20.25 19.625C20.25 19.625 20.25 19.75 20.375 19.6875C20.4375 19.625 22.25 18.6875 22.875 18.3125L20.6875 3.3125C20.625 2.75 20.375 2.5 19.9375 2.3125L20.1875 19.6875L20.3125 19.5625Z"
      fill="url(#paint9_linear_7262_87788)" />
    <path
      d="M3.1875 27.75C2.75 26.75 0.25 21.875 3 12.5H1.9375C1.375 14.375 0.9375 15.5 0.6875 17.1875C0.6875 17.1875 0.5625 17.8125 0.5 18.5C0.4375 19.1875 0.4375 19.5625 0.4375 20C0.4375 23.75 1.375 25.9375 1.375 25.9375C2.375 29.0625 4.125 31.875 6.5 34C8.5625 35.8125 11.75 37.1875 14.375 37.6875C13.9375 37.625 6.4375 34.4375 3.1875 27.75Z"
      fill="url(#paint10_linear_7262_87788)" />
    <path
      d="M20.25 20.3755H19.6875C19.75 20.3755 19.8125 20.3755 19.8125 20.438L19.9375 23.313H20L20.125 20.438C20.125 20.3755 20.1875 20.313 20.25 20.3755Z"
      fill="url(#paint11_linear_7262_87788)" />
    <path
      d="M26.25 1.4375C32.8125 3.9375 39 10.8125 39 19.5C39 30 30.625 38.5625 20 38.5625V39.5625C30.625 39.5625 39.5625 30.8125 39.5625 20C39.5625 11.375 34.0625 4.125 26.25 1.4375Z"
      fill="url(#paint12_linear_7262_87788)" />
    <path
      d="M36.75 12.625C32.375 2.5625 22.5 2 21.9375 1.9375C21.9375 1.9375 21.9375 1.9375 21.875 1.9375C29.4375 3.3125 34.25 8.25 35.9375 13.4375V13.5C36.6875 15.5 37.0625 17.625 37.125 19.9375C37.1875 22.125 36.6875 24.5625 35.75 26.8125C35.6875 27.125 35.625 27.5 35.5625 27.5H36.5625C39.5625 21.875 38.25 16.1875 36.75 12.625Z"
      fill="url(#paint13_linear_7262_87788)" />
    <path
      d="M1.375 20.0625C1.375 9.8125 9.6875 1.375 20 1.375C30.3125 1.375 38.625 9.75 38.625 20.0625C38.625 30.3125 30.3125 38.625 20 38.625C9.6875 38.625 1.375 30.3125 1.375 20.0625ZM7.1875 7.1875C3.875 10.5 1.8125 15.0625 1.8125 20.0625C1.8125 25.0625 3.875 29.625 7.125 32.875C10.4375 36.125 15 38.1875 20 38.1875C25 38.1875 29.5625 36.1875 32.8125 32.875C36.125 29.625 38.125 25.0625 38.125 20.0625C38.125 15.0625 36.0625 10.5 32.8125 7.1875C29.5625 3.875 25 1.8125 20 1.8125C15 1.8125 10.4375 3.875 7.1875 7.1875Z"
      fill="#FBFBFB" />
    <path
      d="M4.9375 28L17.6875 18.8125C18.375 19.1875 19.5 19.6875 19.625 19.6875C19.75 19.75 19.75 19.625 19.75 19.625L18.1875 18.3125C18 18.1875 17.9375 18 17.9375 17.8125L19.4375 2.75C19.375 2.8125 19.375 2.9375 19.3125 3C19.25 3.125 19.25 3.1875 19.25 3.3125L17.0625 18.375L5.0625 27.8125C5 27.875 4.9375 27.9375 4.9375 28Z"
      fill="#333F47" />
  </g>
  <defs>
    <linearGradient id="paint0_linear_7262_87788" x1="5" y1="7.4375" x2="35" y2="32.5625"
      gradientUnits="userSpaceOnUse">
      <stop stop-color="white" />
      <stop offset="0.1" stop-color="#CDD0D0" />
      <stop offset="0.2" stop-color="#A5ACAF" />
      <stop offset="0.3" stop-color="#98A0A4" />
      <stop offset="0.4" stop-color="#828A8F" />
      <stop offset="0.5" stop-color="#667075" />
      <stop offset="0.6" stop-color="#535C63" />
      <stop offset="0.7" stop-color="#475158" />
      <stop offset="0.8" stop-color="#434D54" />
      <stop offset="1" stop-color="#475157" />
    </linearGradient>
    <linearGradient id="paint1_linear_7262_87788" x1="5.9375" y1="8.1875" x2="34.0625" y2="31.8125"
      gradientUnits="userSpaceOnUse">
      <stop stop-color="#0B1F2A" />
      <stop offset="0.2" stop-color="#333F47" />
      <stop offset="0.5" stop-color="#81898D" />
      <stop offset="0.7" stop-color="#B3B8B8" />
      <stop offset="0.8" stop-color="#DEE0DD" />
      <stop offset="1" stop-color="#FBFBFB" />
    </linearGradient>
    <linearGradient id="paint2_linear_7262_87788" x1="26.8579" y1="38.8169" x2="13.1704"
      y2="1.19194" gradientUnits="userSpaceOnUse">
      <stop stop-color="#E1E3E1" />
      <stop offset="0.1" stop-color="#C1C5C4" />
      <stop offset="0.3" stop-color="#9BA1A2" />
      <stop offset="0.5" stop-color="#7D8487" />
      <stop offset="0.7" stop-color="#687074" stop-opacity="0" />
      <stop offset="0.8" stop-color="#5B6469" stop-opacity="0" />
      <stop offset="1" stop-color="#576065" stop-opacity="0" />
    </linearGradient>
    <linearGradient id="paint3_linear_7262_87788" x1="11.375" y1="5.0625" x2="28.625" y2="34.9375"
      gradientUnits="userSpaceOnUse">
      <stop stop-color="#E1E3E1" />
      <stop offset="0.1" stop-color="#C1C5C4" />
      <stop offset="0.3" stop-color="#9BA1A2" />
      <stop offset="0.5" stop-color="#7D8487" />
      <stop offset="0.7" stop-color="#687074" stop-opacity="0" />
      <stop offset="0.8" stop-color="#5B6469" stop-opacity="0" />
      <stop offset="1" stop-color="#576065" stop-opacity="0" />
    </linearGradient>
    <linearGradient id="paint4_linear_7262_87788" x1="27.8125" y1="24.6255" x2="26.75" y2="26.3755"
      gradientUnits="userSpaceOnUse">
      <stop stop-color="#27343C" />
      <stop offset="1" stop-color="#00111E" stop-opacity="0" />
    </linearGradient>
    <linearGradient id="paint5_linear_7262_87788" x1="24.75" y1="18.1875" x2="23" y2="15.375"
      gradientUnits="userSpaceOnUse">
      <stop offset="0.1" stop-color="#02131F" />
      <stop offset="0.9" stop-color="#02131F" stop-opacity="0" />
    </linearGradient>
    <linearGradient id="paint6_linear_7262_87788" x1="20" y1="22.7505" x2="17.375" y2="23.5005"
      gradientUnits="userSpaceOnUse">
      <stop offset="0.2" stop-color="#02131F" />
      <stop offset="0.9" stop-color="#02131F" stop-opacity="0" />
    </linearGradient>
    <linearGradient id="paint7_linear_7262_87788" x1="13" y1="26.1875" x2="12.625" y2="25.25"
      gradientUnits="userSpaceOnUse">
      <stop stop-color="#02131F" />
      <stop offset="0.1" stop-color="#02131F" />
      <stop offset="1" stop-color="#02131F" stop-opacity="0" />
    </linearGradient>
    <linearGradient id="paint8_linear_7262_87788" x1="22.25" y1="10.75" x2="20.125" y2="11"
      gradientUnits="userSpaceOnUse">
      <stop offset="0.3" stop-color="#02131F" />
      <stop offset="0.8" stop-color="#02131F" stop-opacity="0" />
    </linearGradient>
    <linearGradient id="paint9_linear_7262_87788" x1="22.3125" y1="10.6875" x2="20.875" y2="10.875"
      gradientUnits="userSpaceOnUse">
      <stop offset="0.4" stop-color="#27343C" />
      <stop offset="1" stop-color="#3B474E" stop-opacity="0" />
    </linearGradient>
    <linearGradient id="paint10_linear_7262_87788" x1="-0.25" y1="20.5625" x2="17.1875" y2="30.625"
      gradientUnits="userSpaceOnUse">
      <stop stop-color="#25323B" stop-opacity="0" />
      <stop offset="0.1" stop-color="#27343C" />
    </linearGradient>
    <linearGradient id="paint11_linear_7262_87788" x1="20" y1="23.3755" x2="20" y2="20.3755"
      gradientUnits="userSpaceOnUse">
      <stop offset="0.3" stop-color="#A5ABAF" />
      <stop offset="1" stop-color="#A5ABAF" stop-opacity="0" />
    </linearGradient>
    <linearGradient id="paint12_linear_7262_87788" x1="29.8125" y1="1.4375" x2="29.8125"
      y2="39.5625" gradientUnits="userSpaceOnUse">
      <stop stop-color="#6B7378" />
      <stop offset="0.2" stop-color="#333F47" />
      <stop offset="0.5" stop-color="#27343C" />
      <stop offset="0.8" stop-color="#333F47" />
      <stop offset="1" stop-color="#434D54" />
    </linearGradient>
    <linearGradient id="paint13_linear_7262_87788" x1="35.8125" y1="5.0625" x2="27.375" y2="17.4375"
      gradientUnits="userSpaceOnUse">
      <stop offset="0.7" stop-color="#49545B" />
      <stop offset="0.8" stop-color="white" stop-opacity="0" />
    </linearGradient>
    <clipPath id="clip0_7262_87788">
      <rect width="40" height="40" fill="white" />
    </clipPath>
  </defs>
</svg>
  