<svg width="144" height="53" viewBox="0 0 144 53" fill="none" xmlns="http://www.w3.org/2000/svg">
<g id="Clip path group">
<mask id="mask0_3963_22694" style="mask-type:luminance" maskUnits="userSpaceOnUse" x="0" y="0" width="144" height="53">
<g id="clip0">
<path id="Vector" d="M143.529 0H0V52.9081H143.529V0Z" fill="white"/>
</g>
</mask>
<g mask="url(#mask0_3963_22694)">
<g id="Group">
<path id="Vector_2" d="M7.75221 41.9537H0.160467C0.0719333 41.9537 0 41.8839 0 41.7978V11.6852C0 11.5992 0.0719333 11.5293 0.160467 11.5293H7.75497C7.84351 11.5293 7.91544 11.5992 7.91544 11.6852V41.7978C7.91267 41.8839 7.84075 41.9537 7.75221 41.9537Z" fill="black" fill-opacity="0.2"/>
<path id="Vector_3" d="M23.2923 41.796L11.5201 11.7668C11.4814 11.6673 11.5561 11.5625 11.664 11.5625H20.2767C20.3431 11.5625 20.4011 11.6028 20.4233 11.6646L26.9693 29.8231C27.019 29.9602 27.2182 29.9602 27.268 29.8231L33.7863 11.6646C33.8085 11.6028 33.8666 11.5625 33.933 11.5625H42.5732C42.6812 11.5625 42.7559 11.6673 42.7171 11.7668L30.9449 41.796C30.9034 41.8982 30.8039 41.9655 30.6904 41.9655H23.5468C23.4334 41.9655 23.3338 41.8982 23.2923 41.796Z" fill="black" fill-opacity="0.2"/>
<path id="Vector_4" d="M74.2764 26.777C74.2764 29.0137 73.8641 31.0969 73.0397 33.0243C72.2152 34.9544 71.0919 36.621 69.6727 38.0297C68.2532 39.4382 66.5877 40.5458 64.6815 41.3576C62.7725 42.1694 60.7253 42.5725 58.5396 42.5725C56.3732 42.5725 54.3341 42.1666 52.4251 41.3576C50.5161 40.5458 48.8479 39.4382 47.4202 38.0297C45.9899 36.6237 44.8638 34.9544 44.0394 33.0243C43.2149 31.0943 42.8027 29.0137 42.8027 26.777C42.8027 24.5029 43.2149 22.398 44.0394 20.4599C44.8638 18.5218 45.9899 16.8498 47.4202 15.4411C48.8479 14.0352 50.519 12.9304 52.4251 12.1293C54.3341 11.3283 56.3705 10.9277 58.5396 10.9277C60.7253 10.9277 62.7725 11.3041 64.6815 12.0594C66.5905 12.8148 68.2532 13.8874 69.6727 15.2745C71.0919 16.6642 72.2152 18.3309 73.0397 20.277C73.8613 22.2234 74.2764 24.39 74.2764 26.777ZM66.3637 26.777C66.3637 25.5459 66.1561 24.433 65.7439 23.4357C65.3317 22.4383 64.77 21.5809 64.0618 20.8632C63.3508 20.1454 62.5235 19.597 61.5718 19.2126C60.6228 18.8308 59.6102 18.64 58.5367 18.64C57.4632 18.64 56.4507 18.8308 55.5017 19.2126C54.5527 19.5944 53.7282 20.1454 53.0283 20.8632C52.3284 21.5809 51.7777 22.4383 51.3738 23.4357C50.97 24.433 50.7706 25.5459 50.7706 26.777C50.7706 27.933 50.9727 29.0056 51.3738 29.9921C51.7777 30.9813 52.3284 31.8361 53.0283 32.5646C53.7282 33.2905 54.5527 33.8657 55.5017 34.285C56.4507 34.7044 57.4632 34.9141 58.5367 34.9141C59.6102 34.9141 60.6228 34.7178 61.5718 34.3281C62.5208 33.9356 63.3508 33.3872 64.0618 32.6775C64.77 31.9706 65.3317 31.113 65.7439 30.1049C66.1561 29.097 66.3637 27.9894 66.3637 26.777Z" fill="black" fill-opacity="0.2"/>
<path id="Vector_5" d="M131.548 11.5059H123.97C123.879 11.5059 123.804 11.5784 123.804 11.6671V28.0541C123.804 28.8552 123.649 29.6348 123.345 30.3874C123.038 31.1428 122.614 31.8175 122.078 32.4142C121.541 33.011 120.913 33.4894 120.193 33.8552C119.474 34.2181 118.711 34.4008 117.906 34.4008C117.081 34.4008 116.309 34.2718 115.59 34.0083C114.871 33.7475 114.242 33.3524 113.706 32.8202C113.169 32.2879 112.743 31.6266 112.425 30.8363C112.109 30.0433 111.949 29.1159 111.949 28.0541V11.6591C111.949 11.5731 111.877 11.5059 111.791 11.5059H104.282C104.194 11.5059 104.125 11.5757 104.125 11.6591V28.0541C104.125 30.1966 104.484 32.132 105.204 33.8552C105.923 35.5782 106.911 37.0432 108.167 38.2449C109.423 39.4464 110.886 40.3739 112.555 41.027C113.816 41.5191 115.144 41.8254 116.536 41.9465C116.968 41.9976 117.383 42.0379 117.787 42.0701C117.825 42.0647 117.928 42.0835 117.964 42.0781C120.728 42.0781 123.22 40.9411 124.316 40.468C124.772 40.2771 125.03 40.2045 125.719 39.9007C125.957 39.8201 126.211 39.7422 126.264 39.9571C126.305 40.183 125.824 40.5755 125.472 40.8496C123.707 42.234 122.952 42.6077 122.952 42.6077C120.813 43.6642 119.391 44.3685 117.272 44.8389C116.937 44.9141 115.85 45.1453 114.32 45.2259C114.231 45.2314 114.159 45.3012 114.159 45.3873V52.7286C114.159 52.8173 114.234 52.8899 114.325 52.8899L115.974 52.9087C118.141 52.9087 120.174 52.5081 122.075 51.707C123.973 50.906 125.638 49.8146 127.066 48.4356C128.493 47.0566 129.622 45.4437 130.447 43.5997C131.271 41.7555 131.695 39.7797 131.714 37.6723V11.6698C131.714 11.5784 131.639 11.5059 131.548 11.5059Z" fill="black" fill-opacity="0.2"/>
<path id="Vector_6" d="M99.3129 11.5625H92.6923C92.3492 11.5625 92.009 11.5786 91.6713 11.6028C89.2588 11.7318 88.7359 11.8609 86.7632 12.8689C85.1834 13.7238 83.7947 14.9227 83.1529 15.4415C82.7434 15.7641 82.5026 15.9146 81.8912 16.4173C81.6699 16.5678 81.4347 16.7211 81.3046 16.5329C81.1856 16.334 81.5509 15.8098 81.822 15.4388C83.1805 13.5786 83.8362 12.9899 83.8362 12.9899C84.3037 12.5705 84.7325 12.1835 85.1448 11.8259C85.25 11.7345 85.1834 11.5652 85.0424 11.5652H79.0111C78.8395 11.5652 78.7012 11.6996 78.7012 11.8663V41.7289C78.7012 41.8982 78.8422 42.0353 79.0167 42.0353H86.2459C86.4174 42.0353 86.5585 41.9009 86.5614 41.7342L86.7383 24.9549C86.7383 24.1538 86.8906 23.3984 87.1976 22.6914C87.5048 21.9844 87.9253 21.3689 88.4648 20.8474C89.0016 20.3259 89.6351 19.9146 90.3628 19.6161C91.0903 19.3179 91.8677 19.1699 92.6923 19.1699H99.3158C99.4871 19.1699 99.6255 19.0355 99.6255 18.8688V11.8663C99.6255 11.6996 99.4871 11.5625 99.3129 11.5625Z" fill="black" fill-opacity="0.2"/>
<path id="Vector_7" d="M7.89429 0H0.0175781V7.65316H7.89429V0Z" fill="black" fill-opacity="0.2"/>
<path id="Vector_8" d="M139.59 41.9528C141.766 41.9528 143.53 40.239 143.53 38.1249C143.53 36.0108 141.766 34.2969 139.59 34.2969C137.414 34.2969 135.65 36.0108 135.65 38.1249C135.65 40.239 137.414 41.9528 139.59 41.9528Z" fill="black" fill-opacity="0.2"/>
</g>
</g>
</g>
</svg>
