<svg width="129" height="128" viewBox="0 0 129 128" fill="none" xmlns="http://www.w3.org/2000/svg">
<path fill-rule="evenodd" clip-rule="evenodd" d="M125.452 97.5234C127.136 97.5234 128.5 98.8879 128.5 100.571V116.825C128.5 119.789 127.323 122.631 125.227 124.727C123.132 126.822 120.289 128 117.326 128H101.072C99.3884 128 98.0239 126.635 98.0239 124.952C98.0239 123.269 99.3884 121.904 101.072 121.904H117.326C118.673 121.904 119.965 121.369 120.917 120.417C121.87 119.464 122.405 118.172 122.405 116.825V100.571C122.405 98.8879 123.769 97.5234 125.452 97.5234Z" fill="#2575FC"/>
<path fill-rule="evenodd" clip-rule="evenodd" d="M98.0239 3.04762C98.0239 1.36447 99.3884 0 101.072 0H117.326C120.289 0 123.132 1.17732 125.227 3.27297C127.323 5.36861 128.5 8.21091 128.5 11.1746V27.4286C128.5 29.1117 127.136 30.4762 125.452 30.4762C123.769 30.4762 122.405 29.1117 122.405 27.4286V11.1746C122.405 9.82748 121.87 8.53552 120.917 7.58295C119.965 6.63038 118.673 6.09524 117.326 6.09524H101.072C99.3884 6.09524 98.0239 4.73077 98.0239 3.04762Z" fill="#2575FC"/>
<path fill-rule="evenodd" clip-rule="evenodd" d="M11.6746 6.09524C10.3275 6.09524 9.03552 6.63038 8.08295 7.58295C7.13038 8.53552 6.59524 9.82747 6.59524 11.1746V27.4286C6.59524 29.1117 5.23077 30.4762 3.54762 30.4762C1.86447 30.4762 0.5 29.1117 0.5 27.4286V11.1746C0.5 8.21091 1.67732 5.36861 3.77297 3.27297C5.86861 1.17732 8.71091 0 11.6746 0H27.9286C29.6117 0 30.9762 1.36447 30.9762 3.04762C30.9762 4.73077 29.6117 6.09524 27.9286 6.09524H11.6746Z" fill="#2575FC"/>
<path fill-rule="evenodd" clip-rule="evenodd" d="M3.54762 97.5234C5.23077 97.5234 6.59524 98.8879 6.59524 100.571V116.825C6.59524 118.172 7.13038 119.464 8.08295 120.417C9.03552 121.369 10.3275 121.904 11.6746 121.904H27.9286C29.6117 121.904 30.9762 123.269 30.9762 124.952C30.9762 126.635 29.6117 128 27.9286 128H11.6746C8.71091 128 5.86861 126.822 3.77297 124.727C1.67732 122.631 0.5 119.789 0.5 116.825V100.571C0.5 98.8879 1.86447 97.5234 3.54762 97.5234Z" fill="#2575FC"/>
<rect x="34.8877" y="43.9414" width="8.91542" height="17.8308" rx="4.45771" fill="#ADADB4"/>
<rect x="85.1963" y="43.9414" width="8.91542" height="17.8308" rx="4.45771" fill="#ADADB4"/>
<path fill-rule="evenodd" clip-rule="evenodd" d="M43.9484 97.4034C42.5468 96.3414 42.2714 94.3443 43.3333 92.9426C44.3953 91.541 46.3925 91.2656 47.7941 92.3276C54 95 58.6896 95 64.1817 95C69.96 95 76 95 81.1777 91.8524C82.5475 90.7496 84.5519 90.9662 85.6546 92.336C86.7573 93.7058 86.5408 95.7102 85.171 96.8129C79 101 71.4941 101 64.1817 101C57.2155 101 50.5 101 43.9484 97.4034Z" fill="#ADADB4"/>
<path fill-rule="evenodd" clip-rule="evenodd" d="M58.4502 79.6031C56.6917 79.6031 55.2661 78.1775 55.2661 76.419C55.2661 74.6605 56.6917 73.2349 58.4502 73.2349C62.7298 73.2349 63.5447 72.2126 63.5447 66.8668V47.1255C63.5447 45.367 64.9703 43.9414 66.7288 43.9414C68.4873 43.9414 69.9129 45.367 69.9129 47.1255V66.8668C69.9129 75.4528 66.6046 79.6031 58.4502 79.6031Z" fill="#ADADB4"/>
</svg>
