<svg xmlns="http://www.w3.org/2000/svg" width="212" height="169" viewBox="0 0 212 169" fill="none">
  <g clip-path="url(#clip0_1822_83436)">
    <path d="M89.5019 161.906C90.2745 161.954 90.7014 160.994 90.117 160.435L90.0588 160.204C90.0665 160.185 90.0742 160.167 90.0819 160.148C90.8632 158.285 93.511 158.298 94.2856 160.164C94.9731 161.82 95.8484 163.479 96.064 165.229C96.1606 166.002 96.1171 166.79 95.9456 167.548C97.5566 164.029 98.4044 160.186 98.4044 156.322C98.4044 155.351 98.3512 154.38 98.2425 153.412C98.1532 152.619 98.03 151.832 97.8706 151.052C97.0083 146.835 95.1413 142.818 92.4483 139.463C91.1538 138.756 90.0741 137.65 89.422 136.324C89.1878 135.845 89.0042 135.331 88.9172 134.807C89.0646 134.826 89.4728 132.582 89.3616 132.445C89.567 132.133 89.9344 131.978 90.1587 131.674C91.2739 130.162 92.8104 130.426 93.6125 132.481C95.326 133.346 95.3426 134.78 94.2912 136.159C93.6223 137.037 93.5304 138.224 92.9435 139.164C93.0039 139.241 93.0667 139.316 93.127 139.393C94.2343 140.814 95.192 142.34 95.9993 143.944C95.7711 142.162 96.108 140.014 96.6823 138.63C97.336 137.053 98.5613 135.725 99.6404 134.362C100.936 132.724 103.594 133.439 103.823 135.515C103.825 135.535 103.827 135.555 103.829 135.575C103.669 135.665 103.512 135.761 103.358 135.863C102.484 136.441 102.786 137.798 103.822 137.958L103.846 137.961C103.788 138.538 103.689 139.111 103.544 139.674C104.928 145.027 101.94 146.977 97.6725 147.064C97.5783 147.113 97.4866 147.161 97.3924 147.207C97.8247 148.424 98.1701 149.673 98.4261 150.938C98.6555 152.057 98.815 153.187 98.9043 154.322C99.0154 155.754 99.0058 157.194 98.885 158.624L98.8922 158.573C99.199 156.998 100.054 155.527 101.295 154.508C103.145 152.989 105.758 152.429 107.753 151.208C108.713 150.62 109.944 151.38 109.776 152.494L109.768 152.547C109.471 152.668 109.181 152.808 108.901 152.965C108.741 153.055 108.584 153.151 108.43 153.253C107.556 153.831 107.858 155.187 108.894 155.347L108.918 155.351C108.935 155.353 108.949 155.356 108.966 155.358C108.457 156.568 107.747 157.691 106.858 158.66C105.992 163.333 102.275 163.776 98.2981 162.416H98.2957C97.8609 164.309 97.2257 166.159 96.4093 167.922H89.6708C89.6466 167.848 89.6249 167.77 89.6032 167.695C90.2263 167.734 90.8543 167.698 91.4678 167.584C90.9678 166.971 90.4678 166.352 89.9679 165.739C89.9558 165.727 89.9461 165.715 89.9365 165.703C89.6829 165.389 89.4269 165.077 89.1733 164.763L89.1731 164.763C89.1573 163.799 89.273 162.838 89.5019 161.906Z" fill="#F8F9FA"/>
    <path d="M0 168.055C0 168.302 0.198201 168.5 0.445016 168.5H151.253C151.5 168.5 151.698 168.302 151.698 168.055C151.698 167.809 151.5 167.61 151.253 167.61H0.445016C0.198201 167.61 0 167.809 0 168.055Z" fill="#DFE2E6"/>
    <path d="M203.703 168.401H126.465C122.398 168.401 119.089 165.092 119.089 161.025V7.8759C119.089 3.80889 122.398 0.5 126.465 0.5H203.703C207.77 0.5 211.079 3.80889 211.079 7.8759V161.025C211.079 165.092 207.77 168.401 203.703 168.401ZM126.465 1.24789C122.804 1.24789 119.837 4.21527 119.837 7.87571V161.025C119.837 164.685 122.804 167.653 126.465 167.653H203.703C207.364 167.653 210.331 164.685 210.331 161.025V56.8552C210.331 26.1441 185.435 1.24789 154.724 1.24789H126.465Z" fill="#DFE2E6"/>
    <path d="M141.027 76.0811C145.983 76.0811 150.002 72.0631 150.002 67.1065C150.002 62.1499 145.983 58.1318 141.027 58.1318C136.07 58.1318 132.052 62.1499 132.052 67.1065C132.052 72.0631 136.07 76.0811 141.027 76.0811Z" fill="#DFE2E6"/>
    <path d="M189.141 76.0811C194.097 76.0811 198.116 72.0631 198.116 67.1065C198.116 62.1499 194.097 58.1318 189.141 58.1318C184.184 58.1318 180.166 62.1499 180.166 67.1065C180.166 72.0631 184.184 76.0811 189.141 76.0811Z" fill="#DFE2E6"/>
    <path d="M165.084 76.0811C170.041 76.0811 174.059 72.0631 174.059 67.1065C174.059 62.1499 170.041 58.1318 165.084 58.1318C160.127 58.1318 156.109 62.1499 156.109 67.1065C156.109 72.0631 160.127 76.0811 165.084 76.0811Z" fill="#DFE2E6"/>
    <path d="M141.027 101.883C145.983 101.883 150.002 97.8648 150.002 92.9082C150.002 87.9517 145.983 83.9336 141.027 83.9336C136.07 83.9336 132.052 87.9517 132.052 92.9082C132.052 97.8648 136.07 101.883 141.027 101.883Z" fill="#DFE2E6"/>
    <path d="M189.141 101.883C194.098 101.883 198.116 97.8648 198.116 92.9082C198.116 87.9517 194.098 83.9336 189.141 83.9336C184.185 83.9336 180.167 87.9517 180.167 92.9082C180.167 97.8648 184.185 101.883 189.141 101.883Z" fill="#DFE2E6"/>
    <path d="M165.084 101.883C170.041 101.883 174.059 97.8648 174.059 92.9082C174.059 87.9517 170.041 83.9336 165.084 83.9336C160.127 83.9336 156.109 87.9517 156.109 92.9082C156.109 97.8648 160.127 101.883 165.084 101.883Z" fill="#DFE2E6"/>
    <path d="M165.084 127.685C170.041 127.685 174.059 123.667 174.059 118.71C174.059 113.753 170.041 109.735 165.084 109.735C160.127 109.735 156.109 113.753 156.109 118.71C156.109 123.667 160.127 127.685 165.084 127.685Z" fill="#DFE2E6"/>
    <path d="M166.848 10.9707H81.015C78.4699 10.9707 76.4004 13.0402 76.4004 15.5853V47.116C76.4004 49.661 78.4699 51.7306 81.015 51.7306H166.848C169.393 51.7306 171.462 49.661 171.462 47.116V15.5853C171.462 13.0402 169.393 10.9707 166.848 10.9707Z" fill="white"/>
    <path d="M166.848 10.9707H81.015C78.4699 10.9707 76.4004 13.0402 76.4004 15.5853V47.116C76.4004 49.661 78.4699 51.7306 81.015 51.7306H166.848C169.393 51.7306 171.462 49.661 171.462 47.116V15.5853C171.462 13.0402 169.393 10.9707 166.848 10.9707ZM170.977 47.116C170.977 49.3942 169.126 51.2453 166.848 51.2453H81.015C78.7368 51.2453 76.8856 49.3942 76.8856 47.116V15.5853C76.8856 13.3071 78.7368 11.4559 81.015 11.4559H166.848C169.126 11.4559 170.977 13.3071 170.977 15.5853V47.116Z" fill="#313038"/>
    <path d="M97.9732 35.6506C100.245 35.6506 102.087 33.809 102.087 31.5372C102.087 29.2655 100.245 27.4238 97.9732 27.4238C95.7015 27.4238 93.8599 29.2655 93.8599 31.5372C93.8599 33.809 95.7015 35.6506 97.9732 35.6506Z" fill="#2575FC"/>
    <path d="M115.175 35.6506C117.446 35.6506 119.288 33.809 119.288 31.5372C119.288 29.2655 117.446 27.4238 115.175 27.4238C112.903 27.4238 111.061 29.2655 111.061 31.5372C111.061 33.809 112.903 35.6506 115.175 35.6506Z" fill="#2575FC"/>
    <path d="M132.376 35.6506C134.648 35.6506 136.489 33.809 136.489 31.5372C136.489 29.2655 134.648 27.4238 132.376 27.4238C130.104 27.4238 128.263 29.2655 128.263 31.5372C128.263 33.809 130.104 35.6506 132.376 35.6506Z" fill="#2575FC"/>
    <path d="M149.577 35.6506C151.849 35.6506 153.691 33.809 153.691 31.5372C153.691 29.2655 151.849 27.4238 149.577 27.4238C147.306 27.4238 145.464 29.2655 145.464 31.5372C145.464 33.809 147.306 35.6506 149.577 35.6506Z" fill="#2575FC"/>
    <path d="M25.4103 67.9678L24.6458 72.5205L31.4256 89.0129L35.0632 87.1427L31.5227 71.7093L31.0138 65.8193L25.4103 67.9678Z" fill="#A0616A"/>
    <path d="M32.8943 42.3549C32.8943 42.3549 29.3446 40.6354 26.5901 46.4454C23.8357 52.2555 24.1768 64.9984 24.1768 64.9984C24.1768 64.9984 23.1738 65.9534 23.8105 66.6221C24.4472 67.2907 25.0407 68.3519 24.3913 69.5751C24.0489 70.2197 23.2567 71.481 24.5541 71.8392C25.8514 72.1975 31.92 70.505 31.92 70.505C31.92 70.505 34.1892 69.4884 32.8998 68.8038C31.6105 68.1192 33.4264 63.9779 33.4264 63.9779L34.9268 52.0149L32.8943 42.3549Z" fill="#2575FC"/>
    <path d="M35.6814 95.3137C37.1062 94.8762 37.6639 92.5762 36.927 90.1766C36.1901 87.7769 34.4377 86.1863 33.0129 86.6238C31.5881 87.0613 31.0305 89.3613 31.7674 91.761C32.5042 94.1606 34.2566 95.7512 35.6814 95.3137Z" fill="#A0616A"/>
    <path d="M69.2835 165.996L72.6813 165.084L70.7809 151.544L65.7661 152.89L69.2835 165.996Z" fill="#A0616A"/>
    <path d="M80.9043 162.795C81.0579 162.945 81.268 163.505 81.3236 163.712C81.4945 164.349 81.1167 165.004 80.4798 165.175L69.9571 167.998C69.5226 168.115 69.0759 167.857 68.9593 167.423L68.8417 166.985C68.8417 166.985 67.9679 165.808 68.6041 163.897C68.6041 163.897 70.2771 164.811 71.7334 162.286L72.035 161.065L77.1174 163.033L79.5501 162.691C80.0823 162.616 80.5195 162.42 80.9043 162.795Z" fill="#15141E"/>
    <path d="M35.9775 165.918L39.4956 165.917L41.1691 152.348L35.9768 152.348L35.9775 165.918Z" fill="#A0616A"/>
    <path d="M48.0306 165.838C48.1402 166.023 48.198 166.618 48.198 166.833C48.198 167.492 47.6634 168.027 47.0039 168.027H36.109C35.6591 168.027 35.2944 167.662 35.2944 167.212V166.759C35.2944 166.759 34.7555 165.395 35.8651 163.715C35.8651 163.715 37.2442 165.031 39.305 162.97L39.9127 161.869L44.3116 165.086L46.7499 165.386C47.2833 165.452 47.7562 165.376 48.0306 165.838Z" fill="#15141E"/>
    <path d="M59.3906 85.0879L68.6415 124.962L73.1075 157.181L66.0896 158.138L46.6308 103.271L42.1649 158.138L34.19 158.776C34.19 158.776 27.8101 93.7008 30.681 85.7259L59.3906 85.0879Z" fill="#15141E"/>
    <path d="M70.4021 37.9368L73.5939 34.6016L77.2594 17.1509L73.1997 16.6523L67.4507 31.4062L64.5601 36.5632L70.4021 37.9368Z" fill="#A0616A"/>
    <path d="M49.813 54.9099C49.813 54.9099 52.8002 60.4179 58.3446 57.1617C63.889 53.9054 69.7529 41.0852 69.7529 41.0852C69.7529 41.0852 70.9238 37.8262 72.1486 37.1798C72.7941 36.8391 74.4551 36.4717 73.5837 35.446C72.7123 34.4203 66.4452 32.178 66.4452 32.178C66.4452 32.178 63.9971 31.7428 64.6784 33.0339C65.3598 34.325 63.122 33.5252 63.3479 34.8916C63.5738 36.258 61.5298 36.7288 61.5298 36.7288L49.813 54.9099Z" fill="#2575FC"/>
    <path d="M78.5218 14.6857C79.2615 12.2869 78.7066 9.98623 77.2824 9.54702C75.8581 9.1078 74.1038 10.6963 73.3641 13.0951C72.6243 15.4939 73.1793 17.7945 74.6035 18.2338C76.0278 18.673 77.7821 17.0844 78.5218 14.6857Z" fill="#A0616A"/>
    <path d="M50.2096 35.8271H41.4756L41.1222 38.5809C41.1222 38.5809 30.1071 41.61 30.3825 43.2623C30.6579 44.9145 32.3101 72.4521 32.3101 72.4521L30.9333 86.2209C30.9333 86.2209 55.7171 96.6852 59.5723 84.2933L57.6447 69.9737C57.6447 69.9737 62.3261 45.4653 61.2246 44.3638C60.1231 43.2623 51.0357 38.8563 51.0357 38.8563L50.2096 35.8271Z" fill="#2575FC"/>
    <path d="M45.1362 35.8613C49.4658 35.8613 52.9756 32.3515 52.9756 28.022C52.9756 23.6924 49.4658 20.1826 45.1362 20.1826C40.8067 20.1826 37.2969 23.6924 37.2969 28.022C37.2969 32.3515 40.8067 35.8613 45.1362 35.8613Z" fill="#A0616A"/>
    <path d="M50.9421 24.7978C51.9437 24.7132 52.9453 24.6285 53.9469 24.5438C53.6027 24.3859 53.2441 24.2169 53.0147 23.9154C52.7853 23.614 52.7379 23.1378 53.015 22.8795C53.3388 22.5777 53.875 22.7376 54.229 23.0035C54.0341 21.986 53.4268 21.0537 52.5748 20.4644C51.5341 19.7444 48.9595 20.6029 47.7049 20.4376C46.2572 20.2469 46.0765 19.0127 44.6289 18.822C44.0833 18.7501 43.4692 18.6959 43.0402 19.0406C42.5643 19.4229 42.5109 20.1457 42.091 20.5887C41.4916 21.2213 40.4641 21.0347 39.611 21.2127C38.4027 21.4649 37.4918 22.5244 37.0711 23.6848C36.6504 24.8453 36.6349 26.1075 36.6242 27.3418C36.6122 28.7251 36.6078 30.3266 37.6084 31.282C38.2179 31.8641 39.8783 33.8611 40.0577 34.6847C40.1852 35.2695 45.3804 35.9818 46.5064 35.9494L50.3441 34.6847C50.7213 33.0238 50.0974 29.7384 49.2006 28.2904C49.496 28.6805 50.8616 29.8547 51.0704 29.4123C51.2791 28.9698 51.1844 27.5831 51.4443 27.1686C51.7724 26.6455 50.3269 24.8498 50.9421 24.7978Z" fill="#15141E"/>
  </g>
  <defs>
    <clipPath id="clip0_1822_83436">
      <rect width="211.079" height="168" fill="white" transform="translate(0 0.5)"/>
    </clipPath>
  </defs>
</svg>