<svg width="212" height="169" viewBox="0 0 212 169" fill="none" xmlns="http://www.w3.org/2000/svg">
<g clip-path="url(#clip0_490_73168)">
<path d="M89.5017 161.906C90.2742 161.954 90.7012 160.994 90.1167 160.435L90.0586 160.204C90.0662 160.185 90.0739 160.167 90.0817 160.148C90.8629 158.285 93.5107 158.298 94.2853 160.164C94.9729 161.82 95.8482 163.479 96.0637 165.229C96.1603 166.002 96.1169 166.79 95.9454 167.548C97.5564 164.029 98.4041 160.186 98.4041 156.322C98.4041 155.351 98.351 154.38 98.2423 153.412C98.1529 152.619 98.0297 151.832 97.8703 151.052C97.0081 146.835 95.1411 142.818 92.4481 139.463C91.1535 138.756 90.0739 137.65 89.4218 136.324C89.1875 135.845 89.0039 135.331 88.917 134.807C89.0643 134.826 89.4725 132.582 89.3614 132.445C89.5667 132.133 89.9342 131.978 90.1584 131.674C91.2737 130.162 92.8101 130.426 93.6123 132.481C95.3258 133.346 95.3423 134.78 94.2909 136.159C93.622 137.037 93.5301 138.224 92.9432 139.164C93.0036 139.241 93.0664 139.316 93.1268 139.393C94.2341 140.814 95.1917 142.34 95.9991 143.944C95.7709 142.162 96.1078 140.014 96.682 138.63C97.3358 137.053 98.5611 135.725 99.6401 134.362C100.936 132.724 103.594 133.439 103.822 135.515C103.825 135.535 103.827 135.555 103.829 135.575C103.669 135.665 103.511 135.761 103.358 135.863C102.483 136.441 102.786 137.798 103.822 137.958L103.846 137.961C103.788 138.538 103.689 139.111 103.544 139.674C104.928 145.027 101.94 146.977 97.6723 147.064C97.5781 147.113 97.4863 147.161 97.3921 147.207C97.8245 148.424 98.1699 149.673 98.4259 150.938C98.6553 152.057 98.8147 153.187 98.9041 154.322C99.0152 155.754 99.0055 157.194 98.8847 158.624L98.892 158.573C99.1987 156.998 100.054 155.527 101.295 154.508C103.145 152.989 105.757 152.429 107.753 151.208C108.713 150.62 109.944 151.38 109.776 152.494L109.768 152.547C109.471 152.668 109.181 152.808 108.901 152.965C108.741 153.055 108.584 153.151 108.43 153.253C107.555 153.831 107.858 155.187 108.894 155.347L108.918 155.351C108.935 155.353 108.949 155.356 108.966 155.358C108.456 156.568 107.746 157.691 106.858 158.66C105.992 163.333 102.274 163.776 98.2978 162.416H98.2954C97.8607 164.309 97.2255 166.159 96.4091 167.922H89.6706C89.6464 167.848 89.6247 167.77 89.6029 167.695C90.2261 167.734 90.854 167.698 91.4675 167.584C90.9675 166.971 90.4676 166.352 89.9676 165.739C89.9556 165.727 89.9459 165.715 89.9362 165.703C89.6826 165.389 89.4266 165.077 89.173 164.763L89.1729 164.763C89.157 163.799 89.2728 162.838 89.5017 161.906Z" fill="#F8F9FA"/>
<path d="M0 168.055C0 168.302 0.198201 168.5 0.445016 168.5H151.253C151.5 168.5 151.698 168.302 151.698 168.055C151.698 167.809 151.5 167.61 151.253 167.61H0.445016C0.198201 167.61 0 167.809 0 168.055Z" fill="#DFE2E6"/>
<path d="M203.703 168.401H126.465C122.398 168.401 119.089 165.092 119.089 161.025V7.8759C119.089 3.80889 122.398 0.5 126.465 0.5H203.703C207.77 0.5 211.079 3.80889 211.079 7.8759V161.025C211.079 165.092 207.77 168.401 203.703 168.401ZM126.465 1.24789C122.804 1.24789 119.837 4.21527 119.837 7.87571V161.025C119.837 164.685 122.804 167.653 126.465 167.653H203.703C207.364 167.653 210.331 164.685 210.331 161.025V56.8552C210.331 26.1441 185.435 1.24789 154.724 1.24789H126.465Z" fill="#DFE2E6"/>
<path d="M141.027 76.0811C145.983 76.0811 150.002 72.0631 150.002 67.1065C150.002 62.1499 145.983 58.1318 141.027 58.1318C136.07 58.1318 132.052 62.1499 132.052 67.1065C132.052 72.0631 136.07 76.0811 141.027 76.0811Z" fill="#DFE2E6"/>
<path d="M189.141 76.0811C194.098 76.0811 198.116 72.0631 198.116 67.1065C198.116 62.1499 194.098 58.1318 189.141 58.1318C184.185 58.1318 180.167 62.1499 180.167 67.1065C180.167 72.0631 184.185 76.0811 189.141 76.0811Z" fill="#DFE2E6"/>
<path d="M165.084 76.0811C170.041 76.0811 174.059 72.0631 174.059 67.1065C174.059 62.1499 170.041 58.1318 165.084 58.1318C160.127 58.1318 156.109 62.1499 156.109 67.1065C156.109 72.0631 160.127 76.0811 165.084 76.0811Z" fill="#DFE2E6"/>
<path d="M141.027 101.883C145.983 101.883 150.002 97.8648 150.002 92.9082C150.002 87.9517 145.983 83.9336 141.027 83.9336C136.07 83.9336 132.052 87.9517 132.052 92.9082C132.052 97.8648 136.07 101.883 141.027 101.883Z" fill="#DFE2E6"/>
<path d="M189.141 101.883C194.098 101.883 198.116 97.8648 198.116 92.9082C198.116 87.9517 194.098 83.9336 189.141 83.9336C184.185 83.9336 180.167 87.9517 180.167 92.9082C180.167 97.8648 184.185 101.883 189.141 101.883Z" fill="#DFE2E6"/>
<path d="M165.084 101.883C170.041 101.883 174.059 97.8648 174.059 92.9082C174.059 87.9517 170.041 83.9336 165.084 83.9336C160.127 83.9336 156.109 87.9517 156.109 92.9082C156.109 97.8648 160.127 101.883 165.084 101.883Z" fill="#DFE2E6"/>
<path d="M165.084 127.685C170.041 127.685 174.059 123.667 174.059 118.71C174.059 113.753 170.041 109.735 165.084 109.735C160.127 109.735 156.109 113.753 156.109 118.71C156.109 123.667 160.127 127.685 165.084 127.685Z" fill="#DFE2E6"/>
<path d="M166.848 10.9707H81.015C78.4699 10.9707 76.4004 13.0402 76.4004 15.5853V47.116C76.4004 49.661 78.4699 51.7306 81.015 51.7306H166.848C169.393 51.7306 171.462 49.661 171.462 47.116V15.5853C171.462 13.0402 169.393 10.9707 166.848 10.9707Z" fill="white"/>
<path d="M166.848 10.9707H81.015C78.4699 10.9707 76.4004 13.0402 76.4004 15.5853V47.116C76.4004 49.661 78.4699 51.7306 81.015 51.7306H166.848C169.393 51.7306 171.462 49.661 171.462 47.116V15.5853C171.462 13.0402 169.393 10.9707 166.848 10.9707ZM170.977 47.116C170.977 49.3942 169.126 51.2453 166.848 51.2453H81.015C78.7368 51.2453 76.8856 49.3942 76.8856 47.116V15.5853C76.8856 13.3071 78.7368 11.4559 81.015 11.4559H166.848C169.126 11.4559 170.977 13.3071 170.977 15.5853V47.116Z" fill="#313038"/>
<path d="M97.9732 35.6506C100.245 35.6506 102.087 33.809 102.087 31.5372C102.087 29.2655 100.245 27.4238 97.9732 27.4238C95.7015 27.4238 93.8599 29.2655 93.8599 31.5372C93.8599 33.809 95.7015 35.6506 97.9732 35.6506Z" fill="#CC0000"/>
<path d="M115.175 35.6506C117.447 35.6506 119.288 33.809 119.288 31.5372C119.288 29.2655 117.447 27.4238 115.175 27.4238C112.903 27.4238 111.062 29.2655 111.062 31.5372C111.062 33.809 112.903 35.6506 115.175 35.6506Z" fill="#CC0000"/>
<path d="M132.376 35.6506C134.648 35.6506 136.489 33.809 136.489 31.5372C136.489 29.2655 134.648 27.4238 132.376 27.4238C130.104 27.4238 128.263 29.2655 128.263 31.5372C128.263 33.809 130.104 35.6506 132.376 35.6506Z" fill="#CC0000"/>
<path d="M149.578 35.6506C151.849 35.6506 153.691 33.809 153.691 31.5372C153.691 29.2655 151.849 27.4238 149.578 27.4238C147.306 27.4238 145.464 29.2655 145.464 31.5372C145.464 33.809 147.306 35.6506 149.578 35.6506Z" fill="#CC0000"/>
<path d="M25.4105 67.9678L24.646 72.5205L31.4258 89.0129L35.0634 87.1427L31.5229 71.7093L31.0141 65.8193L25.4105 67.9678Z" fill="#A0616A"/>
<path d="M32.8945 42.3549C32.8945 42.3549 29.3448 40.6354 26.5904 46.4454C23.8359 52.2555 24.177 64.9984 24.177 64.9984C24.177 64.9984 23.1741 65.9534 23.8107 66.6221C24.4474 67.2907 25.041 68.3519 24.3915 69.5751C24.0492 70.2197 23.257 71.481 24.5543 71.8392C25.8516 72.1975 31.9202 70.505 31.9202 70.505C31.9202 70.505 34.1894 69.4884 32.9001 68.8038C31.6107 68.1192 33.4266 63.9779 33.4266 63.9779L34.9271 52.0149L32.8945 42.3549Z" fill="#CC0000"/>
<path d="M35.6819 95.3137C37.1067 94.8762 37.6644 92.5762 36.9275 90.1766C36.1906 87.7769 34.4382 86.1863 33.0134 86.6238C31.5886 87.0613 31.031 89.3613 31.7678 91.761C32.5047 94.1606 34.2571 95.7512 35.6819 95.3137Z" fill="#A0616A"/>
<path d="M69.2835 165.996L72.6813 165.084L70.7809 151.544L65.7661 152.89L69.2835 165.996Z" fill="#A0616A"/>
<path d="M80.9043 162.795C81.0579 162.945 81.268 163.505 81.3236 163.712C81.4945 164.349 81.1167 165.004 80.4798 165.175L69.9571 167.998C69.5226 168.115 69.0759 167.857 68.9593 167.423L68.8417 166.985C68.8417 166.985 67.9679 165.808 68.6041 163.897C68.6041 163.897 70.2771 164.811 71.7334 162.286L72.035 161.065L77.1174 163.033L79.5501 162.691C80.0823 162.616 80.5195 162.42 80.9043 162.795Z" fill="#15141E"/>
<path d="M35.9778 165.918L39.4958 165.917L41.1693 152.348L35.9771 152.348L35.9778 165.918Z" fill="#A0616A"/>
<path d="M48.0311 165.838C48.1407 166.023 48.1985 166.618 48.1985 166.833C48.1985 167.492 47.6639 168.027 47.0044 168.027H36.1095C35.6596 168.027 35.2949 167.662 35.2949 167.212V166.759C35.2949 166.759 34.756 165.395 35.8656 163.715C35.8656 163.715 37.2447 165.031 39.3055 162.97L39.9132 161.869L44.3121 165.086L46.7503 165.386C47.2838 165.452 47.7567 165.376 48.0311 165.838Z" fill="#15141E"/>
<path d="M59.3911 85.0879L68.642 124.962L73.1079 157.181L66.09 158.138L46.6313 103.271L42.1654 158.138L34.1905 158.776C34.1905 158.776 27.8106 93.7008 30.6815 85.7259L59.3911 85.0879Z" fill="#15141E"/>
<path d="M70.4026 37.9368L73.5944 34.6016L77.2598 17.1509L73.2002 16.6523L67.4512 31.4062L64.5605 36.5632L70.4026 37.9368Z" fill="#A0616A"/>
<path d="M49.8135 54.9099C49.8135 54.9099 52.8007 60.4179 58.3451 57.1617C63.8895 53.9054 69.7534 41.0852 69.7534 41.0852C69.7534 41.0852 70.9243 37.8262 72.1491 37.1798C72.7946 36.8391 74.4556 36.4717 73.5842 35.446C72.7127 34.4203 66.4457 32.178 66.4457 32.178C66.4457 32.178 63.9976 31.7428 64.6789 33.0339C65.3603 34.325 63.1225 33.5252 63.3484 34.8916C63.5743 36.258 61.5303 36.7288 61.5303 36.7288L49.8135 54.9099Z" fill="#CC0000"/>
<path d="M78.5221 14.6857C79.2618 12.2869 78.7069 9.98623 77.2826 9.54702C75.8583 9.1078 74.104 10.6963 73.3643 13.0951C72.6246 15.4939 73.1795 17.7945 74.6038 18.2338C76.028 18.673 77.7823 17.0844 78.5221 14.6857Z" fill="#A0616A"/>
<path d="M50.2101 35.8271H41.4761L41.1227 38.5809C41.1227 38.5809 30.1076 41.61 30.383 43.2623C30.6584 44.9145 32.3106 72.4521 32.3106 72.4521L30.9338 86.2209C30.9338 86.2209 55.7176 96.6852 59.5728 84.2933L57.6452 69.9737C57.6452 69.9737 62.3266 45.4653 61.2251 44.3638C60.1236 43.2623 51.0362 38.8563 51.0362 38.8563L50.2101 35.8271Z" fill="#CC0000"/>
<path d="M45.1367 35.8613C49.4663 35.8613 52.9761 32.3515 52.9761 28.022C52.9761 23.6924 49.4663 20.1826 45.1367 20.1826C40.8072 20.1826 37.2974 23.6924 37.2974 28.022C37.2974 32.3515 40.8072 35.8613 45.1367 35.8613Z" fill="#A0616A"/>
<path d="M50.9423 24.7978C51.944 24.7132 52.9456 24.6285 53.9472 24.5438C53.6029 24.3859 53.2443 24.2169 53.0149 23.9154C52.7856 23.614 52.7381 23.1378 53.0152 22.8795C53.339 22.5777 53.8753 22.7376 54.2292 23.0035C54.0343 21.986 53.4271 21.0537 52.5751 20.4644C51.5344 19.7444 48.9597 20.6029 47.7051 20.4376C46.2575 20.2469 46.0768 19.0127 44.6291 18.822C44.0835 18.7501 43.4695 18.6959 43.0404 19.0406C42.5645 19.4229 42.5111 20.1457 42.0913 20.5887C41.4918 21.2213 40.4644 21.0347 39.6112 21.2127C38.4029 21.4649 37.4921 22.5244 37.0714 23.6848C36.6507 24.8453 36.6352 26.1075 36.6244 27.3418C36.6124 28.7251 36.6081 30.3266 37.6086 31.282C38.2181 31.8641 39.8785 33.8611 40.058 34.6847C40.1855 35.2695 45.3806 35.9818 46.5066 35.9494L50.3444 34.6847C50.7215 33.0238 50.0976 29.7384 49.2009 28.2904C49.4962 28.6805 50.8618 29.8547 51.0706 29.4123C51.2794 28.9698 51.1847 27.5831 51.4445 27.1686C51.7726 26.6455 50.3271 24.8498 50.9423 24.7978Z" fill="#15141E"/>
</g>
<defs>
<clipPath id="clip0_490_73168">
<rect width="211.079" height="168" fill="white" transform="translate(0 0.5)"/>
</clipPath>
</defs>
</svg>
