<svg width="243" height="279" viewBox="0 0 243 279" fill="none" xmlns="http://www.w3.org/2000/svg">
  <path
    d="M156.619 206.306C157.162 206.601 157.781 206.719 158.392 206.644C159.003 206.57 159.577 206.306 160.036 205.889C160.495 205.472 160.816 204.922 160.957 204.314C161.097 203.705 161.05 203.067 160.822 202.487C160.883 202.178 160.927 201.956 160.988 201.647C162.163 200.533 163.638 199.802 165.224 199.545C166.811 199.289 168.437 199.519 169.894 200.208C171.35 200.896 172.571 202.01 173.4 203.408C174.229 204.806 174.629 206.423 174.547 208.052C174.175 217.243 174.622 227.16 168.608 234.569C196.057 211.787 208.573 172.977 200.19 138.071C196.077 132.249 194.158 124.516 196.003 117.508C198.318 119.794 202.83 119.18 202.14 115.222C201.77 113.657 201.388 112.098 201.018 110.533C216.828 104.267 220.955 128.144 202.228 137.865C203.747 144.501 204.579 151.281 204.71 158.093C206.824 151.95 210.344 146.405 214.98 141.914C219.468 137.81 225.403 135.396 230.924 132.643C237.642 129.283 245.098 135.943 242.453 143.054C237.981 142.473 234.816 147.902 238.875 150.82C231.747 162.979 218.079 170.707 204.192 170.83C202.788 184.704 198.488 198.114 191.579 210.168C200.451 196.467 217.619 200.411 231.186 199.828C232.086 199.712 233 199.866 233.816 200.269C234.632 200.672 235.315 201.308 235.781 202.098C236.247 202.889 236.477 203.8 236.442 204.721C236.407 205.642 236.109 206.532 235.584 207.284C233.799 207.178 232.008 207.252 230.238 207.505C229.405 207.63 228.631 208.014 228.021 208.604C227.412 209.193 226.997 209.96 226.833 210.799C226.67 211.638 226.765 212.507 227.107 213.289C227.449 214.07 228.021 214.724 228.744 215.163C216.842 226.245 198.4 228.627 183.925 221.555C179.646 227.03 174.818 232.039 169.519 236.5L148 226.082C148.037 225.801 148.085 225.517 148.13 225.241C150.062 226.332 152.118 227.179 154.253 227.763C151.957 218.875 149.399 213.668 156.618 206.306H156.619Z"
    fill="#F2F2F2" />
  <path
    d="M118.609 185.252C118.214 185.733 117.683 186.08 117.086 186.245C116.49 186.41 115.858 186.386 115.276 186.176C114.694 185.965 114.19 185.578 113.832 185.068C113.475 184.558 113.28 183.949 113.276 183.323C113.104 183.06 112.98 182.871 112.808 182.608C111.301 182.027 109.656 181.914 108.085 182.285C106.514 182.655 105.088 183.492 103.99 184.689C102.892 185.885 102.172 187.387 101.922 189C101.672 190.614 101.904 192.266 102.588 193.745C106.361 202.122 109.644 211.485 118 216.047C83.9759 205.455 57.8627 174.279 52.6408 138.708C54.2951 131.735 53.1955 123.831 48.8665 118.042C47.5666 121.049 43.1411 122.21 42.3062 118.276C42.0668 116.684 41.8412 115.092 41.6017 113.5C24.5618 113.754 29.6273 137.469 50.6692 139.299C51.7312 146.033 53.4857 152.636 55.9041 159.001C51.6472 154.118 46.306 150.328 40.3199 147.942C34.6152 145.859 28.1959 145.897 22.0343 145.462C14.5334 144.924 10.083 153.957 15.1948 159.533C19.1372 157.28 24.1051 161.099 21.4188 165.36C32.5825 173.897 48.1757 175.82 61.1362 170.609C67.6163 182.931 76.6162 193.713 87.5362 202.237C74.1765 192.939 59.6815 203.178 46.846 207.84C45.9658 208.078 45.1732 208.57 44.5648 209.257C43.9564 209.944 43.5585 210.795 43.4197 211.706C43.2809 212.618 43.4072 213.55 43.7831 214.391C44.159 215.231 44.7683 215.942 45.5367 216.438C47.157 215.655 48.85 215.037 50.591 214.592C51.4121 214.389 52.2753 214.448 53.0621 214.761C53.8489 215.074 54.5208 215.626 54.9857 216.34C55.4507 217.055 55.6859 217.898 55.6592 218.753C55.6324 219.609 55.345 220.435 54.8363 221.118C70.0378 226.827 88.0775 221.963 98.9015 209.858C104.923 213.292 111.281 216.083 117.873 218.187L134 200.278C133.861 200.032 133.71 199.787 133.566 199.548C132.176 201.3 130.579 202.874 128.812 204.234C127.632 195.115 128.069 189.308 118.61 185.252L118.609 185.252Z"
    fill="#F2F2F2" />
  <path
    d="M122.219 110.22C122.838 110.157 123.423 109.905 123.894 109.497C124.365 109.089 124.7 108.546 124.854 107.941C125.007 107.335 124.972 106.697 124.752 106.113C124.533 105.528 124.14 105.026 123.626 104.673C123.506 104.383 123.42 104.174 123.3 103.883C123.667 102.295 124.499 100.853 125.687 99.7427C126.876 98.6323 128.368 97.9037 129.971 97.6503C131.575 97.3969 133.217 97.6303 134.688 98.3205C136.159 99.0107 137.391 100.126 138.226 101.524C143.012 109.358 148.887 117.331 147.952 126.879C158.34 92.4507 147.312 53.1771 120.918 28.9666C114.239 26.4654 108.34 21.1364 106 14.2798C109.21 14.8667 112.654 11.804 109.88 8.91086C108.702 7.82258 107.516 6.74551 106.338 5.65717C116.124 -8.48592 132.83 8.98302 122.513 27.643C127.469 32.288 131.927 37.4406 135.816 43.0167C134.182 36.7255 134.059 30.1347 135.456 23.7863C136.944 17.8423 140.583 12.4824 143.687 7.07427C147.459 0.486129 157.408 1.79186 159.133 9.18645C155.059 11.2349 155.416 17.5291 160.439 17.6528C161.204 31.7716 154.026 45.9156 142.446 53.875C148.963 66.1776 152.795 79.7342 153.686 93.6412C153.528 77.2571 170.117 70.815 181.174 62.6539C181.865 62.0489 182.716 61.659 183.624 61.5318C184.532 61.4046 185.457 61.5455 186.287 61.9374C187.117 62.3293 187.815 62.9552 188.296 63.7388C188.778 64.5224 189.022 65.4298 188.998 66.3503C187.442 67.272 185.981 68.3466 184.637 69.5584C184.008 70.1336 183.571 70.89 183.387 71.7241C183.203 72.5582 183.28 73.429 183.608 74.2173C183.936 75.0055 184.499 75.6727 185.219 76.1271C185.939 76.5816 186.782 76.8012 187.631 76.7559C183.795 92.6824 169.646 105.093 153.583 107.418C153.03 114.381 151.758 121.267 149.788 127.966L125.958 131.5C125.834 131.247 125.717 130.984 125.601 130.729C127.827 130.541 130.022 130.08 132.136 129.357C125.28 123.283 120.247 120.412 122.219 110.22L122.219 110.22Z"
    fill="#F2F2F2" />
  <path
    d="M146.595 102.5C135.805 102.5 129.952 101.181 127.908 98.3655C126.105 95.8814 127.314 92.6037 128.714 88.8086C129.72 86.0807 130.86 82.9891 130.86 79.9291C130.86 65.0464 138.404 57.5 153.283 57.5C160.685 57.5 168.633 61.4336 174.544 68.0225C179.918 74.0124 182.595 81.1814 181.889 87.691C181.31 93.0297 178.825 96.5405 174.071 98.7404L173.793 98.8691L173.714 98.573C173.303 97.0407 172.608 95.5994 171.665 94.324C171.573 96.326 171.069 98.2874 170.183 100.085L170.133 100.188L170.023 100.219C164.642 101.752 158.255 102.168 153.292 102.358C150.877 102.452 148.645 102.499 146.595 102.5Z"
    fill="#071034" />
  <path
    d="M149.57 122.902C149.156 121.664 148.459 120.544 147.535 119.636C146.611 118.728 145.488 118.057 144.259 117.679C143.03 117.301 141.73 117.227 140.467 117.463C139.204 117.699 138.014 118.238 136.997 119.036L101.506 140.642L90.3997 113.05C91.3379 111.649 91.8161 109.981 91.7657 108.286C91.7154 106.59 91.139 104.955 90.1194 103.614C89.0997 102.273 87.6891 101.295 86.0899 100.82C84.4907 100.346 82.785 100.4 81.2175 100.973C79.65 101.547 78.3012 102.611 77.3646 104.014C76.428 105.416 75.9516 107.085 76.0039 108.78C76.0561 110.475 76.6343 112.11 77.6554 113.45C78.6766 114.79 80.0882 115.766 81.688 116.239C82.3725 124.195 86.1766 159.758 99.4106 158.466C110.534 157.379 138.159 138.646 146.739 132.151C148.112 131.113 149.126 129.658 149.634 127.996C150.143 126.334 150.12 124.55 149.57 122.902Z"
    fill="#FFB6B6" />
  <path
    d="M176 278.5H145.317L140.171 252.472L138.502 278.5H110C110.011 258.06 111.052 237.634 113.118 217.303L113.471 216.072L114.029 214.103L114.383 212.867L120.281 192.145L120.747 190.5H156.263C158.307 192.464 160.192 194.594 161.9 196.87C162.478 197.624 163.083 198.441 163.702 199.321C164.132 199.944 164.578 200.599 165.023 201.285C168.98 207.313 171.939 213.967 173.778 220.98V220.986C174.09 222.185 174.367 223.413 174.607 224.668V224.673C174.822 225.789 175.012 226.92 175.16 228.078C175.273 228.921 175.37 229.775 175.442 230.64C175.869 235.428 175.719 240.251 174.996 245.002L176 278.5Z"
    fill="#071034" />
  <path
    d="M27.4191 48.2501C29.4205 47.4696 30.606 45.6999 30.0671 44.2972C29.5281 42.8946 27.4688 42.3903 25.4675 43.1708C23.4661 43.9513 22.2806 45.721 22.8196 47.1237C23.3585 48.5263 25.4178 49.0306 27.4191 48.2501Z"
    fill="#E6E6E6" />
  <path
    d="M52.6145 44.9923C54.6158 44.2118 55.8013 42.442 55.2624 41.0394C54.7235 39.6368 52.6641 39.1325 50.6628 39.913C48.6615 40.6935 47.476 42.4632 48.0149 43.8658C48.5538 45.2685 50.6131 45.7728 52.6145 44.9923Z"
    fill="#071034" />
  <path
    d="M25.2317 69.9083C27.233 69.1278 28.4185 67.3581 27.8796 65.9554C27.3407 64.5528 25.2813 64.0485 23.28 64.829C21.2787 65.6095 20.0931 67.3792 20.6321 68.7819C21.171 70.1845 23.2303 70.6888 25.2317 69.9083Z"
    fill="#2575FC" />
  <path
    d="M17.9422 79.4628C18.8603 79.2438 19.3514 77.9884 19.039 76.6587C18.7266 75.329 17.729 74.4286 16.8109 74.6475C15.8927 74.8665 15.4017 76.1219 15.7141 77.4516C16.0265 78.7812 17.024 79.6817 17.9422 79.4628Z"
    fill="#E6E6E6" />
  <path
    d="M17.7937 95.6376C18.7119 95.4186 19.2029 94.1632 18.8906 92.8335C18.5782 91.5038 17.5806 90.6034 16.6625 90.8223C15.7443 91.0413 15.2532 92.2967 15.5656 93.6264C15.878 94.9561 16.8756 95.8565 17.7937 95.6376Z"
    fill="#071034" />
  <path
    d="M39.9109 62.1346C40.8291 61.9157 41.3201 60.6603 41.0077 59.3306C40.6953 58.0009 39.6978 57.1005 38.7796 57.3194C37.8615 57.5383 37.3704 58.7937 37.6828 60.1234C37.9952 61.4531 38.9928 62.3536 39.9109 62.1346Z"
    fill="#E6E6E6" />
  <path
    d="M26.6375 58.8876C27.5556 58.6686 28.0467 57.4132 27.7343 56.0835C27.4219 54.7538 26.4244 53.8534 25.5062 54.0723C24.5881 54.2913 24.097 55.5467 24.4094 56.8764C24.7218 58.2061 25.7193 59.1065 26.6375 58.8876Z"
    fill="#2575FC" />
  <path
    d="M40.7078 43.994C41.626 43.7751 42.117 42.5196 41.8046 41.19C41.4922 39.8603 40.4947 38.9598 39.5765 39.1788C38.6584 39.3977 38.1673 40.6531 38.4797 41.9828C38.7921 43.3125 39.7897 44.2129 40.7078 43.994Z"
    fill="#071034" />
  <path
    d="M46.5099 152.422C47.4776 151.277 46.9373 149.212 45.3031 147.811C43.6689 146.409 41.5597 146.202 40.592 147.347C39.6243 148.492 40.1646 150.557 41.7988 151.958C43.433 153.36 45.5422 153.567 46.5099 152.422Z"
    fill="#E6E6E6" />
  <path
    d="M31.6701 131.649C32.6377 130.503 32.0974 128.439 30.4632 127.037C28.829 125.636 26.7198 125.428 25.7521 126.574C24.7845 127.719 25.3248 129.784 26.959 131.185C28.5932 132.586 30.7024 132.794 31.6701 131.649Z"
    fill="#071034" />
  <path
    d="M66.4552 144.045C67.4229 142.9 66.8826 140.835 65.2484 139.434C63.6142 138.032 61.505 137.825 60.5373 138.97C59.5696 140.115 60.1099 142.18 61.7441 143.581C63.3783 144.983 65.4876 145.19 66.4552 144.045Z"
    fill="#2575FC" />
  <path
    d="M76.3652 144.274C77.377 143.364 77.688 142.052 77.0597 141.343C76.4315 140.633 75.1019 140.796 74.09 141.706C73.0781 142.616 72.7671 143.928 73.3954 144.638C74.0237 145.347 75.3533 145.184 76.3652 144.274Z"
    fill="#E6E6E6" />
  <path
    d="M84.1073 153.716C85.1192 152.806 85.4302 151.493 84.8019 150.784C84.1737 150.075 82.844 150.238 81.8322 151.147C80.8203 152.057 80.5093 153.37 81.1376 154.079C81.7659 154.788 83.0955 154.625 84.1073 153.716Z"
    fill="#071034" />
  <path
    d="M50.7792 133.064C51.7911 132.154 52.1021 130.842 51.4738 130.133C50.8455 129.423 49.5159 129.586 48.504 130.496C47.4922 131.406 47.1812 132.718 47.8095 133.428C48.4377 134.137 49.7674 133.974 50.7792 133.064Z"
    fill="#E6E6E6" />
  <path
    d="M54.2636 146.368C55.2755 145.458 55.5864 144.146 54.9582 143.436C54.3299 142.727 53.0003 142.89 51.9884 143.8C50.9765 144.71 50.6656 146.022 51.2938 146.731C51.9221 147.44 53.2517 147.278 54.2636 146.368Z"
    fill="#2575FC" />
  <path
    d="M34.5683 140.998C35.5802 140.088 35.8911 138.775 35.2629 138.066C34.6346 137.357 33.305 137.52 32.2931 138.43C31.2812 139.34 30.9703 140.652 31.5985 141.361C32.2268 142.07 33.5564 141.908 34.5683 140.998Z"
    fill="#071034" />
  <path
    d="M113.375 37.7761C114.715 37.1124 115.033 35.0015 114.086 33.0614C113.139 31.1212 111.285 30.0865 109.945 30.7503C108.606 31.4141 108.287 33.5249 109.234 35.4651C110.181 37.4052 112.035 38.4399 113.375 37.7761Z"
    fill="#E6E6E6" />
  <path
    d="M118.805 62.7801C120.144 62.1163 120.463 60.0054 119.515 58.0653C118.568 56.1251 116.715 55.0905 115.375 55.7542C114.035 56.418 113.717 58.5288 114.664 60.469C115.611 62.4091 117.465 63.4438 118.805 62.7801Z"
    fill="#071034" />
  <path
    d="M91.7695 37.4802C93.1091 36.8165 93.4274 34.7056 92.4803 32.7655C91.5332 30.8253 89.6794 29.7906 88.3398 30.4544C87.0001 31.1182 86.6818 33.229 87.6289 35.1692C88.576 37.1093 90.4298 38.144 91.7695 37.4802Z"
    fill="#2575FC" />
  <path
    d="M80.4102 29.5454C81.6976 29.1154 82.5005 28.0354 82.2036 27.1331C81.9067 26.2308 80.6223 25.848 79.3349 26.278C78.0475 26.708 77.2446 27.7881 77.5415 28.6903C77.8385 29.5926 79.1228 29.9754 80.4102 29.5454Z"
    fill="#E6E6E6" />
  <path
    d="M64.4063 30.813C65.6937 30.3829 66.4966 29.3029 66.1997 28.4007C65.9028 27.4984 64.6184 27.1156 63.331 27.5456C62.0436 27.9756 61.2407 29.0556 61.5376 29.9579C61.8346 30.8602 63.1189 31.243 64.4063 30.813Z"
    fill="#071034" />
  <path
    d="M99.4688 50.0727C100.756 49.6427 101.559 48.5627 101.262 47.6604C100.965 46.7582 99.6809 46.3753 98.3935 46.8054C97.1061 47.2354 96.3032 48.3154 96.6001 49.2177C96.8971 50.1199 98.1814 50.5028 99.4688 50.0727Z"
    fill="#E6E6E6" />
  <path
    d="M101.516 36.4692C102.803 36.0392 103.606 34.9592 103.309 34.0569C103.012 33.1546 101.728 32.7718 100.44 33.2018C99.153 33.6319 98.3501 34.7119 98.647 35.6142C98.9439 36.5164 100.228 36.8992 101.516 36.4692Z"
    fill="#2575FC" />
  <path
    d="M117.477 49.2817C118.764 48.8517 119.567 47.7717 119.27 46.8694C118.973 45.9671 117.689 45.5843 116.401 46.0143C115.114 46.4444 114.311 47.5244 114.608 48.4267C114.905 49.3289 116.189 49.7117 117.477 49.2817Z"
    fill="#071034" />
  <path
    d="M141.151 106.382L158.184 105.5L166.095 118.064C166.095 118.064 180.981 120.565 179.949 138.194C178.917 155.824 161.838 171.293 161.838 171.293L162.568 180.474L161.3 184.115L161.462 186.16L163.192 188.325L163.37 190.564L161.838 194.108L163.922 197.5L120.104 193.233L118.502 187.367L120.839 184.217L119.533 180.108L121.496 176.156L122.52 163.602C122.52 163.602 111.322 146.695 124.177 133.961L129.336 125.146L135.108 118.068L141.151 106.382Z"
    fill="#2575FC" />
  <path
    d="M149 102.5C158.941 102.5 167 94.4411 167 84.5C167 74.5589 158.941 66.5 149 66.5C139.059 66.5 131 74.5589 131 84.5C131 94.4411 139.059 102.5 149 102.5Z"
    fill="#FFB6B6" />
  <path
    d="M147.304 83.5C145.741 83.5 144.18 83.4559 142.62 83.3678L142.341 83.3521L142.377 83.075C142.607 81.343 142.478 79.5822 141.997 77.9025C141.181 79.815 139.967 81.5315 138.436 82.9372L138.349 83.0165L138.233 83.0038C133.995 82.5398 129.795 81.7732 125.666 80.7098L125.508 80.6693L125.477 80.5093C125.168 78.9935 125.009 77.4513 125 75.9045C125 71.0725 126.75 67.0057 129.928 64.4531C133.388 61.6746 138.346 60.8201 143.896 62.0456H161.642C163.592 62.0478 165.463 62.8245 166.842 64.2053C168.222 65.5861 168.998 67.4582 169 69.4109V80.6589L168.806 80.7096C161.787 82.5559 154.561 83.4937 147.304 83.5Z"
    fill="#071034" />
  <path
    d="M59.8613 88.9173C59.535 89.0389 59.2694 89.2875 59.1227 89.6085C58.976 89.9296 58.9602 90.2968 59.0788 90.6297L66.9417 112.622C67.061 112.955 67.3049 113.225 67.6198 113.375C67.9347 113.524 68.295 113.541 68.6216 113.42L99.1387 102.083C99.465 101.961 99.7306 101.712 99.8773 101.391C100.024 101.07 100.04 100.703 99.9212 100.37L92.0583 78.378C91.939 78.0454 91.6951 77.7746 91.3802 77.6251C91.0653 77.4755 90.705 77.4594 90.3784 77.5803L59.8613 88.9173Z"
    fill="#CCCCCC" />
  <path
    d="M88.1565 104.583L69.846 111.415C69.5015 111.543 69.1214 111.526 68.7892 111.367C68.4569 111.209 68.1996 110.922 68.0738 110.57L61.0831 90.9308C60.958 90.5781 60.9747 90.1889 61.1294 89.8488C61.2842 89.5086 61.5644 89.2452 61.9086 89.1163L90.1323 78.5851C90.4768 78.457 90.8569 78.4741 91.1892 78.6325C91.5214 78.791 91.7787 79.0779 91.9046 79.4303L95.2824 88.9196C96.3624 91.9644 96.2187 95.3234 94.8828 98.2597C93.5469 101.196 91.1279 103.47 88.1565 104.583Z"
    fill="white" />
  <g clip-path="url(#clip0_4794_137537)">
    <mask id="mask0_4794_137537" style="mask-type:luminance" maskUnits="userSpaceOnUse" x="70"
      y="89" width="18" height="12">
      <path d="M85.8891 89.451L70.9609 95.0801L73.0359 100.583L87.9641 94.9539L85.8891 89.451Z"
        fill="white" />
    </mask>
    <g mask="url(#mask0_4794_137537)">
      <path
        d="M73.4136 99.1396L72.624 99.4374C72.6148 99.4409 72.6045 99.4364 72.6012 99.4275L71.4202 96.2955C71.4168 96.2866 71.4215 96.2765 71.4308 96.273L72.2206 95.9752C72.2298 95.9717 72.2401 95.9761 72.2434 95.9851L73.4244 99.117C73.4275 99.1261 73.4228 99.1362 73.4136 99.1396Z"
        fill="#071034" />
      <path
        d="M75.0245 98.5135L72.6224 95.8519C72.6144 95.8431 72.6181 95.8292 72.6293 95.825L73.5251 95.4872C73.532 95.4846 73.5396 95.4865 73.5444 95.4921L74.9374 97.124C74.9479 97.1363 74.9686 97.1285 74.9684 97.1123L74.9342 94.968C74.9341 94.9607 74.9386 94.9542 74.9455 94.9516L75.8441 94.6128C75.8554 94.6085 75.8672 94.6165 75.8671 94.6284L75.8204 98.2134C75.8201 98.2256 75.8124 98.2365 75.8006 98.241L75.0576 98.5211C75.0458 98.5256 75.0328 98.5225 75.0245 98.5135Z"
        fill="#071034" />
      <path
        d="M79.7349 94.9522C79.8227 95.1848 79.8615 95.4176 79.8513 95.6504C79.8413 95.8835 79.7898 96.1009 79.6974 96.3031C79.605 96.5053 79.4753 96.6858 79.3088 96.845C79.1421 97.0043 78.945 97.1265 78.7177 97.2122C78.4924 97.2972 78.2644 97.3349 78.0341 97.3257C77.8037 97.3161 77.5867 97.2663 77.383 97.1758C77.1791 97.0857 76.9965 96.9562 76.8351 96.7878C76.6736 96.6194 76.5492 96.4192 76.4614 96.1865C76.3722 95.95 76.3326 95.7149 76.3423 95.481C76.352 95.2471 76.4036 95.029 76.4971 94.8264C76.5905 94.6242 76.7209 94.4438 76.8878 94.2857C77.0549 94.1275 77.251 94.006 77.4766 93.9209C77.7039 93.8352 77.9316 93.794 78.1598 93.7977C78.388 93.8014 78.603 93.8478 78.805 93.9364C79.0071 94.0253 79.1893 94.1545 79.3514 94.3246C79.5132 94.4948 79.6413 94.7039 79.7349 94.9522ZM78.912 95.2625C78.8637 95.1344 78.7984 95.0268 78.7165 94.9393C78.6345 94.8517 78.5424 94.7846 78.4406 94.7377C78.3385 94.6909 78.231 94.6663 78.1169 94.6637C78.0032 94.6612 77.8904 94.6811 77.7788 94.7232C77.6671 94.7653 77.5693 94.8248 77.4856 94.9017C77.4018 94.9787 77.3377 95.0683 77.293 95.1704C77.2484 95.2725 77.2247 95.3833 77.2219 95.5029C77.219 95.6224 77.2419 95.746 77.2902 95.874C77.3355 95.9943 77.3986 96.0979 77.479 96.1848C77.5598 96.2718 77.6506 96.3391 77.752 96.3875C77.8532 96.4355 77.9615 96.463 78.0767 96.4694C78.1918 96.4758 78.3054 96.4579 78.417 96.4158C78.5287 96.3737 78.6263 96.3136 78.7097 96.2358C78.793 96.1578 78.8578 96.0682 78.904 95.9665C78.9499 95.8652 78.9747 95.7539 78.978 95.6329C78.9814 95.5119 78.9595 95.3886 78.912 95.2625Z"
        fill="#071034" />
      <path
        d="M85.0944 91.1178L84.3062 91.415C84.2968 91.4186 84.2918 91.4291 84.2953 91.4383L84.938 93.1427C84.9694 93.226 84.9839 93.3132 84.9817 93.4034C84.9794 93.494 84.9619 93.5808 84.9294 93.6639C84.897 93.747 84.8505 93.8214 84.79 93.8877C84.7294 93.9536 84.6571 94.0026 84.5734 94.0341C84.4877 94.0665 84.4023 94.0833 84.3172 94.0841C84.2321 94.0852 84.1513 94.0688 84.0746 94.0345C83.9979 94.0002 83.9277 93.9481 83.8636 93.8784C83.7997 93.8082 83.7466 93.7181 83.705 93.6077L83.062 91.9024C83.0586 91.8935 83.0485 91.8893 83.0396 91.8927L82.2586 92.1872C82.2494 92.1906 82.2449 92.2006 82.2482 92.2093L82.8912 93.9145C82.9752 94.1373 83.0885 94.3245 83.2309 94.4755C83.3733 94.6265 83.5335 94.7402 83.7113 94.8159C83.889 94.8916 84.0776 94.9307 84.2768 94.9332C84.4273 94.9349 84.5774 94.9147 84.7269 94.8727C84.7738 94.861 84.8185 94.849 84.8618 94.8365C84.8656 94.8344 84.877 94.8323 84.8805 94.8304C85.168 94.722 85.3827 94.5059 85.4781 94.4138C85.5181 94.376 85.542 94.3584 85.6017 94.2998C85.6233 94.282 85.6467 94.264 85.6606 94.2843C85.6738 94.3061 85.6391 94.3658 85.6133 94.4081C85.484 94.6213 85.4201 94.6898 85.4201 94.6898C85.2391 94.8836 85.1189 95.0126 84.9169 95.1446C84.885 95.1656 84.781 95.2323 84.625 95.3007C84.616 95.3047 84.6113 95.3148 84.6147 95.3237L84.9026 96.0873C84.9061 96.0965 84.9167 96.1011 84.9262 96.0976L85.0984 96.0349C85.3237 95.9499 85.5195 95.8285 85.6858 95.6706C85.8518 95.5129 85.9822 95.334 86.0766 95.1346C86.171 94.9352 86.2251 94.7232 86.2386 94.499C86.252 94.2749 86.2185 94.0528 86.1379 93.8329L85.1181 91.1284C85.1145 91.1189 85.1039 91.1143 85.0944 91.1178Z"
        fill="#071034" />
      <path
        d="M81.7453 92.3879L81.0567 92.6476C81.0211 92.661 80.9863 92.676 80.9521 92.6918C80.7063 92.7998 80.657 92.8338 80.4913 93.016C80.3605 93.1668 80.2631 93.346 80.2167 93.4251C80.1868 93.4748 80.1676 93.4999 80.1238 93.5761C80.1066 93.6004 80.0882 93.6256 80.0673 93.6111C80.0471 93.5951 80.0645 93.5263 80.0782 93.4771C80.1465 93.2303 80.1916 93.1434 80.1916 93.1434C80.2238 93.0814 80.2532 93.0243 80.2821 92.971C80.2894 92.9573 80.2759 92.9423 80.2612 92.9479L79.6339 93.1844C79.6161 93.1911 79.6069 93.2105 79.6135 93.2279L80.7847 96.3338C80.7913 96.3514 80.8113 96.3602 80.8295 96.3533L81.5814 96.0698C81.5992 96.0631 81.6086 96.0436 81.6024 96.0261L80.9627 94.274C80.9313 94.1907 80.9175 94.1061 80.9217 94.0206C80.9259 93.935 80.9455 93.8545 80.9812 93.7791C81.0166 93.7038 81.0663 93.6362 81.1303 93.5766C81.1943 93.517 81.2693 93.4711 81.3551 93.4388L82.044 93.179C82.0618 93.1723 82.0709 93.1529 82.0644 93.1356L81.7898 92.4073C81.7832 92.3899 81.7635 92.3811 81.7453 92.3879Z"
        fill="#071034" />
      <path d="M71.7802 94.7702L70.9609 95.0791L71.2611 95.8751L72.0803 95.5662L71.7802 94.7702Z"
        fill="#071034" />
      <path
        d="M87.1241 93.9689C87.3504 93.8836 87.4666 93.6361 87.3837 93.4163C87.3008 93.1964 87.0501 93.0873 86.8238 93.1726C86.5975 93.258 86.4813 93.5054 86.5642 93.7253C86.6471 93.9452 86.8978 94.0543 87.1241 93.9689Z"
        fill="#2575FC" />
    </g>
  </g>
  <path
    d="M200.699 90.9971L181.469 136.618C180.648 138.549 179.095 140.082 177.144 140.887C175.194 141.692 173.002 141.705 171.042 140.922C170.028 140.517 169.108 139.911 168.338 139.142C167.567 138.373 166.963 137.457 166.562 136.449C166.161 135.441 165.971 134.362 166.004 133.279C166.037 132.196 166.292 131.131 166.753 130.148L188.194 83.3664L200.014 54.3954C198.993 53.3856 198.31 52.0885 198.058 50.6804C197.806 49.2723 197.997 47.8214 198.606 46.525C199.215 45.2285 200.212 44.1493 201.461 43.434C202.71 42.7186 204.151 42.4018 205.588 42.5266C207.025 42.6513 208.388 43.2116 209.493 44.1314C210.598 45.0511 211.39 46.2856 211.762 47.6672C212.134 49.0489 212.069 50.5106 211.574 51.8539C211.079 53.1971 210.179 54.3568 208.996 55.1753L200.699 90.9971Z"
    fill="#FFB6B6" />
  <path
    d="M242.078 278.956H0.227529C0.167184 278.956 0.109311 278.932 0.0666414 278.889C0.0239715 278.847 0 278.789 0 278.728C0 278.668 0.0239715 278.61 0.0666414 278.567C0.109311 278.524 0.167184 278.5 0.227529 278.5H242.078C242.138 278.5 242.196 278.524 242.239 278.567C242.282 278.61 242.306 278.668 242.306 278.728C242.306 278.789 242.282 278.847 242.239 278.889C242.196 278.932 242.138 278.956 242.078 278.956Z"
    fill="#E6E6E6" />
  <defs>
    <clipPath id="clip0_4794_137537">
      <rect width="16" height="5.88108" fill="white"
        transform="translate(70.9609 95.0801) rotate(-20.6603)" />
    </clipPath>
  </defs>
</svg>
  