<svg width="341" height="146" viewBox="0 0 341 146" fill="none" xmlns="http://www.w3.org/2000/svg">
<g filter="url(#filter0_d_8043_119379)">
<rect x="7" y="5" width="327" height="132" rx="8" fill="white"/>
<rect x="7.5" y="5.5" width="326" height="131" rx="7.5" stroke="#E9EAEB"/>
<path d="M310.796 21.0193C312.454 23.6713 312.299 26.7593 310.449 27.9165C308.6 29.0737 305.757 27.862 304.099 25.21C302.442 22.558 302.597 19.4701 304.446 18.3129C306.295 17.1556 309.139 18.3673 310.796 21.0193Z" fill="#DFE2E6"/>
<path d="M322.316 56.2167C323.974 58.8686 323.818 61.9566 321.969 63.1139C320.12 64.2711 317.277 63.0593 315.619 60.4073C313.961 57.7554 314.116 54.6674 315.966 53.5102C317.815 52.353 320.658 53.5647 322.316 56.2167Z" fill="#071034"/>
<path d="M279.371 23.8397C281.028 26.4917 280.873 29.5796 279.024 30.7368C277.174 31.8941 274.331 30.6824 272.674 28.0304C271.016 25.3784 271.171 22.2904 273.02 21.1332C274.87 19.976 277.713 21.1877 279.371 23.8397Z" fill="#2575FC"/>
<path d="M263.626 17.2724C264.189 18.5273 263.179 20.2033 261.372 21.0161C259.565 21.8288 257.644 21.4704 257.081 20.2155C256.519 18.9607 257.528 17.2845 259.335 16.4718C261.142 15.6591 263.064 16.0175 263.626 17.2724Z" fill="#DFE2E6"/>
<path d="M240.564 21.5009C241.126 22.7557 240.117 24.4319 238.31 25.2446C236.502 26.0573 234.581 25.6988 234.018 24.444C233.456 23.1891 234.465 21.513 236.273 20.7003C238.08 19.8876 240.001 20.246 240.564 21.5009Z" fill="#071034"/>
<path d="M294.294 43.9716C294.857 45.2264 293.847 46.9026 292.04 47.7153C290.233 48.528 288.311 48.1695 287.749 46.9147C287.186 45.6598 288.196 43.9837 290.003 43.171C291.81 42.3583 293.732 42.7167 294.294 43.9716Z" fill="#DFE2E6"/>
<path d="M295.29 24.0732C295.853 25.3281 294.843 27.0041 293.036 27.8168C291.229 28.6296 289.308 28.2712 288.745 27.0163C288.183 25.7614 289.192 24.0853 290.999 23.2726C292.806 22.4599 294.728 22.8183 295.29 24.0732Z" fill="#2575FC"/>
<path d="M320.333 40.1278C320.896 41.3827 319.886 43.0588 318.079 43.8715C316.272 44.6843 314.351 44.3258 313.788 43.0709C313.226 41.8161 314.235 40.14 316.042 39.3273C317.849 38.5146 319.771 38.873 320.333 40.1278Z" fill="#071034"/>
<path d="M37.9273 21.2036C36.0022 20.178 33.2464 21.5831 31.7722 24.3418C30.2979 27.1006 30.6634 30.1684 32.5885 31.1939C34.5136 32.2194 37.2693 30.8144 38.7436 28.0556C40.2178 25.2969 39.8524 22.2291 37.9273 21.2036Z" fill="#DFE2E6"/>
<path d="M28.8256 57.0883C26.9005 56.0628 24.1448 57.4678 22.6706 60.2266C21.1963 62.9853 21.5618 66.0531 23.4869 67.0786C25.412 68.1042 28.1678 66.6991 29.642 63.9404C31.1163 61.1817 30.7507 58.1139 28.8256 57.0883Z" fill="#071034"/>
<path d="M69.4937 21.8364C67.5686 20.8109 64.8128 22.2159 63.3386 24.9746C61.8643 27.7334 62.2298 30.8012 64.1549 31.8267C66.08 32.8522 68.8357 31.4472 70.31 28.6884C71.7842 25.9297 71.4188 22.8619 69.4937 21.8364Z" fill="#2575FC"/>
<path d="M82.8369 16.2405C80.9772 15.5555 79.0837 16.046 78.6077 17.336C78.1316 18.626 79.2534 20.2271 81.1131 20.9121C82.9728 21.5971 84.8664 21.1066 85.3424 19.8166C85.8184 18.5266 84.6967 16.9255 82.8369 16.2405Z" fill="#DFE2E6"/>
<path d="M106.149 18.8577C104.29 18.1727 102.396 18.6632 101.92 19.9532C101.444 21.2432 102.566 22.8443 104.426 23.5292C106.285 24.2142 108.179 23.7238 108.655 22.4338C109.131 21.1438 108.009 19.5427 106.149 18.8577Z" fill="#071034"/>
<path d="M54.0401 44.9847C52.1803 44.2997 50.2868 44.7902 49.8108 46.0802C49.3348 47.3702 50.4565 48.9712 52.3162 49.6562C54.176 50.3412 56.0695 49.8507 56.5455 48.5607C57.0215 47.2707 55.8998 45.6697 54.0401 44.9847Z" fill="#DFE2E6"/>
<path d="M51.6924 25.2151C49.8327 24.5302 47.9392 25.0206 47.4631 26.3106C46.9871 27.6006 48.1088 29.2017 49.9686 29.8867C51.8283 30.5717 53.7218 30.0812 54.1979 28.7912C54.6739 27.5012 53.5522 25.9001 51.6924 25.2151Z" fill="#2575FC"/>
<path d="M27.7823 42.9551C25.9225 42.2701 24.029 42.7606 23.553 44.0506C23.0769 45.3406 24.1987 46.9417 26.0584 47.6267C27.9182 48.3117 29.8117 47.8212 30.2877 46.5312C30.7637 45.2412 29.642 43.6401 27.7823 42.9551Z" fill="#071034"/>
</g>
<defs>
<filter id="filter0_d_8043_119379" x="0" y="0" width="341" height="146" filterUnits="userSpaceOnUse" color-interpolation-filters="sRGB">
<feFlood flood-opacity="0" result="BackgroundImageFix"/>
<feColorMatrix in="SourceAlpha" type="matrix" values="0 0 0 0 0 0 0 0 0 0 0 0 0 0 0 0 0 0 127 0" result="hardAlpha"/>
<feMorphology radius="1" operator="dilate" in="SourceAlpha" result="effect1_dropShadow_8043_119379"/>
<feOffset dy="2"/>
<feGaussianBlur stdDeviation="3"/>
<feColorMatrix type="matrix" values="0 0 0 0 0 0 0 0 0 0 0 0 0 0 0 0 0 0 0.12 0"/>
<feBlend mode="normal" in2="BackgroundImageFix" result="effect1_dropShadow_8043_119379"/>
<feBlend mode="normal" in="SourceGraphic" in2="effect1_dropShadow_8043_119379" result="shape"/>
</filter>
</defs>
</svg>
