<svg width="24" height="24" viewBox="0 0 24 24" fill="none" xmlns="http://www.w3.org/2000/svg">
    <path d="M3 21H1V15H7V17H4.52C6.13 19.41 8.88 21 12 21C16.97 21 21 16.97 21 12H23C23 18.08 18.08 23 12 23C8.28 23 4.99 21.15 3 18.33V21ZM1 12C1 5.92 5.92 1 12 1C15.72 1 19.01 2.85 21 5.67V3H23V9H17V7H19.48C17.87 4.59 15.12 3 12 3C7.03 3 3 7.03 3 12H1Z" fill="#15141E"/>
    <path fill-rule="evenodd" clip-rule="evenodd" d="M15.9999 8.27869C15.1166 7.48428 13.9444 7.00098 12.6667 7.00098C10.4889 7.00098 8.64444 8.39542 7.95556 10.3343H6.00005V10.3341H7.9556C8.64449 8.39523 10.4889 7.00078 12.6667 7.00078C13.8726 7.00078 14.9845 7.43127 15.8483 8.14748C15.8998 8.19017 15.9504 8.23387 16 8.27856L15.9999 8.27869ZM9.46677 10.3341C9.46673 10.3342 9.4667 10.3342 9.46667 10.3343H12.6667V11.4452H12.6667V10.3341H9.46677ZM9.10002 11.4454H9.1C9.07222 11.6288 9.05556 11.8121 9.05556 12.001C9.05556 12.1899 9.07222 12.3732 9.1 12.5565H12.6667V13.6674H12.6667V12.5563H9.10005C9.07227 12.373 9.0556 12.1897 9.0556 12.0008C9.0556 11.812 9.07226 11.6287 9.10002 11.4454ZM9.46682 13.6676H9.46667C10.0667 14.8232 11.2722 15.6121 12.6667 15.6121C13.5667 15.6121 14.3833 15.2843 15.0111 14.7399L15.9999 15.7231C16 15.7231 16 15.723 16 15.723L15.0112 14.7397C14.3834 15.2841 13.5667 15.6119 12.6667 15.6119C11.3543 15.6119 10.2092 14.9131 9.57878 13.8674C9.53943 13.8022 9.50208 13.7355 9.46682 13.6676ZM6.00005 12.5565H7.7C7.69999 12.5565 7.69998 12.5564 7.69998 12.5563H6.00005V12.5565ZM12.6667 6.80078C10.4512 6.80078 8.56836 8.1881 7.81647 10.1341H5.80005V11.6452H7.47967C7.47103 11.7625 7.46672 11.8806 7.46672 12.0008C7.46672 12.1209 7.47103 12.239 7.47967 12.3563H5.80005V13.8674H7.81647C8.56836 15.8135 10.4512 17.2008 12.6667 17.2008C14.0014 17.2008 15.2152 16.6979 16.1338 15.8717L16.291 15.7303L15.0205 14.4669L14.8801 14.5886C14.2875 15.1025 13.517 15.4119 12.6667 15.4119C11.4709 15.4119 10.4221 14.7979 9.81485 13.8674H12.8667V12.3563H9.27557C9.26273 12.2383 9.2556 12.1204 9.2556 12.0008C9.2556 11.8811 9.26273 11.7633 9.27557 11.6452H12.8667V10.1341H9.81498C10.423 9.20379 11.4758 8.58967 12.6667 8.58967C13.5115 8.58967 14.2878 8.89906 14.8863 9.41356L15.027 9.53446L16.2906 8.27087L16.1338 8.12985C15.2151 7.30361 13.9957 6.80078 12.6667 6.80078Z" fill="#15141E"/>
</svg>
