<svg width="164" height="168" viewBox="0 0 164 168" fill="none" xmlns="http://www.w3.org/2000/svg">
<g id="undraw_fast_loading_re_8oi3 1" clip-path="url(#clip0_4367_73067)">
<path id="Path 968" d="M117.824 39.8189H116.905V14.5974C116.905 10.7259 115.367 7.01303 112.629 4.27548C109.892 1.53794 106.179 1.90415e-09 102.307 1.90415e-09H48.8711C46.9541 -3.09595e-05 45.0559 0.377511 43.2849 1.11107C41.5138 1.84463 39.9046 2.91984 38.5491 4.27531C37.1936 5.63079 36.1183 7.23998 35.3847 9.011C34.6511 10.782 34.2735 12.6802 34.2734 14.5972V152.964C34.2734 156.836 35.8114 160.548 38.5489 163.286C41.2865 166.024 44.9994 167.561 48.8709 167.561H102.307C106.178 167.561 109.891 166.024 112.629 163.286C115.366 160.548 116.904 156.836 116.904 152.964V57.7719H117.823L117.824 39.8189Z" fill="#15141E"/>
<path id="Path 969" d="M113.909 13.6197V153.941C113.908 156.877 112.742 159.692 110.667 161.767C108.592 163.843 105.777 165.01 102.842 165.011H48.309C45.3725 165.011 42.5562 163.845 40.4793 161.77C38.4025 159.694 37.2353 156.878 37.2344 153.941V13.6197C37.2353 10.6834 38.4024 7.86762 40.4792 5.79175C42.5559 3.71589 45.3722 2.54992 48.3085 2.55029H54.9236C54.5988 3.34906 54.4752 4.21539 54.5636 5.07313C54.652 5.93087 54.9498 6.75376 55.4307 7.46947C55.9116 8.18519 56.561 8.77181 57.3217 9.17777C58.0825 9.58374 58.9313 9.79663 59.7936 9.79772H90.8835C91.7458 9.79663 92.5946 9.58374 93.3553 9.17777C94.1161 8.77181 94.7654 8.18519 95.2464 7.46947C95.7273 6.75376 96.0251 5.93087 96.1135 5.07313C96.2019 4.21539 96.0783 3.34906 95.7534 2.55029H102.839C105.775 2.55079 108.59 3.7169 110.665 5.79225C112.741 7.8676 113.908 10.6823 113.909 13.6176V13.6197Z" fill="white"/>
<path id="Vector (Stroke)" fill-rule="evenodd" clip-rule="evenodd" d="M85.7347 91.2591L85.7331 91.2601C85.4249 91.4534 85.1065 91.6325 84.7779 91.7974L84.7769 91.798C82.0965 93.1394 78.991 93.368 76.1415 92.4338C73.292 91.4995 70.9309 89.4784 69.5765 86.8135L66.9039 81.5399L70.1506 79.9111L72.8216 85.1815L72.8218 85.182C73.2757 86.0788 73.9027 86.8778 74.6672 87.5336C75.4317 88.1893 76.3185 88.6887 77.2772 89.0033C78.2358 89.3179 79.2474 89.4415 80.2541 89.367C81.2608 89.2924 82.2428 89.0212 83.1441 88.5689C84.0453 88.1166 84.8481 87.492 85.5066 86.731C86.165 85.97 86.6663 85.0874 86.9817 84.1337C87.2972 83.18 87.4208 82.1738 87.3453 81.1727C87.2699 80.1715 86.997 79.1948 86.5421 78.2986L77.1771 59.82C76.7229 58.9238 76.0957 58.1252 75.3312 57.4701C74.5667 56.8149 73.68 56.3159 72.7216 56.0017C71.7632 55.6875 70.752 55.5642 69.7456 55.6388C68.7393 55.7135 67.7576 55.9846 66.8567 56.4368C65.9558 56.889 65.1533 57.5132 64.4949 58.2739C63.8366 59.0345 63.3354 59.9167 63.0197 60.87C62.7041 61.8232 62.5802 62.829 62.6552 63.8299C62.7302 64.8307 63.0026 65.8072 63.4568 66.7034L67.2146 74.118L63.9679 75.7468L60.2112 68.3344C58.8603 65.6669 58.6293 62.5742 59.5692 59.7371C60.5091 56.9001 62.5427 54.5511 65.2223 53.2064C67.9018 51.8617 71.0082 51.6311 73.8585 52.5652C76.7088 53.4994 79.07 55.5219 80.4225 58.1887L89.7874 76.667C91.0536 79.1658 91.34 82.0443 90.5908 84.7418C89.8415 87.4393 88.1103 89.7624 85.7347 91.2591Z" fill="#2575FC"/>
<path id="Vector (Stroke)_2" fill-rule="evenodd" clip-rule="evenodd" d="M86.7316 114.263L86.7299 114.264C86.4255 114.455 86.1105 114.633 85.7849 114.796L85.7835 114.797C83.1017 116.139 79.9938 116.368 77.1423 115.433C74.2909 114.498 71.9306 112.476 70.5775 109.813L70.577 109.812L61.2113 91.328C59.8608 88.6625 59.6295 85.5728 60.568 82.738C61.5065 79.903 63.5388 77.5532 66.22 76.2073C68.9014 74.8614 72.0108 74.6306 74.8637 75.5663C77.7163 76.5018 80.0767 78.5263 81.4273 81.1921L84.324 86.9092L81.0801 88.537L78.1788 82.8108C77.7238 81.913 77.0959 81.1135 76.3311 80.458C75.5664 79.8024 74.6797 79.3035 73.722 78.9894C72.7642 78.6753 71.7539 78.5521 70.7485 78.6267C69.7432 78.7013 68.7622 78.9723 67.8616 79.4244C66.9609 79.8765 66.1581 80.501 65.4993 81.2624C64.8404 82.0239 64.3383 82.9075 64.0221 83.8628C63.7058 84.8182 63.5817 85.8263 63.6568 86.8296C63.732 87.8329 64.0049 88.8114 64.4599 89.7093L73.8255 108.193L73.8258 108.194C74.2804 109.092 74.9081 109.892 75.6729 110.548C76.4376 111.204 77.3244 111.704 78.2824 112.018C79.2404 112.333 80.2511 112.456 81.2568 112.382C82.2626 112.307 83.2439 112.036 84.1449 111.584C85.0458 111.132 85.8488 110.507 86.5079 109.745C87.1669 108.983 87.669 108.099 87.985 107.144C88.3011 106.188 88.4249 105.179 88.3494 104.176C88.2738 103.172 88.0002 102.193 87.5446 101.295L87.5444 101.295L83.8841 94.071L87.1281 92.4432L90.7935 99.6772C92.0558 102.176 92.3391 105.053 91.589 107.748C90.8389 110.443 89.1083 112.766 86.7316 114.263Z" fill="#2575FC"/>
<path id="Path 970" d="M163.187 168H0.427206C0.191441 168 0 167.89 0 167.754C0 167.618 0.191441 167.507 0.427206 167.507H163.188C163.423 167.507 163.615 167.618 163.615 167.754C163.615 167.89 163.423 168 163.187 168Z" fill="#DFE2E6"/>
<g id="Group 58">
<path id="Path 438" d="M6.85165 158.389C7.59556 158.651 8.39428 158.716 9.17086 158.58C9.94743 158.443 10.6757 158.108 11.2854 157.608C12.8384 156.305 13.3253 154.157 13.7214 152.169L14.8931 146.288L12.44 147.977C10.6758 149.192 8.87192 150.446 7.65018 152.205C6.42845 153.965 5.89538 156.367 6.87687 158.271" fill="#DFE2E6"/>
<path id="Path 439" d="M7.23108 165.919C6.92223 163.669 6.60465 161.391 6.82132 159.117C7.01371 157.098 7.62977 155.126 8.88404 153.509C9.54977 152.652 10.3598 151.918 11.2778 151.34C11.5171 151.188 11.7375 151.568 11.4991 151.718C9.91048 152.722 8.68162 154.204 7.98978 155.951C7.2259 157.894 7.1033 160.012 7.23533 162.076C7.31502 163.324 7.48359 164.564 7.65357 165.803C7.66695 165.859 7.65857 165.918 7.63013 165.968C7.60168 166.018 7.55529 166.055 7.50033 166.072C7.44425 166.087 7.38449 166.08 7.334 166.051C7.28351 166.022 7.24637 165.975 7.23062 165.919H7.23108Z" fill="#E9EAEB"/>
<path id="Path 442" d="M9.45312 162.31C9.77217 162.795 10.2107 163.189 10.7265 163.455C11.2423 163.722 11.818 163.851 12.3981 163.83C13.8888 163.759 15.1318 162.719 16.2505 161.731L19.5597 158.81L17.3697 158.705C15.7947 158.63 14.179 158.559 12.6779 159.045C11.1768 159.531 9.79428 160.7 9.52008 162.252" fill="#DFE2E6"/>
<path id="Path 443" d="M6.35677 167.212C7.84209 164.582 9.56742 161.659 12.6482 160.725C13.5048 160.466 14.403 160.373 15.2944 160.451C15.5754 160.475 15.5052 160.909 15.2237 160.884C13.7294 160.76 12.238 161.155 11.0006 162.002C9.80978 162.812 8.88275 163.939 8.09813 165.134C7.6174 165.865 7.1869 166.629 6.75639 167.391C6.61918 167.634 6.21837 167.459 6.35677 167.212Z" fill="#E9EAEB"/>
</g>
<path id="Path 2881" d="M130.055 107.507C130.128 107.196 130.269 106.905 130.467 106.654C130.665 106.403 130.916 106.199 131.202 106.055C131.487 105.912 131.801 105.833 132.121 105.823C132.44 105.814 132.758 105.875 133.052 106.002L138.305 100.275L139.287 104.192L134.147 109.031C133.901 109.51 133.488 109.882 132.986 110.076C132.484 110.271 131.928 110.275 131.424 110.087C130.919 109.899 130.501 109.533 130.249 109.057C129.996 108.582 129.927 108.03 130.054 107.507L130.055 107.507Z" fill="#FEB8B8"/>
<path id="Path 2882" d="M141.338 164.642H138.129L136.602 152.261H141.34L141.338 164.642Z" fill="#FEB8B8"/>
<path id="Path 2883" d="M142.155 163.594H135.833C134.765 163.594 133.74 164.019 132.985 164.774C132.229 165.53 131.805 166.554 131.805 167.623V167.754H142.155L142.155 163.594Z" fill="#15141E"/>
<path id="Path 2884" d="M159.768 161.462L156.767 162.602L150.945 151.568L155.375 149.887L159.768 161.462Z" fill="#FEB8B8"/>
<path id="Path 2885" d="M160.165 160.192L154.255 162.435C153.256 162.814 152.449 163.575 152.011 164.549C151.573 165.524 151.539 166.632 151.918 167.631L151.965 167.754L161.642 164.081L160.165 160.192Z" fill="#15141E"/>
<path id="Path 2886" d="M149.205 123.458L151.866 137.772C151.866 137.772 159.086 157.913 158.579 158.42C158.073 158.927 151.105 160.7 151.485 159.56C151.866 158.42 143.125 141.319 143.125 141.319L149.205 123.458Z" fill="#15141E"/>
<path id="Path 2887" d="M138.417 97.4458C138.417 97.4458 133.047 104.465 133.751 104.849C134.455 105.232 137.181 107.262 137.181 107.262L139.954 99.6507L138.417 97.4458Z" fill="#CFD4D9"/>
<path id="Path 2888" d="M136.918 104.531C136.918 104.531 136.031 111.118 136.411 112.511C136.791 113.905 136.538 153.427 136.285 154.06C136.032 154.693 135.271 156.847 135.652 157.86C136.032 158.873 141.225 161.407 141.985 160.52C142.745 159.633 148.319 127.332 148.319 127.332C148.319 127.332 156.173 107.824 154.4 105.925C152.626 104.025 136.918 104.531 136.918 104.531Z" fill="#15141E"/>
<path id="Ellipse 542" d="M148.316 62.1972C151.744 62.1972 154.523 59.4182 154.523 55.9902C154.523 52.5622 151.744 49.7832 148.316 49.7832C144.888 49.7832 142.109 52.5622 142.109 55.9902C142.109 59.4182 144.888 62.1972 148.316 62.1972Z" fill="#FEB8B8"/>
<path id="Path 2890" d="M141.827 70.0183C141.983 69.0132 142.483 68.0935 143.241 67.4154L144.373 63.9556H151.024L152.877 66.8637C154.881 67.7269 156.366 69.0957 156.423 70.7093C156.729 71.7809 155.409 105.798 155.029 107.064C154.918 107.433 153.402 107.63 151.272 107.718C149.319 107.798 146.85 107.786 144.48 107.732C140.556 107.641 136.897 107.43 136.282 107.318C134.889 107.065 141.689 70.8175 141.827 70.0183Z" fill="#CFD4D9"/>
<path id="Path 2891" d="M147.707 115.127C147.977 114.955 148.205 114.726 148.377 114.456C148.548 114.186 148.658 113.882 148.699 113.565C148.74 113.248 148.711 112.926 148.614 112.621C148.517 112.316 148.355 112.037 148.138 111.802L151.809 104.951L147.787 105.319L144.918 111.767C144.547 112.157 144.332 112.67 144.314 113.208C144.296 113.747 144.476 114.273 144.82 114.687C145.164 115.101 145.648 115.375 146.18 115.456C146.712 115.537 147.256 115.42 147.708 115.127L147.707 115.127Z" fill="#FEB8B8"/>
<path id="Path 2893" d="M148.315 66.2759C148.315 66.2759 142.488 68.6826 144.642 74.7634C146.795 80.8443 149.202 88.0641 149.202 88.0641C149.202 88.0641 146.162 104.405 146.162 105.039C146.162 105.673 144.262 109.093 145.021 109.726C145.781 110.36 150.848 111.626 150.975 110.993C151.363 109.534 151.828 108.096 152.368 106.686C152.622 106.179 158.575 90.3452 157.815 88.9518C157.255 87.9264 156.765 78.531 156.544 73.6414C156.493 72.2461 156.08 70.8881 155.345 69.7011C154.61 68.514 153.579 67.5388 152.352 66.8714C151.172 66.2438 149.797 65.9052 148.315 66.2759Z" fill="#CFD4D9"/>
<path id="Path 2800" d="M150.699 58.7644C150.228 58.547 149.682 58.502 149.172 58.3669C147.349 57.8831 146.127 56.0825 146.517 54.4532C146.589 54.246 146.621 54.0272 146.613 53.8081C146.545 53.3255 145.979 53.014 145.437 52.9035C144.895 52.7929 144.318 52.8092 143.8 52.6312C143.425 52.4983 143.093 52.267 142.839 51.9614C142.584 51.6558 142.417 51.2872 142.354 50.8945C142.273 50.1315 142.468 49.3648 142.902 48.7323L143.098 49.2246C143.389 49.0146 143.611 48.724 143.738 48.3888C143.951 48.4143 144.154 48.4921 144.329 48.6151C144.504 48.7382 144.646 48.9028 144.742 49.0942C145.057 49.2562 145.102 48.5913 145.45 48.4932C145.601 48.4765 145.753 48.5096 145.883 48.5875C146.583 48.8726 147.395 48.6288 148.146 48.4708C149.45 48.1986 150.796 48.1972 152.1 48.4668C152.964 48.6467 153.819 48.9603 154.437 49.5172C154.911 49.9826 155.284 50.5413 155.53 51.1581C156.193 52.6156 156.631 54.1926 156.412 55.7492C156.213 57.0552 155.599 58.2623 154.659 59.1913C154.159 59.6952 152.525 61.4526 151.63 61.1531C150.504 60.7759 152.025 59.3766 150.699 58.7644Z" fill="#15141E"/>
</g>
<defs>
<clipPath id="clip0_4367_73067">
<rect width="163.615" height="168" fill="white"/>
</clipPath>
</defs>
</svg>
