<svg width="176" height="168" viewBox="0 0 176 168" fill="none" xmlns="http://www.w3.org/2000/svg">
<g id="undraw_mailbox_re_dvds 1" clip-path="url(#clip0_5423_78829)">
<path id="Vector" d="M57.8013 166.246C60.9587 163.584 62.8765 159.379 62.3735 155.285C61.8706 151.191 58.7555 147.427 54.7147 146.558C50.674 145.689 46.0678 148.095 44.8405 152.034C44.165 144.44 43.3867 136.529 39.3407 130.062C35.6771 124.207 29.3317 120.017 22.4548 119.267C15.5779 118.518 8.33733 121.349 4.04844 126.765C-0.240458 132.181 -1.29057 140.055 1.71326 146.273C3.92607 150.853 8.00286 154.262 12.2743 157.036C26.0769 165.922 42.6314 169.536 58.8917 167.212" fill="#E9EAEB"/>
<path id="Vector_2" d="M10.8486 121.506C16.5229 126.117 21.7285 131.275 26.3901 136.905C33.6854 145.685 39.5889 155.528 43.8948 166.093C44.21 166.864 42.9558 167.2 42.6441 166.437C39.9058 159.758 36.5181 153.362 32.5294 147.342C26.3096 137.937 18.6894 129.534 9.93144 122.421C9.2839 121.895 10.2064 120.984 10.8486 121.506Z" fill="white"/>
<path id="Vector_3" d="M59.984 166.246C56.8267 163.584 54.9088 159.379 55.4118 155.285C55.9147 151.191 59.0299 147.427 63.0706 146.558C67.1114 145.689 71.7176 148.095 72.9449 152.034C73.6203 144.44 74.3987 136.529 78.4447 130.062C82.1082 124.207 88.4536 120.017 95.3305 119.267C102.207 118.518 109.448 121.349 113.737 126.765C118.026 132.181 119.076 140.055 116.072 146.273C113.859 150.853 109.782 154.262 105.511 157.036C91.7084 165.922 75.154 169.536 58.8936 167.212" fill="#E9EAEB"/>
<path id="Vector_4" d="M106.936 121.506C101.262 126.117 96.0565 131.275 91.395 136.905C84.0996 145.685 78.1962 155.528 73.8902 166.093C73.575 166.864 74.8293 167.2 75.141 166.437C82.1862 149.267 93.4333 134.134 107.854 122.421C108.501 121.895 107.579 120.984 106.936 121.506Z" fill="white"/>
<path id="Vector_5" d="M69.3496 75.5742C75.1907 75.5742 79.9258 70.8493 79.9258 65.021C79.9258 59.1926 75.1907 54.4678 69.3496 54.4678C63.5086 54.4678 58.7734 59.1926 58.7734 65.021C58.7734 70.8493 63.5086 75.5742 69.3496 75.5742Z" fill="#E9EAEB"/>
<path id="Vector_6" d="M36.741 28.6426H109.608V32.6206H46.0431C42.3057 32.6205 38.6049 33.3551 35.152 34.7822C31.6992 36.2093 28.5618 38.3011 25.919 40.938C23.2763 43.575 21.18 46.7056 19.7497 50.1509C18.3195 53.5963 17.5834 57.2891 17.5834 61.0183V106.213H9.61013C9.25769 106.213 8.91969 106.073 8.67048 105.824C8.42127 105.576 8.28126 105.238 8.28125 104.887V57.0403C8.28125 53.3111 9.01738 49.6183 10.4476 46.173C11.8778 42.7276 13.9742 39.597 16.6169 36.9601C19.2596 34.3231 22.397 32.2313 25.8499 30.8042C29.3028 29.3771 33.0036 28.6426 36.741 28.6426Z" fill="#E9EAEB"/>
<path id="Vector_7" d="M50.7578 166.469V106.043H68.4985V166.469C68.4981 166.875 68.3362 167.264 68.0484 167.551C67.7605 167.838 67.3703 168 66.9633 168H52.2931C51.886 168 51.4958 167.838 51.208 167.551C50.9202 167.264 50.7583 166.875 50.7578 166.469Z" fill="#15141E"/>
<path id="Vector_8" d="M4.53125 104.851V55.716C4.5401 47.894 7.65807 40.3949 13.2011 34.8639C18.7442 29.3329 26.2596 26.2217 34.0986 26.2129H109.27V106.553H6.23709C5.78483 106.553 5.35125 106.373 5.03146 106.054C4.71166 105.735 4.53177 105.302 4.53125 104.851ZM108.587 26.8937H34.0986C26.4405 26.9024 19.0985 29.9418 13.6834 35.3452C8.26826 40.7485 5.22224 48.0746 5.21359 55.716V104.851C5.21388 105.122 5.32181 105.382 5.51369 105.573C5.70557 105.764 5.96573 105.872 6.23709 105.872H108.587V26.8937Z" fill="#15141E"/>
<path id="Vector_9" d="M69.3498 70.4681C67.7216 70.4663 66.1607 69.8201 65.0094 68.6713C63.8582 67.5226 63.2106 65.965 63.2087 64.3404V20.4255C63.2084 20.1548 63.1005 19.8952 62.9086 19.7037C62.7168 19.5122 62.4566 19.4046 62.1852 19.4043H38.3035C37.8512 19.4037 37.4177 19.2242 37.0979 18.9051C36.7781 18.586 36.5982 18.1534 36.5977 17.7021V1.70213C36.5982 1.25086 36.7781 0.818215 37.0979 0.499117C37.4177 0.180019 37.8512 0.000522567 38.3035 0H73.7849C74.2372 0.000516273 74.6708 0.180013 74.9906 0.499112C75.3104 0.818211 75.4903 1.25085 75.4908 1.70213V64.3404C75.4889 65.965 74.8414 67.5226 73.6901 68.6713C72.5388 69.8201 70.9779 70.4663 69.3498 70.4681Z" fill="#2575FC"/>
<path id="Vector_10" d="M111.997 25.5323C117.144 25.5215 122.084 27.5513 125.731 31.175C129.378 34.7988 131.433 39.7198 131.444 44.8553V100.791H169.655C171.19 100.787 172.663 101.393 173.751 102.473C174.838 103.554 175.451 105.022 175.455 106.554H92.5508V44.8553C92.5616 39.7198 94.6165 34.7988 98.2634 31.175C101.91 27.5513 106.851 25.5215 111.997 25.5323Z" fill="#15141E"/>
<path id="Vector_11" d="M147.133 63.512L150.119 64.079C150.294 64.112 150.474 64.1075 150.647 64.0657C150.82 64.0239 150.982 63.9459 151.122 63.8368L153.518 61.9697L147.133 63.512Z" fill="white"/>
<path id="Vector_12" d="M131.918 41.0716C132.058 41.6453 132.42 42.1402 132.925 42.4477C133.43 42.7553 134.037 42.8502 134.612 42.7118L144.154 40.4068C144.729 40.2671 145.225 39.9057 145.533 39.4018C145.841 38.898 145.937 38.2927 145.798 37.7189C145.724 37.4105 145.584 37.1218 145.387 36.8725C145.123 36.5355 144.767 36.2815 144.363 36.1407C143.958 36 143.521 35.9784 143.104 36.0787L133.562 38.3837C132.987 38.5227 132.49 38.884 132.182 39.3881C131.874 39.8921 131.779 40.4977 131.918 41.0716Z" fill="white"/>
<path id="Vector_13" d="M69.353 66.723C70.672 66.723 71.7412 65.6561 71.7412 64.34C71.7412 63.0239 70.672 61.957 69.353 61.957C68.0341 61.957 66.9648 63.0239 66.9648 64.34C66.9648 65.6561 68.0341 66.723 69.353 66.723Z" fill="white"/>
</g>
<defs>
<clipPath id="clip0_5423_78829">
<rect width="176" height="168" fill="white"/>
</clipPath>
</defs>
</svg>
