<svg width="229" height="168" viewBox="0 0 229 168" fill="none" xmlns="http://www.w3.org/2000/svg">
<g id="undraw_switches_1js3 1" clip-path="url(#clip0_4217_63066)">
<path id="Vector" d="M227.725 159.559H0V160.089H227.725V159.559Z" fill="#E9EAEB"/>
<path id="Vector_2" d="M49.8358 27.3802H48.3631L42.1041 50.0729C42.1041 50.0729 41.9813 65.1604 43.4541 72.5202C43.4541 72.5202 45.9086 69.331 47.6268 69.331C49.3449 69.331 50.9404 53.2621 50.9404 53.2621C50.9404 53.2621 57.6903 30.3242 49.8358 27.3802Z" fill="#E9EAEB"/>
<path id="Vector_3" d="M82.2346 70.803C82.2346 70.803 78.3073 81.8426 81.9891 82.5786C85.6709 83.3146 87.6345 73.9922 86.6527 72.7656C85.6709 71.539 82.2346 70.803 82.2346 70.803Z" fill="#FEB8B8"/>
<path id="Vector_4" d="M43.0547 68.5221C43.0547 68.5221 44.1587 80.1867 47.8071 79.3C51.4555 78.4133 49.297 69.1341 47.8888 68.4365C46.4806 67.739 43.0547 68.5221 43.0547 68.5221Z" fill="#FEB8B8"/>
<path id="Vector_5" d="M52.5336 136.796C52.5336 136.796 54.2518 145.137 51.3063 147.345C48.3609 149.553 52.2882 154.214 52.2882 154.214L61.6154 144.401C61.6154 144.401 57.6881 138.268 57.9336 134.588L52.5336 136.796Z" fill="#FEB8B8"/>
<path id="Vector_6" d="M67.2585 144.401L66.2768 151.025L66.0312 155.686L71.4311 155.195L72.1675 145.628L67.2585 144.401Z" fill="#FEB8B8"/>
<path id="Vector_7" d="M46.4832 69.6912C46.4832 69.6912 43.4562 70.8028 43.7017 73.9921C43.9471 77.1813 44.6835 87.2397 44.6835 87.2397C44.6835 87.2397 42.4744 108.828 44.6835 116.188C46.8925 123.548 51.0652 138.268 51.0652 138.268C51.0652 138.268 57.447 139.494 58.9198 134.833C58.9198 134.833 58.6743 118.887 55.9743 115.452C53.2743 112.018 55.238 111.036 55.4834 110.546C55.7289 110.055 56.4652 109.319 56.4652 108.583C56.4652 107.847 56.7107 105.148 56.7107 104.167C56.7107 103.186 56.4652 103.431 56.9561 101.959C57.447 100.487 57.9379 99.9967 57.9379 99.7513C57.9379 99.506 62.1106 86.5037 62.1106 86.5037L67.5106 116.679C67.5106 116.679 66.2834 146.363 66.7743 146.363C67.2652 146.363 72.6651 148.326 74.6288 146.363C74.6288 146.363 79.5378 120.849 78.556 119.377C77.5742 117.905 77.3287 117.66 77.5742 116.188C77.8196 114.716 78.3106 113.98 77.8196 113.244C77.3287 112.508 76.5924 110.055 77.3287 109.319C78.0651 108.583 78.3106 105.148 78.3106 105.148C78.3106 105.148 82.4833 81.1065 79.7833 77.672C77.0833 74.2374 46.4832 69.6912 46.4832 69.6912Z" fill="#15141E"/>
<path id="Vector_8" d="M54.7406 147.59C54.7406 147.59 51.7951 143.91 50.8133 145.627C49.8315 147.345 48.3588 150.043 48.3588 150.043C48.3588 150.043 37.3134 159.611 43.4497 159.856C49.5861 160.102 53.5133 155.686 53.5133 155.686C53.5133 155.686 54.4951 150.779 57.4406 150.779L57.9315 152.006L63.3314 148.571C63.3314 148.571 62.571 142.057 60.3739 142.248L54.7406 147.59Z" fill="#15141E"/>
<path id="Vector_9" d="M65.0538 154.95C65.0538 154.95 71.4356 152.496 72.172 154.95C72.9083 157.403 72.9083 158.63 72.9083 158.63C72.9083 158.63 78.3083 167.461 72.9083 167.952C67.5084 168.443 65.0538 165.008 65.0538 165.008C65.0538 165.008 65.7902 160.838 65.0538 160.347C64.3175 159.856 65.0538 154.95 65.0538 154.95Z" fill="#15141E"/>
<path id="Vector_10" d="M69.4737 19.5299C74.2183 19.5299 78.0645 15.6856 78.0645 10.9435C78.0645 6.20132 74.2183 2.35706 69.4737 2.35706C64.7291 2.35706 60.8828 6.20132 60.8828 10.9435C60.8828 15.6856 64.7291 19.5299 69.4737 19.5299Z" fill="#FEB8B8"/>
<path id="Vector_11" d="M63.0932 12.906L61.375 22.4737L73.4022 25.4176C73.4022 25.4176 70.5795 18.4258 73.6477 15.3593C74.4239 14.5835 63.0932 12.906 63.0932 12.906Z" fill="#FEB8B8"/>
<path id="Vector_12" d="M62.1061 18.3977C61.8163 18.4523 61.5478 18.5874 61.3314 18.7877C61.1151 18.988 60.9597 19.2453 60.8832 19.5299C60.6689 20.2347 60.337 20.8983 59.9013 21.4925C59.9013 21.4925 48.365 26.8897 48.365 27.6256C48.365 28.3616 53.0287 44.0625 53.0287 44.0625C53.0287 44.0625 53.2741 53.8755 51.3105 56.0835C49.3469 58.2914 47.3833 66.3871 47.8742 67.1231C48.3651 67.8591 44.4378 69.5764 45.9105 70.803C47.3833 72.0297 68.0013 83.8053 80.274 78.4081C80.274 78.4081 80.5194 76.2002 80.274 74.7282C80.0285 73.2563 81.7467 68.3497 81.2558 66.6325C80.7649 64.9152 81.2558 47.2517 81.2558 47.2517L83.7854 26.3361C83.8337 25.9388 83.7404 25.5372 83.5219 25.2018C83.3034 24.8664 82.9737 24.6187 82.5906 24.5022C79.7616 23.6428 73.201 20.1244 72.2967 20.8792C71.1258 21.8564 63.8199 21.1908 62.1061 18.3977Z" fill="#E9EAEB"/>
<path id="Vector_13" d="M81.5001 24.4363L81.5158 24.4301C81.8668 24.2893 82.2547 24.2694 82.6184 24.3735C82.982 24.4776 83.3005 24.6998 83.5238 25.0049C85.0447 27.0852 88.2457 31.7606 88.6183 34.74C89.1092 38.6652 90.5819 49.2143 90.3364 50.6862C90.091 52.1582 89.8455 52.4035 90.3364 53.1395C90.8273 53.8754 90.5819 53.6301 90.3364 54.3661C90.091 55.1021 87.1455 75.4641 87.1455 75.4641C87.1455 75.4641 85.1819 71.0483 81.5001 72.5202C81.5001 72.5202 81.991 68.595 81.5001 67.3684C81.0092 66.1417 80.5183 65.4058 81.0092 64.4245C81.5001 63.4432 81.0092 53.8754 80.7638 52.8941C80.5183 51.9128 80.7638 46.761 80.7638 46.761L78.5547 36.7026L81.5001 24.4363Z" fill="#E9EAEB"/>
<path id="Vector_14" d="M67.8646 12.4052L68.1548 10.3835C68.2224 9.91222 68.4983 9.29262 68.957 9.42078C69.3472 9.52978 70.1972 9.86359 70.3396 9.76284C70.8725 9.38548 71.6791 10.0453 72.2395 9.7101C72.4743 9.56965 72.6275 9.26875 72.9004 9.24867C73.0835 9.26036 73.2561 9.33848 73.3856 9.46835C73.7494 9.78457 74.1781 10.0173 74.6415 10.1503C74.874 10.2135 75.1192 10.2135 75.3517 10.1502C75.5842 10.0869 75.7955 9.96252 75.9637 9.79008C76.0231 9.69822 76.1032 9.62151 76.1975 9.56607C76.3082 9.53417 76.4264 9.5396 76.5337 9.58152L77.9657 9.9712C78.1763 9.20799 78.2196 8.40832 78.0925 7.62686C77.9654 6.8454 77.6711 6.10057 77.2295 5.44328C76.6486 4.65516 75.9443 3.9658 75.1438 3.40174C74.257 2.72745 73.3418 2.09322 72.3983 1.49907C71.3656 0.847014 70.2704 0.231927 69.0627 0.0486301C67.8551 -0.134648 66.5029 0.193258 65.7434 1.14929C65.3861 0.890845 65.1175 0.528257 64.9746 0.111251C64.8894 0.1887 64.8223 0.283888 64.778 0.390098C64.7336 0.496308 64.7132 0.610948 64.718 0.725929C64.7228 0.840911 64.7529 0.953432 64.806 1.05554C64.8591 1.15766 64.934 1.24687 65.0253 1.3169L63.8143 0.543926C63.4738 0.901205 64.139 1.54907 63.8489 1.9483C63.7612 2.04704 63.6486 2.12051 63.5229 2.16107C62.8653 2.41724 62.2626 2.79637 61.7471 3.27817C61.051 3.97579 60.673 4.92274 60.3486 5.85307C59.6269 7.92237 59.1024 10.2955 60.1277 12.2325C60.244 12.4521 61.7784 16.0766 61.9828 16.2179C62.6738 16.6957 62.224 15.5395 62.7192 16.2179C63.1075 16.75 63.0348 14.7136 63.6119 15.1606C63.8381 15.3224 64.1064 15.4152 64.3843 15.4277C64.6622 15.4402 64.9378 15.3718 65.1777 15.231C65.4169 15.0652 65.3398 14.1443 65.2107 13.2986C65.186 13.1375 65.2013 12.9729 65.2551 12.819C65.3089 12.6652 65.3996 12.5269 65.5193 12.4163C65.639 12.3056 65.784 12.226 65.9417 12.1844C66.0993 12.1429 66.2648 12.1406 66.4235 12.1777C67.1422 12.3467 67.8523 12.4911 67.8646 12.4052Z" fill="#15141E"/>
<path id="Vector_15" opacity="0.1" d="M79.6954 31.9462L81.8669 56.4514C81.8669 56.4514 77.2785 35.8987 79.6954 31.9462Z" fill="black"/>
<path id="Vector_16" d="M39.3604 116.782C35.8468 121.747 34.9186 150 34.7118 159.057C34.7065 159.261 34.7012 159.454 34.6985 159.637H25.8043C25.6956 159.444 25.5948 159.253 25.4994 159.057C20.2276 148.656 23.1525 136.186 23.3063 135.555C22.9059 137.538 24.7171 143.284 26.7643 148.85C28.0133 131.736 38.6921 117.646 39.3604 116.782Z" fill="#E9EAEB"/>
<path id="Vector_17" d="M181.605 45.4082C184.924 45.4082 187.615 42.7184 187.615 39.4005C187.615 36.0825 184.924 33.3928 181.605 33.3928C178.285 33.3928 175.594 36.0825 175.594 39.4005C175.594 42.7184 178.285 45.4082 181.605 45.4082Z" fill="#2575FC"/>
<path id="Vector_18" d="M182.807 48.4119H155.758C153.367 48.4119 151.074 47.4625 149.383 45.7725C147.692 44.0825 146.742 41.7904 146.742 39.4004C146.742 37.0104 147.692 34.7183 149.383 33.0283C151.074 31.3383 153.367 30.3889 155.758 30.3889H182.807C185.198 30.3889 187.491 31.3383 189.182 33.0283C190.873 34.7183 191.823 37.0104 191.823 39.4004C191.823 41.7904 190.873 44.0825 189.182 45.7725C187.491 47.4625 185.198 48.4119 182.807 48.4119ZM155.758 31.5904C153.686 31.5904 151.698 32.4133 150.233 33.8779C148.768 35.3426 147.944 37.3291 147.944 39.4004C147.944 41.4718 148.768 43.4582 150.233 44.9229C151.698 46.3876 153.686 47.2104 155.758 47.2104H182.807C184.879 47.2104 186.867 46.3876 188.332 44.9229C189.798 43.4582 190.621 41.4718 190.621 39.4004C190.621 37.3291 189.798 35.3426 188.332 33.8779C186.867 32.4133 184.879 31.5904 182.807 31.5904H155.758Z" fill="#56555E"/>
<path id="Vector_19" d="M156.73 78.4799C160.049 78.4799 162.74 75.7902 162.74 72.4723C162.74 69.1543 160.049 66.4646 156.73 66.4646C153.41 66.4646 150.719 69.1543 150.719 72.4723C150.719 75.7902 153.41 78.4799 156.73 78.4799Z" fill="#E9EAEB"/>
<path id="Vector_20" d="M182.807 81.4837H155.758C153.367 81.4837 151.074 80.5343 149.383 78.8443C147.692 77.1543 146.742 74.8622 146.742 72.4722C146.742 70.0822 147.692 67.7901 149.383 66.1001C151.074 64.4101 153.367 63.4607 155.758 63.4607H182.807C185.198 63.4607 187.491 64.4101 189.182 66.1001C190.873 67.7901 191.823 70.0822 191.823 72.4722C191.823 74.8622 190.873 77.1543 189.182 78.8443C187.491 80.5343 185.198 81.4837 182.807 81.4837ZM155.758 64.6622C153.686 64.6622 151.698 65.4851 150.233 66.9497C148.768 68.4144 147.944 70.4009 147.944 72.4722C147.944 74.5435 148.768 76.53 150.233 77.9947C151.698 79.4593 153.686 80.2822 155.758 80.2822H182.807C184.879 80.2822 186.867 79.4593 188.332 77.9947C189.798 76.53 190.621 74.5435 190.621 72.4722C190.621 70.4009 189.798 68.4144 188.332 66.9497C186.867 65.4851 184.879 64.6622 182.807 64.6622H155.758Z" fill="#E9EAEB"/>
<path id="Vector_21" d="M156.73 111.552C160.049 111.552 162.74 108.862 162.74 105.544C162.74 102.226 160.049 99.5364 156.73 99.5364C153.41 99.5364 150.719 102.226 150.719 105.544C150.719 108.862 153.41 111.552 156.73 111.552Z" fill="#E9EAEB"/>
<path id="Vector_22" d="M182.807 114.555H155.758C153.367 114.555 151.074 113.606 149.383 111.916C147.692 110.226 146.742 107.934 146.742 105.544C146.742 103.154 147.692 100.862 149.383 99.1719C151.074 97.4819 153.367 96.5325 155.758 96.5325H182.807C185.198 96.5325 187.491 97.4819 189.182 99.1719C190.873 100.862 191.823 103.154 191.823 105.544C191.823 107.934 190.873 110.226 189.182 111.916C187.491 113.606 185.198 114.555 182.807 114.555ZM155.758 97.734C153.686 97.734 151.698 98.5568 150.233 100.021C148.768 101.486 147.944 103.473 147.944 105.544C147.944 107.615 148.768 109.602 150.233 111.066C151.698 112.531 153.686 113.354 155.758 113.354H182.807C183.833 113.354 184.849 113.152 185.797 112.759C186.745 112.367 187.607 111.792 188.332 111.066C189.058 110.341 189.633 109.48 190.026 108.533C190.419 107.585 190.621 106.57 190.621 105.544C190.621 104.518 190.419 103.503 190.026 102.555C189.633 101.608 189.058 100.747 188.332 100.021C187.607 99.2963 186.745 98.721 185.797 98.3285C184.849 97.936 183.833 97.734 182.807 97.734H155.758Z" fill="#E9EAEB"/>
<path id="Vector_23" d="M211.046 140.055H127.513C127.162 140.055 126.825 139.915 126.576 139.667C126.328 139.418 126.188 139.081 126.188 138.73V6.21438C126.188 5.86304 126.328 5.5262 126.576 5.27776C126.825 5.02933 127.162 4.88957 127.513 4.88916H211.046C211.397 4.88957 211.734 5.02933 211.983 5.27776C212.231 5.5262 212.371 5.86304 212.372 6.21438V138.73C212.371 139.081 212.231 139.418 211.983 139.667C211.734 139.915 211.397 140.055 211.046 140.055ZM127.513 5.41925C127.302 5.41948 127.1 5.50333 126.951 5.65239C126.802 5.80146 126.718 6.00357 126.718 6.21438V138.73C126.718 138.941 126.802 139.143 126.951 139.292C127.1 139.441 127.302 139.525 127.513 139.525H211.046C211.257 139.525 211.459 139.441 211.608 139.292C211.757 139.143 211.841 138.941 211.841 138.73V6.21438C211.841 6.00357 211.757 5.80146 211.608 5.65239C211.459 5.50333 211.257 5.41948 211.046 5.41925H127.513Z" fill="#E9EAEB"/>
</g>
<defs>
<clipPath id="clip0_4217_63066">
<rect width="228.375" height="168" fill="white"/>
</clipPath>
</defs>
</svg>
