<svg width="260" height="169" viewBox="0 0 260 169" fill="none" xmlns="http://www.w3.org/2000/svg">
<g clip-path="url(#clip0_5423_78782)">
<path d="M236.338 168.003L228.938 145.67C228.938 145.67 237.078 153.81 237.078 160.489L235.617 145.044C235.617 145.044 239.791 150.679 239.374 159.237C238.956 167.795 236.338 168.003 236.338 168.003Z" fill="#E9EAEB"/>
<path d="M77.4141 147.667L70.1914 125.871C70.1914 125.871 78.1359 133.815 78.1359 140.334L76.71 125.26C76.71 125.26 80.784 130.76 80.3766 139.112C79.9692 147.464 77.4141 147.667 77.4141 147.667Z" fill="#E9EAEB"/>
<path d="M190.145 157.726C190.157 172.064 161.719 167.653 126.905 167.683C92.0903 167.714 64.0827 172.173 64.0703 157.835C64.0579 143.496 92.4853 140.354 127.3 140.323C162.114 140.293 190.132 143.388 190.145 157.726Z" fill="#E9EAEB"/>
<path d="M259.113 167.675H0V168.331H259.113V167.675Z" fill="#313038"/>
<path d="M165.745 138.362H161.193L159.027 120.807H165.745V138.362Z" fill="#A0616A"/>
<path d="M157.439 137.062H166.723V142.588H152.418V142.083C152.418 140.751 152.947 139.474 153.889 138.532C154.83 137.591 156.108 137.062 157.439 137.062Z" fill="#15141E"/>
<path d="M199.202 164.274H194.65L192.484 146.718H199.202V164.274Z" fill="#A0616A"/>
<path d="M190.892 162.973H200.176V168.5H185.871V167.994C185.871 166.662 186.4 165.385 187.342 164.443C188.283 163.502 189.561 162.973 190.892 162.973Z" fill="#15141E"/>
<path d="M220.194 112.119C220.509 111.737 220.736 111.291 220.86 110.812C220.983 110.333 221.001 109.833 220.91 109.347C220.82 108.86 220.623 108.4 220.336 107.997C220.048 107.595 219.675 107.261 219.244 107.018L208.673 63.9551L201.914 66.8632L214.488 108.501C214.128 109.252 214.056 110.109 214.286 110.91C214.516 111.71 215.031 112.399 215.734 112.845C216.438 113.291 217.28 113.463 218.102 113.329C218.924 113.195 219.669 112.765 220.194 112.119Z" fill="#A0616A"/>
<path d="M211.949 25.0872C211.572 24.6929 211.113 24.386 210.604 24.1882C210.095 23.9905 209.549 23.9067 209.005 23.9427C208.46 23.9788 207.93 24.1338 207.452 24.3968C206.974 24.6599 206.559 25.0246 206.237 25.4652L189.875 27.3437L192.364 33.6547L207.244 30.8698C208.02 31.3617 208.95 31.5517 209.857 31.404C210.764 31.2563 211.585 30.781 212.165 30.0682C212.745 29.3555 213.043 28.4547 213.004 27.5367C212.964 26.6187 212.588 25.7471 211.949 25.0872Z" fill="#A0616A"/>
<path d="M184.988 107.652L192.128 161.238L201.014 159.408C201.014 159.408 199.708 120.383 204.151 115.679C208.594 110.974 198.436 102.732 198.436 102.732L184.988 107.652Z" fill="#15141E"/>
<path d="M187.939 92.8927L184.659 97.8125C184.659 97.8125 159.404 87.317 159.404 104.044C159.404 120.772 157.958 132.124 157.436 132.908C156.913 133.692 163.483 135.726 166.619 135.204C166.619 135.204 170.489 108.237 170.227 106.668C170.227 106.668 195.002 118.815 199.706 117.77C204.411 116.724 205.522 113.023 206.306 110.932C207.091 108.841 205.978 92.2367 205.978 92.2367L190.297 87.4512L187.939 92.8927Z" fill="#15141E"/>
<path d="M188.382 63.3544L187.448 62.2325C187.448 62.2325 176.977 38.6735 181.09 32.3163C185.204 25.9591 203.154 25.0242 203.715 25.3981C204.275 25.7721 202.375 30.6272 203.684 32.871C203.684 32.871 189.779 35.8856 188.844 36.2596C187.909 36.6335 196.049 50.453 196.049 50.453L195.114 58.8669L188.382 63.3544Z" fill="#CFD4D9"/>
<path d="M206.704 51.761C206.704 51.761 196.981 52.8828 196.607 52.8828C196.233 52.8828 196.046 50.4521 196.046 50.4521L187.445 62.2317C187.445 62.2317 183.208 96.4055 184.33 95.8445C185.452 95.2836 206.143 98.5051 206.33 97.0093C206.517 95.5135 206.143 88.0344 206.704 87.6605C207.265 87.2865 216.427 64.1014 216.427 64.1014C216.427 64.1014 215.492 59.24 212.313 57.5573C209.134 55.8745 206.704 51.761 206.704 51.761Z" fill="#CFD4D9"/>
<path d="M213.438 60.9229L216.429 64.1014C216.429 64.1014 220.874 100.627 218.444 101.748C216.013 102.87 211.228 102.732 211.228 102.732L206.52 85.4168L213.438 60.9229Z" fill="#CFD4D9"/>
<path d="M197.364 49.4485C202.117 49.4485 205.97 45.5955 205.97 40.8424C205.97 36.0894 202.117 32.2363 197.364 32.2363C192.611 32.2363 188.758 36.0894 188.758 40.8424C188.758 45.5955 192.611 49.4485 197.364 49.4485Z" fill="#A0616A"/>
<path d="M195.343 42.1852C195.227 40.3995 192.974 40.3383 191.184 40.3214C189.395 40.3045 187.256 40.3684 186.243 38.8929C185.574 37.9178 185.702 36.564 186.255 35.5186C186.807 34.4731 187.717 33.669 188.611 32.8955C190.921 30.8984 193.301 28.9172 196.074 27.6389C198.846 26.3606 202.096 25.8441 204.971 26.8702C208.504 28.1307 213.279 34.6193 213.692 38.3472C214.104 42.0752 212.614 45.8755 210.103 48.6612C207.591 51.447 201.843 50.323 198.226 51.314C200.425 48.2015 198.976 42.5459 195.453 41.0925L195.343 42.1852Z" fill="#15141E"/>
<path d="M118.64 153.506C130.051 153.506 139.3 144.257 139.3 132.846C139.3 121.436 130.051 112.187 118.64 112.187C107.23 112.187 97.9805 121.436 97.9805 132.846C97.9805 144.257 107.23 153.506 118.64 153.506Z" fill="#E61F27"/>
<path d="M104.844 110.719C101.98 110.719 99.1782 109.889 96.7767 108.33C94.3751 106.77 92.477 104.549 91.3121 101.933L58.5286 28.1047C57.4426 25.6591 56.8683 23.0173 56.8409 20.3416C56.8135 17.6659 57.3335 15.0128 58.3692 12.5455C59.4048 10.0782 60.9341 7.84877 62.863 5.99422C64.7919 4.13968 67.0798 2.69922 69.5859 1.76138C72.092 0.823536 74.7634 0.408131 77.4359 0.540701C80.1085 0.673271 82.7257 1.35101 85.1267 2.53226C87.5277 3.71352 89.6617 5.37333 91.3977 7.40966C93.1336 9.446 94.4347 11.8158 95.2211 14.3735L118.96 91.5868C119.64 93.7969 119.792 96.1356 119.404 98.415C119.015 100.694 118.098 102.851 116.725 104.712C115.352 106.572 113.562 108.085 111.499 109.128C109.435 110.171 107.156 110.716 104.844 110.719Z" fill="#E61F27"/>
</g>
<defs>
<clipPath id="clip0_5423_78782">
<rect width="259.113" height="168" fill="white" transform="translate(0 0.5)"/>
</clipPath>
</defs>
</svg>
