<svg width="211" height="210" viewBox="0 0 211 210" fill="none" xmlns="http://www.w3.org/2000/svg">
  <g clip-path="url(#clip0_4896_78281)">
    <path fill-rule="evenodd" clip-rule="evenodd"
      d="M191.989 188.722L187.224 185.451L183.14 185.615L180.247 186.269L178.375 186.596L173.44 188.231L173.27 190.193H172.079L171.398 193.627L172.93 197.879L176.844 200.495L182.46 199.514L185.693 197.388L190.457 197.552L191.649 195.753L193.35 195.426L191.989 188.722Z"
      fill="#E9EAEB" stroke="white" stroke-linejoin="round" />
    <path fill-rule="evenodd" clip-rule="evenodd"
      d="M174.83 192.973L172.086 197.212L172.772 199.811L174.144 201.178L173.458 203.777L173.321 209.658L174.281 213.761L178.397 216.633L178.672 218.547L180.044 219.094L182.925 214.992L183.062 212.12L185.257 210.889V208.7L182.102 206.512L180.867 202.956L181.416 200.084L180.73 196.939L178.946 196.118L177.162 193.93L175.379 194.614L174.83 192.973Z"
      fill="#E9EAEB" stroke="white" stroke-linejoin="round" />
    <path fill-rule="evenodd" clip-rule="evenodd"
      d="M151.093 143.056L147.938 141.415L144.782 141.825L139.294 139.227L136.962 139.91L133.394 143.329L128.181 140.594L126.123 144.56L123.79 145.654L125.162 151.125L124.614 152.629L122.281 150.851L118.988 150.578L114.324 152.219L108.287 151.809L107.464 153.997L103.896 151.672L101.838 152.082L102.113 153.587L101.152 155.775L104.308 157.279L107.875 157.553L112.128 158.784L112.814 157.143L119.4 155.638L121.184 158.647L131.062 160.835L136.824 161.382L140.117 159.468L146.017 159.331L147.252 157.826L149.035 152.356L147.526 150.578H151.368L151.642 147.022L150.682 144.15L151.093 143.056Z"
      fill="#E9EAEB" stroke="white" stroke-linejoin="round" />
    <path fill-rule="evenodd" clip-rule="evenodd"
      d="M69.4591 118.711L63.4223 120.489L58.4831 119.805L53.2695 121.446L54.2299 124.455L57.2483 124.592L60.5411 127.874L65.2059 131.84L68.6359 131.293L74.6727 135.123L75.2215 130.336L77.0051 130.062L77.5539 124.318L73.7123 122.404L69.4591 118.711Z"
      fill="#E9EAEB" stroke="white" stroke-linejoin="round" />
    <path fill-rule="evenodd" clip-rule="evenodd"
      d="M235.335 184.494L231.219 183.536L225.731 180.528L217.773 182.442L214.618 184.63L204.328 184.22L198.84 182.853L196.233 183.536L193.763 179.98L192.254 181.895L193.214 185.041L197.056 188.597L194.724 191.195L193.763 193.93L194.586 194.888L193.626 196.119L197.468 198.854L198.565 204.461L203.779 204.735L209.13 202.41L214.48 205.282L220.792 204.461L220.38 200.358L227.24 197.623L233.414 198.717L230.533 193.93L232.316 187.913L235.335 184.494Z"
      fill="#E9EAEB" stroke="white" stroke-linejoin="round" />
    <path fill-rule="evenodd" clip-rule="evenodd"
      d="M153.838 171.639L150.682 171.775L149.31 173.553L146.704 171.639L145.469 175.058L149.173 179.024L150.957 181.622L154.387 184.768L157.131 186.683L160.149 190.102L166.598 193.384L167.146 188.734L169.204 186.819L170.439 185.999L172.086 185.589L172.772 181.622L169.067 178.477L170.439 174.784H167.97L164.677 172.87L159.875 173.006L153.838 171.639Z"
      fill="#E9EAEB" stroke="white" stroke-linejoin="round" />
    <path fill-rule="evenodd" clip-rule="evenodd"
      d="M223.261 82.0593L216.126 80.0078L209.815 83.1534L206.248 84.521L207.483 88.0769L202.681 90.8121L201.995 95.4621L195.409 98.4709H189.098L189.921 102.163L192.254 105.309L192.665 108.591L188.961 110.233L191.568 114.199L192.254 117.891L195.272 117.481L198.565 115.293L203.641 115.019L210.501 115.703L218.184 117.754L223.398 117.891L226.142 119.122L228.337 117.618L230.395 119.669L236.295 119.259L239.039 120.079L238.764 115.84L240.411 113.925L246.036 113.515L243.292 108.181L241.234 105.446L242.332 104.625L247.682 104.899L249.878 103.121L247.545 100.933L242.88 99.4282L243.018 97.9238L239.999 96.4194L234.923 91.0856L235.746 88.8974L234.374 84.9313L227.788 83.0166L224.633 83.974L223.261 82.0593Z"
      fill="#E9EAEB" stroke="white" stroke-linejoin="round" />
    <path fill-rule="evenodd" clip-rule="evenodd"
      d="M101.838 152.081L94.4294 149.482L93.0574 151.397H87.295L85.5114 152.765L82.3557 151.944L82.6301 154.132L77.8281 158.919V162.748L81.121 161.518L83.5905 165.21L86.609 166.988L89.9017 166.578L93.6061 163.706L94.841 165.073L98.1337 164.8L99.3685 161.381L104.582 162.475L107.463 160.971L107.875 157.551L104.308 157.278L101.152 155.773L102.113 153.585L101.838 152.081Z"
      fill="#E9EAEB" stroke="white" stroke-linejoin="round" />
    <path fill-rule="evenodd" clip-rule="evenodd"
      d="M136.278 121.857L133.397 122.678L131.476 121.721L129.967 123.362L125.302 125.003L122.969 127.054L118.305 128.832L119.677 131.431L120.637 134.987L124.204 137.038L128.183 140.594L133.397 143.329L136.964 139.91L139.296 139.226L144.784 141.825L147.94 141.415L151.095 143.056L151.919 141.141L154.937 141.278L157.132 140.457L157.269 139.637L158.504 139.226L158.779 137.312L160.288 136.901L161.111 135.397H163.169L159.602 131.157L154.663 130.747L153.702 128.012L149.037 127.191L148.214 129.243L144.51 127.602L144.647 125.277L139.571 124.456L136.278 121.857Z"
      fill="#E9EAEB" stroke="white" stroke-linejoin="round" />
    <path fill-rule="evenodd" clip-rule="evenodd"
      d="M128.32 99.7005L125.027 97.102L117.481 93.8197L114.051 96.1447L107.603 97.6491L107.466 94.777L100.743 92.8624L100.468 89.7168L96.3525 90.9477L91.4133 89.8536L91.962 94.5035L93.6085 97.5123L89.4925 101.615L88.1205 99.8373L82.7697 100.248L81.5349 102.025L82.9069 104.761L81.5349 112.42L80.0257 115.565H76.0469L77.556 124.318L77.0073 130.062L78.3793 131.977L78.1049 135.669L81.3977 137.857L91.1389 139.499L87.9833 145.243L87.2973 151.397H93.0597L94.4317 149.482L101.841 152.081L103.899 151.671L107.466 153.996L108.289 151.807L114.326 152.218L118.991 150.576L122.283 150.85L124.616 152.628L125.165 151.123L123.793 145.653L126.125 144.559L128.183 140.593L124.204 137.037L120.637 134.985L119.677 131.43L118.305 128.831L122.969 127.053L125.302 125.002L129.967 123.361L131.476 121.719L133.397 122.677L136.278 121.856L133.122 116.522L133.259 113.65L131.339 109.137L128.595 106.128L130.241 103.94L128.32 99.7005Z"
      fill="#2575FC" stroke="white" stroke-linejoin="round" />
    <path fill-rule="evenodd" clip-rule="evenodd"
      d="M117.757 84.5212L115.424 80.4183L106.232 83.1536L107.467 86.5727L114.464 91.2226L117.757 84.5212ZM105.958 77.5463L102.39 76.3154L101.43 74.1272L103.214 71.392L103.076 67.2891L98.1371 69.4773L96.0791 71.8022L90.5911 72.3493L88.9448 74.6743L87.9844 76.8625L88.5331 85.205L91.4144 89.855L96.3535 90.9491L100.47 89.7182L98.4115 85.6153L102.665 79.7345L104.586 80.6918L105.958 77.5463Z"
      fill="#E9EAEB" stroke="white" stroke-linejoin="round" />
    <path fill-rule="evenodd" clip-rule="evenodd"
      d="M196.369 52.1074L188.823 53.3383L181.414 55.5265L182.649 60.1764L187.176 63.0485L189.234 61.9544L189.372 66.7411L194.448 65.3735L197.329 66.3308L203.366 69.3396H208.58L210.775 66.7411L207.345 59.2191L210.912 54.5692L209.677 53.2015L203.366 53.4751L196.369 52.1074Z"
      fill="#E9EAEB" stroke="white" stroke-linejoin="round" />
    <path fill-rule="evenodd" clip-rule="evenodd"
      d="M196.644 -20.513L197.742 -25.71L189.921 -28.582L181.964 -26.1203L180.455 -20.7865L175.79 -17.5042L169.341 -19.2821L162.07 -18.8718L155.073 -22.838L152.191 -20.9233L160.286 -17.2307L170.165 -12.1704L172.497 -0.682339L175.104 2.32647L183.885 5.8823L185.119 9.02786L181.552 10.669L169.616 19.0116L165.088 23.935L163.03 28.4482L167.009 35.5599L166.872 43.3554L173.32 45.9539L177.573 50.1936L187.315 48.5524L197.605 45.6804L208.581 44.9966L219.419 34.8761L223.947 30.3629L225.182 26.3968L215.166 21.063L216.401 16.0028L209.678 10.3955L212.011 3.83085L203.23 -4.78524L207.071 -10.3925L197.193 -15.4528L196.644 -20.513Z"
      fill="#E9EAEB" stroke="white" stroke-linejoin="round" />
    <path fill-rule="evenodd" clip-rule="evenodd"
      d="M-0.100772 93.1358L-6.82361 88.0756L-12.1744 88.4859L-11.0768 92.8623L-12.5859 97.2387L-8.60719 97.1019L-3.80519 98.8799L-0.100772 93.1358ZM17.7352 59.9023L10.1892 60.5862L5.25006 60.0391L0.173644 66.6038L-2.43319 74.9463L0.585228 79.0492L0.722394 86.9815L4.28964 83.1521L6.21039 85.3403L3.87806 89.0329L5.25006 91.2211L13.0704 92.7255H13.2076L17.4608 97.9225L16.3632 102.709L6.62206 101.889L5.25006 107.359L8.81723 111.872L1.82006 114.471L3.60364 117.753L13.8936 119.121L7.99406 120.899L-2.02161 129.788L1.40839 131.43L6.21039 128.284L12.3844 129.241L16.9121 125.275L19.9304 126.916L31.3181 124.591L40.2361 124.728L46.1356 120.215L43.5288 115.975L46.8216 113.514L47.5076 108.18L39.5501 106.539L37.7664 103.393L33.7876 93.9564L29.3972 92.5888L23.7721 82.8786L23.2232 82.058L16.6376 81.5109L22.4001 74.2625L24.1836 67.5611H17.3236L10.8752 68.6552L17.7352 59.9023Z"
      fill="#E9EAEB" stroke="white" stroke-linejoin="round" />
    <path fill-rule="evenodd" clip-rule="evenodd"
      d="M208.306 253.697L207.208 257.526L216.264 259.168V260.672L226.691 259.851L227.377 257.253L223.535 258.347V256.843L218.184 256.159L212.559 256.706L208.306 253.697ZM224.084 202.548L220.38 200.359L220.791 204.462L214.48 205.283L209.129 202.411L203.778 204.736L198.565 204.462L197.193 204.736L196.232 206.24L192.391 206.103L189.784 207.881L185.256 208.702V210.89L183.061 212.121L182.924 214.993L180.043 219.096L180.729 221.694L184.708 226.618L187.863 230.721L189.647 236.602L192.802 243.577L199.114 247.543L203.778 247.406L200.486 239.61L205.013 238.653L202.406 234.14L209.266 236.465L208.718 231.405L205.013 228.943L200.623 224.84L203.092 222.925L199.251 218.822L197.056 213.625L198.29 211.847L202.406 216.224H206.385L209.815 214.856L204.464 209.933L212.834 207.745L216.538 208.565L220.928 208.839L222.438 207.881L224.084 202.548Z"
      fill="#E9EAEB" stroke="white" stroke-linejoin="round" />
    <path fill-rule="evenodd" clip-rule="evenodd"
      d="M157.68 165.484L152.192 161.928L149.997 160.834L144.646 163.159L144.235 166.578L141.902 167.399L142.177 169.724L139.433 169.587L136.963 168.219L135.865 169.587L131.063 169.313L130.789 169.45V172.459L133.121 175.194L134.905 171.638L139.433 173.006L139.844 175.741L143.274 179.297L141.902 179.981L148.213 186.135L154.799 188.597L159.052 191.606L165.912 194.751L166.598 193.384L160.15 190.101L157.131 186.682L154.387 184.768L150.957 181.622L149.174 179.023L145.469 175.057L146.704 171.638L149.311 173.553L150.683 171.775L153.839 171.638L159.875 173.006L164.677 172.869L167.97 174.784L170.303 171.638L167.97 169.177L165.912 165.894L163.443 167.125L157.68 165.484Z"
      fill="#E9EAEB" stroke="white" stroke-linejoin="round" />
    <path fill-rule="evenodd" clip-rule="evenodd"
      d="M177.026 142.781L174.831 143.328L173.459 145.38L170.441 146.337L169.617 145.79L166.462 147.158L163.855 147.431L163.443 149.072L157.818 150.166L155.211 149.209L151.644 147.021L151.37 150.577H147.528L149.037 152.355L147.254 157.825L148.351 157.962L149.998 160.834L152.193 161.928L157.681 165.484L163.443 167.125L165.913 165.894L170.989 163.706L175.38 163.98L180.593 162.475L184.161 156.594L186.767 150.85L190.746 149.072L189.923 146.884L185.944 144.559L184.572 145.38L177.026 142.781Z"
      fill="#E9EAEB" stroke="white" stroke-linejoin="round" />
    <path fill-rule="evenodd" clip-rule="evenodd"
      d="M147.801 231.404L142.313 232.087L135.178 233.045L126.672 232.224L125.849 236.874L136.139 241.387L139.843 242.345L145.606 245.627L146.84 241.114L145.606 238.378L147.801 231.404ZM101.564 205.555L98.1344 208.154L94.2929 207.743L96.0764 212.667L96.6253 223.061L99.5064 225.386L102.25 222.514L105.543 223.061L106.092 211.573L101.564 205.555ZM121.184 158.645L119.4 155.637L112.815 157.141L112.129 158.782L107.876 157.551L107.464 160.97L104.583 162.475L99.3693 161.381L98.1344 164.8L94.8417 165.073L93.6069 163.706L89.9024 166.578L86.6097 166.988L83.5913 165.21L83.3169 167.535L85.5121 170.817L83.1797 173.279L85.2377 179.844L88.9421 180.938L88.2561 184.631L91.1373 183.947L94.9789 180.117L98.1344 178.886L103.897 181.758L107.464 182.716L110.071 190.922L115.01 195.845L121.733 201.316L127.495 205.145L132.846 205.692L136.002 209.111L140.666 210.752L142.999 214.445L146.017 215.539L148.487 219.915L151.642 224.976L150.133 226.754L149.036 231.54L149.173 234.276L152.054 233.592L155.484 225.933L158.365 225.386L158.914 220.873L153.563 217.727L156.17 212.12L162.344 213.488L166.597 217.59L167.695 214.445L166.872 212.804L160.423 208.427L155.072 205.829L148.487 202.683L150.408 201.042L148.487 199.127L142.999 199.264L134.767 192.426L130.788 185.451L124.065 181.211L121.458 176.972L122.144 174.51L121.596 170.407L126.946 167.398L132.572 168.629L130.651 164.937L131.062 160.834L121.184 158.645Z"
      fill="#E9EAEB" stroke="white" stroke-linejoin="round" />
    <path fill-rule="evenodd" clip-rule="evenodd"
      d="M206.249 84.5196L199.389 80.5535L195.959 80.0064L194.724 78.2285L188.687 79.0491L177.848 78.502L170.988 81.1005L173.321 87.9387L180.181 89.4431L183.199 90.674L182.925 92.9989L183.748 95.0504L187.178 95.871L189.099 98.4695H195.41L201.996 95.4607L202.682 90.8107L207.484 88.0755L206.249 84.5196Z"
      fill="#E9EAEB" stroke="white" stroke-linejoin="round" />
    <path fill-rule="evenodd" clip-rule="evenodd"
      d="M78.1058 135.67L78.3802 131.977L77.0082 130.062L75.2246 130.336L74.6758 135.123L76.1849 135.807L78.1058 135.67Z"
      fill="#E9EAEB" stroke="white" stroke-linejoin="round" />
    <path fill-rule="evenodd" clip-rule="evenodd"
      d="M208.58 69.3392H203.366L197.329 66.3304L194.448 65.373L189.372 66.7407L189.097 73.0318L184.158 73.1685L178.121 67.0142L172.633 69.8862L170.301 74.9465L170.987 81.1008L177.847 78.5023L188.686 79.0494L194.722 78.2288L195.957 80.0067L199.387 80.5538L206.247 84.5199L209.814 83.1523L216.126 80.0067L213.244 75.0832L211.872 71.2539L208.58 69.3392Z"
      fill="#E9EAEB" stroke="white" stroke-linejoin="round" />
    <path fill-rule="evenodd" clip-rule="evenodd"
      d="M197.468 198.854L193.627 196.119L190.334 196.256L188.002 196.803L186.492 197.076L182.514 198.444L182.376 200.085H181.416L180.867 202.957L182.102 206.513L185.258 208.701L189.785 207.881L192.392 206.103L196.234 206.24L197.194 204.735L198.566 204.462L197.468 198.854Z"
      fill="#E9EAEB" stroke="white" stroke-linejoin="round" />
    <path fill-rule="evenodd" clip-rule="evenodd"
      d="M178.258 192.016L178.807 191.195L176.063 189.554L173.593 188.597L172.496 187.502L170.438 185.998L169.203 186.819L167.145 188.733L166.596 193.383L165.91 194.751L169.066 196.392L171.261 199.264L172.77 199.811L172.084 197.213L174.828 192.973L175.377 194.614L177.16 193.93L178.258 192.016Z"
      fill="#E9EAEB" stroke="white" stroke-linejoin="round" />
    <path fill-rule="evenodd" clip-rule="evenodd"
      d="M76.046 115.565H80.0248L81.534 112.419L82.906 104.761L81.534 102.025L76.1831 101.752L67.2651 105.308L61.9144 117.48L58.4844 119.805L63.4235 120.489L69.4604 118.711L73.7135 122.403L77.5551 124.318L76.046 115.565Z"
      fill="#E9EAEB" stroke="white" stroke-linejoin="round" />
    <path fill-rule="evenodd" clip-rule="evenodd"
      d="M190.332 -35.9679L180.865 -34.4636L170.85 -34.8738L163.852 -28.8563L154.66 -29.2665L142.998 -26.121L129.141 -16.8211L120.36 -11.3506L108.286 3.28311L98.5453 13.9506L87.432 21.8829L72.0656 28.4475L66.7148 33.371L69.3216 51.6973L71.9284 60.3134L80.7093 64.4163L88.9413 62.5016L100.603 53.2017L105.131 58.1252L107.463 53.612L112.128 48.1415L113.363 38.7048L109.11 34.7387L107.738 24.3446L110.893 17.0962L116.793 17.233L118.576 14.2242L116.107 11.6257L123.927 0.821365L128.592 -7.5212L131.61 -12.855L137.098 -12.7182L137.922 -16.9579L148.76 -15.727V-20.5137L152.19 -20.924L155.072 -22.8387L162.069 -18.8725L169.34 -19.2828L175.789 -17.5049L180.454 -20.7872L181.963 -26.121L189.92 -28.5827L197.741 -25.7107L196.643 -20.5137L201.034 -21.1975L209.814 -24.2063L202.406 -28.7195L208.991 -30.6342L190.332 -35.9679ZM159.325 -81.5101L151.642 -82.8777L149.035 -85.2027L139.156 -83.9718L142.724 -81.9204L139.705 -80.2792L148.898 -78.7748L159.325 -81.5101ZM124.476 -92.8615L117.89 -95.0497L110.893 -94.7761L109.521 -92.7247H102.661L99.6428 -94.7761L86.8833 -92.5879L91.2736 -87.8012L101.701 -82.6042L109.521 -80.6895L105.405 -78.3646L116.93 -74.3984L122.967 -74.6719L124.202 -80.0057L128.318 -81.2366L129.964 -85.8865L141.626 -88.3483L124.476 -92.8615ZM157.678 -97.1011L145.193 -98.4688L140.803 -96.8276L133.531 -98.1952L119.262 -96.5541L125.162 -93.8188H132.159L133.394 -92.0409L147.937 -91.0835L161.794 -91.7673L167.694 -95.0497L157.678 -97.1011Z"
      fill="#E9EAEB" stroke="white" stroke-linejoin="round" />
    <path fill-rule="evenodd" clip-rule="evenodd"
      d="M163.718 94.2297L157.407 94.0929L156.721 92.1782L150.135 90.6738L142.315 93.5459L132.573 97.3752L128.32 99.7002L130.241 103.94L128.595 106.128L131.339 109.137L133.259 113.65L133.122 116.522L136.278 121.856L139.571 124.454L144.647 125.275L144.51 127.6L148.214 129.241L149.037 127.19L153.702 128.01L154.663 130.745L159.602 131.156L163.169 135.395L163.581 135.942L166.187 134.712L169.892 137.72L173.733 135.942L177.026 136.763L181.691 135.669L188.414 138.814L189.923 139.362L187.728 135.532L192.941 128.557L196.097 127.6L196.509 125.138L192.255 117.89L191.569 114.197L188.963 110.231L192.667 108.59L192.255 105.307L189.923 102.162L189.1 98.4693L187.179 95.8708L183.749 95.0502L171.813 95.187L163.718 94.2297Z"
      fill="#E9EAEB" stroke="white" stroke-linejoin="round" />
    <path fill-rule="evenodd" clip-rule="evenodd"
      d="M216.813 146.201H213.932L212.56 148.253L207.621 149.073L205.426 150.304L202.133 148.253H197.742L193.352 147.295L190.745 149.073L186.766 150.851L184.16 156.595L180.592 162.476L175.379 163.98L179.358 167.399L180.455 169.998L184.846 172.049L185.806 175.469L190.059 177.93L191.98 176.152L193.901 177.11L192.392 178.614L193.764 179.982L196.233 183.538L198.84 182.854L204.328 184.221L214.618 184.632L217.774 182.443L225.731 180.529L231.219 183.538L235.335 184.495L235.884 174.374L238.079 175.058L241.235 173.28L240.686 171.092L237.393 169.588L234.375 170.955L231.082 169.451L229.298 165.622L229.573 161.929L228.75 158.236L224.085 153.176L221.478 149.62L219.008 147.022L216.813 146.201Z"
      fill="#E9EAEB" stroke="white" stroke-linejoin="round" />
    <path fill-rule="evenodd" clip-rule="evenodd"
      d="M524.414 -87.9388L518.24 -93.4094L499.58 -99.0166L486.684 -101.889L478.177 -100.658L470.906 -96.6917L478.863 -95.5976L487.918 -91.2211L498.894 -88.8962L514.672 -87.1182L524.414 -87.9388ZM279.237 -97.9225L280.472 -98.7431L272.652 -99.974L268.81 -99.0166L267.026 -97.649L264.968 -99.2902L257.834 -99.1534L249.328 -98.0593L259.892 -97.9225L258.383 -96.1446L264.42 -94.777L269.359 -95.7343L269.496 -96.6917L273.475 -97.102L279.237 -97.9225ZM554.323 -84.383L552.265 -86.8447L535.115 -90.4006L530.999 -90.8109L527.981 -90.127L529.627 -81.9212L554.323 -84.383ZM575.178 -75.7669L562.555 -76.7242L567.22 -78.3654L555.97 -80.4168L547.6 -77.8183L546.228 -75.0831L548.286 -72.2111L538.82 -72.3478L531.548 -68.792L525.648 -70.2964L512.889 -69.6125L513.3 -67.8346L500.678 -66.8773L493.955 -63.595L488.193 -63.3214L486.546 -58.8082L494.092 -55.2524L483.528 -54.2951L470.494 -54.7053L462.536 -53.201L469.122 -45.8157L478.589 -39.9349L465.418 -44.0378L454.579 -43.6275L447.582 -40.8923L453.756 -35.6953L447.033 -37.0629L444.152 -43.9011L438.389 -47.7304L435.92 -47.5937L440.859 -42.5334L434.548 -37.7467L445.661 -32.0027L446.21 -24.6174L450.188 -20.6513L456.637 -19.9675L457.186 -15.1808L463.222 -10.9411L460.616 -7.38527L461.302 -3.69267L456.225 -1.77797L455.539 0.957298L448.268 -0.13681L453.07 -10.8044L452.384 -15.7278L443.191 -20.241L437.978 -30.2247L432.901 -35.285L427.962 -37.4732L429.06 -43.2172L425.081 -47.1834L409.577 -49.0981L406.696 -47.7304L407.382 -41.3026L401.482 -34.8747L403.129 -32.5497L409.577 -26.9424L409.714 -23.3866L416.986 -22.7028L418.084 -21.1984L426.041 -17.2322L424.669 -13.4028L399.287 -21.7454L390.232 -24.0704L372.67 -26.2586L371.024 -23.9336L379.119 -19.694L375.414 -14.7705L366.634 -19.1469L359.774 -16.1381L349.346 -16.0014L346.465 -13.4028L339.194 -14.2234L342.624 -18.7366L338.233 -19.0101L321.358 -12.719L310.93 -9.16319L311.479 -4.37648L303.247 -2.73533L297.759 -5.33382L296.113 -9.43671L302.973 -10.3941L298.034 -14.497L281.295 -16.9587L287.195 -12.3088L286.097 -7.93231L292.546 -3.41914L291.036 1.77786L284.725 -0.820625L279.237 -1.23092L268.261 6.15429L274.024 11.7616L269.633 13.6763L253.992 8.88955L251.111 11.7616L255.639 15.0439L255.913 18.7365L250.7 16.8218L242.468 14.4968L239.861 6.56458L238.489 3.00875L227.513 -2.46178L231.492 -3.41914L259.069 2.32493L267.85 0.273483L272.926 -3.69267L270.731 -8.61613L265.243 -12.172L241.096 -20.5145L225.18 -22.2924L214.753 -26.6689L209.814 -24.2072L201.033 -21.1984L196.643 -20.5145L197.192 -15.4543L207.07 -10.3941L203.228 -4.78677L212.009 3.82932L209.677 10.394L216.4 16.0013L215.165 21.0615L225.18 26.3952L223.946 30.3614L219.418 34.8746L208.579 44.9951L215.851 48.8244L209.677 53.2009L210.912 54.5685L207.344 59.2184L210.774 66.7404L208.579 69.3389L211.872 71.2536L213.244 75.083L216.125 80.0065L223.26 82.0579L224.632 83.9726L227.787 83.0153L234.373 84.9299L235.745 88.8961L234.922 91.0843L239.998 96.418L243.016 97.9224L242.879 99.4268L247.544 100.931L249.876 103.119L247.681 104.897L242.33 104.624L241.233 105.444L243.291 108.18L246.035 113.513L248.504 113.787L249.876 111.872L251.934 112.283L258.52 111.599L263.734 116.249L262.499 118.027L263.459 120.625L268.947 120.899L271.966 124.591L272.24 126.232L281.295 129.241L286.097 127.874L291.036 131.84L295.015 131.703L305.442 134.438L305.991 137.037L304.208 141.413L306.677 146.063L306.266 148.935L299.817 149.619L296.799 151.944L297.348 155.773L303.11 154.406L303.659 156.184L294.329 159.739L298.72 163.022L294.329 170.133L289.664 171.501L296.524 176.425L305.031 179.707L315.184 186.682L315.87 185.724L322.044 187.229L332.608 188.596L342.898 192.563L344.407 194.204L348.386 192.836L355.383 194.614L358.264 198.033L363.066 199.948L365.124 200.221L371.024 205.418L374.317 205.965L375.003 203.914L378.57 200.495L368.554 190.511L368.006 184.904L359.911 176.835L364.713 168.219L371.024 166.714L372.945 161.654L369.103 160.286L368.829 155.91L363.066 150.303L358.127 150.576L350.856 144.695L353.188 138.268L350.856 136.626L353.737 127.327L361.969 132.25L361.008 125.959L372.122 116.933L382.412 116.659L398.738 122.54L407.794 125.822L413.693 122.403L424.12 122.13L434.136 126.506L435.234 124.044L444.7 124.455L444.975 120.352L432.078 114.608L437.017 110.641L434.959 108.316L440.31 106.128L433.45 100.521L435.371 97.6489L458.42 94.7769L460.753 92.7254L475.57 89.7166L479.824 86.2976L492.172 88.0755L498.071 96.6916L503.971 94.6401L513.575 97.5121L515.221 102.025L521.258 101.478L533.743 93.6828L532.646 96.2813L544.033 102.709L568.866 123.907L570.376 119.394L581.763 124.318L590.27 122.13L594.66 123.634L600.285 128.557L605.636 130.199L610.164 133.754L618.396 132.524L624.295 137.721L626.628 137.037L633.076 135.669L642.131 128.284L650.226 124.318L657.498 126.916L664.495 127.053L670.943 131.019L677.803 131.293L688.642 133.481L691.935 127.6L686.447 122.677L688.23 113.924L697.697 117.343L704.283 118.437L713.338 120.488L718.414 126.779L729.939 130.335L735.29 128.831L743.11 127.737L750.519 128.831L759.437 132.934L766.16 137.174H772.334L781.526 138.541L786.466 136.353L794.423 134.985L800.597 128.968L805.125 129.925L810.476 132.797L818.022 132.113L828.037 135.259L834.074 129.925L831.467 126.232L831.33 117.343L832.976 114.608L829.546 110.094L824.47 108.043L826.802 103.94L833.8 102.436L842.306 102.162L853.968 104.624L862.063 107.769L872.627 116.112L877.841 119.805L883.878 124.865L892.247 133.207L905.83 135.806L918.04 141.96L926.272 149.892H936.562L940.13 146.473L949.596 144.012L951.38 151.67L950.831 154.816L954.673 164.116L955.496 172.322L946.166 170.817L942.188 173.826L948.636 181.074L953.85 191.058L950.42 191.195L953.026 195.435L954.947 196.939L954.398 194.204L959.886 188.049L966.884 192.152L971.274 192.016L977.311 187.092L978.683 182.032L981.564 172.322L984.171 162.475L982.387 156.594L983.759 144.285L976.625 130.746L969.079 120.762L967.295 112.283L960.847 105.308L943.422 96.1445L935.739 95.5975L935.328 99.7003L927.37 97.9224L919.55 92.7254L908.574 91.7681L915.296 72.4845L920.098 56.7567L938.072 54.295L958.514 55.6626L961.944 51.8332L972.783 52.9273L978.683 58.8081L987.464 57.9876L998.988 55.7993L988.424 51.0126V37.6098L1000.91 35.0113L1017.51 44.7215L1022.45 35.9687L1018.06 29.5408L1024.51 28.857L1033.43 39.9348L1030.13 46.2259L1029.04 54.4317L1029.45 64.689L1021.63 66.4669L1025.47 70.1595L1025.33 75.083L1034.11 86.4343L1056.06 104.761L1070.47 116.796L1078.29 122.677L1080.49 114.881L1074.31 106.402L1082.13 104.35L1074.72 94.9136L1081.58 90.674L1075.13 87.1182L1070.47 80.28L1076.09 80.0065L1063.75 68.2448L1054.55 66.3301L1050.58 63.0478L1049.07 55.3891L1044.81 50.0553L1054.42 51.1494L1056.2 47.7303L1062.65 50.7391L1071.02 44.448L1086.66 49.9185L1084.33 46.3627L1087.07 41.4392L1089.13 35.9687L1093.38 35.0113L1102.3 29.1305L1115.75 30.7717L1114.51 28.7202L1109.3 25.5747L1103.67 23.3865L1091.19 17.0953L1080.07 12.9924L1088.44 13.5395L1091.19 10.1204L1046.05 -19.8307L1033.15 -22.9763L1011.61 -26.5321L1000.77 -26.1218L979.918 -28.0365L982.387 -24.891L994.049 -20.241L990.619 -17.7793L971.137 -24.3439L961.807 -23.5233L949.185 -25.0277L939.581 -24.7542L934.23 -23.2498L924.352 -25.438L917.354 -30.635L908.436 -33.6438L895.814 -34.8747L875.646 -33.5071L853.556 -38.9776L842.855 -43.0805L787.838 -47.7304L784.956 -44.7216L797.716 -38.157L787.426 -39.1143L786.054 -37.0629L772.746 -39.2511L765.886 -37.3364L753.126 -40.6187L757.242 -33.0968L745.031 -35.9688L731.311 -41.5761L730.762 -44.5849L722.53 -49.0981L709.085 -52.6539H700.716L687.956 -53.8848L694.404 -48.551L670.806 -49.6451L665.455 -52.7907L647.208 -54.0215L639.936 -52.9274L639.799 -51.1495L631.841 -55.5259L628.686 -54.2951L618.807 -55.9362L611.124 -56.8936L612.633 -58.945L621.688 -62.7744L624.844 -64.8258L621.551 -68.2449L614.005 -70.8434L598.227 -73.989L583.41 -74.1257L580.803 -72.4846L575.178 -75.7669ZM352.639 -32.5497L339.056 -38.4305L334.803 -44.3113L339.331 -51.0127L343.172 -57.8509L354.972 -64.2788L368.417 -67.5611L383.921 -70.8434L385.704 -72.8949L379.942 -75.4934L370.887 -74.6728L364.164 -72.2111L348.112 -70.9802L334.254 -66.7405L324.925 -63.0479L328.355 -60.0391L319.3 -54.0215L324.65 -53.0642L317.242 -47.1834L319.437 -43.354L314.772 -41.8496L317.379 -38.0202L328.218 -36.1056L331.236 -32.96L349.621 -32.0027L352.639 -32.5497ZM783.447 -66.3302L758.888 -69.8861L744.894 -70.1596L740.229 -68.9287L744.894 -64.2788L761.907 -59.9024L768.081 -61.5435L787.563 -61.27L783.447 -66.3302ZM818.022 -63.1847L801.969 -64.9626L790.719 -65.9199L793.051 -63.7317L807.183 -60.9965L816.512 -60.4494L818.022 -63.1847ZM800.872 -50.1922L797.442 -52.1068L786.054 -54.7053L780.429 -54.0215L779.331 -51.2863L780.84 -51.0127L792.914 -50.1922H800.872ZM1023.96 -33.3703L1015.73 -38.2938L1013.81 -35.285L1018.61 -33.0968L1023.96 -33.3703ZM183.746 95.0504L182.923 92.999L183.197 90.674L180.179 89.4431L173.319 87.9387L164.675 90.674L163.715 94.2298L171.81 95.1872L183.746 95.0504ZM992.814 124.865L982.936 116.385L975.939 108.18L966.609 100.247L959.886 94.7769L958.103 95.871L964.14 99.7003L961.533 103.53L970.862 114.881L981.564 123.087L990.345 134.438L993.638 140.729L1001.18 150.029L1006.4 158.235L1012.71 165.347L1012.57 158.782L1021.49 163.979L1017.37 157.962L1004.34 149.345L999.263 137.037L1011.47 139.772L992.814 124.865Z"
      fill="#E9EAEB" stroke="white" stroke-linejoin="round" />
    <path fill-rule="evenodd" clip-rule="evenodd"
      d="M184.844 172.05L180.453 169.998L179.356 167.4L175.377 163.981L170.986 163.707L165.91 165.895L167.968 169.178L170.3 171.639L167.968 174.785H170.438L169.066 178.477L172.77 181.623L172.084 185.589L170.438 185.999L172.496 187.504L173.593 188.598L176.063 189.555L178.807 191.196L178.258 192.017L179.904 191.333L180.59 188.598L181.825 188.051L182.923 189.282L184.295 189.829L185.392 191.196L186.49 191.607L187.999 193.111H189.097L188.411 195.163L187.725 196.12L187.999 196.804L190.332 196.257L193.624 196.12L194.585 194.889L193.762 193.932L194.722 191.196L197.054 188.598L193.213 185.042L192.252 181.897L193.762 179.982L192.39 178.614L193.899 177.11L191.978 176.152L190.057 177.93L185.804 175.469L184.844 172.05Z"
      fill="#E9EAEB" stroke="white" stroke-linejoin="round" />
    <path fill-rule="evenodd" clip-rule="evenodd"
      d="M188.414 138.816L181.691 135.67L177.026 136.764L173.733 135.944L169.892 137.722L166.187 134.713L163.58 135.944L163.169 135.397H161.111L160.288 136.901L158.778 137.311L158.504 139.226L157.269 139.636L157.132 140.457L154.937 141.278L151.918 141.141L151.095 143.055L150.684 144.15L151.644 147.022L155.211 149.21L157.818 150.167L163.443 149.073L163.855 147.432L166.462 147.158L169.617 145.791L170.44 146.338L173.459 145.38L174.831 143.329L177.026 142.782L184.572 145.38L185.944 144.56L186.904 141.141L188.414 138.816Z"
      fill="#E9EAEB" stroke="white" stroke-linejoin="round" />
    <path fill-rule="evenodd" clip-rule="evenodd"
      d="M149.998 160.835L148.351 157.963L147.254 157.826L146.019 159.331L140.119 159.467L136.826 161.382L131.064 160.835L130.652 164.938L132.573 168.63L131.064 169.314L135.866 169.588L136.964 168.22L139.433 169.588L142.177 169.725L141.903 167.4L144.235 166.579L144.647 163.16L149.998 160.835Z"
      fill="#E9EAEB" stroke="white" stroke-linejoin="round" />
    <path fill-rule="evenodd" clip-rule="evenodd"
      d="M175.105 2.32592L172.498 -0.682888L170.166 -12.171L160.287 -17.2312L152.192 -20.9238L148.762 -20.5136V-15.7268L137.924 -16.9577L137.1 -12.718L131.612 -12.8548L128.594 -7.52105L123.929 0.821516L116.109 11.6258L118.578 14.2243L116.795 17.2331L110.895 17.0963L107.74 24.3448L109.112 34.7388L113.365 38.7049L112.13 48.1416L107.465 53.6121L105.133 58.1253L110.895 69.6134L116.932 78.7766L119.676 86.5721L126.948 86.1618L129.966 79.7339L137.786 80.4177L140.53 72.8957L141.354 59.2194L147.665 57.4415L152.192 48.4151L145.607 43.9019L140.668 38.4314L143.549 27.3536L154.113 20.6522L162.482 14.4978L160.836 9.71113L165.501 4.37737L175.105 2.32592Z"
      fill="#E9EAEB" stroke="white" stroke-linejoin="round" />
    <path fill-rule="evenodd" clip-rule="evenodd"
      d="M258.524 111.6L251.938 112.283L249.88 111.873L248.508 113.788L246.039 113.514L240.414 113.925L238.767 115.839L239.042 120.079L236.298 119.258L230.398 119.669L228.34 117.617L226.145 119.122L223.401 117.891L218.187 117.754L210.504 115.703L203.644 115.019L198.568 115.292L195.275 117.48L192.256 117.891L196.51 125.139L196.098 127.601L192.942 128.558L187.729 135.533L189.924 139.363L188.415 138.815L186.906 141.14L185.945 144.56L189.924 146.885L190.747 149.073L193.354 147.295L197.744 148.252H202.135L205.428 150.304L207.623 149.073L212.562 148.252L213.934 146.201H216.815L218.324 144.97L222.715 144.149L228.066 146.748L230.81 147.158L234.24 149.346V152.218L236.846 153.723L238.356 157.279L241.1 159.33L240.825 160.698L242.197 161.518L240.551 162.202L236.435 161.928L235.612 160.698L234.24 161.381L234.926 162.886L233.416 165.621L232.73 168.493L231.084 169.45L234.377 170.955L237.395 169.587L240.688 171.092L245.216 164.801L246.999 160.151L253.173 159.056L254.134 162.339L265.11 164.39L267.442 166.305L261.268 169.177L260.308 170.818L268.265 173.28L267.442 177.246L271.558 179.024L280.202 174.1L287.473 172.596L288.296 169.587L281.299 170.134L277.595 168.083L276.223 162.749L281.574 159.604L287.885 159.193L292.001 156.458L297.352 155.774L296.803 151.945L299.821 149.62L306.27 148.936L306.681 146.064L304.212 141.414L305.995 137.038L305.446 134.439L295.019 131.704L291.04 131.841L286.101 127.874L281.299 129.242L272.244 126.233L271.97 124.592L268.951 120.9L263.463 120.626L262.503 118.027L263.738 116.25L258.524 111.6Z"
      fill="#E9EAEB" stroke="white" stroke-linejoin="round" />
    <path fill-rule="evenodd" clip-rule="evenodd"
      d="M103.759 197.488L102.249 190.376L97.8591 193.521L96.4871 196.667L98.4079 202.411L101.701 204.052L103.759 197.488ZM60.5407 127.875L57.2479 124.593L54.2294 124.456L53.2691 121.447L47.3694 123.088L45.4487 130.063L29.9451 136.628L23.6339 133.072L25.5547 142.646L14.3043 140.457L5.52344 142.235L6.07227 148.526L16.3623 151.809L21.3014 156.048L28.2987 164.938L26.9267 181.76L23.2223 186.82L25.9663 190.102L38.8631 193.932L41.4699 192.154L49.2903 195.983L57.5223 194.889L58.2083 189.829L68.3611 187.094L82.0811 189.282L88.2551 184.632L88.9411 180.939L85.2367 179.845L83.1787 173.281L85.5111 170.819L83.3158 167.536L83.5903 165.212L81.1207 161.519L77.8279 162.75V158.92L82.6299 154.134L82.3554 151.945L85.5111 152.766L87.2947 151.398L87.9807 145.244L91.1363 139.5L81.3951 137.859L78.1023 135.671L76.1814 135.807L74.6723 135.124L68.6354 131.294L65.2054 131.841L60.5407 127.875Z"
      fill="#E9EAEB" stroke="white" stroke-linejoin="round" />
    <path fill-rule="evenodd" clip-rule="evenodd"
      d="M47.9189 227.438V227.164H47.2329L46.8213 226.617L46.6841 226.891L46.5469 227.164V227.438H47.2329L47.7817 227.575L47.9189 227.438ZM46.8213 225.25H47.2329L48.0561 224.292V223.882L47.6445 223.609L46.1353 223.882L45.8609 224.292V224.703L45.4493 224.839L45.3121 225.386L45.4493 225.66L46.5469 225.797L46.8213 225.25ZM23.2229 186.819L11.9725 186.546L6.21008 186.956L-1.19867 185.588H-10.5282L-19.0347 184.084L-29.1875 190.238L-26.4435 193.794L-26.9922 199.812L-24.3855 197.624L-21.5043 196.393L-19.8579 200.632H-15.7419L-14.5071 199.538L-10.3911 199.812L-8.6075 204.051L-11.9002 206.376L-12.1747 213.078L-13.4095 214.309L-13.8211 218.412L-16.8395 219.095L-14.0955 224.292L-16.2907 230.173L-13.8211 232.772L-14.9187 235.097L-17.6627 238.516L-17.1139 241.388L-10.5282 242.755L-8.6075 247.816L-5.8635 250.824L-2.4335 251.645L0.44775 248.226L4.97533 245.08L11.8353 245.217H21.0277L26.2413 238.379L31.5921 236.601L33.2385 230.857L37.3545 226.891L34.6105 221.831L37.3545 214.856L41.6077 210.069L42.2937 207.197L51.3489 205.419L57.9345 199.675L57.5229 194.888L49.2909 195.982L41.4705 192.153L38.8637 193.931L25.9669 190.102L23.2229 186.819ZM58.8949 217.728L59.0321 217.317L59.1693 217.044L59.3065 216.907L59.0321 216.634V216.497L59.3065 216.223L59.0321 216.087L57.2485 216.634L56.2881 217.181L53.4069 219.232V219.642L53.5441 219.916H54.0929L54.3673 220.463L54.9161 219.916L55.3278 219.779L55.7393 219.916L56.1509 220.189L56.2881 221.01L56.4253 221.284L57.2485 221.42L58.4833 221.967L59.0321 221.694L59.7181 221.284L59.9925 220.463L60.4041 219.779L60.8158 219.095L61.2273 218.548L61.0901 218.001L60.6785 217.865L60.2669 217.728L59.5809 218.001L58.8949 217.728ZM67.1269 217.317L67.2641 216.77V216.634L66.5781 215.676L65.3433 215.266L63.9713 215.403L63.8341 215.54V216.087L63.9713 216.223L64.7945 216.36L66.9897 217.317H67.1269Z"
      fill="#E9EAEB" stroke="white" stroke-linejoin="round" />
    <path fill-rule="evenodd" clip-rule="evenodd"
      d="M48.4682 194.616L48.6053 194.342L48.7425 194.069V193.932L48.4682 193.795L47.5077 193.522L47.0962 193.385L46.8217 193.522L46.5473 193.795L46.4102 194.205L46.5473 194.342V194.616V194.889L46.6845 195.163H46.9589H47.2333L47.6449 195.026L48.3309 194.616H48.4682Z"
      fill="#E9EAEB" stroke="white" stroke-linejoin="round" />
    <path fill-rule="evenodd" clip-rule="evenodd"
      d="M101.976 156.184V155.911L102.113 155.637L101.976 155.5L101.838 155.227L101.701 155.09V154.817L101.564 154.68V154.406L101.427 154.27L101.152 155.09V155.774L101.29 156.047H101.427L101.976 156.184Z"
      fill="#E9EAEB" stroke="white" stroke-linejoin="round" />
    <g filter="url(#filter0_d_4896_78281)">
      <path fill-rule="evenodd" clip-rule="evenodd"
        d="M123.787 94.4331C127.194 90.371 129.242 85.1552 129.242 79.4667C129.242 66.5064 118.612 56 105.5 56C92.3874 56 81.7578 66.5064 81.7578 79.4667C81.7578 85.1468 83.7996 90.3555 87.1972 94.415L90.4081 98.6667L104.684 118.847C105.082 119.41 105.918 119.41 106.316 118.847L120.608 98.6667L123.787 94.4331Z"
        fill="white" />
      <g clip-path="url(#clip1_4896_78281)">
        <rect x="90.3906" y="64.5332" width="30.2103" height="29.86" fill="white" />
        <mask id="mask0_4896_78281" style="mask-type:luminance" maskUnits="userSpaceOnUse" x="90"
          y="64" width="31" height="31">
          <rect x="90.3906" y="64.5332" width="30.2103" height="29.86" fill="white" />
        </mask>
        <g mask="url(#mask0_4896_78281)">
          <path fill-rule="evenodd" clip-rule="evenodd"
            d="M90.3906 74.4865H120.601V64.5332H90.3906V74.4865Z" fill="#262626" />
          <g filter="url(#filter1_d_4896_78281)">
            <path fill-rule="evenodd" clip-rule="evenodd"
              d="M90.3906 84.4397H120.601V74.4863H90.3906V84.4397Z" fill="#F01515" />
          </g>
          <g filter="url(#filter2_d_4896_78281)">
            <path fill-rule="evenodd" clip-rule="evenodd"
              d="M90.3906 94.3928H120.601V84.4395H90.3906V94.3928Z" fill="#FFD521" />
          </g>
        </g>
      </g>
    </g>
  </g>
  <rect x="1" y="0.5" width="209" height="209" rx="104.5" stroke="#E9EAEB" />
  <defs>
    <filter id="filter0_d_4896_78281" x="67.7578" y="46" width="75.4844" height="92"
      filterUnits="userSpaceOnUse" color-interpolation-filters="sRGB">
      <feFlood flood-opacity="0" result="BackgroundImageFix" />
      <feColorMatrix in="SourceAlpha" type="matrix"
        values="0 0 0 0 0 0 0 0 0 0 0 0 0 0 0 0 0 0 127 0" result="hardAlpha" />
      <feMorphology radius="2" operator="dilate" in="SourceAlpha"
        result="effect1_dropShadow_4896_78281" />
      <feOffset dy="4" />
      <feGaussianBlur stdDeviation="6" />
      <feColorMatrix type="matrix" values="0 0 0 0 0 0 0 0 0 0 0 0 0 0 0 0 0 0 0.12 0" />
      <feBlend mode="normal" in2="BackgroundImageFix" result="effect1_dropShadow_4896_78281" />
      <feBlend mode="normal" in="SourceGraphic" in2="effect1_dropShadow_4896_78281" result="shape" />
    </filter>
    <filter id="filter1_d_4896_78281" x="90.3906" y="74.4863" width="30.2109" height="9.95312"
      filterUnits="userSpaceOnUse" color-interpolation-filters="sRGB">
      <feFlood flood-opacity="0" result="BackgroundImageFix" />
      <feColorMatrix in="SourceAlpha" type="matrix"
        values="0 0 0 0 0 0 0 0 0 0 0 0 0 0 0 0 0 0 127 0" result="hardAlpha" />
      <feOffset />
      <feColorMatrix type="matrix" values="0 0 0 0 0 0 0 0 0 0 0 0 0 0 0 0 0 0 0.06 0" />
      <feBlend mode="normal" in2="BackgroundImageFix" result="effect1_dropShadow_4896_78281" />
      <feBlend mode="normal" in="SourceGraphic" in2="effect1_dropShadow_4896_78281" result="shape" />
    </filter>
    <filter id="filter2_d_4896_78281" x="90.3906" y="84.4395" width="30.2109" height="9.95312"
      filterUnits="userSpaceOnUse" color-interpolation-filters="sRGB">
      <feFlood flood-opacity="0" result="BackgroundImageFix" />
      <feColorMatrix in="SourceAlpha" type="matrix"
        values="0 0 0 0 0 0 0 0 0 0 0 0 0 0 0 0 0 0 127 0" result="hardAlpha" />
      <feOffset />
      <feColorMatrix type="matrix" values="0 0 0 0 0 0 0 0 0 0 0 0 0 0 0 0 0 0 0.06 0" />
      <feBlend mode="normal" in2="BackgroundImageFix" result="effect1_dropShadow_4896_78281" />
      <feBlend mode="normal" in="SourceGraphic" in2="effect1_dropShadow_4896_78281" result="shape" />
    </filter>
    <clipPath id="clip0_4896_78281">
      <rect x="0.5" width="210" height="210" rx="105" fill="white" />
    </clipPath>
    <clipPath id="clip1_4896_78281">
      <rect x="90.3906" y="64.5332" width="30.217" height="29.8667" rx="14.9333" fill="white" />
    </clipPath>
  </defs>
</svg>
  