<svg width="40" height="16" viewBox="0 0 40 16" fill="none" xmlns="http://www.w3.org/2000/svg">
<g id="ivory-logo 1" clip-path="url(#clip0_5577_67126)">
<g id="Clip path group">
<mask id="mask0_5577_67126" style="mask-type:luminance" maskUnits="userSpaceOnUse" x="0" y="0" width="40" height="16">
<g id="clip0">
<path id="Vector" d="M39.8856 0.755859H0V15.4586H39.8856V0.755859Z" fill="white"/>
</g>
</mask>
<g mask="url(#mask0_5577_67126)">
<g id="Group">
<path id="Vector_2" d="M2.15427 12.4137H0.0445923C0.0199896 12.4137 0 12.3943 0 12.3703V4.00231C0 3.97841 0.0199896 3.95898 0.0445923 3.95898H2.15504C2.17964 3.95898 2.19963 3.97841 2.19963 4.00231V12.3703C2.19886 12.3943 2.17888 12.4137 2.15427 12.4137Z" fill="#071034"/>
<path id="Vector_3" d="M6.47349 12.3704L3.2021 4.02552C3.19133 3.99788 3.21209 3.96875 3.24208 3.96875H5.63547C5.65391 3.96875 5.67006 3.97995 5.67622 3.99714L7.49528 9.04321C7.50911 9.0813 7.56446 9.0813 7.57829 9.04321L9.38968 3.99714C9.39584 3.97995 9.41198 3.96875 9.43043 3.96875H11.8315C11.8615 3.96875 11.8822 3.99788 11.8715 4.02552L8.60008 12.3704C8.58855 12.3988 8.56088 12.4175 8.52935 12.4175H6.54422C6.51269 12.4175 6.48502 12.3988 6.47349 12.3704Z" fill="#071034"/>
<path id="Vector_4" d="M20.6408 8.19733C20.6408 8.81889 20.5262 9.39781 20.2971 9.9334C20.068 10.4698 19.7558 10.9329 19.3614 11.3244C18.967 11.7158 18.5042 12.0236 17.9744 12.2492C17.4439 12.4748 16.8751 12.5868 16.2677 12.5868C15.6656 12.5868 15.099 12.474 14.5685 12.2492C14.038 12.0236 13.5744 11.7158 13.1777 11.3244C12.7802 10.9336 12.4673 10.4698 12.2382 9.9334C12.0091 9.39707 11.8945 8.81889 11.8945 8.19733C11.8945 7.56539 12.0091 6.98045 12.2382 6.44188C12.4673 5.9033 12.7802 5.43865 13.1777 5.0472C13.5744 4.65651 14.0388 4.34949 14.5685 4.12689C15.099 3.90427 15.6649 3.79297 16.2677 3.79297C16.8751 3.79297 17.4439 3.89755 17.9744 4.10746C18.5049 4.31737 18.967 4.61543 19.3614 5.00089C19.7558 5.3871 20.068 5.85023 20.2971 6.39106C20.5254 6.93194 20.6408 7.53401 20.6408 8.19733ZM18.4419 8.19733C18.4419 7.85522 18.3842 7.54596 18.2697 7.26881C18.1551 6.99167 17.999 6.75339 17.8022 6.55394C17.6046 6.35449 17.3748 6.20208 17.1103 6.09526C16.8466 5.98917 16.5652 5.93615 16.2669 5.93615C15.9686 5.93615 15.6872 5.98917 15.4235 6.09526C15.1598 6.20135 14.9306 6.35449 14.7361 6.55394C14.5416 6.75339 14.3886 6.99167 14.2764 7.26881C14.1641 7.54596 14.1087 7.85522 14.1087 8.19733C14.1087 8.51859 14.1649 8.81664 14.2764 9.0908C14.3886 9.36569 14.5416 9.60323 14.7361 9.80567C14.9306 10.0074 15.1598 10.1672 15.4235 10.2837C15.6872 10.4003 15.9686 10.4586 16.2669 10.4586C16.5652 10.4586 16.8466 10.404 17.1103 10.2957C17.374 10.1867 17.6046 10.0343 17.8022 9.83705C17.999 9.64059 18.1551 9.40227 18.2697 9.12213C18.3842 8.84205 18.4419 8.53426 18.4419 8.19733Z" fill="#071034"/>
<path id="Vector_5" d="M36.5543 3.95312H34.4484C34.4231 3.95312 34.4023 3.9733 34.4023 3.99795V8.55174C34.4023 8.77435 34.3592 8.99099 34.2747 9.20013C34.1894 9.41006 34.0717 9.59757 33.9225 9.76339C33.7734 9.9292 33.5989 10.0622 33.399 10.1638C33.1991 10.2647 32.9869 10.3154 32.7631 10.3154C32.534 10.3154 32.3195 10.2796 32.1196 10.2063C31.9198 10.1339 31.7452 10.0241 31.5961 9.87618C31.4469 9.72828 31.3285 9.5445 31.2401 9.32488C31.1525 9.10452 31.1079 8.84681 31.1079 8.55174V3.9957C31.1079 3.9718 31.0879 3.95312 31.064 3.95312H28.9774C28.9528 3.95312 28.9336 3.97255 28.9336 3.9957V8.55174C28.9336 9.14711 29.0335 9.68496 29.2335 10.1638C29.4334 10.6426 29.7078 11.0497 30.0568 11.3837C30.4059 11.7176 30.8126 11.9753 31.2762 12.1568C31.6268 12.2935 31.9959 12.3787 32.3826 12.4123C32.5025 12.4265 32.6178 12.4377 32.7301 12.4467C32.7408 12.4452 32.7693 12.4504 32.7793 12.4489C33.5474 12.4489 34.2401 12.1329 34.5446 12.0015C34.6714 11.9484 34.7429 11.9282 34.9343 11.8438C35.0005 11.8214 35.0712 11.7998 35.0858 11.8595C35.0973 11.9222 34.9636 12.0313 34.8659 12.1075C34.3754 12.4922 34.1655 12.596 34.1655 12.596C33.5712 12.8896 33.176 13.0854 32.5871 13.2161C32.4941 13.237 32.1919 13.3012 31.7667 13.3236C31.7422 13.3252 31.7222 13.3446 31.7222 13.3685V15.4086C31.7222 15.4332 31.7429 15.4534 31.7683 15.4534L32.2265 15.4586C32.8285 15.4586 33.3936 15.3473 33.9218 15.1247C34.4492 14.9021 34.912 14.5988 35.3087 14.2156C35.7055 13.8324 36.0191 13.3842 36.2483 12.8717C36.4774 12.3592 36.595 11.8102 36.6004 11.2246V3.99869C36.6004 3.9733 36.5796 3.95312 36.5543 3.95312Z" fill="#071034"/>
<path id="Vector_6" d="M27.5989 3.96875H25.7591C25.6638 3.96875 25.5692 3.97323 25.4754 3.97995C24.805 4.01581 24.6597 4.05167 24.1115 4.3318C23.6725 4.56935 23.2865 4.90251 23.1082 5.04669C22.9944 5.13633 22.9275 5.17816 22.7576 5.31785C22.6961 5.35968 22.6307 5.40227 22.5946 5.34997C22.5615 5.29469 22.663 5.14903 22.7383 5.04594C23.1158 4.52901 23.2981 4.36541 23.2981 4.36541C23.428 4.24888 23.5471 4.14131 23.6617 4.04196C23.691 4.01656 23.6725 3.96949 23.6333 3.96949H21.9572C21.9095 3.96949 21.8711 4.00684 21.8711 4.05316V12.3517C21.8711 12.3988 21.9103 12.4369 21.9588 12.4369H23.9677C24.0154 12.4369 24.0546 12.3995 24.0554 12.3532L24.1046 7.69038C24.1046 7.46777 24.1469 7.25785 24.2322 7.06138C24.3175 6.86492 24.4344 6.69386 24.5843 6.54895C24.7335 6.40403 24.9095 6.28972 25.1118 6.20679C25.3139 6.1239 25.53 6.08278 25.7591 6.08278H27.5997C27.6473 6.08278 27.6858 6.04542 27.6858 5.99911V4.05316C27.6858 4.00684 27.6473 3.96875 27.5989 3.96875Z" fill="#071034"/>
<path id="Vector_7" d="M2.19278 0.755859H0.00390625V2.88261H2.19278V0.755859Z" fill="#071034"/>
<path id="Vector_8" d="M38.7901 12.4146C39.3948 12.4146 39.885 11.9384 39.885 11.3509C39.885 10.7634 39.3948 10.2871 38.7901 10.2871C38.1855 10.2871 37.6953 10.7634 37.6953 11.3509C37.6953 11.9384 38.1855 12.4146 38.7901 12.4146Z" fill="#2575FC"/>
</g>
</g>
</g>
</g>
<defs>
<clipPath id="clip0_5577_67126">
<rect width="40" height="14.7027" fill="white" transform="translate(0 0.755859)"/>
</clipPath>
</defs>
</svg>
