<svg width="205" height="168" viewBox="0 0 205 168" fill="none" xmlns="http://www.w3.org/2000/svg">
  <g clip-path="url(#clip0_2089_142065)">
    <path
      d="M104.85 39.8805H103.929V14.62C103.929 10.7425 102.388 7.02388 99.646 4.2821C96.9039 1.54032 93.1848 1.9071e-09 89.3069 1.9071e-09H35.782C33.8619 -3.10074e-05 31.9605 0.378096 30.1866 1.11279C28.4126 1.84749 26.8007 2.92436 25.4429 4.28193C24.0851 5.6395 23.0081 7.25118 22.2733 9.02495C21.5384 10.7987 21.1602 12.6998 21.1602 14.6198V153.201C21.1602 155.121 21.5384 157.022 22.2732 158.796C23.008 160.569 24.085 162.181 25.4427 163.539C26.8005 164.896 28.4124 165.973 30.1863 166.708C31.9603 167.443 33.8617 167.821 35.7818 167.821H89.3062C93.1841 167.821 96.9032 166.28 99.6453 163.539C102.387 160.797 103.928 157.078 103.928 153.201V57.8613H104.849L104.85 39.8805Z"
      fill="#313038" />
    <path
      d="M100.946 13.6412V154.18C100.946 157.12 99.7778 159.939 97.699 162.018C95.6202 164.097 92.8007 165.266 89.8605 165.267H35.2375C32.2962 165.267 29.4752 164.099 27.3949 162.02C25.3146 159.941 24.1454 157.121 24.1445 154.18V13.6412C24.1454 10.7003 25.3145 7.88024 27.3947 5.80116C29.4749 3.72208 32.2958 2.55431 35.237 2.55469H41.8631C41.5378 3.35469 41.4139 4.22236 41.5025 5.08143C41.5911 5.9405 41.8893 6.76466 42.3711 7.48148C42.8528 8.1983 43.5032 8.78583 44.2652 9.19242C45.0272 9.59902 45.8775 9.81224 46.7412 9.81333H77.8827C78.7464 9.81224 79.5966 9.59902 80.3586 9.19242C81.1206 8.78583 81.7711 8.1983 82.2528 7.48148C82.7345 6.76466 83.0328 5.9405 83.1214 5.08143C83.2099 4.22236 83.0861 3.35469 82.7607 2.55469H89.8584C92.7986 2.55519 95.6182 3.7231 97.6974 5.80166C99.7766 7.88023 100.945 10.6993 100.946 13.6391V13.6412Z"
      fill="white" />
    <path
      d="M88.2657 135.116H37.8198C36.0055 135.114 34.2661 134.392 32.9832 133.11C31.7003 131.827 30.9786 130.088 30.9766 128.273V57.3152C30.9766 40.0867 44.9944 26.0703 62.2249 26.0703H88.2658C90.08 26.0724 91.8194 26.7939 93.1023 28.0767C94.3852 29.3594 95.1068 31.0986 95.1089 32.9127V128.273C95.1069 130.088 94.3852 131.827 93.1023 133.11C91.8194 134.392 90.08 135.114 88.2657 135.116Z"
      fill="#DFE2E6" />
    <path
      d="M34.7997 152.197C36.8055 152.197 38.4315 150.571 38.4315 148.566C38.4315 146.56 36.8055 144.935 34.7997 144.935C32.794 144.935 31.168 146.56 31.168 148.566C31.168 150.571 32.794 152.197 34.7997 152.197Z"
      fill="#DFE2E6" />
    <path
      d="M91.3622 152.197C93.368 152.197 94.994 150.571 94.994 148.566C94.994 146.56 93.368 144.935 91.3622 144.935C89.3565 144.935 87.7305 146.56 87.7305 148.566C87.7305 150.571 89.3565 152.197 91.3622 152.197Z"
      fill="#DFE2E6" />
    <path d="M91.8526 134.977L89.6011 137.43L79.0664 129.915L82.3894 126.294L91.8526 134.977Z"
      fill="#FFB6B6" />
    <path
      d="M94.8068 136.533L87.5474 144.444L87.4473 144.352C86.6307 143.602 86.1452 142.559 86.0976 141.452C86.05 140.345 86.4442 139.264 87.1935 138.448L87.1937 138.447L87.4233 135.997L90.9938 134.307L91.6275 133.616L94.8068 136.533Z"
      fill="#071034" />
    <path d="M93.3241 162.353L89.9943 162.353L88.4102 149.511L93.3248 149.511L93.3241 162.353Z"
      fill="#FFB6B6" />
    <path
      d="M94.1745 165.581L83.4375 165.58V165.445C83.4376 164.336 83.8779 163.274 84.6616 162.49C85.4454 161.706 86.5083 161.266 87.6167 161.266H87.6169L89.5782 159.778L93.2374 161.266L94.1747 161.266L94.1745 165.581Z"
      fill="#071034" />
    <path
      d="M77.2442 97.5225C77.2442 97.5225 56.9021 117.161 69.762 123.239H73.7368C73.7368 123.239 74.9313 118.996 77.6658 115.418C78.0413 114.927 79.4482 115.027 79.8389 114.548C82.2244 111.624 84.8106 109.112 86.5967 109.212L87.7657 122.772L87.1889 126.746C86.8258 129.248 86.9214 131.795 87.471 134.263L87.0643 150.125L94.1967 150.129C94.1967 150.129 94.4848 146.412 94.7258 141.762C94.7903 140.516 95.3262 139.649 95.3775 138.323C95.5006 135.144 95.0926 131.444 95.014 128.85L100.392 100.328L77.2442 97.5225Z"
      fill="#071034" />
    <path
      d="M86.6416 55.9131L83.3247 60.3497L75.375 65.025L80.0509 77.182L80.2283 86.2273L79.7931 87.3184L80.2847 89.1054C80.2847 89.1054 80.0578 91.1967 78.8485 92.7494C76.734 95.4641 73.5052 98.4147 76.7775 99.1584C81.9215 100.327 100.159 102.899 101.094 100.795C101.418 100.067 101.378 96.9896 101.187 93.2748C101.151 92.5802 100.384 91.8245 100.339 91.0965C100.305 90.5502 100.996 90.0365 100.958 89.4825C100.541 83.3089 99.9254 76.9484 99.9254 76.9484L101.756 59.9273L94.4348 58.0383L93.6129 55.9433L86.6416 55.9131Z"
      fill="#2575FC" />
    <path
      d="M68.7852 122.073L69.8725 123.446C69.8725 123.446 79.8724 130.442 80.2158 131.095L81.7962 132.591L85.6201 128.503L83.6315 126.011C82.0401 124.017 79.984 122.443 77.6432 121.427L74.5956 118.724L68.7852 122.073Z"
      fill="#071034" />
    <path
      d="M75.1403 102.439L76.9613 84.8149L77.442 77.5612L72.345 76.6396C72.345 76.6396 71.5817 81.6262 70.914 84.5526C70.2551 87.4402 71.7918 102.052 71.8325 102.438C71.4582 102.773 71.1943 103.213 71.0758 103.701C70.9572 104.189 70.9896 104.701 71.1687 105.17C71.3477 105.639 71.665 106.043 72.0785 106.328C72.492 106.613 72.9822 106.765 73.4844 106.766C73.9865 106.766 74.4769 106.614 74.8907 106.329C75.3044 106.045 75.6221 105.641 75.8015 105.172C75.981 104.704 76.0139 104.191 75.8958 103.703C75.7778 103.215 75.5143 102.774 75.1403 102.439Z"
      fill="#FFB9B9" />
    <path
      d="M68.5552 87.7753L77.3541 90.0085L77.293 87.5392L77.9608 86.8308L79.2951 79.842L81.2094 75.748L80.7118 61.748L75.8497 64.3265L75.8437 64.331C74.9947 65.265 74.2846 66.3163 73.7353 67.4527C71.9024 71.1785 70.1416 79.3851 69.2199 84.1516C69.1883 84.2516 69.1272 84.3396 69.0446 84.4043C68.5874 84.8239 68.289 85.3885 68.1998 86.0027C68.1107 86.6168 68.2362 87.2429 68.5552 87.7753Z"
      fill="#2575FC" />
    <path
      d="M120.808 92.2753C120.808 92.2753 110.096 80.9834 109.996 80.7706C109.248 75.089 107.096 72.5828 106.773 72.8549L101.219 74.779C101.219 74.779 102.871 80.0104 103.99 83.1178C105.059 86.087 117.378 93.3394 117.584 93.6974C117.363 94.1847 117.295 94.7276 117.39 95.2541C117.484 95.7806 117.736 96.2661 118.113 96.6462C118.489 97.0263 118.972 97.2832 119.498 97.3829C120.024 97.4826 120.567 97.4204 121.057 97.2045C121.546 96.9886 121.959 96.6292 122.239 96.1738C122.52 95.7185 122.656 95.1886 122.629 94.6543C122.602 94.12 122.414 93.6065 122.088 93.1817C121.763 92.7569 121.317 92.4408 120.808 92.2753Z"
      fill="#FFB9B9" />
    <path
      d="M96.7305 60.3159C96.7305 60.3159 102.183 57.6439 104.298 62.8919C105.457 65.8546 108.423 73.045 109.9 77.4713C109.91 77.4994 109.924 77.5261 109.941 77.5506C110.336 78.1378 110.549 78.8285 110.554 79.5363C110.553 79.5878 110.559 79.6393 110.57 79.6896C110.57 79.6896 104.578 80.8568 102.796 83.9972L102.089 83.2302L101.963 82.6928L96.7934 68.9003L96.7305 60.3159Z"
      fill="#2575FC" />
    <path
      d="M185.777 81.7348H121.938C121.37 81.7341 120.824 81.5079 120.422 81.1057C120.02 80.7036 119.794 80.1583 119.793 79.5895V70.2409C119.794 69.6722 120.02 69.1269 120.422 68.7248C120.824 68.3226 121.37 68.0964 121.938 68.0957H185.777C186.346 68.0964 186.891 68.3226 187.293 68.7248C187.695 69.1269 187.922 69.6722 187.922 70.2409V79.5895C187.922 80.1583 187.695 80.7036 187.293 81.1057C186.891 81.5079 186.346 81.7341 185.777 81.7348Z"
      fill="#DFE2E6" />
    <path
      d="M179.576 80.2879H123.388C122.819 80.2872 122.274 80.061 121.871 79.6588C121.469 79.2567 121.243 78.7114 121.242 78.1426V71.6892C121.243 71.1204 121.469 70.5752 121.871 70.173C122.274 69.7708 122.819 69.5446 123.388 69.5439H184.331C184.9 69.5446 185.446 69.7708 185.848 70.173C186.25 70.5752 186.476 71.1204 186.477 71.6892V73.3876C186.475 75.2171 185.747 76.971 184.453 78.2646C183.16 79.5582 181.406 80.2858 179.576 80.2879Z"
      fill="white" />
    <path
      d="M160.192 74.2501H134.534C134.387 74.2501 134.246 74.1918 134.143 74.088C134.039 73.9843 133.98 73.8435 133.98 73.6968C133.98 73.5501 134.039 73.4094 134.143 73.3056C134.246 73.2018 134.387 73.1436 134.534 73.1436H160.192C160.339 73.1436 160.479 73.2018 160.583 73.3056C160.687 73.4094 160.745 73.5501 160.745 73.6968C160.745 73.8435 160.687 73.9843 160.583 74.088C160.479 74.1918 160.339 74.2501 160.192 74.2501Z"
      fill="#2575FC" />
    <path
      d="M173.181 76.5128H134.534C134.387 76.5128 134.246 76.4545 134.143 76.3507C134.039 76.247 133.98 76.1062 133.98 75.9595C133.98 75.8128 134.039 75.672 134.143 75.5683C134.246 75.4645 134.387 75.4062 134.534 75.4063H173.181C173.327 75.4062 173.468 75.4645 173.572 75.5683C173.676 75.672 173.734 75.8128 173.734 75.9595C173.734 76.1062 173.676 76.247 173.572 76.3507C173.468 76.4545 173.327 76.5128 173.181 76.5128Z"
      fill="#DFE2E6" />
    <path
      d="M185.777 101.57H121.938C121.37 101.569 120.824 101.343 120.422 100.941C120.02 100.539 119.794 99.9933 119.793 99.4245V90.0759C119.794 89.5072 120.02 88.9619 120.422 88.5597C120.824 88.1575 121.37 87.9313 121.938 87.9307H185.777C186.346 87.9313 186.891 88.1575 187.293 88.5597C187.695 88.9619 187.922 89.5072 187.922 90.0759V99.4245C187.922 99.9933 187.695 100.539 187.293 100.941C186.891 101.343 186.346 101.569 185.777 101.57Z"
      fill="#DFE2E6" />
    <path
      d="M179.576 100.123H123.388C122.819 100.122 122.274 99.896 121.871 99.4938C121.469 99.0916 121.243 98.5463 121.242 97.9776V91.5242C121.243 90.9554 121.469 90.4101 121.871 90.008C122.274 89.6058 122.819 89.3796 123.388 89.3789H184.331C184.9 89.3796 185.446 89.6058 185.848 90.008C186.25 90.4101 186.476 90.9554 186.477 91.5242V93.2226C186.475 95.052 185.747 96.8059 184.453 98.0995C183.16 99.3931 181.406 100.121 179.576 100.123Z"
      fill="white" />
    <path
      d="M160.192 94.085H134.534C134.461 94.085 134.389 94.0707 134.322 94.0429C134.255 94.0151 134.194 93.9744 134.143 93.923C134.091 93.8716 134.05 93.8106 134.023 93.7435C133.995 93.6764 133.98 93.6044 133.98 93.5318C133.98 93.4591 133.995 93.3872 134.023 93.32C134.05 93.2529 134.091 93.1919 134.143 93.1406C134.194 93.0892 134.255 93.0484 134.322 93.0206C134.389 92.9928 134.461 92.9785 134.534 92.9785H160.192C160.339 92.9785 160.479 93.0368 160.583 93.1406C160.687 93.2443 160.745 93.385 160.745 93.5318C160.745 93.6785 160.687 93.8192 160.583 93.923C160.479 94.0267 160.339 94.085 160.192 94.085Z"
      fill="#2575FC" />
    <path
      d="M173.181 96.3477H134.534C134.461 96.3477 134.389 96.3334 134.322 96.3056C134.255 96.2778 134.194 96.237 134.143 96.1857C134.091 96.1343 134.05 96.0733 134.023 96.0062C133.995 95.9391 133.98 95.8671 133.98 95.7945C133.98 95.7218 133.995 95.6499 134.023 95.5827C134.05 95.5156 134.091 95.4546 134.143 95.4033C134.194 95.3519 134.255 95.3111 134.322 95.2833C134.389 95.2555 134.461 95.2412 134.534 95.2412H173.181C173.327 95.2412 173.468 95.2995 173.572 95.4033C173.676 95.507 173.734 95.6477 173.734 95.7945C173.734 95.9412 173.676 96.0819 173.572 96.1857C173.468 96.2894 173.327 96.3477 173.181 96.3477Z"
      fill="#DFE2E6" />
    <path
      d="M185.777 121.405H121.938C121.37 121.404 120.824 121.178 120.422 120.776C120.02 120.373 119.794 119.828 119.793 119.259V109.911C119.794 109.342 120.02 108.797 120.422 108.395C120.824 107.993 121.37 107.766 121.938 107.766H185.777C186.346 107.766 186.891 107.993 187.293 108.395C187.695 108.797 187.922 109.342 187.922 109.911V119.259C187.922 119.828 187.695 120.373 187.293 120.776C186.891 121.178 186.346 121.404 185.777 121.405Z"
      fill="#DFE2E6" />
    <path
      d="M179.576 119.958H123.388C122.819 119.957 122.274 119.731 121.871 119.329C121.469 118.927 121.243 118.381 121.242 117.813V111.359C121.243 110.79 121.469 110.245 121.871 109.843C122.274 109.441 122.819 109.215 123.388 109.214H184.331C184.9 109.215 185.446 109.441 185.848 109.843C186.25 110.245 186.476 110.79 186.477 111.359V113.058C186.475 114.887 185.747 116.641 184.453 117.934C183.16 119.228 181.406 119.956 179.576 119.958Z"
      fill="white" />
    <path
      d="M160.192 113.92H134.534C134.387 113.92 134.246 113.862 134.143 113.758C134.039 113.654 133.98 113.513 133.98 113.367C133.98 113.22 134.039 113.079 134.143 112.976C134.246 112.872 134.387 112.813 134.534 112.813H160.192C160.339 112.813 160.479 112.872 160.583 112.976C160.687 113.079 160.745 113.22 160.745 113.367C160.745 113.513 160.687 113.654 160.583 113.758C160.479 113.862 160.339 113.92 160.192 113.92Z"
      fill="#2575FC" />
    <path
      d="M173.181 116.183H134.534C134.387 116.183 134.246 116.124 134.143 116.021C134.039 115.917 133.98 115.776 133.98 115.629C133.98 115.483 134.039 115.342 134.143 115.238C134.246 115.134 134.387 115.076 134.534 115.076H173.181C173.327 115.076 173.468 115.134 173.572 115.238C173.676 115.342 173.734 115.483 173.734 115.629C173.734 115.776 173.676 115.917 173.572 116.021C173.468 116.124 173.327 116.183 173.181 116.183Z"
      fill="#DFE2E6" />
    <path
      d="M90.1337 54.4885C93.821 54.4885 96.8103 51.4996 96.8103 47.8126C96.8103 44.1256 93.821 41.1367 90.1337 41.1367C86.4463 41.1367 83.457 44.1256 83.457 47.8126C83.457 51.4996 86.4463 54.4885 90.1337 54.4885Z"
      fill="#FFB9B9" />
    <path
      d="M85.2256 52.1068C85.1455 52.1071 85.0659 52.0943 84.99 52.0688C84.692 51.9382 84.4429 51.7168 84.2783 51.4362C83.1287 49.7831 82.5737 47.579 82.6287 44.8852C82.652 43.7455 82.781 42.2884 83.5792 41.1269C84.2504 40.1503 85.6083 39.3752 86.8737 39.7643C86.8593 39.5113 86.9155 39.2592 87.036 39.0363C87.1565 38.8133 87.3365 38.6282 87.5561 38.5017C88.0354 38.2082 88.6124 38.1541 89.1213 38.1063C90.4066 37.9859 91.7352 37.8614 93.0365 38.1079C94.4957 38.3847 95.6888 39.1367 96.3099 40.1711L96.3226 40.2036L96.4488 40.8166C96.4658 40.899 96.5004 40.9768 96.5503 41.0445C96.6002 41.1122 96.6642 41.1684 96.7379 41.209C96.8115 41.2496 96.8932 41.2738 96.9771 41.2799C97.061 41.286 97.1452 41.2738 97.224 41.2441C97.3099 41.2118 97.4029 41.2024 97.4936 41.2169C97.5842 41.2314 97.6696 41.2693 97.7412 41.3269C97.8127 41.3845 97.868 41.4597 97.9017 41.5452C97.9353 41.6306 97.946 41.7234 97.9328 41.8143L97.8976 42.0581L98.2646 41.9895C98.3565 41.9723 98.4512 41.9799 98.5392 42.0113C98.6271 42.0426 98.7052 42.0968 98.7654 42.1682C98.8257 42.2396 98.8659 42.3257 98.882 42.4177C98.8982 42.5097 98.8896 42.6043 98.8573 42.6919L98.7536 42.9723C98.8295 42.9728 98.9045 42.9888 98.9741 43.0194C99.0436 43.05 99.1061 43.0945 99.1577 43.1502C99.232 43.23 99.2787 43.3315 99.2912 43.4398C99.3037 43.5481 99.2812 43.6575 99.227 43.7521C98.8168 44.4535 98.2349 45.0389 97.536 45.4533C97.1541 45.683 96.7364 45.8473 96.3002 45.9392C93.47 46.5499 90.5518 46.6377 87.69 46.1981C87.8594 46.7625 87.9246 47.353 87.8824 47.9408C87.7908 48.6757 87.3593 49.2822 86.783 49.4858C86.6518 49.5285 86.5174 49.5609 86.3812 49.5827C86.2509 49.603 86.1226 49.6342 85.9976 49.6759C85.8122 49.744 85.6481 49.8597 85.5218 50.0114C85.3955 50.1632 85.3114 50.3455 85.2781 50.5401C85.2448 50.7347 85.2633 50.9346 85.332 51.1197C85.4006 51.3048 85.5168 51.4685 85.6689 51.5944L85.9531 51.2983L85.8607 51.6747C85.8414 51.748 85.8069 51.8164 85.7594 51.8755C85.712 51.9346 85.6526 51.983 85.5852 52.0177C85.4746 52.0767 85.351 52.1073 85.2256 52.1068Z"
      fill="#071034" />
    <path
      d="M178.104 152.908L178.374 146.834C181.19 145.329 184.331 144.534 187.524 144.519C183.13 148.111 183.679 155.036 180.699 159.867C179.759 161.367 178.492 162.635 176.994 163.579C175.497 164.523 173.806 165.118 172.047 165.319L168.369 167.57C167.865 164.758 167.976 161.869 168.695 159.103C169.415 156.337 170.725 153.761 172.537 151.55C173.565 150.32 174.744 149.224 176.047 148.289C176.927 150.611 178.104 152.908 178.104 152.908Z"
      fill="#E9EAEB" />
    <path
      d="M204.434 167.719C204.434 167.756 204.427 167.793 204.413 167.827C204.398 167.861 204.378 167.892 204.352 167.918C204.326 167.945 204.295 167.965 204.26 167.979C204.226 167.993 204.19 168.001 204.153 168H0.281027C0.206494 168 0.135017 167.971 0.0823139 167.918C0.0296113 167.865 0 167.794 0 167.719C0 167.645 0.0296113 167.573 0.0823139 167.521C0.135017 167.468 0.206494 167.438 0.281027 167.438H204.153C204.19 167.438 204.226 167.446 204.26 167.46C204.295 167.474 204.326 167.494 204.352 167.521C204.378 167.547 204.398 167.578 204.413 167.612C204.427 167.646 204.434 167.683 204.434 167.719Z"
      fill="#CFD4D9" />
  </g>
  <defs>
    <clipPath id="clip0_2089_142065">
      <rect width="204.434" height="168" fill="white" />
    </clipPath>
  </defs>
</svg>
  