<svg width="271" height="179" viewBox="0 0 271 179" fill="none" xmlns="http://www.w3.org/2000/svg">
<g clip-path="url(#clip0_4876_76981)">
<path d="M176.868 78.2224C176.555 79.8608 176.181 81.4825 175.744 83.0876C175.697 83.2739 175.644 83.4575 175.591 83.6439H169.516C168.998 83.6445 168.502 83.8498 168.136 84.2149C167.77 84.5799 167.565 85.0749 167.564 85.5911V102.871C167.38 103.213 167.193 103.553 167.006 103.892C166.042 105.644 165.038 107.377 164.012 109.088C147.282 136.893 123.948 160.16 96.0698 176.837L97.7205 173.12C97.1154 173.078 96.5077 173.037 95.9027 172.995C82.7291 172.097 69.5109 171.101 56.6468 168.147C43.1889 165.056 30.0237 159.696 19.4765 150.808C8.92642 141.918 1.19242 129.222 0.118995 115.486C-0.238936 110.765 0.239589 106.019 1.53263 101.464C4.00553 92.6956 9.40888 84.8067 17.2043 80.139C29.4494 72.8092 45.4222 74.303 58.3308 80.4005C71.2367 86.4952 81.7421 96.5844 91.9994 106.498C81.6432 88.7797 67.224 73.7632 49.9248 62.681C44.1926 59.0203 38.1091 55.7601 33.2356 51.0173C28.3648 46.2773 24.771 39.6318 25.6326 32.8973C26.6111 25.2587 32.8815 19.4617 39.1629 14.9915C41.6722 13.2056 44.2623 11.5116 46.9333 9.9538C54.4693 5.54758 62.6216 2.22345 71.2311 0.991154C82.8936 -0.68065 95.4901 1.85627 104.431 9.51151C114.504 18.1376 118.636 32.0489 118.243 45.3565C124.449 36.3549 134.021 29.4647 144.83 29.1726C156.052 28.8722 166.719 35.946 172.34 45.6431C177.958 55.3373 178.967 67.2207 176.868 78.2224Z" fill="#E6E6E6"/>
<path d="M105.869 115.607C112.441 115.03 118.513 114.355 124.882 112.557C131.056 110.814 136.997 107.896 141.391 103.132C146.118 98.0073 148.67 91.3523 150.471 84.7276C151.474 81.034 152.299 77.2888 153.077 73.5423C153.922 69.4774 154.672 65.3944 155.328 61.2935C156.634 53.1306 157.567 44.9196 158.125 36.6605C158.193 35.658 158.255 34.6551 158.311 33.6519C158.346 33.033 157.381 33.035 157.346 33.6519C156.887 41.793 156.062 49.9023 154.869 57.98C153.692 65.9162 152.187 73.818 150.277 81.612C148.658 88.2147 146.563 94.9205 142.413 100.417C138.521 105.571 132.899 108.939 126.83 110.953C120.653 113.003 114.141 113.821 107.687 114.429C106.895 114.504 106.661 114.575 105.869 114.645C105.255 114.698 105.249 115.661 105.869 115.607Z" fill="white"/>
<path d="M2.08953 102.174C10.3822 102.633 18.5906 104.076 26.541 106.473C34.4948 108.865 42.1382 112.184 49.3128 116.362C56.2453 120.403 62.6809 125.237 68.489 130.767C74.1258 136.138 79.1496 142.114 83.4685 148.588C87.807 155.077 91.4025 162.031 94.1875 169.32C94.5271 170.213 94.8542 171.109 95.1689 172.01C95.3721 172.592 96.3044 172.342 96.0991 171.755C93.4935 164.312 90.0586 157.184 85.859 150.506C81.6601 143.827 76.7323 137.633 71.1658 132.038C65.5101 126.356 59.2157 121.344 52.4077 117.102C38.113 108.218 21.9101 102.844 5.12947 101.42C4.11724 101.336 3.10392 101.266 2.08954 101.211C1.4692 101.177 1.47109 102.14 2.08953 102.174Z" fill="white"/>
<path d="M47.1915 11.0821C52.4938 12.7645 57.5195 15.2149 62.108 18.3546C66.7967 21.5848 71.0728 25.3737 74.8416 29.6372C78.8132 34.1224 82.3442 38.9775 85.386 44.1358C88.6123 49.5822 91.4151 55.2676 93.7697 61.1419C96.1942 67.1727 98.2334 73.3507 99.8751 79.6388C101.544 86.0015 102.847 92.4539 103.779 98.9647C104.706 105.406 105.267 111.895 105.46 118.4C105.653 124.62 105.469 130.847 104.908 137.045C104.394 142.827 103.456 148.564 102.102 154.209C100.899 159.308 99.204 164.279 97.0403 169.052C96.5391 170.135 96.0073 171.203 95.4449 172.256C95.1532 172.803 95.9856 173.29 96.2779 172.742C98.669 168.183 100.578 163.389 101.975 158.436C103.542 152.922 104.678 147.296 105.372 141.607C106.142 135.435 106.517 129.22 106.495 123C106.481 116.466 106.091 109.938 105.327 103.448C104.563 96.8775 103.428 90.355 101.929 83.9117C100.433 77.4579 98.5348 71.1033 96.2464 64.885C94.0407 58.8654 91.3998 53.0135 88.3446 47.3755C85.4346 41.9955 82.0434 36.8888 78.2124 32.1176C74.5741 27.5748 70.4204 23.4679 65.8344 19.8792C61.4123 16.4291 56.5258 13.6168 51.3184 11.525C50.0458 11.0196 48.7557 10.5626 47.448 10.154C46.8544 9.96763 46.6004 10.8965 47.1915 11.0821Z" fill="white"/>
<path d="M104.414 178.5C142.525 178.5 173.419 177.255 173.419 175.718C173.419 174.182 142.525 172.937 104.414 172.937C66.3044 172.937 35.4102 174.182 35.4102 175.718C35.4102 177.255 66.3044 178.5 104.414 178.5Z" fill="#E6E6E6"/>
<path d="M165.378 88.5925C165.344 88.7425 165.322 88.8951 165.312 89.0487L153.335 95.9423L150.424 94.2702L147.32 98.3238L153.548 102.752L167.212 91.9976C167.769 92.2034 168.376 92.235 168.952 92.0882C169.527 91.9415 170.045 91.6233 170.435 91.1761C170.825 90.7289 171.069 90.1738 171.135 89.5846C171.202 88.9954 171.086 88.4001 170.805 87.8778C170.524 87.3556 170.09 86.9311 169.561 86.6608C169.032 86.3906 168.433 86.2874 167.844 86.3649C167.255 86.4425 166.704 86.6972 166.263 87.0951C165.823 87.493 165.514 88.0153 165.378 88.5925Z" fill="#FFB8B8"/>
<path d="M138.102 92.8218L147.532 99.5277L151.75 94.2516L142.583 86.9127C142.188 86.597 141.733 86.3649 141.246 86.2307C140.759 86.0965 140.249 86.063 139.748 86.1322C139.247 86.2015 138.766 86.372 138.333 86.6334C137.901 86.8948 137.526 87.2415 137.233 87.6524C136.661 88.4529 136.431 89.4472 136.594 90.4167C136.757 91.3861 137.299 92.2512 138.102 92.8218Z" fill="#2575FC"/>
<path d="M118.637 169.337L121.943 170.202L126.859 157.889L121.979 156.613L118.637 169.337Z" fill="#FFB8B8"/>
<path d="M127.516 174.932L117.124 172.215L118.176 168.21L124.553 169.877C125.618 170.155 126.528 170.844 127.084 171.792C127.639 172.74 127.795 173.87 127.516 174.932Z" fill="#071034"/>
<path d="M148.029 171.686L151.394 171.087L150.677 157.852L145.711 158.737L148.029 171.686Z" fill="#FFB8B8"/>
<path d="M158.441 173.047L147.866 174.932L147.136 170.856L153.626 169.699C154.162 169.603 154.712 169.614 155.245 169.731C155.777 169.847 156.281 170.067 156.729 170.378C157.176 170.689 157.557 171.085 157.851 171.543C158.145 172.001 158.346 172.512 158.441 173.047Z" fill="#071034"/>
<path d="M141.403 74.3565C142.232 74.5579 142.907 75.4009 143.312 76.3774C143.685 77.4031 143.938 78.4687 144.066 79.5526C144.384 81.5712 144.69 83.7565 144.031 85.6261C143.26 87.8173 141.204 88.965 139.42 88.4257C137.637 87.8863 136.218 85.8619 135.734 83.5315C135.292 81.1768 135.577 78.7441 136.549 76.5538C137.056 75.403 137.754 74.3413 138.682 73.8221C139.137 73.5474 139.68 73.4549 140.2 73.5632C140.721 73.6715 141.182 73.9725 141.489 74.4057" fill="#071034"/>
<path d="M146.094 110.905L152.5 168.151L147.209 170.155L137.451 131.768L123.866 166.867L118.074 167.188C118.074 167.188 126.02 112.574 131.909 111.333L146.094 110.905Z" fill="#071034"/>
<path d="M140.715 81.6624C144.497 81.6624 147.563 78.6035 147.563 74.8302C147.563 71.0569 144.497 67.998 140.715 67.998C136.933 67.998 133.867 71.0569 133.867 74.8302C133.867 78.6035 136.933 81.6624 140.715 81.6624Z" fill="#FFB8B8"/>
<path d="M143.654 84.5285L136.254 83.5654C136.254 83.5654 131.428 89.3435 131.75 99.2947C132.071 109.246 130.945 112.295 130.945 112.295L146.375 112.574C144.144 109.514 153.473 91.9397 143.654 84.5285Z" fill="#2575FC"/>
<path d="M147.628 113.965C147.474 113.966 147.32 113.979 147.168 114.004L137.701 103.949L138.666 100.739L134.001 98.6528L131.105 105.715L144.726 116.524C144.652 117.113 144.761 117.709 145.035 118.235C145.31 118.761 145.739 119.19 146.265 119.467C146.79 119.743 147.388 119.854 147.978 119.783C148.568 119.712 149.122 119.464 149.568 119.072C150.013 118.679 150.328 118.161 150.47 117.585C150.613 117.01 150.577 116.404 150.366 115.85C150.156 115.295 149.781 114.818 149.292 114.481C148.803 114.145 148.223 113.964 147.628 113.965Z" fill="#FFB8B8"/>
<path d="M137.26 88.4402L132.875 99.134L138.988 102.023L144.051 91.44C144.268 90.9847 144.391 90.4899 144.41 89.9857C144.43 89.4816 144.346 88.9788 144.163 88.5082C143.981 88.0376 143.705 87.609 143.351 87.2488C142.997 86.8885 142.573 86.6042 142.105 86.4132C141.653 86.2289 141.17 86.1351 140.682 86.1372C140.194 86.1394 139.711 86.2373 139.261 86.4256C138.811 86.6138 138.403 86.8886 138.06 87.2343C137.716 87.58 137.444 87.9897 137.26 88.4402Z" fill="#2575FC"/>
<path d="M138.923 81.0414C139.996 80.4238 140.11 78.9341 139.965 77.7068C139.819 76.4795 139.575 75.1113 140.298 74.1078C141.161 72.9102 142.895 72.8863 144.373 72.8472C145.851 72.8081 147.651 72.3764 148.033 70.9517C148.286 70.0103 147.745 69.0001 146.968 68.4092C146.191 67.8182 145.22 67.557 144.275 67.3087C142.162 66.7533 139.98 66.1932 137.816 66.4984C135.673 66.8008 133.735 67.9329 132.422 69.6498C131.109 71.3667 130.527 73.5303 130.801 75.6725C131.151 78.4128 131.659 79.6093 131.325 80.8176C130.704 83.0681 128.027 84.5138 127.973 86.8474C127.932 88.6727 129.548 90.0809 131.124 91.0077C132.375 91.7429 133.725 92.3667 135.166 92.5388C136.607 92.7109 138.159 92.3814 139.233 91.4068C140.617 90.1497 140.96 88.0496 140.563 86.2242C140.166 84.3988 139.147 82.7778 138.14 81.2035" fill="#071034"/>
<path d="M268.489 83.0874H169.513C168.848 83.0884 168.21 83.3525 167.74 83.8218C167.27 84.2911 167.005 84.9273 167.004 85.5909V149.014C167.005 149.677 167.27 150.314 167.74 150.783C168.21 151.252 168.848 151.516 169.513 151.517H268.489C269.154 151.516 269.792 151.252 270.262 150.783C270.733 150.314 270.997 149.677 270.998 149.014V85.5909C270.997 84.9273 270.733 84.2911 270.262 83.8218C269.792 83.3525 269.154 83.0884 268.489 83.0874ZM270.441 149.014C270.44 149.53 270.234 150.025 269.868 150.39C269.503 150.755 269.006 150.96 268.489 150.961H169.513C168.996 150.96 168.5 150.755 168.134 150.39C167.768 150.025 167.562 149.53 167.562 149.014V85.5909C167.562 85.0747 167.768 84.5797 168.134 84.2147C168.5 83.8497 168.996 83.6443 169.513 83.6437H268.489C269.006 83.6443 269.503 83.8497 269.868 84.2147C270.234 84.5797 270.44 85.0747 270.441 85.5909V149.014Z" fill="#313038"/>
<path d="M190.643 114.658H175.03C174.402 114.658 173.799 114.408 173.355 113.965C172.911 113.522 172.661 112.921 172.66 112.294V96.7165C172.661 96.0896 172.911 95.4887 173.355 95.0454C173.799 94.6021 174.402 94.3528 175.03 94.3521H190.643C191.271 94.3528 191.874 94.6021 192.318 95.0454C192.762 95.4887 193.012 96.0896 193.013 96.7165V112.294C193.012 112.921 192.762 113.522 192.318 113.965C191.874 114.408 191.271 114.658 190.643 114.658Z" fill="#2575FC"/>
<path fill-rule="evenodd" clip-rule="evenodd" d="M182.312 108.764L189.223 101.877C189.533 101.567 189.533 101.041 189.224 100.732C188.915 100.423 188.413 100.423 188.104 100.732L181.762 107.073L178.352 103.708L178.351 103.707C178.042 103.399 177.54 103.399 177.232 103.708C176.922 104.017 176.923 104.52 177.232 104.829L181.192 108.764C181.501 109.073 182.003 109.073 182.312 108.764ZM188.355 100.908C188.548 100.753 188.832 100.765 189.011 100.944C189.203 101.136 189.203 101.472 189.011 101.664L182.099 108.552C182.087 108.565 182.073 108.577 182.06 108.588C182.074 108.577 182.087 108.565 182.1 108.552L189.012 101.664C189.204 101.472 189.204 101.136 189.012 100.944C188.832 100.765 188.548 100.753 188.355 100.908ZM177.482 103.885C177.675 103.729 177.96 103.741 178.139 103.92L181.763 107.496L181.764 107.496L178.14 103.92C177.96 103.74 177.675 103.729 177.482 103.885Z" fill="white"/>
<path d="M263.336 131.212H174.676C174.195 131.212 173.734 131.022 173.394 130.683C173.054 130.344 172.863 129.884 172.863 129.404C172.863 128.925 173.054 128.465 173.394 128.126C173.734 127.787 174.195 127.596 174.676 127.596H263.336C263.816 127.596 264.277 127.787 264.617 128.126C264.957 128.465 265.148 128.925 265.148 129.404C265.148 129.884 264.957 130.344 264.617 130.683C264.277 131.022 263.816 131.212 263.336 131.212Z" fill="#CCCCCC"/>
<path d="M263.394 122.45H174.734C174.253 122.45 173.793 122.26 173.453 121.921C173.113 121.582 172.922 121.122 172.922 120.642C172.922 120.163 173.113 119.703 173.453 119.364C173.793 119.024 174.253 118.834 174.734 118.834H263.394C263.875 118.834 264.336 119.024 264.676 119.364C265.016 119.703 265.206 120.163 265.206 120.642C265.206 121.122 265.016 121.582 264.676 121.921C264.336 122.26 263.875 122.45 263.394 122.45Z" fill="#CCCCCC"/>
<path d="M219.623 110.486H206.519C206.039 110.486 205.578 110.295 205.238 109.956C204.898 109.617 204.707 109.157 204.707 108.678C204.707 108.198 204.898 107.738 205.238 107.399C205.578 107.06 206.039 106.87 206.519 106.87H219.623C220.104 106.87 220.565 107.06 220.905 107.399C221.244 107.738 221.435 108.198 221.435 108.678C221.435 109.157 221.244 109.617 220.905 109.956C220.565 110.295 220.104 110.486 219.623 110.486Z" fill="#CCCCCC"/>
<path d="M263.396 101.587H206.519C206.039 101.587 205.578 101.397 205.238 101.058C204.898 100.719 204.707 100.259 204.707 99.7793C204.707 99.2998 204.898 98.8399 205.238 98.5008C205.578 98.1617 206.039 97.9712 206.519 97.9712H263.396C263.876 97.9712 264.337 98.1617 264.677 98.5008C265.017 98.8399 265.208 99.2998 265.208 99.7793C265.208 100.259 265.017 100.719 264.677 101.058C264.337 101.397 263.876 101.587 263.396 101.587Z" fill="#CCCCCC"/>
<path d="M217.392 140.114H174.676C174.195 140.114 173.734 139.923 173.394 139.584C173.054 139.245 172.863 138.785 172.863 138.306C172.863 137.826 173.054 137.366 173.394 137.027C173.734 136.688 174.195 136.498 174.676 136.498H217.392C217.873 136.498 218.334 136.688 218.674 137.027C219.014 137.366 219.204 137.826 219.204 138.306C219.204 138.785 219.014 139.245 218.674 139.584C218.334 139.923 217.873 140.114 217.392 140.114Z" fill="#CCCCCC"/>
</g>
<defs>
<clipPath id="clip0_4876_76981">
<rect width="271" height="178" fill="white" transform="translate(0 0.5)"/>
</clipPath>
</defs>
</svg>
