<svg width="266" height="169" viewBox="0 0 266 169" fill="none" xmlns="http://www.w3.org/2000/svg">
  <g clip-path="url(#clip0_4864_74993)">
    <path
      d="M219.645 168.261L220.363 168.247C220.085 160.265 219.234 152.312 217.815 144.452C214.71 127.623 209.548 116.57 202.471 111.602L202.059 112.189C218.59 123.796 219.637 167.818 219.645 168.261Z"
      fill="#071034" />
    <path
      d="M210.672 168.088L211.39 168.074C211.375 167.279 210.926 148.541 203.549 143.361L203.137 143.949C210.216 148.919 210.669 167.897 210.672 168.088Z"
      fill="#071034" />
    <path
      d="M197.973 112.254C199.955 112.254 201.562 110.647 201.562 108.664C201.562 106.681 199.955 105.074 197.973 105.074C195.99 105.074 194.383 106.681 194.383 108.664C194.383 110.647 195.99 112.254 197.973 112.254Z"
      fill="#2575FC" />
    <path
      d="M199.75 143.125C201.732 143.125 203.34 141.518 203.34 139.535C203.34 137.552 201.732 135.945 199.75 135.945C197.767 135.945 196.16 137.552 196.16 139.535C196.16 141.518 197.767 143.125 199.75 143.125Z"
      fill="#2575FC" />
    <path
      d="M212.342 114.404C211.667 118.714 213.425 122.568 213.425 122.568C213.425 122.568 216.278 119.435 216.952 115.126C217.627 110.817 215.868 106.963 215.868 106.963C215.868 106.963 213.016 110.095 212.342 114.404Z"
      fill="#071034" />
    <path
      d="M200.612 124.871C204.737 126.286 208.839 125.227 208.839 125.227C208.839 125.227 206.251 121.872 202.126 120.457C198 119.042 193.898 120.102 193.898 120.102C193.898 120.102 196.486 123.456 200.612 124.871Z"
      fill="#071034" />
    <path
      d="M200.479 152.211C202.346 152.798 204.335 152.884 206.245 152.46C205.032 150.916 203.398 149.755 201.54 149.117C199.682 148.48 197.679 148.394 195.773 148.868C197.022 150.376 198.645 151.528 200.479 152.211Z"
      fill="#071034" />
    <path
      d="M116.701 56.2121L93.5572 44.1773C93.5572 44.1773 85.7851 35.6182 80.9041 31.7522C76.0231 27.8861 74.5206 30.7262 74.5206 30.7262L72.4688 34.146L77.4273 41.0425L90.8214 52.3847L114.754 61.7587C115.128 62.3716 115.669 62.8657 116.313 63.1836C116.957 63.5015 117.678 63.6302 118.392 63.5547C119.106 63.4792 119.784 63.2026 120.347 62.757C120.911 62.3115 121.336 61.7153 121.574 61.0377C121.812 60.3601 121.852 59.6289 121.691 58.9291C121.53 58.2292 121.174 57.5895 120.663 57.0841C120.153 56.5788 119.51 56.2286 118.809 56.0743C118.107 55.9199 117.376 55.9677 116.701 56.2121Z"
      fill="#9F616A" />
    <path
      d="M56.5015 45.8024L55.1313 37.4195L51.2622 36.4523C51.2622 36.4523 48.1916 35.5065 47.4739 41.6915C46.7562 47.8766 47.3126 59.4245 47.3126 59.4245L39.4573 84.2998C38.8039 84.6037 38.2502 85.087 37.8608 85.6934C37.4715 86.2998 37.2624 87.0043 37.2579 87.725C37.2534 88.4456 37.4538 89.1527 37.8356 89.7639C38.2174 90.375 38.765 90.8652 39.4146 91.1772C40.0642 91.4892 40.7891 91.6103 41.5048 91.5263C42.2205 91.4423 42.8977 91.1567 43.4574 90.7027C44.0171 90.2488 44.4363 89.6452 44.6663 88.9622C44.8962 88.2792 44.9274 87.545 44.7562 86.845L55.0507 63.2935L56.5015 45.8024Z"
      fill="#9F616A" />
    <path d="M88.505 163.444L93.5676 163.444L95.9763 143.916L88.5039 143.916L88.505 163.444Z"
      fill="#9F616A" />
    <path
      d="M87.2109 161.791L97.1815 161.791H97.1819C98.867 161.791 100.483 162.461 101.675 163.652C102.866 164.844 103.536 166.46 103.536 168.145V168.351L87.2112 168.352L87.2109 161.791Z"
      fill="#071034" />
    <path d="M33.282 163.444L38.3449 163.444L40.7533 143.916L33.2812 143.916L33.282 163.444Z"
      fill="#9F616A" />
    <path
      d="M31.9922 161.791L41.9627 161.791H41.9631C43.6483 161.791 45.2644 162.461 46.456 163.652C47.6476 164.844 48.317 166.46 48.3172 168.145V168.351L31.9925 168.352L31.9922 161.791Z"
      fill="#071034" />
    <path
      d="M58.2788 29.0572L49.8815 36.2257L56.773 58.0344L58.328 62.9043C58.328 62.9043 48.8331 71.6586 42.9582 96.1137C37.0833 120.569 27.4727 153.064 27.4727 153.064L47.7591 158.871L64.2634 103.551L83.6764 146.951L85.9177 159.788L103.194 154.694L99.1184 122.5L78.7427 66.7727L80.8593 52.0003C80.8593 52.0003 84.0377 44.6269 78.5161 36.8205L76.7841 29.4852L70.5798 27.957L58.2788 29.0572Z"
      fill="#071034" />
    <path
      d="M72.2267 25.1607H49.5232C49.0562 25.1602 48.6085 24.9744 48.2782 24.6442C47.948 24.314 47.7622 23.8662 47.7617 23.3992V13.6132C47.7617 10.1354 49.1433 6.79999 51.6025 4.34078C54.0617 1.88157 57.3971 0.5 60.875 0.5C64.3528 0.5 67.6882 1.88157 70.1474 4.34078C72.6066 6.79999 73.9882 10.1354 73.9882 13.6132V23.3992C73.9877 23.8662 73.8019 24.314 73.4717 24.6442C73.1415 24.9744 72.6937 25.1602 72.2267 25.1607Z"
      fill="#071034" />
    <path
      d="M72.0069 19.9296C74.5538 15.2706 72.8415 9.42901 68.1825 6.88213C63.5234 4.33526 57.6818 6.04752 55.135 10.7066C52.5881 15.3657 54.3004 21.2072 58.9594 23.7541C63.6185 26.301 69.4601 24.5887 72.0069 19.9296Z"
      fill="#9F616A" />
    <path
      d="M77.0902 14.5923H63.2076L63.0652 12.5992L62.3534 14.5923H60.2158L59.9337 10.642L58.5229 14.5923H54.3867V14.3966C54.3898 11.6464 55.4837 9.00977 57.4283 7.0651C59.373 5.12043 62.0096 4.02655 64.7598 4.02344H66.7171C69.4672 4.02654 72.1039 5.12042 74.0486 7.06509C75.9932 9.00976 77.0871 11.6464 77.0902 14.3966V14.5923Z"
      fill="#071034" />
    <path
      d="M63.0944 26.9869C62.9899 26.9868 62.8856 26.9776 62.7827 26.9594L52.6172 25.1658V8.36523H63.8074L63.5304 8.68825C59.6758 13.1837 62.5798 20.4731 64.6539 24.4181C64.8067 24.707 64.8749 25.0332 64.8505 25.3592C64.8261 25.6852 64.7102 25.9977 64.516 26.2606C64.3533 26.4855 64.1397 26.6685 63.8926 26.7948C63.6455 26.9211 63.3719 26.9869 63.0944 26.9869Z"
      fill="#071034" />
    <path
      d="M147.161 115.064L58.0704 146.563C55.8676 147.339 53.447 147.21 51.3396 146.203C49.2321 145.197 47.61 143.395 46.829 141.194L31.5245 97.9073C30.7485 95.7045 30.8779 93.2839 31.8844 91.1765C32.8909 89.069 34.6922 87.4469 36.8932 86.6659L125.984 55.1671C128.187 54.3911 130.607 54.5205 132.715 55.527C134.822 56.5335 136.444 58.3348 137.225 60.5358L152.53 103.823C153.306 106.026 153.176 108.446 152.17 110.554C151.163 112.661 149.362 114.283 147.161 115.064Z"
      fill="white" />
    <path
      d="M152.532 103.824L152.612 104.053C153.356 106.157 153.233 108.47 152.271 110.483C151.309 112.496 149.587 114.045 147.484 114.788L57.9475 146.444C55.8444 147.188 53.532 147.065 51.5191 146.104C49.5062 145.142 47.9576 143.421 47.2138 141.318L47.1328 141.089L152.532 103.824Z"
      fill="#F2F2F2" />
    <path
      d="M52.5115 96.7163C46.6061 100.602 39.0376 97.6777 36.3906 93.4182L36.8126 93.1784C41.8401 90.0447 49.3062 91.7906 52.5115 96.7163Z"
      fill="#2575FC" />
    <path
      d="M126.516 107.741C125.071 108.252 123.769 108.229 122.647 107.671C120.112 106.412 118.922 102.677 117.966 99.6752C117.688 98.8021 117.425 97.9773 117.158 97.3032L117.154 97.2929C116.689 95.9557 116.77 94.4888 117.38 93.2109C117.99 91.9331 119.079 90.9475 120.411 90.4683L132.395 86.2314C133.838 85.721 135.138 85.7443 136.259 86.3006C138.794 87.5588 139.985 91.2926 140.941 94.2929C141.22 95.1677 141.484 95.9942 141.752 96.6693C142.22 98.0078 142.141 99.4771 141.531 100.757C140.921 102.038 139.831 103.025 138.496 103.505L126.516 107.741ZM117.656 97.1114C117.93 97.8017 118.195 98.6331 118.475 99.5132C119.4 102.418 120.552 106.034 122.885 107.193C123.886 107.691 125.016 107.705 126.338 107.238L138.318 103.002C139.518 102.571 140.499 101.683 141.049 100.533C141.598 99.3817 141.671 98.0606 141.252 96.8562C140.981 96.1741 140.715 95.3391 140.433 94.455C139.507 91.5508 138.354 87.9363 136.022 86.7788C135.022 86.2823 133.893 86.2679 132.573 86.7347L120.59 90.9713C119.391 91.4027 118.411 92.2893 117.862 93.4387C117.313 94.5882 117.239 95.9078 117.656 97.1114Z"
      fill="#313038" />
    <path
      d="M50.0305 98.1167C47.9247 98.8469 45.6563 98.9715 43.4832 98.4766C40.3097 97.7797 37.4295 95.8849 35.9669 93.5319L35.8203 93.296L36.479 92.9216C41.582 89.743 49.2343 91.4662 52.5373 96.5409L52.6821 96.7635L52.4604 96.9095C51.7023 97.4088 50.8863 97.8142 50.0305 98.1167ZM36.5713 93.4833C38.0027 95.6101 40.6663 97.3113 43.5978 97.9551C46.4474 98.6207 49.4445 98.137 51.9401 96.6089C48.7091 91.9353 41.5508 90.385 36.7569 93.3776L36.5713 93.4833Z"
      fill="#313038" />
    <path
      d="M53.1582 129.186C52.4101 129.482 51.5955 129.569 50.8017 129.437C50.008 129.305 49.2651 128.96 48.6529 128.438C47.9362 127.811 47.3929 127.011 47.0754 126.114C46.7578 125.216 46.6767 124.252 46.8398 123.315C46.9913 122.508 47.3633 121.759 47.9145 121.15C48.4656 120.542 49.1745 120.098 49.9625 119.867L65.9293 114.222C66.687 113.908 67.5168 113.809 68.3271 113.937C69.1373 114.064 69.8967 114.413 70.5214 114.945C71.2376 115.571 71.7805 116.372 72.0976 117.269C72.4148 118.166 72.4955 119.13 72.3321 120.068C72.0168 121.715 70.9044 122.929 69.2088 123.51L53.2417 129.155C53.2139 129.166 53.186 129.176 53.1582 129.186ZM50.0618 120.398C49.3805 120.608 48.7694 121 48.2941 121.532C47.8188 122.063 47.4974 122.714 47.3642 123.415C47.2173 124.259 47.2904 125.128 47.5765 125.936C47.8626 126.745 48.352 127.466 48.9977 128.03C49.5512 128.499 50.2237 128.805 50.9407 128.915C51.6578 129.025 52.3913 128.935 53.06 128.653L69.0346 123.005C69.7322 122.804 70.3605 122.414 70.8499 121.878C71.3394 121.342 71.6709 120.68 71.8077 119.967C71.955 119.123 71.8822 118.254 71.5965 117.446C71.3108 116.638 70.8216 115.917 70.1763 115.352C69.622 114.884 68.9492 114.577 68.2319 114.466C67.5146 114.356 66.7806 114.445 66.1108 114.724L50.1351 120.373C50.1106 120.381 50.086 120.389 50.0618 120.398Z"
      fill="#313038" />
    <path
      d="M126.622 95.0051L121.588 96.7847C121.254 96.9027 120.888 96.8833 120.568 96.7308C120.249 96.5782 120.003 96.305 119.885 95.9713C119.767 95.6375 119.786 95.2706 119.939 94.9512C120.091 94.6318 120.365 94.386 120.698 94.268L125.732 92.4884C126.065 92.3705 126.432 92.3899 126.752 92.5424C127.071 92.695 127.317 92.9682 127.435 93.3019C127.553 93.6356 127.534 94.0026 127.381 94.322C127.228 94.6414 126.955 94.8871 126.622 95.0051Z"
      fill="#2575FC" />
    <path
      d="M128.047 99.0325L123.014 100.812C122.68 100.93 122.313 100.911 121.994 100.758C121.674 100.606 121.429 100.332 121.311 99.9986C121.193 99.6649 121.212 99.298 121.365 98.9785C121.517 98.6591 121.79 98.4134 122.124 98.2954L127.158 96.5158C127.491 96.3978 127.858 96.4172 128.178 96.5698C128.497 96.7223 128.743 96.9955 128.861 97.3292C128.979 97.663 128.959 98.0299 128.807 98.3493C128.654 98.6687 128.381 98.9145 128.047 99.0325Z"
      fill="#2575FC" />
    <path
      d="M129.469 103.06L124.436 104.839C124.271 104.898 124.095 104.923 123.92 104.914C123.745 104.905 123.574 104.861 123.416 104.785C123.258 104.71 123.116 104.604 122.999 104.474C122.881 104.343 122.791 104.191 122.733 104.026C122.674 103.861 122.649 103.686 122.658 103.511C122.667 103.336 122.711 103.164 122.787 103.006C122.862 102.848 122.968 102.706 123.098 102.589C123.229 102.472 123.381 102.381 123.546 102.323L128.579 100.543C128.745 100.485 128.92 100.459 129.095 100.469C129.27 100.478 129.441 100.522 129.6 100.597C129.758 100.673 129.899 100.779 130.017 100.909C130.134 101.039 130.224 101.191 130.283 101.357C130.341 101.522 130.366 101.697 130.357 101.872C130.348 102.047 130.304 102.218 130.229 102.377C130.153 102.535 130.047 102.677 129.917 102.794C129.787 102.911 129.634 103.001 129.469 103.06Z"
      fill="#2575FC" />
    <path
      d="M135.43 91.8918L130.397 93.6714C130.232 93.7299 130.056 93.7552 129.881 93.7459C129.706 93.7366 129.535 93.693 129.377 93.6175C129.219 93.5419 129.077 93.436 128.96 93.3057C128.842 93.1754 128.752 93.0233 128.694 92.858C128.635 92.6928 128.61 92.5176 128.619 92.3426C128.628 92.1676 128.672 91.9961 128.747 91.8379C128.823 91.6797 128.929 91.538 129.059 91.4208C129.19 91.3036 129.342 91.2132 129.507 91.1548L134.54 89.3752C134.874 89.2572 135.241 89.2766 135.56 89.4291C135.88 89.5817 136.126 89.8549 136.244 90.1886C136.362 90.5223 136.342 90.8893 136.19 91.2087C136.037 91.5281 135.764 91.7739 135.43 91.8918Z"
      fill="#2575FC" />
    <path
      d="M136.856 95.9172L131.823 97.6968C131.657 97.7553 131.482 97.7806 131.307 97.7713C131.132 97.762 130.961 97.7184 130.802 97.6429C130.644 97.5673 130.503 97.4614 130.385 97.3311C130.268 97.2008 130.178 97.0486 130.119 96.8834C130.061 96.7181 130.036 96.543 130.045 96.368C130.054 96.1929 130.098 96.0215 130.173 95.8633C130.249 95.7051 130.355 95.5634 130.485 95.4462C130.615 95.329 130.767 95.2386 130.933 95.1801L135.966 93.4005C136.131 93.3421 136.306 93.3168 136.482 93.3261C136.657 93.3353 136.828 93.379 136.986 93.4545C137.144 93.5301 137.286 93.636 137.403 93.7663C137.521 93.8966 137.611 94.0487 137.669 94.214C137.728 94.3792 137.753 94.5544 137.744 94.7294C137.735 94.9044 137.691 95.0759 137.615 95.2341C137.54 95.3922 137.434 95.534 137.304 95.6512C137.173 95.7684 137.021 95.8588 136.856 95.9172Z"
      fill="#2575FC" />
    <path
      d="M138.278 99.9446L133.244 101.724C132.911 101.842 132.544 101.823 132.224 101.67C131.905 101.518 131.659 101.244 131.541 100.911C131.423 100.577 131.443 100.21 131.595 99.8906C131.748 99.5712 132.021 99.3255 132.355 99.2075L137.388 97.4279C137.553 97.3695 137.728 97.3442 137.903 97.3534C138.078 97.3627 138.25 97.4063 138.408 97.4819C138.566 97.5574 138.708 97.6634 138.825 97.7937C138.942 97.924 139.033 98.0761 139.091 98.2413C139.15 98.4066 139.175 98.5817 139.166 98.7568C139.156 98.9318 139.113 99.1033 139.037 99.2614C138.962 99.4196 138.856 99.5613 138.725 99.6786C138.595 99.7958 138.443 99.8862 138.278 99.9446Z"
      fill="#2575FC" />
    <path d="M140.559 69.9597L35.1602 107.225L35.3381 107.728L140.737 70.4631L140.559 69.9597Z"
      fill="#313038" />
    <path
      d="M147.161 115.064L58.0704 146.563C55.8676 147.339 53.447 147.21 51.3396 146.203C49.2321 145.197 47.61 143.395 46.829 141.194L31.5245 97.9073C30.7485 95.7045 30.8779 93.2839 31.8844 91.1765C32.8909 89.069 34.6922 87.4469 36.8932 86.6659L125.984 55.1671C128.187 54.3911 130.607 54.5205 132.715 55.527C134.822 56.5335 136.444 58.3348 137.225 60.5358L152.53 103.823C153.306 106.026 153.176 108.446 152.17 110.554C151.163 112.661 149.362 114.283 147.161 115.064ZM37.0712 87.1692C35.0036 87.9029 33.3114 89.4267 32.366 91.4064C31.4205 93.3862 31.2989 95.6601 32.0278 97.7293L47.3324 141.016C48.066 143.084 49.5898 144.776 51.5696 145.722C53.5493 146.667 55.8232 146.789 57.8924 146.06L146.983 114.561C149.051 113.827 150.743 112.303 151.688 110.324C152.634 108.344 152.755 106.07 152.026 104.001L136.722 60.7138C135.988 58.6462 134.464 56.954 132.485 56.0085C130.505 55.063 128.231 54.9414 126.162 55.6704L37.0712 87.1692Z"
      fill="#313038" />
    <path
      d="M264.923 168.499H0.358974C0.263768 168.499 0.172462 168.461 0.105141 168.394C0.0378201 168.327 0 168.235 0 168.14C0 168.045 0.0378201 167.954 0.105141 167.886C0.172462 167.819 0.263768 167.781 0.358974 167.781H264.923C265.018 167.781 265.11 167.819 265.177 167.886C265.244 167.954 265.282 168.045 265.282 168.14C265.282 168.235 265.244 168.327 265.177 168.394C265.11 168.461 265.018 168.499 264.923 168.499Z"
      fill="#CBCBCB" />
  </g>
  <defs>
    <clipPath id="clip0_4864_74993">
      <rect width="265.282" height="168" fill="white" transform="translate(0 0.5)" />
    </clipPath>
  </defs>
</svg>
  