<svg width="375" height="362" viewBox="0 0 375 362" fill="none" xmlns="http://www.w3.org/2000/svg">
<g clip-path="url(#clip0_2089_75080)">
<path d="M149.706 264.14C144.905 264.847 140.045 265.082 135.198 264.841C123.51 264.251 112.015 260.851 102.192 254.459C97.8361 251.625 93.6812 248.143 91.4267 243.465C88.3668 237.113 89.4369 229.072 93.8065 223.539C95.4004 221.544 97.3609 219.871 99.5826 218.611C99.9118 218.425 100.248 218.246 100.588 218.075C104.29 216.213 108.448 215.452 112.57 215.881C119.577 216.647 126.044 220.927 129.78 226.907C133.108 232.239 134.267 238.53 134.951 244.836C135.08 246.024 135.191 247.216 135.298 248.401C134.703 251.832 133.766 255.196 132.503 258.442C132.439 258.601 132.386 258.763 132.346 258.929C133.061 260.482 133.743 262.05 134.389 263.632C134.997 263.961 135.677 264.134 136.368 264.133H149.677L149.706 264.14Z" fill="#E9EAEB"/>
<path d="M134.112 264.445C134.024 264.484 133.929 264.506 133.832 264.508C133.736 264.51 133.639 264.493 133.55 264.458C133.46 264.422 133.378 264.37 133.308 264.302C133.239 264.235 133.184 264.154 133.146 264.066C133.089 263.93 133.035 263.794 132.978 263.658C132.462 262.405 131.922 261.164 131.357 259.936C124.118 244.08 113.32 230.107 99.803 219.103C99.7256 219.048 99.6641 218.974 99.6251 218.888C99.5861 218.802 99.571 218.706 99.5813 218.612C99.6009 218.504 99.6446 218.402 99.7092 218.314C99.7739 218.225 99.8576 218.152 99.9543 218.101C100.051 218.049 100.158 218.02 100.268 218.016C100.377 218.011 100.486 218.032 100.587 218.075C100.641 218.1 100.691 218.131 100.737 218.169C106.52 222.879 111.826 228.147 116.576 233.897C121.328 239.642 125.512 245.833 129.07 252.385C130.04 254.174 130.961 255.988 131.832 257.828C132.004 258.193 132.176 258.561 132.344 258.93C133.06 260.483 133.741 262.051 134.388 263.632C134.399 263.658 134.409 263.686 134.42 263.711C134.453 263.779 134.471 263.853 134.473 263.928C134.475 264.003 134.461 264.078 134.432 264.148C134.403 264.217 134.359 264.28 134.304 264.331C134.249 264.382 134.184 264.421 134.112 264.445Z" fill="white"/>
<path d="M339.291 265H36.4268C36.314 265 36.206 264.955 36.1263 264.875C36.0467 264.795 36.002 264.687 36.002 264.574C36.002 264.461 36.0467 264.353 36.1263 264.273C36.206 264.193 36.314 264.148 36.4268 264.148H339.291C339.404 264.148 339.512 264.193 339.592 264.273C339.671 264.353 339.716 264.461 339.716 264.574C339.716 264.687 339.671 264.795 339.592 264.875C339.512 264.955 339.404 265 339.291 265Z" fill="#15141E"/>
<path d="M252.469 233.9C252.421 233.9 252.39 233.899 252.38 233.898L246.604 233.899V233.047H252.401C252.535 233.052 255.273 233.129 257.796 230.068C261.556 225.505 264.643 214.211 258.001 186.313C249.07 148.801 256.519 115.661 260.136 103.154C260.314 102.535 260.346 101.883 260.229 101.25C260.112 100.617 259.85 100.019 259.462 99.5052C259.075 98.9909 258.573 98.5738 257.996 98.2868C257.42 97.9999 256.785 97.8509 256.141 97.8516H169.882C169.226 97.8525 168.579 98.008 167.995 98.3055C167.41 98.603 166.904 99.0341 166.518 99.5638C164.985 101.672 162.883 105.721 161.567 113.043L160.729 112.893C162.073 105.411 164.244 101.243 165.829 99.0632C166.295 98.4249 166.904 97.9054 167.608 97.5469C168.313 97.1884 169.091 97.0011 169.882 97H256.141C256.917 96.9993 257.682 97.179 258.377 97.5249C259.071 97.8709 259.676 98.3736 260.143 98.9935C260.61 99.6133 260.926 100.333 261.067 101.096C261.208 101.859 261.169 102.645 260.954 103.39C257.356 115.832 249.945 148.801 258.83 186.116C265.565 214.406 262.327 225.945 258.425 230.644C255.851 233.743 253.015 233.9 252.469 233.9Z" fill="#DFE2E6"/>
<path d="M236.928 249.442C236.88 249.442 236.849 249.441 236.839 249.44L231.063 249.441V248.589H236.86C236.995 248.593 239.732 248.671 242.255 245.61C246.015 241.047 249.102 229.753 242.46 201.855C233.529 164.343 240.978 131.203 244.595 118.696C244.773 118.077 244.805 117.425 244.688 116.792C244.571 116.159 244.309 115.561 243.921 115.047C243.534 114.533 243.032 114.116 242.455 113.829C241.879 113.542 241.244 113.393 240.6 113.394H154.341C153.685 113.395 153.038 113.55 152.454 113.847C151.869 114.145 151.363 114.576 150.977 115.106C149.444 117.214 147.342 121.263 146.026 128.585L145.188 128.435C146.532 120.953 148.703 116.785 150.288 114.605C150.754 113.967 151.363 113.447 152.068 113.089C152.772 112.73 153.55 112.543 154.341 112.542H240.6C241.376 112.541 242.141 112.721 242.836 113.067C243.53 113.413 244.135 113.916 244.602 114.535C245.069 115.155 245.385 115.875 245.526 116.638C245.667 117.401 245.628 118.187 245.413 118.932C241.815 131.374 234.404 164.343 243.289 201.658C250.024 229.948 246.786 241.487 242.884 246.186C240.31 249.285 237.474 249.442 236.928 249.442Z" fill="#CFD4D9"/>
<path d="M227.746 217.202C218.86 179.886 226.271 146.916 229.872 134.476C230.086 133.73 230.124 132.945 229.983 132.182C229.842 131.419 229.526 130.7 229.059 130.08C228.592 129.46 227.988 128.957 227.294 128.611C226.599 128.265 225.834 128.084 225.058 128.084H138.797C138.007 128.085 137.229 128.272 136.525 128.63C135.821 128.989 135.211 129.508 134.746 130.146C131.264 134.934 124.038 150.813 132.108 194.749C136.424 218.254 136.36 234.279 134.95 244.836C134.159 250.781 132.939 254.989 131.833 257.827L131.715 258.128C131.482 258.702 131.36 259.315 131.357 259.935C131.349 260.635 131.489 261.328 131.768 261.97C132.048 262.611 132.46 263.186 132.978 263.657C133.316 263.973 133.698 264.238 134.112 264.444C134.457 264.62 134.821 264.753 135.197 264.841C135.58 264.935 135.973 264.982 136.367 264.981H221.297C221.308 264.981 221.336 264.985 221.386 264.985C221.93 264.985 224.768 264.827 227.341 261.728C231.242 257.029 234.481 245.491 227.746 217.202ZM226.712 261.152C224.189 264.215 221.451 264.136 221.318 264.133H136.367C135.687 264.133 135.017 263.966 134.416 263.647C133.816 263.328 133.302 262.867 132.921 262.304C132.585 261.817 132.36 261.263 132.26 260.68C132.161 260.097 132.189 259.5 132.344 258.929C132.385 258.763 132.438 258.601 132.502 258.443C133.765 255.197 134.701 251.833 135.297 248.401C137.315 237.396 137.691 220.415 132.946 194.595C124.937 150.985 132.019 135.346 135.433 130.647C135.82 130.118 136.326 129.687 136.911 129.39C137.495 129.093 138.141 128.938 138.797 128.936H225.058C225.702 128.936 226.337 129.085 226.913 129.372C227.489 129.659 227.99 130.076 228.377 130.59C228.765 131.104 229.027 131.701 229.144 132.334C229.261 132.966 229.23 133.618 229.052 134.236C225.434 146.744 217.987 179.886 226.919 217.398C233.561 245.294 230.473 256.589 226.712 261.152Z" fill="#15141E"/>
<path d="M206.449 168.718H162.006C161.103 168.718 160.236 168.359 159.597 167.72C158.958 167.081 158.6 166.215 158.6 165.311C158.6 164.408 158.958 163.541 159.597 162.903C160.236 162.264 161.103 161.905 162.006 161.905H206.449C207.352 161.905 208.219 162.264 208.857 162.903C209.496 163.541 209.855 164.408 209.855 165.311C209.855 166.215 209.496 167.081 208.857 167.72C208.219 168.359 207.352 168.718 206.449 168.718Z" fill="#CFD4D9"/>
<path d="M206.449 183.391H162.006C161.103 183.391 160.236 183.032 159.597 182.393C158.958 181.754 158.6 180.888 158.6 179.984C158.6 179.081 158.958 178.214 159.597 177.575C160.236 176.937 161.103 176.578 162.006 176.578H206.449C207.352 176.578 208.219 176.937 208.857 177.575C209.496 178.214 209.855 179.081 209.855 179.984C209.855 180.888 209.496 181.754 208.857 182.393C208.219 183.032 207.352 183.391 206.449 183.391Z" fill="#CFD4D9"/>
<path d="M208.595 198.421H164.153C163.249 198.421 162.383 198.062 161.744 197.423C161.105 196.784 160.746 195.918 160.746 195.014C160.746 194.111 161.105 193.244 161.744 192.606C162.383 191.967 163.249 191.608 164.153 191.608H208.595C209.499 191.608 210.365 191.967 211.004 192.606C211.643 193.244 212.002 194.111 212.002 195.014C212.002 195.918 211.643 196.784 211.004 197.423C210.365 198.062 209.499 198.421 208.595 198.421Z" fill="#CFD4D9"/>
<path d="M211.818 214.168H167.375C166.472 214.168 165.605 213.809 164.966 213.17C164.328 212.531 163.969 211.664 163.969 210.761C163.969 209.858 164.328 208.991 164.966 208.352C165.605 207.713 166.472 207.354 167.375 207.354H211.818C212.721 207.354 213.588 207.713 214.227 208.352C214.865 208.991 215.224 209.858 215.224 210.761C215.224 211.664 214.865 212.531 214.227 213.17C213.588 213.809 212.721 214.168 211.818 214.168Z" fill="#CFD4D9"/>
<path d="M192.869 142.268H160.933C160.486 142.268 160.042 142.18 159.629 142.009C159.215 141.838 158.839 141.587 158.522 141.271C158.206 140.955 157.954 140.579 157.783 140.166C157.612 139.752 157.523 139.309 157.523 138.861C157.523 138.413 157.612 137.97 157.783 137.557C157.954 137.143 158.206 136.767 158.522 136.451C158.839 136.135 159.215 135.884 159.629 135.713C160.042 135.542 160.486 135.454 160.933 135.455H192.869C193.773 135.455 194.639 135.813 195.278 136.452C195.917 137.091 196.276 137.958 196.276 138.861C196.276 139.765 195.917 140.631 195.278 141.27C194.639 141.909 193.773 142.268 192.869 142.268Z" fill="#2575FC"/>
<path d="M149.652 215.413C152.222 215.413 154.305 213.33 154.305 210.76C154.305 208.191 152.222 206.108 149.652 206.108C147.083 206.108 145 208.191 145 210.76C145 213.33 147.083 215.413 149.652 215.413Z" fill="#CFD4D9"/>
<path d="M147.148 199.709C149.718 199.709 151.801 197.626 151.801 195.057C151.801 192.487 149.718 190.404 147.148 190.404C144.579 190.404 142.496 192.487 142.496 195.057C142.496 197.626 144.579 199.709 147.148 199.709Z" fill="#CFD4D9"/>
<path d="M143.568 183.963C146.138 183.963 148.221 181.88 148.221 179.311C148.221 176.741 146.138 174.658 143.568 174.658C140.999 174.658 138.916 176.741 138.916 179.311C138.916 181.88 140.999 183.963 143.568 183.963Z" fill="#CFD4D9"/>
<path d="M143.568 170.364C146.138 170.364 148.221 168.281 148.221 165.711C148.221 163.142 146.138 161.059 143.568 161.059C140.999 161.059 138.916 163.142 138.916 165.711C138.916 168.281 140.999 170.364 143.568 170.364Z" fill="#CFD4D9"/>
<path d="M214.123 229.599H169.68C168.776 229.599 167.91 229.24 167.271 228.601C166.632 227.962 166.273 227.096 166.273 226.192C166.273 225.289 166.632 224.422 167.271 223.783C167.91 223.145 168.776 222.786 169.68 222.786H214.123C215.026 222.786 215.892 223.145 216.531 223.783C217.17 224.422 217.529 225.289 217.529 226.192C217.529 227.096 217.17 227.962 216.531 228.601C215.892 229.24 215.026 229.599 214.123 229.599Z" fill="#CFD4D9"/>
<path d="M151.959 230.844C154.528 230.844 156.611 228.761 156.611 226.191C156.611 223.622 154.528 221.539 151.959 221.539C149.39 221.539 147.307 223.622 147.307 226.191C147.307 228.761 149.39 230.844 151.959 230.844Z" fill="#CFD4D9"/>
</g>
<path d="M231 154C248.673 154 263 139.673 263 122C263 104.327 248.673 90 231 90C213.327 90 199 104.327 199 122C199 139.673 213.327 154 231 154Z" fill="#00774C"/>
<path fill-rule="evenodd" clip-rule="evenodd" d="M228.154 133.476L247.903 113.795C248.787 112.912 248.788 111.408 247.905 110.525C247.021 109.641 245.587 109.641 244.704 110.525L226.584 128.644L216.839 119.028L216.837 119.026C215.953 118.145 214.521 118.146 213.638 119.028C212.755 119.912 212.757 121.348 213.64 122.231L224.954 133.477C225.837 134.359 227.271 134.358 228.154 133.476ZM245.423 111.029C245.975 110.586 246.785 110.62 247.297 111.132C247.846 111.68 247.846 112.641 247.297 113.189L227.547 132.871C227.511 132.907 227.473 132.941 227.434 132.972C227.474 132.941 227.512 132.906 227.548 132.87L247.298 113.188C247.847 112.64 247.847 111.68 247.298 111.131C246.786 110.619 245.975 110.585 245.423 111.029ZM214.354 119.535C214.906 119.089 215.719 119.122 216.232 119.635L226.587 129.853L226.588 129.852L216.233 119.635C215.72 119.121 214.906 119.088 214.354 119.535Z" fill="white"/>
<defs>
<clipPath id="clip0_2089_75080">
<rect width="303.716" height="168" fill="white" transform="translate(36 97)"/>
</clipPath>
</defs>
</svg>
