<svg width="304" height="168" viewBox="0 0 304 168" fill="none" xmlns="http://www.w3.org/2000/svg">
<g clip-path="url(#clip0_2089_75423)">
<path d="M113.706 167.14C108.905 167.847 104.045 168.082 99.198 167.841C87.5098 167.251 76.015 163.851 66.1915 157.459C61.8361 154.625 57.6812 151.143 55.4267 146.465C52.3668 140.113 53.4369 132.072 57.8065 126.539C59.4004 124.544 61.3609 122.871 63.5826 121.611C63.9118 121.425 64.2482 121.246 64.5882 121.075C68.2902 119.213 72.4483 118.452 76.5698 118.881C83.5767 119.647 90.0436 123.927 93.7798 129.907C97.1079 135.239 98.2675 141.53 98.9511 147.836C99.0798 149.024 99.1908 150.216 99.2981 151.401C98.7026 154.832 97.7663 158.196 96.5031 161.442C96.4389 161.601 96.3862 161.763 96.3457 161.929C97.0614 163.482 97.7426 165.05 98.3891 166.632C98.9966 166.961 99.677 167.134 100.368 167.133H113.677L113.706 167.14Z" fill="#E9EAEB"/>
<path d="M98.1122 167.445C98.0239 167.484 97.9288 167.506 97.8322 167.508C97.7356 167.51 97.6395 167.493 97.5496 167.458C97.4596 167.422 97.3776 167.37 97.3083 167.302C97.2391 167.235 97.1839 167.154 97.146 167.066C97.0887 166.93 97.035 166.794 96.9777 166.658C96.4624 165.405 95.9221 164.164 95.3567 162.936C88.1176 147.08 77.32 133.107 63.803 122.103C63.7256 122.048 63.6641 121.974 63.6251 121.888C63.5861 121.802 63.571 121.706 63.5813 121.612C63.6009 121.504 63.6446 121.402 63.7092 121.314C63.7739 121.225 63.8576 121.152 63.9543 121.101C64.0511 121.049 64.1582 121.02 64.2677 121.016C64.3773 121.011 64.4864 121.032 64.5869 121.075C64.6408 121.1 64.6913 121.131 64.7372 121.169C70.5203 125.879 75.8257 131.147 80.5765 136.897C85.3282 142.642 89.5122 148.833 93.0698 155.385C94.0396 157.174 94.9605 158.988 95.8325 160.828C96.0044 161.193 96.1762 161.561 96.3443 161.93C97.06 163.483 97.7412 165.051 98.3878 166.632C98.3986 166.658 98.4092 166.686 98.4201 166.711C98.453 166.779 98.4711 166.853 98.4732 166.928C98.4753 167.003 98.4613 167.078 98.4321 167.148C98.403 167.217 98.3594 167.28 98.3042 167.331C98.249 167.382 98.1836 167.421 98.1122 167.445Z" fill="white"/>
<path d="M303.291 168H0.426832C0.314034 168 0.20597 167.955 0.126326 167.875C0.0466807 167.795 0.00195312 167.687 0.00195312 167.574C0.00195312 167.461 0.0466807 167.353 0.126326 167.273C0.20597 167.193 0.314034 167.148 0.426832 167.148H303.291C303.404 167.148 303.512 167.193 303.592 167.273C303.671 167.353 303.716 167.461 303.716 167.574C303.716 167.687 303.671 167.795 303.592 167.875C303.512 167.955 303.404 168 303.291 168Z" fill="#15141E"/>
<path d="M216.469 136.9C216.421 136.9 216.39 136.899 216.38 136.898L210.604 136.899V136.047H216.401C216.535 136.052 219.273 136.129 221.796 133.068C225.556 128.505 228.643 117.211 222.001 89.313C213.07 51.8007 220.519 18.6607 224.136 6.15371C224.314 5.53494 224.346 4.88319 224.229 4.24998C224.112 3.61677 223.85 3.01943 223.462 2.50517C223.075 1.99091 222.573 1.57381 221.996 1.28683C221.42 0.999858 220.785 0.850869 220.141 0.851634H133.882C133.226 0.852513 132.579 1.00801 131.995 1.3055C131.41 1.60299 130.904 2.0341 130.518 2.56382C128.985 4.67169 126.883 8.72106 125.567 16.043L124.729 15.8925C126.073 8.41147 128.244 4.24295 129.829 2.06316C130.295 1.42486 130.904 0.905387 131.608 0.546911C132.313 0.188435 133.091 0.00106023 133.882 2.3178e-06H220.141C220.917 -0.000744442 221.682 0.178965 222.377 0.524932C223.071 0.870899 223.676 1.37365 224.143 1.99345C224.61 2.61326 224.926 3.33314 225.067 4.09622C225.208 4.85931 225.169 5.64469 224.954 6.39031C221.356 18.8324 213.945 51.8005 222.83 89.1159C229.565 117.406 226.327 128.945 222.425 133.644C219.851 136.743 217.015 136.9 216.469 136.9Z" fill="#DFE2E6"/>
<path d="M200.928 152.442C200.88 152.442 200.849 152.441 200.839 152.44L195.063 152.441V151.589H200.86C200.995 151.593 203.732 151.671 206.255 148.61C210.015 144.047 213.102 132.753 206.46 104.855C197.529 67.3427 204.978 34.2027 208.595 21.6957C208.773 21.0769 208.805 20.4252 208.688 19.792C208.571 19.1588 208.309 18.5614 207.921 18.0472C207.534 17.5329 207.032 17.1158 206.455 16.8288C205.879 16.5419 205.244 16.3929 204.6 16.3936H118.341C117.685 16.3945 117.038 16.55 116.454 16.8475C115.869 17.145 115.363 17.5761 114.977 18.1058C113.444 20.2137 111.342 24.2631 110.026 31.585L109.188 31.4345C110.532 23.9535 112.703 19.7849 114.288 17.6051C114.754 16.9669 115.363 16.4474 116.068 16.0889C116.772 15.7304 117.55 15.5431 118.341 15.542H204.6C205.376 15.5412 206.141 15.721 206.836 16.0669C207.53 16.4129 208.135 16.9156 208.602 17.5354C209.069 18.1553 209.385 18.8751 209.526 19.6382C209.667 20.4013 209.628 21.1867 209.413 21.9323C205.815 34.3744 198.404 67.3425 207.289 104.658C214.024 132.948 210.786 144.487 206.884 149.186C204.31 152.285 201.474 152.442 200.928 152.442Z" fill="#CFD4D9"/>
<path d="M191.746 120.202C182.86 82.8863 190.271 49.9157 193.872 37.4761C194.086 36.7304 194.124 35.9451 193.983 35.1822C193.842 34.4193 193.526 33.6995 193.059 33.0798C192.592 32.46 191.988 31.9572 191.294 31.6109C190.599 31.2646 189.834 31.0844 189.058 31.0845H102.797C102.007 31.0852 101.229 31.2723 100.525 31.6305C99.8209 31.9887 99.2114 32.5078 98.7458 33.1458C95.2637 37.9341 88.0383 53.8129 96.1084 97.7487C100.424 121.254 100.36 137.279 98.9499 147.836C98.1588 153.781 96.9386 157.989 95.8327 160.827L95.7147 161.128C95.4818 161.702 95.3603 162.315 95.3568 162.935C95.3487 163.635 95.4889 164.328 95.7684 164.97C96.0478 165.611 96.46 166.186 96.9779 166.657C97.3156 166.973 97.6978 167.238 98.1123 167.444C98.4565 167.62 98.8206 167.753 99.1968 167.841C99.5798 167.935 99.9728 167.982 100.367 167.981H185.297C185.308 167.981 185.336 167.985 185.386 167.985C185.93 167.985 188.768 167.827 191.341 164.728C195.242 160.029 198.481 148.491 191.746 120.202ZM190.712 164.152C188.189 167.215 185.451 167.136 185.318 167.133H100.367C99.6869 167.133 99.0172 166.966 98.4164 166.647C97.8156 166.328 97.302 165.867 96.9206 165.304C96.5851 164.817 96.3597 164.263 96.2602 163.68C96.1607 163.097 96.1895 162.5 96.3445 161.929C96.385 161.763 96.4377 161.601 96.5019 161.443C97.7651 158.197 98.7014 154.833 99.2969 151.401C101.315 140.396 101.691 123.415 96.9458 97.5948C88.9366 53.9847 96.0189 38.3457 99.4329 33.6468C99.8202 33.1179 100.326 32.6874 100.911 32.3903C101.495 32.0931 102.141 31.9376 102.797 31.9362H189.058C189.702 31.9358 190.337 32.0849 190.913 32.3719C191.489 32.6588 191.99 33.0757 192.377 33.5897C192.765 34.1037 193.027 34.7007 193.144 35.3335C193.261 35.9664 193.23 36.6178 193.052 37.2363C189.434 49.7439 181.987 82.8863 190.919 120.398C197.561 148.294 194.473 159.589 190.712 164.152Z" fill="#15141E"/>
<path d="M170.449 71.7178H126.006C125.103 71.7178 124.236 71.3589 123.597 70.7201C122.958 70.0812 122.6 69.2147 122.6 68.3113C122.6 67.4078 122.958 66.5414 123.597 65.9025C124.236 65.2637 125.103 64.9048 126.006 64.9048H170.449C171.352 64.9048 172.219 65.2637 172.857 65.9025C173.496 66.5414 173.855 67.4078 173.855 68.3113C173.855 69.2147 173.496 70.0812 172.857 70.7201C172.219 71.3589 171.352 71.7178 170.449 71.7178Z" fill="#CFD4D9"/>
<path d="M170.449 86.3906H126.006C125.103 86.3906 124.236 86.0317 123.597 85.3929C122.958 84.7541 122.6 83.8876 122.6 82.9841C122.6 82.0807 122.958 81.2142 123.597 80.5754C124.236 79.9365 125.103 79.5776 126.006 79.5776H170.449C171.352 79.5776 172.219 79.9365 172.857 80.5754C173.496 81.2142 173.855 82.0807 173.855 82.9841C173.855 83.8876 173.496 84.7541 172.857 85.3929C172.219 86.0317 171.352 86.3906 170.449 86.3906Z" fill="#CFD4D9"/>
<path d="M172.595 101.421H128.153C127.249 101.421 126.383 101.062 125.744 100.423C125.105 99.7843 124.746 98.9179 124.746 98.0144C124.746 97.111 125.105 96.2445 125.744 95.6057C126.383 94.9668 127.249 94.6079 128.153 94.6079H172.595C173.499 94.6079 174.365 94.9668 175.004 95.6057C175.643 96.2445 176.002 97.111 176.002 98.0144C176.002 98.9179 175.643 99.7843 175.004 100.423C174.365 101.062 173.499 101.421 172.595 101.421Z" fill="#CFD4D9"/>
<path d="M175.818 117.168H131.375C130.472 117.168 129.605 116.809 128.966 116.17C128.328 115.531 127.969 114.664 127.969 113.761C127.969 112.858 128.328 111.991 128.966 111.352C129.605 110.713 130.472 110.354 131.375 110.354H175.818C176.721 110.354 177.588 110.713 178.227 111.352C178.865 111.991 179.224 112.858 179.224 113.761C179.224 114.664 178.865 115.531 178.227 116.17C177.588 116.809 176.721 117.168 175.818 117.168Z" fill="#CFD4D9"/>
<path d="M156.869 45.2676H124.933C124.486 45.2681 124.042 45.1803 123.629 45.0093C123.215 44.8383 122.839 44.5875 122.522 44.2711C122.206 43.9547 121.954 43.579 121.783 43.1655C121.612 42.752 121.523 42.3087 121.523 41.8611C121.523 41.4135 121.612 40.9702 121.783 40.5567C121.954 40.1432 122.206 39.7675 122.522 39.4511C122.839 39.1347 123.215 38.8839 123.629 38.7129C124.042 38.5419 124.486 38.4541 124.933 38.4546H156.869C157.773 38.4546 158.639 38.8135 159.278 39.4523C159.917 40.0912 160.276 40.9576 160.276 41.8611C160.276 42.7646 159.917 43.631 159.278 44.2699C158.639 44.9087 157.773 45.2676 156.869 45.2676Z" fill="#2575FC"/>
<path d="M113.652 118.413C116.222 118.413 118.305 116.33 118.305 113.76C118.305 111.191 116.222 109.108 113.652 109.108C111.083 109.108 109 111.191 109 113.76C109 116.33 111.083 118.413 113.652 118.413Z" fill="#CFD4D9"/>
<path d="M111.148 102.709C113.718 102.709 115.801 100.626 115.801 98.0566C115.801 95.4872 113.718 93.4043 111.148 93.4043C108.579 93.4043 106.496 95.4872 106.496 98.0566C106.496 100.626 108.579 102.709 111.148 102.709Z" fill="#CFD4D9"/>
<path d="M107.568 86.9629C110.138 86.9629 112.221 84.8799 112.221 82.3105C112.221 79.7411 110.138 77.6582 107.568 77.6582C104.999 77.6582 102.916 79.7411 102.916 82.3105C102.916 84.8799 104.999 86.9629 107.568 86.9629Z" fill="#CFD4D9"/>
<path d="M107.568 73.3637C110.138 73.3637 112.221 71.2808 112.221 68.7114C112.221 66.142 110.138 64.0591 107.568 64.0591C104.999 64.0591 102.916 66.142 102.916 68.7114C102.916 71.2808 104.999 73.3637 107.568 73.3637Z" fill="#CFD4D9"/>
<path d="M178.123 132.599H133.68C132.776 132.599 131.91 132.24 131.271 131.601C130.632 130.962 130.273 130.096 130.273 129.192C130.273 128.289 130.632 127.422 131.271 126.783C131.91 126.145 132.776 125.786 133.68 125.786H178.123C179.026 125.786 179.892 126.145 180.531 126.783C181.17 127.422 181.529 128.289 181.529 129.192C181.529 130.096 181.17 130.962 180.531 131.601C179.892 132.24 179.026 132.599 178.123 132.599Z" fill="#CFD4D9"/>
<path d="M115.959 133.844C118.528 133.844 120.611 131.761 120.611 129.191C120.611 126.622 118.528 124.539 115.959 124.539C113.39 124.539 111.307 126.622 111.307 129.191C111.307 131.761 113.39 133.844 115.959 133.844Z" fill="#CFD4D9"/>
</g>
<defs>
<clipPath id="clip0_2089_75423">
<rect width="303.716" height="168" fill="white"/>
</clipPath>
</defs>
</svg>
