<svg width="241" height="168" viewBox="0 0 241 168" fill="none" xmlns="http://www.w3.org/2000/svg">
<g id="undraw_not_found_re_bh2e 1" clip-path="url(#clip0_1731_86581)">
<g id="Group 75892">
<g id="Group 75891">
<path id="Vector" d="M172.865 77.2138C170.641 63.8755 159.047 53.7109 145.079 53.7109H87.9577C73.9953 53.7109 62.404 63.8673 60.1714 77.1976C59.9137 78.7221 59.7808 80.29 59.7808 81.8878V131.658C59.7808 133.256 59.9137 134.821 60.1714 136.345C61.9482 146.966 69.6686 155.573 79.7978 158.63C82.3803 159.412 85.1202 159.832 87.9577 159.832H145.079C147.917 159.832 150.656 159.412 153.239 158.63C163.371 155.57 171.094 146.958 172.865 136.329C173.12 134.81 173.253 133.25 173.253 131.658V81.8878C173.253 80.2955 173.12 78.733 172.865 77.2138ZM149.913 158.63C148.343 158.91 146.728 159.056 145.079 159.056H87.9577C86.3083 159.056 84.6943 158.91 83.1236 158.63C70.2979 156.349 60.5593 145.14 60.5593 131.658V115.137C60.5593 68.4572 98.3989 54.4895 145.079 54.4895C160.211 54.4895 172.477 66.7564 172.477 81.8878V131.658C135.745 136.573 162.739 156.349 149.913 158.63Z" fill="#56555E"/>
<g id="Group">
<path id="Vector_2" d="M151.905 104.342H144.671C143.545 97.7101 140.072 91.7037 134.885 87.4197C122.949 77.5608 105.28 79.2448 95.4215 91.1812C95.3879 91.2193 95.3555 91.2585 95.3245 91.2987C94.5367 92.3198 94.7259 93.7862 95.747 94.574C96.768 95.3619 98.2344 95.1727 99.0224 94.1516C103.305 88.9628 109.788 85.6608 117.036 85.6608C128.133 85.6622 137.698 93.4701 139.921 104.342H133.541C133.268 104.342 133.004 104.438 132.794 104.613C132.299 105.026 132.232 105.762 132.644 106.257L141.826 117.279C141.871 117.333 141.921 117.383 141.975 117.428C142.47 117.841 143.207 117.775 143.62 117.279L152.802 106.257C152.976 106.048 153.072 105.783 153.072 105.51C153.072 104.866 152.55 104.343 151.905 104.342Z" fill="#2575FC"/>
<path id="Vector_3" d="M138.326 123.453C137.304 122.665 135.838 122.855 135.05 123.876C131.653 127.989 126.95 130.816 121.724 131.886C109.084 134.474 96.7395 126.325 94.1516 113.685H100.531C101.176 113.685 101.699 113.162 101.699 112.517C101.698 112.244 101.603 111.98 101.428 111.77L92.246 100.748C91.8331 100.253 91.0968 100.186 90.6016 100.599C90.5475 100.644 90.4977 100.694 90.4526 100.748L81.2706 111.77C80.858 112.266 80.9251 113.002 81.4207 113.414C81.6303 113.589 81.8945 113.685 82.1675 113.685H89.4018C90.5274 120.317 94.0004 126.324 99.1871 130.608C111.124 140.467 128.792 138.783 138.651 126.846C138.685 126.808 138.717 126.769 138.748 126.729C139.536 125.708 139.347 124.241 138.326 123.453Z" fill="#2575FC"/>
<path id="euro" fill-rule="evenodd" clip-rule="evenodd" d="M120.085 123.027C118.167 123.002 116.403 122.645 114.8 121.948L114.793 121.945C113.2 121.227 111.819 120.249 110.654 119.011L110.65 119.007C109.512 117.771 108.628 116.343 108 114.726L107.998 114.719C107.954 114.602 107.912 114.485 107.871 114.366H106.498C105.537 114.366 104.758 113.567 104.758 112.581C104.758 111.595 105.537 110.796 106.498 110.796H107.141C107.108 110.379 107.092 109.956 107.092 109.527C107.092 109.149 107.105 108.776 107.13 108.407H106.498C105.537 108.407 104.758 107.608 104.758 106.622C104.758 105.636 105.537 104.836 106.498 104.836H107.822C107.877 104.668 107.936 104.501 107.998 104.335L108 104.329C108.628 102.712 109.512 101.283 110.65 100.047L110.654 100.043C111.82 98.8049 113.202 97.839 114.797 97.1454C116.4 96.4229 118.166 96.0529 120.085 96.0274L120.092 96.0273L121.694 96.0274C122.834 96.0274 123.758 96.9759 123.758 98.1459C123.758 99.3159 122.834 100.264 121.694 100.264H120.197C118.943 100.264 117.799 100.509 116.759 100.993L116.755 100.995L116.75 100.997C115.7 101.462 114.783 102.112 113.996 102.948L113.991 102.953C113.454 103.509 112.997 104.136 112.621 104.836H119.685C120.646 104.836 121.425 105.636 121.425 106.622C121.425 107.608 120.646 108.407 119.685 108.407H111.584C111.55 108.771 111.533 109.144 111.533 109.527C111.533 109.96 111.556 110.382 111.601 110.796H119.685C120.646 110.796 121.425 111.595 121.425 112.581C121.425 113.567 120.646 114.366 119.685 114.366H112.7C113.06 115.016 113.492 115.607 113.994 116.141C114.78 116.953 115.698 117.592 116.75 118.058C117.794 118.52 118.943 118.766 120.202 118.79H121.694C122.834 118.79 123.758 119.739 123.758 120.909C123.758 122.079 122.834 123.027 121.694 123.027L120.085 123.027Z" fill="#2575FC"/>
</g>
</g>
</g>
<path id="Vector_4" d="M240.269 159.084H0V159.817H240.269V159.084Z" fill="#56555E"/>
<g id="Group_2">
<path id="Vector_5" d="M38.0767 91.2677L40.2742 105.552L72.5054 101.157L69.3922 84.4673L38.0767 91.2677Z" fill="#2575FC"/>
<path id="Vector_6" d="M63.3722 11.1133H50.0459V24.9072H63.3722V11.1133Z" fill="#313038"/>
<path id="Vector_7" d="M51.262 25.7065L54.5583 15.8174H60.9835L61.3212 25.7065H51.262Z" fill="#FFB6B6"/>
<path id="Vector_8" opacity="0.1" d="M51.262 25.7065L54.5583 15.8174H60.9835L61.3212 25.7065H51.262Z" fill="#15141E"/>
<path id="Vector_9" d="M54.7416 113.793L54.3753 151.884L54.009 154.815V159.021L59.503 159.576L59.8692 151.152C59.8692 151.152 65.7295 134.67 64.2644 121.851C62.7994 109.032 63.5319 112.694 63.5319 112.694L54.7416 113.793Z" fill="#FFB6B6"/>
<path id="Vector_10" d="M58.2291 116.785L44.7135 152.399L43.9888 155.262L42.4587 159.18L37.1392 157.699L39.8625 149.718C39.8625 149.718 40.3995 132.234 46.4275 120.826C52.4555 109.418 50.4408 112.563 50.4408 112.563L58.2291 116.785Z" fill="#FFB6B6"/>
<path id="Vector_11" d="M51.2619 24.6081L41.3728 29.0033L47.6871 61.6051L46.6894 108.397L40.0967 122.315C40.0967 122.315 38.9921 130.275 50.3463 125.147C61.7005 120.02 74.5197 118.555 74.5197 118.555L71.4064 97.1282L68.6595 40.9068L69.0257 28.4539L60.9679 23.3262C60.9679 23.3262 51.2619 24.6081 51.2619 24.6081Z" fill="#313038"/>
<path id="Vector_12" d="M45.7544 122.824L34.7803 104.453L47.321 61.6048L41.373 29.0029L51.808 24.5356C51.808 24.5356 57.2101 29.7961 57.2101 34.135C57.2101 38.4739 45.7544 122.824 45.7544 122.824Z" fill="#DFE2E6"/>
<path id="Vector_13" d="M69.5614 119.161L59.6002 33.5917C59.4744 32.5112 59.6588 31.4173 60.1319 30.4378L62.9825 24.5356L74.1535 27.721L69.663 62.7035L81.6619 97.1279L69.5614 119.161Z" fill="#DFE2E6"/>
<path id="Vector_14" d="M60.6016 158.844C60.6016 158.844 53.6426 154.815 52.9101 157.012C52.1776 159.21 51.8113 161.041 51.8113 161.041C51.8113 161.041 49.98 168 55.474 168C60.9679 168 60.6016 164.835 60.6016 164.835V158.844Z" fill="#313038"/>
<path id="Vector_15" d="M36.3821 156.617C36.3821 156.617 44.33 155.395 44.2129 157.709C44.0958 160.022 43.7708 161.861 43.7708 161.861C43.7708 161.861 42.9451 169.01 37.8275 167.011C32.71 165.013 34.2026 162.198 34.2026 162.198L36.3821 156.617Z" fill="#313038"/>
<path id="Vector_16" d="M58.1995 21.1998C63.2282 21.1998 67.3048 17.1232 67.3048 12.0945C67.3048 7.06583 63.2282 2.98926 58.1995 2.98926C53.1708 2.98926 49.0942 7.06583 49.0942 12.0945C49.0942 17.1232 53.1708 21.1998 58.1995 21.1998Z" fill="#FFB6B6"/>
<path id="Vector_17" d="M65.474 3.98043C65.0502 1.73547 62.7456 0.217019 60.469 0.0266097C58.1923 -0.1638 55.9623 0.695868 53.912 1.70381C52.5222 2.38706 51.1538 3.15718 50.0281 4.2207C48.9023 5.28422 48.028 6.67354 47.8261 8.20899C47.7546 8.75225 47.7639 9.31983 47.5415 9.82061C47.2637 10.4462 46.6674 10.871 46.3075 11.4533C45.6621 12.4975 45.9586 14.0166 46.9494 14.7414C45.704 15.2722 44.4243 15.8258 43.475 16.7909C42.5256 17.756 41.9774 19.246 42.4983 20.4955C42.6827 20.9376 42.9872 21.3245 43.1448 21.7768C43.4439 22.6357 43.1592 23.6115 42.6286 24.3501C42.098 25.0888 41.3492 25.6366 40.6135 26.1713C42.5042 26.5419 44.434 26.8306 46.3528 26.6577C48.2717 26.4848 50.1975 25.8124 51.5871 24.4778C52.9766 23.1433 53.741 21.0846 53.2425 19.2236C52.8606 17.798 51.7924 16.5488 51.7931 15.0729C51.7937 13.9385 52.4316 12.9151 53.0475 11.9624C54.3928 9.88175 55.738 7.80114 57.0833 5.72052C57.3253 5.34627 57.5804 4.95897 57.9628 4.73006C58.6133 4.34062 59.4571 4.51188 60.1429 4.83511C60.8287 5.15835 61.4553 5.62209 62.1865 5.8225C63.6788 6.23153 65.41 5.29219 65.8805 3.81809" fill="#313038"/>
<path id="Vector_18" d="M60.0954 22.4977C59.3367 23.2324 58.2432 23.4691 57.2299 23.7668C56.2165 24.0646 55.1386 24.5328 54.6825 25.4855C54.2353 26.4196 54.56 27.6054 55.3004 28.3296C56.0408 29.0537 57.1164 29.3587 58.1519 29.3444C59.1875 29.33 60.1967 29.0265 61.1706 28.6741C63.8335 27.7105 66.3556 26.3588 68.6325 24.6749C67.1577 24.2668 66.1928 22.5446 66.615 21.0737C66.9584 19.8772 68.0086 19.0427 68.7233 18.0235C69.9538 16.2685 70.1588 13.9552 69.7513 11.8509C69.3438 9.74664 68.3845 7.79602 67.4352 5.87438C67.1351 5.26692 66.8279 4.64918 66.3598 4.15937C65.8916 3.66956 65.2288 3.31865 64.5549 3.38882C63.4366 3.50528 62.7225 4.73297 62.7149 5.85733C62.7073 6.98169 63.2005 8.03839 63.5746 9.09872C63.9601 10.1911 64.228 11.3491 64.1246 12.5029C64.0379 13.4698 63.6863 14.4116 63.118 15.1987C62.6792 15.8065 62.12 16.3166 61.6429 16.8948C61.274 17.3419 60.947 17.8482 60.85 18.4196C60.6735 19.4595 61.2835 20.5117 61.1163 21.5531C60.9396 22.6539 59.7812 23.4967 58.6794 23.3261" fill="#313038"/>
<path id="uuid-da16df1e-5659-4232-96f6-61e8c639a9ec-179" d="M40.9405 86.8751C40.5635 89.5731 38.8658 91.5655 37.1488 91.3253C35.4319 91.0851 34.3461 88.7034 34.7236 86.0045C34.8596 84.9244 35.2524 83.8925 35.8689 82.9952L37.6108 71.584L42.9483 72.5155L40.6645 83.6661C41.0115 84.6984 41.1061 85.7988 40.9405 86.8751Z" fill="#FFB6B6"/>
<path id="Vector_19" d="M45.5849 28.4538C45.5849 28.4538 40.0909 26.6225 39.3584 33.2152C38.6259 39.808 37.8933 47.8658 37.8933 47.8658C37.8933 47.8658 34.597 55.5573 36.062 59.5862C37.5271 63.6151 40.0909 60.8061 37.5271 64.225C34.9632 67.644 35.3204 78.8929 35.3204 78.8929L43.5704 78.4776C43.5704 78.4776 48.1487 48.232 48.1487 47.4995C48.1487 46.767 45.5849 28.4538 45.5849 28.4538Z" fill="#DFE2E6"/>
<g id="Group_3">
<path id="uuid-6bf35aa9-e432-4b51-af77-8f4eb19e6e42-180" d="M81.2958 85.6508C81.3979 88.373 80.0761 90.6324 78.3436 90.6971C76.6111 90.7618 75.1244 88.6076 75.0226 85.8843C74.967 84.797 75.1726 83.7123 75.6222 82.7207L75.3351 71.1809L80.7533 71.1616L80.4611 82.5399C80.9838 83.4953 81.27 84.562 81.2958 85.6508Z" fill="#FFB6B6"/>
<path id="Vector_20" d="M72.8381 28.3302C72.8381 28.3302 78.3638 26.5974 78.9785 33.2021C79.5931 39.8069 80.1816 51.9054 80.1816 51.9054C80.1816 51.9054 83.34 59.6546 81.8032 63.6567C80.2664 67.6587 77.7531 64.8044 80.2555 68.2686C82.7578 71.7328 81.8597 81.5022 81.8597 81.5022L73.6184 80.9395C73.6184 80.9395 69.9213 52.0884 69.9344 51.356C69.9475 50.6236 72.8381 28.3302 72.8381 28.3302Z" fill="#DFE2E6"/>
</g>
</g>
</g>
<defs>
<clipPath id="clip0_1731_86581">
<rect width="240.269" height="168" fill="white"/>
</clipPath>
</defs>
</svg>
