<svg width="327" height="169" viewBox="0 0 327 169" fill="none" xmlns="http://www.w3.org/2000/svg">
<path d="M53.7722 43.996C61.2576 43.996 67.3257 37.9409 67.3257 30.4716C67.3257 23.0023 61.2576 16.9473 53.7722 16.9473C46.2868 16.9473 40.2188 23.0023 40.2188 30.4716C40.2188 37.9409 46.2868 43.996 53.7722 43.996Z" fill="#DFDFDF"/>
<path d="M162.821 168.5C235.072 168.5 293.642 166.13 293.642 163.208C293.642 160.285 235.072 157.916 162.821 157.916C90.5707 157.916 32 160.285 32 163.208C32 166.13 90.5707 168.5 162.821 168.5Z" fill="#E6E6E6"/>
<path d="M65.2943 96.8847C83.6823 96.8847 98.5887 82.0103 98.5887 63.6618C98.5887 45.3134 83.6823 30.439 65.2943 30.439C46.9064 30.439 32 45.3134 32 63.6618C32 82.0103 46.9064 96.8847 65.2943 96.8847Z" fill="#E6E6E6"/>
<path d="M68.5069 163.731H61.6875L64.7962 58.6582L68.5069 163.731Z" fill="#071034"/>
<path d="M65.3947 78.5721L72.7156 68.4653L65.2945 81.0739L64.4922 79.6729L65.3947 78.5721Z" fill="#071034"/>
<path d="M64.5941 88.7792L57.2734 78.6724L64.6945 91.2809L65.4968 89.8799L64.5941 88.7792Z" fill="#071034"/>
<path d="M167.257 163.824C201.511 163.824 229.28 136.115 229.28 101.934C229.28 67.7534 201.511 40.0444 167.257 40.0444C133.003 40.0444 105.234 67.7534 105.234 101.934C105.234 136.115 133.003 163.824 167.257 163.824Z" fill="#071034"/>
<path d="M167.256 158.7C198.674 158.7 224.144 133.285 224.144 101.934C224.144 70.5827 198.674 45.1675 167.256 45.1675C135.837 45.1675 110.367 70.5827 110.367 101.934C110.367 133.285 135.837 158.7 167.256 158.7Z" fill="white"/>
<path d="M167.052 109.722C171.249 109.722 174.651 106.327 174.651 102.139C174.651 97.9514 171.249 94.5566 167.052 94.5566C162.855 94.5566 159.453 97.9514 159.453 102.139C159.453 106.327 162.855 109.722 167.052 109.722Z" fill="#2575FC"/>
<path d="M168.692 48.0366H165.406V54.1846H168.692V48.0366Z" fill="#071034"/>
<path d="M168.692 150.093H165.406V156.241H168.692V150.093Z" fill="#071034"/>
<path d="M118.992 103.778V100.5H112.831V103.778H118.992Z" fill="#071034"/>
<path d="M221.266 103.778V100.5H215.104V103.778H221.266Z" fill="#071034"/>
<path d="M164.859 105.431L167.668 99.0234L202.855 118.47L164.859 105.431Z" fill="#2575FC"/>
<path d="M175.269 25.0845H159.25V43.5284H175.269V25.0845Z" fill="#071034"/>
<path d="M167.257 30.2076C177.465 30.2076 185.741 27.9138 185.741 25.0843C185.741 22.2547 177.465 19.9609 167.257 19.9609C157.049 19.9609 148.773 22.2547 148.773 25.0843C148.773 27.9138 157.049 30.2076 167.257 30.2076Z" fill="#071034"/>
<path d="M201.863 112.898L200.836 114.332C200.836 114.332 196.112 119.866 195.907 117.202C195.701 114.537 199.398 112.693 199.398 112.693L201.452 111.463L201.863 112.898Z" fill="#FFB8B8"/>
<path d="M231.092 117.738L231.952 119.278C231.952 119.278 234.942 125.906 232.441 124.951C229.94 123.996 229.852 119.873 229.852 119.873L229.617 117.494L231.092 117.738Z" fill="#FFB8B8"/>
<path d="M226.472 90.4304C229.926 90.4304 232.726 87.6366 232.726 84.1903C232.726 80.744 229.926 77.9502 226.472 77.9502C223.019 77.9502 220.219 80.744 220.219 84.1903C220.219 87.6366 223.019 90.4304 226.472 90.4304Z" fill="#313038"/>
<path d="M225.891 135.441L226.712 140.769V142.409H231.436V140.359C231.436 140.359 231.641 136.67 230.82 135.646C229.998 134.621 225.891 135.441 225.891 135.441Z" fill="#FFB8B8"/>
<path d="M217.469 135.441L218.29 140.769V142.409H223.014V140.359C223.014 140.359 223.219 136.67 222.398 135.646C221.576 134.621 217.469 135.441 217.469 135.441Z" fill="#FFB8B8"/>
<path d="M220.65 92.6411C220.65 92.6411 218.833 93.5966 220.074 95.7702C221.315 97.9438 228.596 120.431 228.596 120.431L232.796 119.241L229.092 105.019L226.971 96.0812L220.65 92.6411Z" fill="#2575FC"/>
<path d="M225.786 90.6627C228.395 90.6627 230.51 88.5525 230.51 85.9493C230.51 83.3461 228.395 81.2358 225.786 81.2358C223.177 81.2358 221.062 83.3461 221.062 85.9493C221.062 88.5525 223.177 90.6627 225.786 90.6627Z" fill="#FFB8B8"/>
<path d="M227.945 86.6665L227.328 96.2983L223.016 93.2244C223.016 93.2244 224.453 87.4862 224.042 87.0764L227.945 86.6665Z" fill="#FFB8B8"/>
<path d="M227.947 95.4787L223.301 92.0456C223.301 92.0456 221.17 91.1752 220.554 92.1998C219.938 93.2245 216.857 108.39 218.5 111.259C218.5 111.259 227.331 113.103 229.18 112.078L230.001 106.75C230.001 106.75 231.028 103.471 229.385 101.422L227.947 95.4787Z" fill="#2575FC"/>
<path d="M221.785 92.4049C221.785 92.4049 220.142 91.1753 218.705 93.2246C217.267 95.2739 200.016 111.464 200.016 111.464L202.891 114.743L214.186 105.316L221.374 99.5775L221.785 92.4049Z" fill="#2575FC"/>
<path d="M229.277 111.976C229.277 111.976 219.111 110.029 218.084 111.463L217.879 113.718C217.879 113.718 215.62 118.021 216.852 124.989C218.084 131.957 217.263 136.26 217.263 136.26C217.263 136.26 222.808 135.645 226.915 136.26C231.023 136.875 231.639 136.26 231.639 136.26L229.277 111.976Z" fill="#313038"/>
<path d="M231.846 141.588L225.891 141.793L227.944 157.163C227.944 157.163 226.301 163.721 228.15 164.131C229.435 164.39 230.741 164.527 232.052 164.541C232.052 164.541 233.9 166.385 235.954 166.18C237.318 166.006 238.639 165.59 239.856 164.951C239.856 164.951 240.267 163.721 238.829 163.311C237.392 162.901 233.489 161.672 232.668 157.368L231.846 141.588Z" fill="#313038"/>
<path d="M223.425 141.588L217.469 141.793L219.522 157.163C219.522 157.163 217.879 163.721 219.728 164.131C221.013 164.39 222.319 164.527 223.63 164.541C223.63 164.541 225.478 166.385 227.532 166.18C228.896 166.006 230.218 165.59 231.434 164.951C231.434 164.951 231.845 163.721 230.407 163.311C228.97 162.901 225.068 161.672 224.246 157.368L223.425 141.588Z" fill="#313038"/>
<path d="M228.658 80.2047C230.087 80.2047 231.246 79.0487 231.246 77.6226C231.246 76.1966 230.087 75.0405 228.658 75.0405C227.229 75.0405 226.07 76.1966 226.07 77.6226C226.07 79.0487 227.229 80.2047 228.658 80.2047Z" fill="#313038"/>
<path d="M232.107 76.2242C232.107 75.586 231.87 74.9703 231.442 74.4961C231.014 74.0219 230.425 73.7226 229.789 73.6561C229.879 73.6468 229.969 73.6421 230.059 73.6421C230.745 73.6421 231.403 73.9141 231.888 74.3984C232.374 74.8826 232.646 75.5394 232.646 76.2242C232.646 76.909 232.374 77.5658 231.888 78.05C231.403 78.5343 230.745 78.8063 230.059 78.8063C229.969 78.8063 229.879 78.8016 229.789 78.7923C230.425 78.7258 231.014 78.4265 231.442 77.9523C231.87 77.4781 232.107 76.8625 232.107 76.2242Z" fill="#313038"/>
<path d="M225.742 85.4494C228.124 85.4494 230.055 84.2933 230.055 82.8673C230.055 81.4412 228.124 80.2852 225.742 80.2852C223.361 80.2852 221.43 81.4412 221.43 82.8673C221.43 84.2933 223.361 85.4494 225.742 85.4494Z" fill="#313038"/>
</svg>
