<svg width="229" height="168" viewBox="0 0 229 168" fill="none" xmlns="http://www.w3.org/2000/svg">
    <g clip-path="url(#clip0_2089_131486)">
        <path d="M29.0213 59.9274C45.0494 59.9274 58.0427 46.9341 58.0427 30.9061C58.0427 14.8781 45.0494 1.88477 29.0213 1.88477C12.9933 1.88477 0 14.8781 0 30.9061C0 46.9341 12.9933 59.9274 29.0213 59.9274Z"
              fill="#DFE2E6"/>
        <path d="M29.0204 55.0916C42.3771 55.0916 53.2048 44.2638 53.2048 30.9071C53.2048 17.5504 42.3771 6.72266 29.0204 6.72266C15.6637 6.72266 4.83594 17.5504 4.83594 30.9071C4.83594 44.2638 15.6637 55.0916 29.0204 55.0916Z"
              fill="#2575FC"/>
        <path d="M114.041 59.9274C130.069 59.9274 143.062 46.9341 143.062 30.9061C143.062 14.8781 130.069 1.88477 114.041 1.88477C98.0128 1.88477 85.0195 14.8781 85.0195 30.9061C85.0195 46.9341 98.0128 59.9274 114.041 59.9274Z"
              fill="#DFE2E6"/>
        <path d="M114.042 55.0916C127.399 55.0916 138.226 44.2638 138.226 30.9071C138.226 17.5504 127.399 6.72266 114.042 6.72266C100.685 6.72266 89.8574 17.5504 89.8574 30.9071C89.8574 44.2638 100.685 55.0916 114.042 55.0916Z"
              fill="white"/>
        <path d="M114.042 55.0916C127.399 55.0916 138.226 44.2638 138.226 30.9071C138.226 17.5504 127.399 6.72266 114.042 6.72266C100.685 6.72266 89.8574 17.5504 89.8574 30.9071C89.8574 44.2638 100.685 55.0916 114.042 55.0916Z"
              fill="#2575FC"/>
        <path d="M111.986 39.6528C111.943 39.6528 111.9 39.6517 111.856 39.6496C111.474 39.6312 111.1 39.5302 110.76 39.3537C110.42 39.1771 110.123 38.9292 109.888 38.6268L106.178 33.8571C105.746 33.3004 105.552 32.5951 105.64 31.8959C105.727 31.1967 106.088 30.5608 106.644 30.1275L106.777 30.0236C107.334 29.5917 108.039 29.3982 108.739 29.4855C109.438 29.5729 110.074 29.934 110.507 30.4897C110.716 30.7585 110.981 30.979 111.283 31.1361C111.585 31.2931 111.918 31.383 112.258 31.3996C112.598 31.4162 112.938 31.3591 113.254 31.2322C113.57 31.1052 113.855 30.9116 114.089 30.6643L121.622 22.7127C121.862 22.4594 122.15 22.2557 122.468 22.1135C122.787 21.9713 123.131 21.8932 123.48 21.8838C123.829 21.8744 124.176 21.9338 124.502 22.0586C124.828 22.1834 125.126 22.3712 125.379 22.6113L125.502 22.7278C126.014 23.2126 126.312 23.8808 126.331 24.5854C126.35 25.29 126.088 25.9732 125.604 26.4849L113.915 38.8228C113.667 39.085 113.368 39.2939 113.036 39.4366C112.704 39.5793 112.347 39.6529 111.986 39.6528Z"
              fill="white"/>
        <path d="M199.062 59.9274C215.09 59.9274 228.084 46.9341 228.084 30.9061C228.084 14.8781 215.09 1.88477 199.062 1.88477C183.034 1.88477 170.041 14.8781 170.041 30.9061C170.041 46.9341 183.034 59.9274 199.062 59.9274Z"
              fill="#DFE2E6"/>
        <path d="M199.061 55.0896C212.418 55.0896 223.246 44.2619 223.246 30.9052C223.246 17.5485 212.418 6.7207 199.061 6.7207C185.705 6.7207 174.877 17.5485 174.877 30.9052C174.877 44.2619 185.705 55.0896 199.061 55.0896Z"
              fill="white"/>
        <path d="M26.9665 39.6528C26.9233 39.6528 26.88 39.6517 26.8367 39.6496C26.4542 39.6312 26.0802 39.5302 25.7404 39.3537C25.4006 39.1771 25.103 38.9292 24.8681 38.6268L21.1583 33.8571C20.7263 33.3004 20.5328 32.5951 20.6202 31.8959C20.7075 31.1967 21.0687 30.5608 21.6243 30.1275L21.7578 30.0236C22.3145 29.5917 23.0198 29.3982 23.719 29.4855C24.4183 29.5729 25.0543 29.934 25.4876 30.4897C25.6967 30.7585 25.9614 30.979 26.2636 31.1361C26.5658 31.2931 26.8984 31.383 27.2385 31.3996C27.5787 31.4162 27.9184 31.3591 28.2345 31.2322C28.5505 31.1052 28.8354 30.9116 29.0697 30.6643L36.6024 22.7127C36.8425 22.4594 37.1301 22.2557 37.4488 22.1135C37.7675 21.9713 38.1112 21.8932 38.4601 21.8838C38.809 21.8744 39.1564 21.9338 39.4823 22.0586C39.8083 22.1834 40.1064 22.3712 40.3598 22.6113L40.4828 22.7278C40.9944 23.2126 41.2926 23.8808 41.3116 24.5854C41.3306 25.29 41.069 25.9732 40.5842 26.4849L28.8954 38.8228C28.6472 39.085 28.3481 39.2939 28.0165 39.4366C27.6849 39.5793 27.3276 39.6529 26.9665 39.6528Z"
              fill="white"/>
        <path d="M147.822 25.3038H166.924V8.69112C166.904 7.66249 166.477 6.68363 165.737 5.96911C164.997 5.2546 164.004 4.86273 162.975 4.87942H156.625C151.771 4.87942 147.822 8.69153 147.822 13.3772V25.3038Z"
              fill="#15141E"/>
        <path d="M140.748 164.319L144.374 164.319L146.1 150.332L140.748 150.332L140.748 164.319Z" fill="#FFB6B6"/>
        <path d="M139.825 167.832L151.518 167.832V167.684C151.517 166.477 151.038 165.319 150.185 164.466C149.331 163.612 148.173 163.133 146.966 163.133L139.825 163.133L139.825 167.832Z"
              fill="#15141E"/>
        <path d="M174.174 164.319L177.8 164.319L179.525 150.332L174.173 150.332L174.174 164.319Z" fill="#FFB6B6"/>
        <path d="M173.249 167.832L184.941 167.832V167.684C184.941 166.477 184.462 165.319 183.608 164.466C182.755 163.612 181.597 163.133 180.39 163.133L173.248 163.133L173.249 167.832Z"
              fill="#15141E"/>
        <path d="M169.794 51.9492L172.16 67.0344L149.68 67.3301L152.638 52.8367L169.794 51.9492Z" fill="#FFB6B6"/>
        <path d="M171.508 63.3516L178.667 82.4159L179.555 161.421H173.491L158.997 97.9447L145.687 159.764H139.771L143.912 90.2542C143.912 90.2542 142.691 76.3028 148.941 68.0702L150.462 63.6753L171.508 63.3516Z"
              fill="#15141E"/>
        <path d="M140.797 78.212C141.423 78.0414 142.003 77.7357 142.498 77.3163C142.993 76.8969 143.39 76.3741 143.661 75.7848C143.933 75.1954 144.071 74.5537 144.067 73.905C144.064 73.2562 143.918 72.6162 143.64 72.03L153.203 40.8514L146.169 39.457L137.422 70.0186C136.469 70.5506 135.743 71.4141 135.383 72.4454C135.023 73.4766 135.054 74.6041 135.47 75.614C135.886 76.624 136.658 77.4462 137.64 77.9251C138.622 78.4039 139.745 78.506 140.797 78.212Z"
              fill="#FFB6B6"/>
        <path d="M153.453 60.2817L168.948 59.9826C169.391 59.9732 169.819 59.8188 170.166 59.5432C170.513 59.2676 170.759 58.8858 170.869 58.4565C171.699 55.1675 173.527 46.5958 172.558 38.0585C172.366 36.4046 171.845 34.8059 171.025 33.357C170.205 31.9081 169.103 30.6383 167.783 29.6229C166.464 28.6074 164.954 27.8669 163.344 27.4452C161.733 27.0234 160.054 26.929 158.407 27.1674C156.669 27.4163 155.003 28.0298 153.518 28.9678C152.034 29.9058 150.765 31.147 149.794 32.6101C148.823 34.0731 148.172 35.7249 147.884 37.4571C147.597 39.1892 147.679 40.9627 148.125 42.661C150.075 50.0684 151.177 55.3678 151.399 58.4122C151.432 58.8524 151.608 59.2697 151.901 59.6004C152.193 59.9311 152.586 60.157 153.019 60.2436C153.147 60.2692 153.278 60.2821 153.409 60.2822C153.424 60.2822 153.438 60.282 153.453 60.2817Z"
              fill="#DFE2E6"/>
        <path d="M200.524 32.8917C200.431 33.1004 200.355 33.3162 200.295 33.537L180.899 40.1281L177.151 36.8539L171.47 41.8644L177.542 48.3056C178.032 48.8259 178.679 49.1731 179.383 49.2951C180.088 49.417 180.813 49.3071 181.45 48.9818L202.205 38.3799C202.956 38.8403 203.829 39.0613 204.708 39.0135C205.587 38.9656 206.431 38.6512 207.127 38.1121C207.824 37.573 208.339 36.8347 208.605 35.9954C208.872 35.1562 208.876 34.2557 208.618 33.4137C208.361 32.5718 207.852 31.8284 207.162 31.2823C206.471 30.7362 205.63 30.4133 204.752 30.3567C203.873 30.3 202.998 30.5122 202.243 30.965C201.487 31.4178 200.888 32.0898 200.524 32.8917Z"
              fill="#FFB6B6"/>
        <path d="M180.857 39.0806C180.856 38.8135 180.797 38.5498 180.684 38.3077C180.571 38.0655 180.408 37.8505 180.204 37.6773L173.102 31.6276C172.203 30.5976 170.933 29.9662 169.569 29.8717C168.206 29.7773 166.86 30.2275 165.828 31.1237C164.796 32.0199 164.161 33.2889 164.063 34.6523C163.966 36.0158 164.412 37.3623 165.306 38.3967L170.364 46.2724C170.508 46.4971 170.699 46.6881 170.924 46.8324C171.149 46.9766 171.402 47.0707 171.667 47.1082C171.931 47.1457 172.2 47.1258 172.457 47.0498C172.713 46.9739 172.949 46.8436 173.151 46.6678L180.221 40.492C180.423 40.3163 180.584 40.0993 180.693 39.8557C180.803 39.6122 180.859 39.3478 180.857 39.0806Z"
              fill="#DFE2E6"/>
        <path d="M153.632 48.7502C153.869 48.6259 154.076 48.452 154.239 48.2405C154.402 48.0289 154.517 47.7846 154.577 47.5244L156.677 38.4342C157.177 37.1622 157.153 35.7438 156.608 34.49C156.064 33.2362 155.045 32.2494 153.774 31.7459C152.504 31.2424 151.085 31.2633 149.83 31.8041C148.575 32.3449 147.585 33.3615 147.078 34.6308L142.416 42.7468C142.283 42.9785 142.202 43.236 142.177 43.502C142.153 43.768 142.186 44.0362 142.274 44.2882C142.363 44.5403 142.504 44.7703 142.69 44.9626C142.875 45.1549 143.1 45.3051 143.349 45.4027L152.087 48.8356C152.335 48.9334 152.602 48.9764 152.869 48.9617C153.136 48.9469 153.396 48.8748 153.632 48.7502Z"
              fill="#DFE2E6"/>
        <path d="M146.114 6.50508C145.397 4.82543 146.631 2.68829 148.87 1.73164C151.11 0.774986 153.507 1.36109 154.224 3.04074C154.942 4.7204 153.708 6.85755 151.468 7.8142C149.229 8.77085 146.832 8.18474 146.114 6.50508Z"
              fill="#15141E"/>
        <path d="M153.062 18.9904C150.666 14.6077 152.277 9.11256 156.66 6.71675C161.043 4.32094 166.538 5.93165 168.933 10.3144C171.329 14.6971 169.719 20.1922 165.336 22.588C160.953 24.9838 155.458 23.3731 153.062 18.9904Z"
              fill="#FFB6B6"/>
        <path d="M156.038 4.29322H166.382C167.141 4.28341 167.875 4.56068 168.437 5.06942C169 5.57817 169.349 6.28078 169.415 7.03634C169.442 7.43786 169.386 7.84059 169.251 8.21959C169.116 8.59858 168.904 8.94576 168.629 9.23962C168.354 9.53348 168.022 9.76774 167.653 9.92791C167.283 10.0881 166.885 10.1707 166.483 10.1707C165.704 10.1707 164.956 10.4804 164.405 11.0315C163.854 11.5826 163.544 12.3301 163.544 13.1095V25.1584H147.381V12.9498C147.381 11.813 147.605 10.6873 148.04 9.63708C148.475 8.58681 149.113 7.63252 149.917 6.82868C150.72 6.02484 151.675 5.3872 152.725 4.95216C153.775 4.51713 154.901 4.29322 156.038 4.29322Z"
              fill="#15141E"/>
        <path d="M54.4772 119.222C56.7457 120.005 59.1814 120.201 61.5496 119.792C63.9177 119.382 66.1385 118.381 67.998 116.885C72.7337 112.983 74.2185 106.555 75.4266 100.604C76.6177 94.7359 77.8089 88.8679 79 83L71.5188 88.0562C66.1387 91.6924 60.6374 95.445 56.9123 100.712C53.1872 105.979 51.5611 113.168 54.5542 118.867"
              fill="#DFE2E6"/>
        <path d="M55.1899 140.608C54.426 135.127 53.6406 129.576 54.1764 124.036C54.6522 119.116 56.176 114.31 59.2781 110.37C60.9247 108.283 62.9283 106.494 65.1988 105.085C65.7909 104.717 66.3358 105.641 65.7464 106.008C61.8177 108.454 58.779 112.065 57.0684 116.322C55.1791 121.056 54.8757 126.216 55.2013 131.245C55.3982 134.286 55.8155 137.307 56.236 140.324C56.2691 140.461 56.2484 140.604 56.1781 140.726C56.1078 140.848 55.9931 140.94 55.8571 140.981C55.7184 141.018 55.5706 141 55.4457 140.93C55.3208 140.86 55.2289 140.745 55.1899 140.608Z"
              fill="#E9EAEB"/>
        <path d="M62 131.3C62.9786 132.797 64.3238 134.016 65.9059 134.838C67.4881 135.66 69.2538 136.058 71.0331 135.993C75.6058 135.775 79.4181 132.562 82.8497 129.512L93 120.49L86.2822 120.166C81.4512 119.933 76.4955 119.716 71.8941 121.216C67.2927 122.716 63.0491 126.325 62.2077 131.12"
              fill="#DFE2E6"/>
        <path d="M53.0695 144.291C56.6452 137.979 60.7928 130.963 68.2038 128.721C70.2645 128.099 72.4251 127.877 74.5696 128.065C75.2454 128.123 75.0767 129.162 74.402 129.104C70.8075 128.807 67.2199 129.754 64.2433 131.786C61.3789 133.731 59.1487 136.435 57.261 139.303C56.1048 141.06 55.0691 142.891 54.0332 144.72C53.7021 145.304 52.7345 144.883 53.0695 144.291Z"
              fill="#E9EAEB"/>
        <path d="M47.4307 151.131C47.5502 149.727 48.0473 148.383 48.8679 147.245C49.6885 146.108 50.801 145.22 52.0845 144.68V141H58.169V144.795C59.3892 145.363 60.4394 146.248 61.2124 147.361C61.9854 148.474 62.4536 149.775 62.5693 151.131L64 168H46L47.4307 151.131Z"
              fill="#E9EAEB"/>
        <path d="M197.929 168H30.2939C30.2159 168 30.1412 167.969 30.0861 167.914C30.031 167.859 30 167.784 30 167.706C30 167.628 30.031 167.553 30.0861 167.498C30.1412 167.443 30.2159 167.412 30.2939 167.412H197.929C198.007 167.412 198.081 167.443 198.136 167.498C198.192 167.553 198.222 167.628 198.222 167.706C198.222 167.784 198.192 167.859 198.136 167.914C198.081 167.969 198.007 168 197.929 168Z"
              fill="#CFD4D9"/>
    </g>
    <defs>
        <clipPath id="clip0_2089_131486">
            <rect width="228.637" height="168" fill="white"/>
        </clipPath>
    </defs>
</svg>
