<svg xmlns="http://www.w3.org/2000/svg" width="196" height="169" viewBox="0 0 196 169" fill="none">
    <g clip-path="url(#clip0_544_66250)">
        <path d="M14.7016 154.671C15.8297 155.068 17.041 155.167 18.2186 154.96C19.3963 154.752 20.5007 154.245 21.4254 153.487C23.7805 151.51 24.519 148.255 25.1196 145.239L26.8966 136.32L23.1763 138.882C20.5007 140.724 17.765 142.626 15.9126 145.294C14.0602 147.962 13.252 151.605 14.7399 154.492"
              fill="#E9EAEB"/>
        <path d="M15.2757 166.091C14.8074 162.68 14.3256 159.224 14.6549 155.776C14.9467 152.714 15.881 149.723 17.783 147.27C18.7926 145.971 20.0211 144.858 21.4133 143.981C21.7763 143.752 22.1104 144.327 21.749 144.555C19.3401 146.077 17.4768 148.325 16.4279 150.975C15.2695 153.921 15.0835 157.133 15.283 160.263C15.4036 162.156 15.6599 164.036 15.9173 165.914C15.9376 165.999 15.925 166.089 15.8818 166.165C15.8387 166.24 15.7683 166.297 15.685 166.323C15.5999 166.346 15.5093 166.335 15.4327 166.291C15.3561 166.248 15.2998 166.176 15.2759 166.091L15.2757 166.091Z"
              fill="#F8F9FA"/>
        <path d="M18.6465 160.617C19.1302 161.353 19.7953 161.952 20.5775 162.355C21.3598 162.759 22.2329 162.955 23.1126 162.923C25.3741 162.816 27.2587 161.238 28.955 159.74L33.9734 155.309L30.6522 155.15C28.2637 155.036 25.8135 154.928 23.5386 155.666C21.2636 156.403 19.1655 158.175 18.7496 160.53"
              fill="#E9EAEB"/>
        <path d="M13.952 168.052C16.2063 164.063 18.821 159.63 23.4933 158.213C24.7923 157.821 26.1545 157.68 27.5063 157.799C27.9324 157.836 27.826 158.492 27.4008 158.456C25.1347 158.268 22.873 158.866 20.9964 160.15C19.1906 161.379 17.7845 163.088 16.5945 164.9C15.8655 166.01 15.2126 167.167 14.5597 168.323C14.351 168.692 13.7409 168.426 13.952 168.052Z"
              fill="#F8F9FA"/>
        <path d="M194.383 74.1146H70.1698C69.787 74.1143 69.4201 74.0195 69.1495 73.851C68.8788 73.6825 68.7266 73.454 68.7261 73.2158V1.39883C68.7266 1.16054 68.8788 0.932102 69.1495 0.763606C69.4201 0.59511 69.787 0.500312 70.1698 0.5H194.383C194.765 0.500312 195.132 0.59511 195.403 0.763606C195.673 0.932102 195.826 1.16054 195.826 1.39883V73.2156C195.826 73.4539 195.674 73.6824 195.403 73.8509C195.132 74.0194 194.765 74.1143 194.383 74.1146Z"
              fill="white"/>
        <path d="M120.027 30.1191C119.767 30.1198 119.519 30.2234 119.335 30.4072C119.152 30.5911 119.049 30.8402 119.049 31.0999C119.049 31.3596 119.152 31.6087 119.335 31.7925C119.519 31.9764 119.767 32.08 120.027 32.0806H174.92C175.18 32.08 175.429 31.9764 175.612 31.7925C175.795 31.6087 175.898 31.3596 175.898 31.0999C175.898 30.8402 175.795 30.5911 175.612 30.4072C175.429 30.2234 175.18 30.1198 174.92 30.1191H120.027Z"
              fill="#DFE2E6"/>
        <path d="M120.027 36.0039C119.767 36.0045 119.519 36.1081 119.335 36.292C119.152 36.4758 119.049 36.7249 119.049 36.9846C119.049 37.2443 119.152 37.4934 119.335 37.6773C119.519 37.8611 119.767 37.9647 120.027 37.9653H146.279C146.538 37.9647 146.787 37.8611 146.97 37.6773C147.154 37.4934 147.257 37.2443 147.257 36.9846C147.257 36.7249 147.154 36.4758 146.97 36.292C146.787 36.1081 146.538 36.0045 146.279 36.0039H120.027Z"
              fill="#DFE2E6"/>
        <path d="M120.027 41.7539C119.767 41.7545 119.519 41.8581 119.335 42.042C119.152 42.2258 119.049 42.4749 119.049 42.7346C119.049 42.9943 119.152 43.2434 119.335 43.4273C119.519 43.6111 119.767 43.7147 120.027 43.7153H158.817C159.076 43.7147 159.325 43.6111 159.509 43.4273C159.692 43.2434 159.795 42.9943 159.795 42.7346C159.795 42.4749 159.692 42.2258 159.509 42.042C159.325 41.8581 159.076 41.7545 158.817 41.7539H120.027Z"
              fill="#DFE2E6"/>
        <path d="M194.383 74.1146H70.1698C69.787 74.1143 69.4201 74.0195 69.1495 73.851C68.8788 73.6825 68.7266 73.454 68.7261 73.2158V1.39883C68.7266 1.16054 68.8788 0.932102 69.1495 0.763606C69.4201 0.59511 69.787 0.500312 70.1698 0.5H194.383C194.765 0.500312 195.132 0.59511 195.403 0.763606C195.673 0.932102 195.826 1.16054 195.826 1.39883V73.2156C195.826 73.4539 195.674 73.6824 195.403 73.8509C195.132 74.0194 194.765 74.1143 194.383 74.1146ZM70.1698 0.858825C69.9404 0.859135 69.7206 0.916005 69.5584 1.01699C69.3962 1.11797 69.3048 1.25484 69.3043 1.39765V73.2156C69.3048 73.3584 69.3962 73.4953 69.5584 73.5963C69.7206 73.6972 69.9404 73.7541 70.1698 73.7544H194.383C194.612 73.7542 194.832 73.6973 194.994 73.5963C195.156 73.4953 195.248 73.3584 195.248 73.2156V1.39883C195.248 1.25602 195.156 1.11915 194.994 1.01817C194.832 0.917185 194.612 0.860315 194.383 0.860005L70.1698 0.858825Z"
              fill="#CFD4D9"/>
        <path fill-rule="evenodd" clip-rule="evenodd"
              d="M91.0526 47.3599C93.0406 48.6882 95.3779 49.3973 97.7689 49.3974C100.974 49.3933 104.047 48.1181 106.314 45.8515C108.581 43.5849 109.856 40.5119 109.86 37.3064C109.86 34.9154 109.151 32.5781 107.822 30.5901C106.494 28.6018 104.605 27.0522 102.396 26.1371C100.187 25.222 97.7561 24.9826 95.4108 25.4491C93.0655 25.9156 90.9112 27.0671 89.2203 28.758C87.5295 30.4489 86.378 32.6032 85.9115 34.9485C85.445 37.2938 85.6845 39.7247 86.5996 41.9339C87.5147 44.1431 89.0643 46.0314 91.0526 47.3599ZM111.86 37.3071C111.86 34.5203 111.033 31.7961 109.485 29.4789C107.937 27.1618 105.736 25.3558 103.162 24.2893C100.587 23.2229 97.7538 22.9439 95.0206 23.4876C92.2873 24.0312 89.7767 25.3732 87.8061 27.3438C85.8356 29.3144 84.4936 31.825 83.9499 34.5583C83.4063 37.2916 83.6853 40.1246 84.7518 42.6993C85.8183 45.274 87.6243 47.4746 89.9414 49.0228C92.2586 50.5711 94.9828 51.3974 97.7696 51.3974C101.505 51.3931 105.087 49.9072 107.728 47.2657C110.37 44.6242 111.856 41.0427 111.86 37.3071Z"
              fill="black"/>
        <path d="M54.9516 101.782C54.9272 101.268 54.7904 100.765 54.5507 100.309C54.3111 99.8536 53.9744 99.456 53.5645 99.1445C53.1545 98.833 52.6813 98.6152 52.178 98.5064C51.6748 98.3976 51.1538 98.4004 50.6518 98.5147L45.9944 91.9512L41.3154 93.8086L48.0228 102.985C48.2707 103.816 48.8147 104.527 49.5517 104.983C50.2887 105.439 51.1675 105.61 52.0216 105.461C52.8757 105.313 53.6457 104.856 54.1857 104.178C54.7257 103.5 54.9982 102.648 54.9516 101.782Z"
              fill="#A0616A"/>
        <path d="M45.8743 101.296L31.7817 83.0138L37.0621 66.4186C37.449 62.2463 40.0599 61.0812 40.171 61.0336L40.3404 60.9609L44.9353 73.2143L41.5616 82.2109L49.8423 96.1378L45.8743 101.296Z"
              fill="#CC0000"/>
        <path d="M94.8154 44.9386C94.3046 45.0027 93.814 45.178 93.3782 45.4522C92.9424 45.7264 92.572 46.0927 92.2931 46.5256C92.0142 46.9584 91.8336 47.447 91.764 47.9572C91.6945 48.4673 91.7376 48.9866 91.8904 49.4782L85.7065 54.6292L87.9202 59.1505L96.5508 51.7537C97.3598 51.4423 98.0264 50.845 98.4244 50.0749C98.8224 49.3048 98.9241 48.4155 98.7102 47.5754C98.4963 46.7354 97.9816 46.003 97.2638 45.517C96.546 45.031 95.6748 44.8252 94.8154 44.9386Z"
              fill="#A0616A"/>
        <path d="M95.0321 54.0261L77.8942 69.4899L60.9404 65.5085C56.7506 65.4453 55.3872 62.9323 55.3312 62.8252L55.2456 62.6619L67.107 57.1334L76.3375 59.8014L89.5825 50.4688L95.0321 54.0261Z"
              fill="#CC0000"/>
        <path d="M65.3466 163.958L69.9512 163.958L72.1415 146.197L65.3457 146.198L65.3466 163.958Z" fill="#A0616A"/>
        <path d="M78.8315 168.232L64.3599 168.233L64.3597 162.642L74.7712 162.641C75.848 162.641 76.8807 163.069 77.6422 163.83C78.4036 164.592 78.8314 165.624 78.8315 166.701L78.8315 168.232Z"
              fill="#15141E"/>
        <path d="M46.943 163.958L51.5476 163.958L53.7382 146.197L46.9424 146.198L46.943 163.958Z" fill="#A0616A"/>
        <path d="M60.4282 168.232L45.9566 168.233L45.9563 162.642L56.3679 162.641C56.9011 162.641 57.4291 162.746 57.9217 162.95C58.4142 163.154 58.8618 163.453 59.2389 163.83C59.6159 164.207 59.915 164.655 60.119 165.147C60.3231 165.64 60.4281 166.168 60.4282 166.701L60.4282 168.232Z"
              fill="#15141E"/>
        <path d="M45.3052 99.1289L45.6807 125.42L46.0566 159.974L54.3192 159.223L58.4508 111.523L63.7091 159.223H72.2395L73.0987 111.148L70.094 100.631L45.3052 99.1289Z"
              fill="#15141E"/>
        <path d="M61.4778 102.659C52.4872 102.66 44.2115 98.5908 44.0998 98.5349L44.007 98.4886L43.2525 80.3821C43.0338 79.7423 38.7256 67.1169 37.996 63.1039C37.2567 59.0382 47.9709 55.47 49.272 55.0527L49.5672 51.7821L61.5738 50.4883L63.0955 54.6733L67.403 56.2884C67.8913 56.4717 68.2954 56.8277 68.5388 57.289C68.7822 57.7503 68.8479 58.2849 68.7235 58.7914L66.3294 68.527L72.1764 100.737L70.9176 100.791C67.9003 102.154 64.6438 102.659 61.4778 102.659Z"
              fill="#CC0000"/>
        <path d="M60.1871 47.3582C64.3763 45.0681 65.9159 39.8155 63.6259 35.6262C61.3358 31.437 56.0832 29.8974 51.894 32.1874C47.7047 34.4775 46.1651 39.7301 48.4551 43.9193C50.7452 48.1086 55.9978 49.6482 60.1871 47.3582Z"
              fill="#A0616A"/>
        <path d="M49.039 48.1421C50.6864 49.897 53.746 48.9549 53.9607 46.5574C53.9776 46.3713 53.9763 46.184 53.9571 45.9981C53.8462 44.9361 53.2327 43.9719 53.3797 42.8506C53.4129 42.5716 53.5169 42.3056 53.6817 42.078C54.9946 40.32 58.0763 42.8643 59.3154 41.2728C60.0751 40.2969 59.182 38.7605 59.765 37.6698C60.5345 36.2303 62.8137 36.9404 64.2429 36.1521C65.8332 35.2749 65.7381 32.8351 64.6913 31.351C63.4146 29.5411 61.1763 28.5754 58.9659 28.4362C56.7554 28.297 54.5602 28.8946 52.4966 29.6988C50.1519 30.6125 47.8268 31.8754 46.3839 33.9371C44.6291 36.4443 44.4603 39.8151 45.3378 42.7469C45.8717 44.5303 47.6936 46.709 49.039 48.1421Z"
              fill="#15141E"/>
        <path d="M109.847 168.456H0.287557C0.211292 168.456 0.138146 168.426 0.0842189 168.372C0.0302915 168.318 0 168.245 0 168.168C0 168.092 0.0302915 168.019 0.0842189 167.965C0.138146 167.911 0.211292 167.881 0.287557 167.881H109.847C109.923 167.881 109.996 167.911 110.05 167.965C110.104 168.019 110.134 168.092 110.134 168.168C110.134 168.245 110.104 168.318 110.05 168.372C109.996 168.426 109.923 168.456 109.847 168.456Z"
              fill="#CFD4D9"/>
        <path d="M90.8682 39.7063V38.3301H100.124V39.7063H90.8682ZM90.8682 36.3994V35.0232H100.124V36.3994H90.8682ZM99.6484 44.5126C98.5466 44.4989 97.5412 44.3072 96.6321 43.9375C95.7231 43.5541 94.9381 43.0338 94.277 42.3765C93.6296 41.7192 93.1269 40.9592 92.7688 40.0966C92.4245 39.2339 92.2523 38.3096 92.2523 37.3237C92.2523 36.3378 92.4245 35.4135 92.7688 34.5508C93.1269 33.6881 93.6296 32.9282 94.277 32.2709C94.9381 31.6136 95.7231 31.1001 96.6321 30.7304C97.5412 30.347 98.5466 30.1485 99.6484 30.1348H101.508V31.8806H99.7104C98.9253 31.8806 98.2023 32.0244 97.5412 32.312C96.8801 32.5858 96.3016 32.9693 95.8058 33.4622C95.3099 33.9415 94.9243 34.5097 94.6488 35.167C94.3872 35.8243 94.2563 36.5432 94.2563 37.3237C94.2563 38.0905 94.3872 38.8094 94.6488 39.4804C94.9243 40.1376 95.3099 40.7128 95.8058 41.2057C96.3016 41.685 96.8801 42.0615 97.5412 42.3354C98.2023 42.6093 98.9253 42.753 99.7104 42.7667H101.508V44.5126H99.6484Z"
              fill="black"/>
    </g>
    <defs>
        <clipPath id="clip0_544_66250">
            <rect width="195.78" height="168" fill="white" transform="translate(0 0.5)"/>
        </clipPath>
    </defs>
</svg>