<svg width="196" height="169" viewBox="0 0 196 169" fill="none" xmlns="http://www.w3.org/2000/svg">
    <g clip-path="url(#clip0_1731_75434)">
        <path d="M14.7014 154.672C15.8295 155.069 17.0407 155.168 18.2184 154.961C19.3961 154.753 20.5005 154.246 21.4252 153.488C23.7802 151.511 24.5188 148.256 25.1194 145.24L26.8964 136.321L23.1761 138.883C20.5005 140.725 17.7647 142.627 15.9123 145.295C14.0599 147.963 13.2518 151.606 14.7397 154.493" fill="#E9EAEB"/>
        <path d="M15.2758 166.091C14.8075 162.68 14.3258 159.224 14.655 155.776C14.9468 152.714 15.8811 149.723 17.7831 147.27C18.7928 145.971 20.0213 144.858 21.4135 143.981C21.7764 143.752 22.1105 144.327 21.7491 144.555C19.3402 146.077 17.477 148.325 16.428 150.975C15.2696 153.921 15.0836 157.133 15.2831 160.263C15.4037 162.156 15.66 164.036 15.9174 165.914C15.9378 165.999 15.9251 166.089 15.8819 166.165C15.8388 166.24 15.7685 166.297 15.6851 166.323C15.6001 166.346 15.5094 166.335 15.4328 166.291C15.3563 166.248 15.2999 166.176 15.276 166.091L15.2758 166.091Z" fill="#F8F9FA"/>
        <path d="M18.6463 160.617C19.13 161.353 19.7951 161.952 20.5773 162.355C21.3596 162.759 22.2326 162.955 23.1124 162.923C25.3739 162.816 27.2585 161.238 28.9548 159.74L33.9732 155.309L30.652 155.15C28.2635 155.036 25.8133 154.928 23.5383 155.666C21.2634 156.403 19.1653 158.175 18.7494 160.53" fill="#E9EAEB"/>
        <path d="M13.9522 168.052C16.2066 164.063 18.8212 159.63 23.4936 158.213C24.7926 157.821 26.1547 157.68 27.5065 157.799C27.9327 157.836 27.8262 158.492 27.401 158.456C25.1349 158.268 22.8732 158.866 20.9966 160.15C19.1908 161.379 17.7847 163.088 16.5948 164.9C15.8658 166.01 15.2129 167.167 14.5599 168.323C14.3513 168.692 13.7411 168.426 13.9522 168.052Z" fill="#F8F9FA"/>
        <path d="M194.383 74.1146H70.1698C69.7871 74.1143 69.4202 74.0195 69.1495 73.851C68.8789 73.6825 68.7266 73.454 68.7261 73.2158V1.39883C68.7266 1.16054 68.8789 0.932102 69.1495 0.763606C69.4202 0.59511 69.7871 0.500312 70.1698 0.5H194.383C194.765 0.500312 195.132 0.59511 195.403 0.763606C195.674 0.932102 195.826 1.16054 195.826 1.39883V73.2156C195.826 73.4539 195.674 73.6824 195.403 73.8509C195.132 74.0194 194.765 74.1143 194.383 74.1146Z" fill="white"/>
        <path d="M120.027 30.1182C119.767 30.1188 119.518 30.2224 119.335 30.4062C119.152 30.5901 119.049 30.8392 119.049 31.0989C119.049 31.3586 119.152 31.6077 119.335 31.7915C119.518 31.9754 119.767 32.079 120.027 32.0796H174.92C175.179 32.079 175.428 31.9754 175.612 31.7915C175.795 31.6077 175.898 31.3586 175.898 31.0989C175.898 30.8392 175.795 30.5901 175.612 30.4062C175.428 30.2224 175.179 30.1188 174.92 30.1182H120.027Z" fill="#DFE2E6"/>
        <path d="M120.027 36.0029C119.767 36.0036 119.518 36.1072 119.335 36.291C119.152 36.4749 119.049 36.724 119.049 36.9836C119.049 37.2433 119.152 37.4924 119.335 37.6763C119.518 37.8601 119.767 37.9637 120.027 37.9644H146.278C146.538 37.9637 146.787 37.8601 146.97 37.6763C147.154 37.4924 147.257 37.2433 147.257 36.9836C147.257 36.724 147.154 36.4749 146.97 36.291C146.787 36.1072 146.538 36.0036 146.278 36.0029H120.027Z" fill="#DFE2E6"/>
        <path d="M120.027 41.7549C119.767 41.7555 119.518 41.8591 119.335 42.043C119.152 42.2268 119.049 42.4759 119.049 42.7356C119.049 42.9953 119.152 43.2444 119.335 43.4282C119.518 43.6121 119.767 43.7157 120.027 43.7163H158.817C159.076 43.7157 159.325 43.6121 159.508 43.4282C159.692 43.2444 159.795 42.9953 159.795 42.7356C159.795 42.4759 159.692 42.2268 159.508 42.043C159.325 41.8591 159.076 41.7555 158.817 41.7549H120.027Z" fill="#DFE2E6"/>
        <path d="M194.383 74.1146H70.1698C69.7871 74.1143 69.4202 74.0195 69.1495 73.851C68.8789 73.6825 68.7266 73.454 68.7261 73.2158V1.39883C68.7266 1.16054 68.8789 0.932102 69.1495 0.763606C69.4202 0.59511 69.7871 0.500312 70.1698 0.5H194.383C194.765 0.500312 195.132 0.59511 195.403 0.763606C195.674 0.932102 195.826 1.16054 195.826 1.39883V73.2156C195.826 73.4539 195.674 73.6824 195.403 73.8509C195.132 74.0194 194.765 74.1143 194.383 74.1146ZM70.1698 0.858825C69.9405 0.859135 69.7206 0.916005 69.5584 1.01699C69.3962 1.11797 69.3049 1.25484 69.3044 1.39765V73.2156C69.3049 73.3584 69.3962 73.4953 69.5584 73.5963C69.7206 73.6972 69.9405 73.7541 70.1698 73.7544H194.383C194.612 73.7542 194.832 73.6973 194.994 73.5963C195.156 73.4953 195.248 73.3584 195.248 73.2156V1.39883C195.248 1.25602 195.156 1.11915 194.994 1.01817C194.832 0.917185 194.612 0.860315 194.383 0.860005L70.1698 0.858825Z" fill="#CFD4D9"/>
        <path fill-rule="evenodd" clip-rule="evenodd" d="M91.0525 47.3599C93.0405 48.6882 95.3778 49.3973 97.7688 49.3974C100.974 49.3933 104.047 48.1181 106.314 45.8515C108.58 43.5849 109.856 40.5119 109.86 37.3064C109.86 34.9154 109.15 32.5781 107.822 30.5901C106.494 28.6018 104.605 27.0522 102.396 26.1371C100.187 25.222 97.7559 24.9826 95.4106 25.4491C93.0653 25.9156 90.9111 27.0671 89.2202 28.758C87.5294 30.4489 86.3779 32.6032 85.9114 34.9485C85.4449 37.2938 85.6843 39.7247 86.5994 41.9339C87.5145 44.1431 89.0642 46.0314 91.0525 47.3599ZM111.86 37.3071C111.86 34.5203 111.033 31.7961 109.485 29.4789C107.937 27.1618 105.736 25.3558 103.161 24.2893C100.587 23.2229 97.7537 22.9439 95.0205 23.4876C92.2872 24.0312 89.7765 25.3732 87.806 27.3438C85.8354 29.3144 84.4935 31.825 83.9498 34.5583C83.4061 37.2916 83.6852 40.1246 84.7517 42.6993C85.8182 45.274 87.6242 47.4746 89.9413 49.0228C92.2585 50.5711 94.9827 51.3974 97.7695 51.3974C101.505 51.3931 105.087 49.9072 107.728 47.2657C110.37 44.6242 111.855 41.0427 111.86 37.3071Z" fill="#071034"/>
        <path d="M54.9515 101.782C54.9271 101.268 54.7903 100.765 54.5506 100.309C54.3109 99.8536 53.9743 99.456 53.5643 99.1445C53.1544 98.833 52.6811 98.6152 52.1779 98.5064C51.6746 98.3976 51.1536 98.4004 50.6516 98.5147L45.9942 91.9512L41.3153 93.8086L48.0226 102.985C48.2705 103.816 48.8146 104.527 49.5516 104.983C50.2886 105.439 51.1674 105.61 52.0215 105.461C52.8755 105.313 53.6455 104.856 54.1855 104.178C54.7256 103.5 54.9981 102.648 54.9515 101.782Z" fill="#A0616A"/>
        <path d="M45.8744 101.296L31.7819 83.0138L37.0622 66.4186C37.4491 62.2463 40.06 61.0812 40.1711 61.0336L40.3405 60.9609L44.9354 73.2143L41.5617 82.2109L49.8424 96.1378L45.8744 101.296Z" fill="#2575FC"/>
        <path d="M94.8154 44.9377C94.3045 45.0017 93.8139 45.177 93.3781 45.4512C92.9423 45.7254 92.5719 46.0918 92.293 46.5246C92.0142 46.9574 91.8336 47.4461 91.764 47.9562C91.6944 48.4664 91.7375 48.9856 91.8903 49.4773L85.7065 54.6282L87.9201 59.1495L96.5507 51.7528C97.3597 51.4413 98.0263 50.844 98.4243 50.0739C98.8223 49.3038 98.924 48.4145 98.7101 47.5744C98.4962 46.7344 97.9816 46.002 97.2637 45.516C96.5459 45.03 95.6748 44.8243 94.8154 44.9377Z" fill="#A0616A"/>
        <path d="M95.0322 54.0251L77.8943 69.489L60.9405 65.5075C56.7508 65.4443 55.3874 62.9314 55.3313 62.8243L55.2457 62.6609L67.1071 57.1324L76.3376 59.8005L89.5826 50.4678L95.0322 54.0251Z" fill="#2575FC"/>
        <path d="M65.3468 163.958L69.9514 163.958L72.1417 146.197L65.3459 146.198L65.3468 163.958Z" fill="#A0616A"/>
        <path d="M78.8318 168.233L64.3602 168.234L64.3599 162.643L74.7715 162.642C75.8483 162.642 76.881 163.07 77.6424 163.831C78.4039 164.593 78.8317 165.625 78.8317 166.702L78.8318 168.233Z" fill="#15141E"/>
        <path d="M46.9428 163.958L51.5475 163.958L53.7381 146.197L46.9422 146.198L46.9428 163.958Z" fill="#A0616A"/>
        <path d="M60.428 168.233L45.9564 168.234L45.9561 162.643L56.3677 162.642C56.9009 162.642 57.4288 162.747 57.9214 162.951C58.414 163.155 58.8616 163.454 59.2387 163.831C59.6157 164.208 59.9148 164.656 60.1188 165.148C60.3229 165.641 60.4279 166.169 60.4279 166.702L60.428 168.233Z" fill="#15141E"/>
        <path d="M45.3052 99.1299L45.6807 125.421L46.0566 159.975L54.3192 159.224L58.4508 111.524L63.7091 159.224H72.2395L73.0987 111.149L70.094 100.632L45.3052 99.1299Z" fill="#15141E"/>
        <path d="M61.4778 102.66C52.4872 102.661 44.2115 98.5918 44.0998 98.5359L44.007 98.4895L43.2525 80.3831C43.0338 79.7433 38.7256 67.1178 37.996 63.1049C37.2567 59.0392 47.9709 55.471 49.272 55.0537L49.5672 51.783L61.5738 50.4893L63.0955 54.6742L67.403 56.2894C67.8913 56.4727 68.2954 56.8287 68.5388 57.29C68.7822 57.7513 68.8479 58.2859 68.7235 58.7924L66.3294 68.528L72.1764 100.738L70.9176 100.792C67.9003 102.155 64.6438 102.66 61.4778 102.66Z" fill="#2575FC"/>
        <path d="M60.187 47.3582C64.3763 45.0681 65.9159 39.8155 63.6258 35.6262C61.3357 31.437 56.0832 29.8974 51.8939 32.1874C47.7046 34.4775 46.165 39.7301 48.4551 43.9193C50.7452 48.1086 55.9977 49.6482 60.187 47.3582Z" fill="#A0616A"/>
        <path d="M49.0388 48.1421C50.6863 49.897 53.7459 48.9549 53.9606 46.5574C53.9774 46.3713 53.9762 46.184 53.9569 45.9981C53.8461 44.9361 53.2326 43.9719 53.3795 42.8506C53.4128 42.5716 53.5167 42.3056 53.6816 42.078C54.9944 40.32 58.0762 42.8643 59.3152 41.2728C60.0749 40.2969 59.1819 38.7605 59.7649 37.6698C60.5344 36.2303 62.8135 36.9404 64.2428 36.1521C65.833 35.2749 65.7379 32.8351 64.6911 31.351C63.4145 29.5411 61.1762 28.5754 58.9657 28.4362C56.7553 28.297 54.5601 28.8946 52.4964 29.6988C50.1517 30.6125 47.8266 31.8754 46.3837 33.9371C44.629 36.4443 44.4601 39.8151 45.3377 42.7469C45.8715 44.5303 47.6934 46.709 49.0388 48.1421Z" fill="#15141E"/>
        <path d="M109.847 168.456H0.287557C0.211292 168.456 0.138146 168.426 0.0842189 168.372C0.0302915 168.318 0 168.245 0 168.168C0 168.092 0.0302915 168.019 0.0842189 167.965C0.138146 167.911 0.211292 167.881 0.287557 167.881H109.847C109.923 167.881 109.996 167.911 110.05 167.965C110.104 168.019 110.134 168.092 110.134 168.168C110.134 168.245 110.104 168.318 110.05 168.372C109.996 168.426 109.923 168.456 109.847 168.456Z" fill="#CFD4D9"/>
        <path d="M90.868 39.7063V38.3301H100.123V39.7063H90.868ZM90.868 36.3994V35.0232H100.123V36.3994H90.868ZM99.6483 44.5126C98.5464 44.4989 97.541 44.3072 96.632 43.9375C95.723 43.5541 94.9379 43.0338 94.2768 42.3765C93.6295 41.7192 93.1268 40.9592 92.7687 40.0966C92.4244 39.2339 92.2522 38.3096 92.2522 37.3237C92.2522 36.3378 92.4244 35.4135 92.7687 34.5508C93.1268 33.6881 93.6295 32.9282 94.2768 32.2709C94.9379 31.6136 95.723 31.1001 96.632 30.7304C97.541 30.347 98.5464 30.1485 99.6483 30.1348H101.508V31.8806H99.7102C98.9252 31.8806 98.2021 32.0244 97.541 32.312C96.8799 32.5858 96.3014 32.9693 95.8056 33.4622C95.3098 33.9415 94.9241 34.5097 94.6487 35.167C94.387 35.8243 94.2562 36.5432 94.2562 37.3237C94.2562 38.0905 94.387 38.8094 94.6487 39.4804C94.9241 40.1376 95.3098 40.7128 95.8056 41.2057C96.3014 41.685 96.8799 42.0615 97.541 42.3354C98.2021 42.6093 98.9252 42.753 99.7102 42.7667H101.508V44.5126H99.6483Z" fill="#071034"/>
    </g>
    <defs>
        <clipPath id="clip0_1731_75434">
            <rect width="195.78" height="168" fill="white" transform="translate(0 0.5)"/>
        </clipPath>
    </defs>
</svg>
