<svg width="211" height="210" viewBox="0 0 211 210" fill="none" xmlns="http://www.w3.org/2000/svg">
  <g clip-path="url(#clip0_4876_76195)">
    <path fill-rule="evenodd" clip-rule="evenodd"
      d="M113.358 196.845L114.13 195.637L114.681 195.527L115.397 194.593L115.948 192.834L115.783 192.505L116.278 191.241L116.058 190.692L116.774 189.208L116.94 188.219H116.334L116.389 187.725H115.838L114.46 189.867L113.964 189.428L113.579 189.593L113.523 190.142L113.138 192.889L112.477 196.845H113.358Z"
      fill="#E9EAEB" stroke="white" stroke-linejoin="round" />
    <path fill-rule="evenodd" clip-rule="evenodd"
      d="M210.608 90.0331L210.222 88.3847L208.844 89.4287L209.12 90.5825L212.205 92.0111L213.252 91.7913L215.071 90.4177L212.481 90.4726L210.608 90.0331ZM218.542 81.2968L218.652 80.6924L216.393 79.2639L213.142 78.3847L212.095 78.7144L214.024 80.3078L217.164 81.3518L218.542 81.2968ZM50.3217 83.3298L50.4318 81.4617L48.6687 80.0331L48.4483 78.4397L48.3932 77.2858L46.1341 76.9012L44.8117 76.4067L42.5526 75.6375L41.7812 76.4617L41.4506 78.2748L43.8198 78.8792L43.5994 79.8683L45.1973 81.077V82.2858L48.6687 83.8243L50.3217 83.3298ZM235.513 75.9122L237.662 73.8243L238.433 72.8902L237.276 72.7254L234.576 73.9342L232.262 75.8573L227.799 81.2419L224.878 83.2748L225.76 84.2089L223.666 85.4177L223.776 86.4617L229.066 86.5166L232.041 86.3518L234.466 87.1759L232.041 88.7693L233.639 88.8792L237.662 85.9122L238.323 86.3518L236.945 89.154L238.598 89.8133L239.866 89.7034L241.794 86.6814L241.519 84.5386L241.684 82.7254L239.645 83.3298L241.188 80.8023L238.819 79.7584L237.331 80.5825L235.182 79.6485L236.505 78.4946L234.907 77.7803L232.813 78.8792L235.513 75.9122ZM38.9159 64.2639L37.8691 65.3628L37.0977 66.7913L37.5936 67.8353L37.2629 69.3737L37.6487 70.9122H38.6956L38.5853 68.2199L42.4974 64.4287L39.7976 64.7034L38.9159 64.2639ZM193.692 38.4397L193.471 37.7803L192.535 37.7254L190.992 38.6595L190.772 38.8792L190.827 39.8133L191.763 40.088L193.692 38.4397ZM188.402 36.6814L188.843 36.077L185.537 36.0221L182.837 37.5056V38.3298L184.49 38.4397L188.402 36.6814ZM186.694 27.5606L185.206 27.2858L182.451 30.143L180.468 32.5606L177.327 34.099L180.798 33.7694L180.358 35.6375L184.876 33.9891L188.292 32.3408L188.733 33.7694L191.984 34.4836L194.684 33.4946L193.637 32.5056L191.763 32.7254L192.48 31.2419L190.441 30.3078L188.568 29.2639L187.741 28.4397L186.198 28.9342L186.694 27.5606ZM211.269 23.0551L213.307 22.121L213.858 21.7364L214.63 20.4727L213.363 19.6485L211.048 20.0331L208.955 21.7364L208.569 23.165L211.269 23.0551ZM170.605 17.176L170.164 16.0771L169.999 15.5276L169.117 14.9781L167.464 14.154L164.764 15.4177L162.009 16.3518L163.938 17.6705L166.032 17.3408L168.291 18.2199L170.605 17.176ZM182.947 16.0221L179.311 15.4727L182.451 14.0441L182.231 10.7474L181.184 9.48364L178.705 9.04408L174.242 11.132L171.211 14.3188L172.809 15.4727L173.691 17.2858L170.219 20.3078L168.456 20.1979L165.04 22.6155L167.354 19.7584L164.709 18.7694L162.23 19.2639L160.907 21.132L157.656 21.077L153.689 21.5166L150.879 20.1979L148.124 20.4177L147.298 18.8243L146.141 18.11L144.047 18.3847L141.182 18.5496L138.757 19.5386L139.859 20.8023L136.002 22.3408L135.231 20.5276L132.806 21.077L126.305 21.4067L122.778 20.7474L127.462 19.3188L125.919 17.7803L123.494 18.0001L120.905 17.4507L116.772 16.4067L114.678 15.143L112.199 14.9781L110.381 15.8573L107.13 16.3518L109.279 14.099L104.099 16.0771L103.328 13.4946L102.171 13.165L100.077 14.5386L97.5975 15.1979L97.4873 13.9891L92.9691 14.7584L88.1203 16.0221L85.2551 15.6924L81.3981 16.5716L77.9818 17.8353L75.9432 17.5606L74.1248 16.132L70.874 15.4177L57.4847 26.5166L37.9793 44.3188L40.2934 44.3738L41.7812 45.2529L42.1118 46.6814L42.2219 48.8243L46.4096 47.0111L49.9359 45.9672L49.6604 47.6155L50.0462 48.9342L50.9828 50.4177L50.3768 52.7254L49.5503 56.4617L52.0848 58.5496L50.3768 60.5825L47.5667 62.1759L46.1892 63.8792L47.3463 66.2968L45.6382 68.9891L47.8973 70.4177L45.9137 72.4507L45.1973 75.4726L48.9993 76.8463L49.8808 78.3298L52.8563 81.6814H53.2419H60.9008H68.9454H71.5903H79.8553H87.8448H95.9445H104.099H113.301H122.558H128.123L128.839 80.3628H129.721L129.28 82.2309L129.831 82.7803L131.594 83.0001L134.129 83.5496L136.223 84.5935L138.647 84.154L141.567 85.0331L143.33 83.7144L145.094 83.165L146.085 82.3408L146.912 81.9012L149.116 82.5606L150.934 82.6704L151.375 83.11L151.43 85.0331L154.295 85.5825L153.359 86.5166L154.02 87.5606L152.973 88.8243L153.965 89.2638L152.918 90.4177L153.579 90.5276L154.295 90.0331L154.571 90.8023L156.444 91.1869L158.538 91.2419L160.632 91.5715L162.836 92.2309L163.277 93.3298L164.048 95.9122L162.726 97.0111L160.632 96.5715L160.081 94.4836L159.585 96.6265L157.491 98.4946L157.05 100.088L156.444 101.022L154.185 102.121L152.146 103.989L151.044 105.198L152.532 105.418L155.012 104.319L156.61 103.385L157.491 103.22L158.924 103.55L159.86 103.055L161.403 102.616L163.993 102.176L164.158 101.187L163.993 101.242L163.056 101.407L162.064 101.077L163.332 99.9232L164.379 99.5386L166.528 99.0441L169.062 98.5496L170.054 99.2089L171.101 98.4397L172.148 98.0001L172.644 98.2199L172.699 98.2748L176.39 95.9672L177.878 95.3078H182.121H187.245L187.796 94.4287L188.733 94.2639L190.11 93.7693L191.598 92.2309L193.361 89.5386L196.392 86.9562L196.998 87.8902L199.037 87.2858L199.863 88.2748L198.32 92.9452L199.477 94.8683L202.728 94.4287L207.191 94.3188L201.461 97.121L200.634 99.9781L202.673 100.253L206.585 97.7803L209.781 96.4617L216.503 94.4287L220.636 92.1759L219.203 90.9671L219.754 88.4946L215.842 92.3408L211.103 92.7803L208.073 91.077L208.018 88.5496L208.348 84.8133L211.71 82.5606L209.891 80.8573L205.704 81.1869L199.037 84.0441L193.031 88.5496L190.496 89.099L194.794 85.9671L200.359 81.4067L204.326 79.9232L207.467 77.5056L210.332 77.2309L214.354 77.2858L219.864 78.0001L224.603 77.4507L228.901 74.6485L233.694 73.4397L236.009 72.2858L238.323 71.0221L239.425 67.2858L238.819 66.0221L236.945 65.5825V62.7803L235.678 61.7364L231.876 60.8573L230.333 58.9891L227.689 57.121L229.562 55.088L228.46 51.1869L227.027 47.0661L226.476 44.2089L224.107 45.6924L220.03 49.2639L215.567 51.0221L214.685 49.154L212.646 48.6045L213.858 44.5935L215.291 41.9012L211.048 41.6265L210.993 40.4177L209.01 38.6045L207.357 37.5056L204.877 38.3298L202.563 38.0551L198.926 37.1759L196.777 37.8902L194.684 42.8353L194.133 45.7474L189.284 49.099L190.992 51.5715L191.267 54.3188L190.331 56.5166L187.741 58.7694L183.609 61.077L178.65 62.6155L179.586 64.3737L178.374 69.6485L175.288 73.11L172.754 74.154L170.329 70.9672L170.274 67.2309L171.211 63.9342L173.195 61.077L170.55 60.7474L166.417 60.5276L164.434 59.154L161.789 58.2748L160.852 56.6814L159.034 55.4726L155.177 54.0441L151.265 54.7034L151.651 52.2309L152.477 49.2089L149.171 48.6595L151.871 44.9232L154.571 42.3957L159.75 38.8243L164.489 36.2968L167.574 35.9122L169.172 33.8792L171.982 32.5606L175.509 32.3408L179.752 30.2529L181.349 28.9342L185.427 26.3518L187.19 24.8133L188.953 25.7474L192.535 25.2529L198.486 23.165L199.753 21.6814L199.312 20.088L202.067 18.4946L203.004 17.0111L201.075 15.5825L198.1 15.143L195.069 14.9232L192.535 18.165L188.953 20.6924L184.986 22.8902L184.27 20.8573L186.584 18.6595L185.372 16.7364L180.578 19.0441L182.947 16.0221ZM141.347 5.63749L139.804 5.08804L132.035 6.84628L129.225 7.94518L124.927 10.088L127.902 10.8573L131.319 10.8023L124.982 11.9562V13.0001L128.068 13.0551L133.027 12.8353L136.608 13.4946L133.192 14.0441L130.162 13.8792L126.249 14.3738L124.431 14.7034L124.762 17.0111L127.076 16.6814L129.335 17.5056L129.17 18.8792L133.468 18.6045L139.639 18.165L144.818 17.176L147.573 16.9562L150.714 17.7803L154.406 18.2199L156.114 17.176L155.728 16.0221L159.585 15.8023L161.018 14.4836L158.263 13.11L155.948 11.6814L157.271 9.70342L158.758 6.90123L157.546 5.80232L155.893 5.30782L153.579 5.74738L152.036 8.65947L149.667 9.81331L150.879 7.01111L149.942 6.07705L145.92 7.56056L144.488 6.13199L138.757 6.95617L141.347 5.63749ZM162.891 4.81331L161.954 4.20892L158.979 4.31881L157.822 4.70342L159.034 6.68144L162.891 4.81331ZM222.234 5.69243L219.809 4.15397L215.181 3.87925L214.024 4.04408L213.087 5.03309L214.189 6.57156L214.685 6.73639L217.33 6.35177L219.589 6.40672L221.848 6.46166L222.234 5.69243ZM200.524 5.5276L203.665 3.76935L197.494 4.48364L194.298 5.63749L190.386 8.16496L188.568 11.0221L191.653 11.077L188.292 12.3408L189.284 13.3847L192.535 13.8243L196.557 14.6485L204.161 15.3078L208.514 14.9781L210.277 14.099L211.379 15.088L213.197 15.2529L214.299 17.0661L212.371 17.8353L216.283 18.8243L218.817 20.2529L219.093 21.2968L218.873 22.6155L214.134 25.5825L212.371 27.0661L212.481 28.165L207.412 28.5496L203.004 28.6045L200.028 30.9122L201.351 31.9562L208.514 31.4617L209.01 30.5825L211.599 32.0661L214.189 33.6595L212.867 34.5386L214.96 36.077L219.148 37.8902L225.044 39.154L225.209 38.0551L223.666 36.132L221.738 33.4397L226.421 35.9672L229.011 36.7913L230.995 34.5386V31.4617L230.444 30.6375L228.019 29.2639L226.531 27.4507L227.799 25.6924L230.995 25.3078L233.088 28.2749L235.292 29.5935L241.188 26.0221L243.006 23.8792L239.48 23.7144L237.717 20.9122L234.466 20.2529L230.223 18.3298L235.182 16.9562L234.741 14.2089L233.529 13.0551L228.956 11.9012L227.909 10.088L223.391 10.7474L223.997 9.48364L222.013 8.11001L218.266 6.68144L215.401 7.83529L210.442 8.65947L212.261 6.79133L210.993 3.87925L204.602 5.03309L200.69 7.28584L200.524 5.5276ZM172.974 3.65947L169.062 4.97815L169.558 6.84628L165.481 6.46166L164.544 7.39573L167.74 9.53859L168.236 10.6375L170.109 10.9122L174.737 9.81331L177.548 7.23089L175.454 6.02211L178.76 4.70342L179.035 3.87925L174.903 4.20892L172.974 3.65947ZM185.262 6.6265L188.347 6.07705L193.857 3.60452L190.496 2.94518L186.198 2.83529L183.333 3.60452L181.019 4.75837L179.641 6.18694L178.65 8.65947L181.019 8.76936L185.262 6.6265ZM122.062 10.5825L123.494 9.31881L128.509 7.34078L136.112 5.36276L139.639 4.64848L138.757 3.49463L137.71 2.67045L132.531 2.56057L130.272 1.95617L122.558 2.39573L122.392 4.09903L118.205 5.91221L114.127 8.00013L111.758 9.20892L115.009 10.6924L114.678 11.9562L122.062 10.5825ZM190.441 0.527599L190.606 -0.351524L189.835 -1.28559L186.033 -0.571301L183.609 0.637489L185.372 1.35178L188.182 1.57155L190.441 0.527599ZM185.647 -4.19768L185.041 -3.81306L182.396 -3.9779L178.209 -3.09878L176.115 -3.15372L173.746 -1.06581L177.382 -1.28559L175.509 0.307819L177.272 0.747377L181.019 0.472652L184.215 -1.56031L185.757 -2.93394L185.647 -4.19768ZM164.103 -2.82405L165.095 -4.08778L163.387 -4.36251L160.246 -3.42845L159.86 -0.846025L156.499 -1.06581L154.957 -2.65921L150.438 -3.53833L147.463 -2.7691L141.071 -0.131742L143.33 0.307819L153.138 0.0330944L147.298 1.24188L146.471 2.121L149.722 2.06606L156.444 0.857269L164.048 0.417707L166.858 -0.846025L168.125 -2.16471L166.087 -2.2746L163.717 -1.83504L164.103 -2.82405ZM194.518 -5.18669L190.606 -5.35152L188.512 -4.25262L189.945 -3.42845L193.802 -3.09878L194.573 -1.94493L193.361 -0.626249L192.535 0.912214L197.218 1.79133L200.249 2.121L204.657 2.06606L211.048 1.6265L213.418 1.95617L217.109 1.40672L219.038 0.637489L219.589 -0.461412L218.322 -1.50537L215.126 -1.6702L210.718 -1.45042L206.861 -0.846025L204.051 -1.06581L201.406 -1.23064L200.745 -1.83504L199.037 -2.43943L200.579 -3.48339L199.808 -4.36251L195.786 -4.30757L194.518 -5.18669ZM153.193 -6.61526L149.887 -6.23064L146.857 -6.28559L140.19 -4.58229L133.798 -2.54933L135.782 -1.99988L139.639 -2.38449L145.039 -3.53833L147.132 -3.70317L149.998 -4.58229L153.193 -6.61526ZM197.549 -6.28559L198.1 -6.56031L197.273 -7.05482L193.306 -7.10976L192.976 -6.39548L196.502 -6.23064L197.549 -6.28559ZM165.37 -6.72515L167.134 -7.49438L164.875 -7.93394L161.624 -7.65921L158.814 -6.83504L160.632 -6.01086L165.37 -6.72515ZM169.668 -9.03284L167.85 -9.52735L166.968 -9.63723L163.828 -8.92295L163.277 -8.53833H166.583L169.668 -9.03284ZM195.235 -7.65921L196.888 -8.59328L195.62 -9.4724L194.684 -9.63723L192.259 -9.69218L191.102 -8.70317L190.716 -7.71416L191.598 -7.10976L195.235 -7.65921ZM187.686 -8.31856L187.741 -9.52735L183.664 -10.4614L180.303 -10.7911L179.145 -9.85702L180.688 -9.25262L177.768 -8.48339L182.011 -8.3735L184.215 -7.54932L187.08 -7.2746L187.686 -8.31856ZM217.275 -11.6702L217.605 -13.2087L215.016 -13.6482L212.426 -14.1427L211.544 -15.3515L207.026 -15.2416L207.191 -14.7471L205.042 -14.5823L202.783 -13.868L200.083 -12.824L199.918 -11.7801L201.02 -10.9559H204.602L202.232 -10.2966L201.075 -9.41746L201.957 -8.3735L205.649 -8.04383L209.395 -8.26361L215.181 -10.1317L218.707 -10.846L217.275 -11.6702ZM260.528 -19.2526L256.671 -19.3625L252.869 -19.5273L247.249 -19.1977L246.478 -19.4175L240.802 -19.3076L237.276 -19.0878L234.466 -18.7581L231.711 -17.6592L230.444 -18.2087L228.295 -18.3186L224.603 -17.5493L220.526 -17.2197L218.266 -17.1647L214.96 -16.7251L214.354 -16.0109L215.732 -15.3515L216.173 -14.4724L218.597 -13.6482L225.429 -13.8131L229.397 -13.5383L225.429 -12.7142L224.217 -12.9339L219.093 -13.0438L218.487 -11.835L220.14 -10.901L218.597 -10.0219L214.465 -9.41746L211.765 -8.48339L214.409 -7.98888L215.346 -6.34053L211.214 -7.43943L209.836 -7.2746L208.734 -5.40647L204.326 -4.80207L203.224 -3.53833L206.916 -3.3735L209.616 -3.04383L216.062 -3.48339L220.691 -2.71416L227.633 -4.36251L228.184 -4.9669L224.658 -4.85702L224.934 -5.46141L228.515 -6.23064L230.499 -7.2746L234.245 -7.98888L237 -8.86801L236.56 -10.0768L238.378 -10.5164L236.009 -10.846L242.125 -11.0658L243.888 -11.5603L248.241 -11.9999L253.365 -13.923L257.112 -14.5273L262.787 -15.901H258.71L260.859 -16.3955L265.818 -16.835L271.162 -17.7142L271.769 -18.3186L268.903 -18.868L265.212 -19.0878L260.528 -19.2526Z"
      fill="#E9EAEB" stroke="white" stroke-linejoin="round" />
    <path fill-rule="evenodd" clip-rule="evenodd"
      d="M166.145 211.187L166.806 210.033L166.09 209.099L164.988 208.879L163.39 210.582L162.122 211.351L159.588 213.11L157.219 212.835L156.943 213.549L154.959 213.604L153.141 215.253L152.37 218.22L152.315 219.373L150.992 219.758L148.568 222.176L146.97 222.066L146.584 222.56L147.19 224.648L146.584 225.692L145.592 225.417L145.097 227.121L146.309 228.989L146.639 231.956L145.978 232.835L146.584 236.077L145.923 238.11L147.025 238.934L145.813 240.747L144.435 242.945L142.893 243.165L142.121 244.428L142.231 246.187L141.074 246.461L141.515 247.56L144.601 249.538L145.152 249.483L145.923 250.967L148.513 251.461L149.394 250.912L150.937 252.066L152.26 252.89L153.086 252.56L155.125 254.209L156.117 255.857L157.604 256.791L159.478 260.472L161.792 260.912L163.445 259.978L164.602 260.582L166.42 260.253L168.845 261.901L166.916 265.472L167.853 265.527L169.451 267.395L170.663 257.835L170.718 256.296L170.222 254.318L168.845 253V250.472L170.608 249.923L171.214 250.253L171.324 248.934L169.506 248.549V246.406L175.512 246.461L176.559 245.253L177.44 246.351L177.991 248.439L178.597 248L177.661 244.483L176.889 243.274L175.787 242.505L177.385 240.802L177.275 239.978L176.448 238.934L175.897 236.626L176.173 234.099L176.889 232.945L177.55 231.077L176.448 230.472L174.685 230.857L172.481 230.692L171.214 231.077L169.12 228.055L167.357 227.615L163.39 227.945L162.673 226.736L161.957 226.406L161.847 225.692L162.288 224.373L162.067 223L161.461 222.231L161.131 220.637L159.533 220.362L160.525 218.329L161.02 215.857L162.012 214.538L163.224 213.549L164.106 211.791L166.145 211.187Z"
      fill="#E9EAEB" stroke="white" stroke-linejoin="round" />
    <path fill-rule="evenodd" clip-rule="evenodd"
      d="M144.49 172.78L141.79 171.627L139.421 171.572L136.831 171.297L136.06 171.681L133.746 172.011L132.093 172.725L130.605 173.495L129.778 174.758L128.07 175.857L129.283 176.187L130.88 175.802L131.376 174.923L132.644 174.868L135.068 173.055L138.043 173.22L136.776 174.099L137.768 174.813L141.625 175.363L142.451 176.077L145.151 177.011L146.915 176.901L147.355 178.879L148.292 179.868L150.221 180.088L151.378 181.022L149.119 182.945L153.471 182.616L155.565 182.89L157.604 182.725L159.698 182.286L160.139 181.462L157.99 180.033L155.786 179.868L156.116 178.934L154.408 178.22H153.361L151.708 176.681L149.394 174.484L148.402 173.66L145.537 174.099L144.49 172.78Z"
      fill="#E9EAEB" stroke="white" stroke-linejoin="round" />
    <path fill-rule="evenodd" clip-rule="evenodd"
      d="M166.86 189.319V190.308L167.631 190.858L169.064 188.44L170.166 187.946L170.496 188.825L171.708 188.605L172.315 187.946L173.306 188.111L174.739 188.001L176.116 188.715L177.384 187.286L176.006 186.023L174.684 185.913L174.849 184.869L173.196 184.924L172.755 183.715L171.984 183.77L170.276 182.891L167.851 182.836L167.411 183.44L167.521 185.363L167.135 186.682L166.309 187.286L166.97 188.33L166.86 189.319Z"
      fill="#E9EAEB" stroke="white" stroke-linejoin="round" />
    <path fill-rule="evenodd" clip-rule="evenodd"
      d="M113.522 190.143L110.712 190.088H107.847L107.627 192.066H106.194L107.186 193.22L108.233 194.044L108.508 194.813L108.949 195.033L108.729 196.187H104.816L102.998 199.044L103.384 199.703L102.943 200.527L102.723 201.571L104.21 203L105.588 203.714L107.461 203.769L109.004 204.374L109.114 203.824L110.271 202.945L110.877 202.56L110.767 202.176L111.539 201.956L112.255 201.077L112.09 200.363L112.365 199.703L113.908 198.714L115.451 197.396L114.624 196.956L114.294 197.451L113.357 196.846H112.475L113.137 192.89L113.522 190.143Z"
      fill="#E9EAEB" stroke="white" stroke-linejoin="round" />
    <path fill-rule="evenodd" clip-rule="evenodd"
      d="M130.769 199.978L130.053 198.989L129.006 198.439L128.179 197.67L127.298 197.011L126.857 196.956L125.479 196.461L124.873 196.736L124.047 196.846L123.33 196.626L122.394 196.406L121.953 196.791L120.961 197.175L119.529 197.285L118.151 196.956L117.655 197.175L117.38 196.846L116.498 196.901L115.782 197.505L115.451 197.395L113.908 198.714L112.366 199.703L112.09 200.362L112.255 201.077L111.539 201.956L112.366 202.23L112.972 202.945L113.853 203.494L113.908 203.989L115.286 203.549L115.892 203.824L116.278 204.208L115.947 205.582L116.884 205.912L117.269 207.011L118.261 206.846L118.702 206.022H119.143L119.253 204.318L119.969 204.208H120.631L121.402 203.274L122.228 203.989L122.559 203.549L123.165 203.165L124.322 202.175L124.488 201.461L124.763 201.516L125.204 200.692L125.534 200.582L126.03 201.077L126.636 201.241L127.353 200.802H128.124L129.226 200.362L129.722 199.868L130.769 199.978Z"
      fill="#E9EAEB" stroke="white" stroke-linejoin="round" />
    <path fill-rule="evenodd" clip-rule="evenodd"
      d="M167.41 183.439L164.876 182.889L163.002 182.779L162.231 183.713L164.104 184.263L163.939 185.581L165.151 187.12L163.994 187.889L161.68 187.614L158.925 187.12L158.539 188.274L160.082 189.318L161.57 188.713L163.388 188.933L164.876 188.713L166.859 189.318L166.969 188.329L166.308 187.285L167.135 186.68L167.52 185.362L167.41 183.439Z"
      fill="#E9EAEB" stroke="white" stroke-linejoin="round" />
    <path fill-rule="evenodd" clip-rule="evenodd"
      d="M150.934 189.923L153.083 189.868L152.642 188.879L151.154 188.055L149.116 187.725L148.455 187.615L147.132 187.835L146.691 188.659L148.289 189.923L149.942 190.472L150.934 189.923Z"
      fill="#E9EAEB" stroke="white" stroke-linejoin="round" />
    <path fill-rule="evenodd" clip-rule="evenodd"
      d="M92.3651 162.066L90.3815 161.297L88.2326 160.198L87.7918 158.549L87.6816 156.077L86.3592 154.099L85.8082 152.066L84.9266 149.648L83.2185 148.275L80.7941 148.33L78.1493 151.077L75.9453 150.033L74.7331 148.989L74.5127 147.066L74.0719 145.253L72.7495 143.714L71.5924 142.615L70.8761 141.407H65.7518L65.311 142.835H62.9417H57.046L51.1503 140.418L47.2382 138.714L47.7892 138L43.9322 138.385L40.4609 138.659L40.5711 141.791L40.9568 144.593L41.3425 146.846L41.7833 149.044L43.2159 150.033L44.8138 152.505L44.2628 154.099L42.7751 155.363L41.618 155.198L41.2874 155.473L42.5547 157.505L44.1526 158.33L44.7036 159.264L45.1995 158.769L46.9076 160.363L48.0647 161.462L48.1198 163.33L47.4586 165.912L48.8361 166.791L50.6544 168.495L52.2523 170.473L52.638 172.615H53.189L54.6767 171.352L54.8971 170.692L54.0706 169.154L53.189 167.56L51.7564 167.451L51.9768 165.582L51.4809 163.934L50.9299 162.396L50.6544 159.154L49.2218 157.396L48.8912 156.132L48.23 155.253V153L47.679 153.055L47.6239 151.846L47.2382 151.571L47.0178 150.802L45.5301 148.385L44.924 146.956L45.475 144.319L45.5301 142.67L46.5219 141.242L47.8443 142.176L48.8912 142.066L50.5993 143.44L50.1034 144.758L50.3238 147.451L51.1503 150.033L50.9299 151.132L51.8666 152.835L53.1339 154.703L54.6216 154.978L54.7869 157.396L56.1093 159.099L57.4868 159.923L56.495 162.121L56.8807 162.945L59.1398 164.374L60.1867 166.571L62.6662 169.264L64.76 172.78L65.4763 174.538V175.912L66.2477 177.505L66.0824 178.714L65.2008 179.593L65.3661 180.582L64.3192 180.967L64.76 182.67L65.9722 184.868L68.8925 186.846L69.9394 188.44L72.9148 189.538L74.5678 189.758L75.229 190.692L77.5432 192.341L80.7941 193.989L82.9981 194.484L85.6429 196.077L87.8469 196.736L89.8856 197.67L91.4835 197.286L94.1283 195.967L95.8364 195.747L98.2608 196.626L99.6934 197.78L102.724 201.571L102.944 200.527L103.385 199.703L102.999 199.044L104.818 196.187H108.73L108.95 195.033L108.509 194.813L108.234 194.044L107.187 193.22L106.195 192.066H107.628L107.848 190.088H110.713L113.524 190.143L113.579 189.593L113.964 189.429L114.46 189.868L115.838 187.725H116.389L117.05 187.67L117.711 188.549L118.813 185.802L119.474 184.319L118.978 183.714L119.97 181.571L121.899 179.484L122.229 177.78L121.568 177.066L119.695 177.341L117.05 177.231L113.744 178.055L111.54 178.989L110.879 179.978L110.218 182.945L109.226 184.978L107.077 186.407L105.093 187.011L102.724 187.615L100.355 187.945L97.5445 188.934L96.4976 187.506L93.412 186.571L92.4202 184.813L92.0345 182.835L90.3815 180.253L90.1611 177.505L89.4999 175.802L89.2244 173.934L89.8305 172.231L90.8223 167.506L91.8141 165.033L93.5222 161.956L92.3651 162.066Z"
      fill="#E9EAEB" stroke="white" stroke-linejoin="round" />
    <path fill-rule="evenodd" clip-rule="evenodd"
      d="M130.769 199.977L129.723 199.867L129.227 200.362L128.125 200.801H127.353L126.637 201.241L126.031 201.076L125.535 200.581L125.204 200.691L124.764 201.516L124.488 201.461L124.323 202.175L123.166 203.164L122.56 203.548L122.229 203.988L121.402 203.274L120.631 204.208H119.97L119.254 204.318L119.143 206.021H118.703L118.262 206.845L117.27 207.01L117.05 207.23L116.554 206.68L116.168 207.23L117.601 208.823L118.813 209.922L119.364 211.076L120.741 212.505L121.733 213.603L122.229 213.164L124.157 214.098L124.929 213.658L125.866 213.933L126.306 214.647L127.243 214.867L128.014 214.153L127.574 213.549L127.519 212.614L128.18 211.735L128.07 210.801L128.455 209.318L128.951 208.933L129.006 207.395L128.896 206.461L129.116 204.922L129.612 203.548L130.384 202.34L130.218 201.076L130.439 200.307L130.769 199.977Z"
      fill="#E9EAEB" stroke="white" stroke-linejoin="round" />
    <path fill-rule="evenodd" clip-rule="evenodd"
      d="M115.947 205.581L116.277 204.208L115.891 203.823L115.285 203.548L113.908 203.988L113.853 203.494L112.971 202.944L112.365 202.23L111.539 201.955L110.767 202.175L110.877 202.559L110.271 202.944L109.114 203.823L109.004 204.373L109.775 205.087L111.483 205.307L112.696 206.021L113.743 206.351L115.561 206.406L115.947 205.581Z"
      fill="#E9EAEB" stroke="white" stroke-linejoin="round" />
    <path fill-rule="evenodd" clip-rule="evenodd"
      d="M-88.199 185.637L-87.097 185.142L-85.7195 184.373L-85.6093 184.153L-86.1052 182.944L-86.4909 182.505L-86.9317 182.175L-87.9786 181.571L-88.199 181.516L-88.4194 181.845V182.56L-89.0806 183.109L-89.301 183.494L-89.0806 184.758L-89.4112 185.747L-88.75 186.241L-88.199 185.637ZM-88.5296 180.197L-88.199 179.813L-88.8602 179.263L-89.852 178.933L-90.2377 179.208V179.428L-89.9622 179.703L-89.6316 180.472L-88.5296 180.197ZM-90.1826 178.329L-91.6152 178.219L-91.9458 178.604L-90.3479 178.714L-90.1826 178.329ZM-92.7723 177.835L-93.3784 176.681L-93.5437 176.461L-94.4804 176.955L-94.4253 177.065L-94.2049 177.889L-93.2131 177.999L-92.9927 178.054L-92.7723 177.835ZM-97.3456 175.527L-97.1803 174.703L-97.8966 174.648L-98.4476 174.977L-98.668 175.252L-97.7864 175.856L-97.3456 175.527ZM129.722 80.362H128.84L128.124 81.6807H122.559H113.302H104.1H95.9453H87.8456H79.856H71.591H68.9463H60.9016H53.2428L52.3611 84.4829L51.0388 87.2851L49.7715 88.1642L50.3775 84.9224L47.1817 83.7686L46.4103 84.4279L46.19 86.0213L45.1981 88.9884L42.884 93.5488L40.6799 96.6257L38.476 99.7026L35.5005 102.889L34.8945 105.472L33.3516 108.384L31.2027 111.241L31.7537 113.109L30.7068 115.966L31.5333 118.933L32.2496 120.142L31.8089 120.966L32.0293 125.911L33.4067 129.483L32.966 131.406L33.517 131.955L36.0516 132.34L36.7679 133.274L38.3106 133.439L38.2556 134.483L39.4677 134.867L40.6248 136.9L40.4595 138.659L43.9308 138.384L47.7878 137.999L47.2368 138.714L51.149 140.417L57.0446 142.835H62.9403H65.3096L65.7505 141.406H70.8748L71.591 142.615L72.7481 143.714L74.0706 145.252L74.5113 147.065L74.7318 148.988L75.944 150.032L78.148 151.076L80.7928 148.329L83.2171 148.274L84.9253 149.648L85.8068 152.065L86.3578 154.098L87.6803 156.076L87.7905 158.549L88.2313 160.197L90.3801 161.296L92.3638 162.065L93.5208 161.955L93.1903 160.747L93.4106 159.043L93.9616 156.626L95.0085 155.087L97.0473 153.384L100.353 151.9L103.714 149.318L106.414 148.494L108.343 148.274L110.271 149.043L112.971 148.604L114.789 150.472L116.883 150.582L118.206 149.922L119.142 150.417L119.859 149.977L119.363 149.263L119.748 147.889L119.473 146.955L120.795 146.406L123.11 146.186L125.699 146.571L129.115 146.131L130.768 146.955L131.87 148.604L132.366 148.769L135.727 147.175L136.774 147.725L138.427 150.637L138.868 152.56L137.766 154.867L137.987 156.241L138.868 158.933L139.97 161.955L140.962 162.725L141.182 164.263L142.615 164.703L143.552 164.263L144.654 162.12L145.039 160.747L145.535 158.384L144.874 154.318L145.15 152.835L144.323 150.362L143.937 147.395L143.992 144.977L144.984 142.505L146.913 140.417L148.951 138.769L152.753 136.516L153.47 135.307L155.288 134.043L156.831 133.824L159.255 131.736L162.561 130.692L165.096 128.054L165.592 124.483L165.647 123.274L164.875 123.054L165.702 119.648L164.049 118.494L165.812 119.043V116.791L166.859 115.307L166.308 118.219L167.41 119.593L165.812 122.01L166.032 122.12L168.457 119.318L169.779 117.944L170.11 116.571L169.614 115.966L169.559 114.043L170.22 114.922L170.826 115.142L170.771 116.021L173.636 113.329L175.014 110.856L174.242 110.692L175.399 109.703L175.179 110.142H176.997L181.295 109.098L180.689 108.439L176.336 109.098L178.981 108.109L180.689 107.944L182.011 107.78L184.271 107.175L185.593 107.23L187.687 106.681L188.238 105.747L187.632 104.977L187.521 106.186L186.364 106.131L186.034 104.318L186.64 102.505L187.411 101.791L189.56 99.7576L192.811 98.7686L196.117 97.6147L199.588 95.9664L199.478 94.8675L198.321 92.9444L199.864 88.2741L199.037 87.2851L196.999 87.8895L196.393 86.9554L193.362 89.5378L191.599 92.2301L190.111 93.7686L188.734 94.2631L187.797 94.4279L187.246 95.307H182.122H177.879L176.391 95.9664L172.7 98.2741L172.81 98.7686L172.479 100.087L169.945 101.186L167.796 100.911L165.592 100.802L164.159 101.186L163.994 102.175L163.939 102.505L160.743 104.538L158.263 105.527L156.665 105.966L154.627 106.9L152.423 107.395L151.045 107.23L149.558 106.516L151.045 105.197L152.147 103.988L154.186 102.12L154.572 100.747L154.847 98.8235L153.966 98.4389L151.596 99.9774L151.1 99.9224L151.266 99.0983L153.359 97.7246L154.241 96.1862L154.627 94.6477L153.139 93.329L151.1 92.6147L150.164 93.9334L149.392 94.2631L148.18 95.9664L148.4 94.8125L146.968 95.6367L145.811 96.7356L144.378 98.4389L143.662 99.8675L143.717 101.955L142.725 104.153L140.907 105.802L140.135 106.296L139.254 106.681H138.262L138.097 106.461L138.042 104.648L138.427 103.769L138.813 102.944L139.144 101.296L140.521 99.373L142.119 97.0103L144.654 94.4279H144.268L141.293 96.6257L141.072 96.2411L142.67 94.9774L145.26 92.7796L147.298 92.5049L149.723 91.7906L151.762 92.1752H151.817L154.406 91.9005L153.58 90.5268L152.919 90.4169L152.147 90.2521L151.927 89.318L149.117 89.5928L146.362 90.362L144.984 89.0983L143.607 88.6587L145.315 86.8455L142.395 87.9444L139.695 89.0983L137.16 89.9224L136.003 88.7686L132.972 89.4829L133.193 88.9884L135.727 87.5598L138.317 86.1862L141.568 85.0323L138.648 84.1532L136.223 84.5928L134.13 83.5488L131.595 82.9994L129.832 82.7796L129.281 82.2301L129.722 80.362ZM-2.84905 54.5928L0.952843 53.0543V52.0653L-0.479759 51.8455L-2.35316 52.34L-5.87955 53.4939L-7.09176 54.9774L-6.70605 55.8565L-2.84905 54.5928ZM-24.1728 45.5818L-22.9055 44.318L-24.5034 44.0433L-27.6441 44.5928L-27.2033 45.4719L-26.3217 46.0763L-24.1728 45.5818ZM-23.5116 33.329L-25.2197 34.5378L-24.9993 34.8125L-22.6851 34.5928L-22.5198 35.1972L-21.5831 35.8565L-18.8832 35.1972L-18.222 34.8675L-20.0403 34.4279L-20.9219 33.6038L-22.7953 33.9334L-23.5116 33.329ZM45.3083 11.2411L42.884 10.6367L37.2637 12.1752L35.5005 12.0103L29.4396 13.2741L26.7947 13.6038L22.4969 14.9774L19.8521 16.4059L15.1135 17.7796L10.9259 17.8345L7.45464 19.4279L9.21784 20.362L9.60355 21.6257L9.16274 23.1092L10.4301 24.2631L9.76884 26.1862L4.69964 26.2961L7.06895 24.7576H5.19555L-2.02255 26.2411L-7.03666 27.5048L-6.48566 29.318L-7.14687 30.5268L-4.66737 31.2961L-0.865448 30.9114L0.126343 31.6257L1.72424 30.9114L5.08534 30.2521H6.57305L3.32214 31.406L3.92824 31.9554L2.55074 33.384L-0.479759 34.373L-1.85726 34.0983L-5.71426 35.5818L-6.70605 35.0873L-8.96516 35.3071L-11.8855 36.9554L-16.0731 38.6587L-19.2689 40.5268L-19.1036 41.8455L-21.3076 43.6587L-20.5362 44.4279L-20.2607 45.9114L-16.2935 45.307L-16.0731 46.4609L-17.8914 47.6147L-19.875 49.5378H-18.3322L-14.365 48.2741L-15.2466 49.8675L-13.263 48.7136L-13.4834 50.362L-10.8386 49.1532L-10.6182 49.7576L-6.65095 48.7686L-10.0672 50.6367L-13.2079 53.1092L-16.3486 54.2631L-17.6159 54.9224L-23.2912 56.9005L-25.9911 58.2191L-29.5726 58.6038L-34.2561 60.4169L-37.8927 61.406L-42.3558 62.9444L-42.5762 63.4939L-37.0662 62.5598L-33.7602 61.4609L-29.9583 60.362L-26.5972 59.4279L-25.0544 59.7027L-20.5913 58.2741L-18.1118 56.7356L-12.3263 55.0323L-10.1774 53.6037L-6.54076 52.6147L-2.35316 51.2411L2.55074 48.9334L2.44055 47.34L8.55664 45.0873L12.634 42.9444L17.7032 41.1862L17.4828 41.9554L13.7911 42.9444L9.21784 46.0763L7.45464 47.9994L10.981 47.2851L14.3421 46.2411L17.9236 45.5268L19.5216 45.362L21.4501 43.1092L24.9213 42.4499L26.354 43.8235L29.6599 45.307L33.3516 45.0323L36.4923 46.1312L38.2556 46.7356L40.0739 50.0873L42.1125 51.0213L46.0246 51.1312L48.2838 51.351L46.7961 54.373L47.6776 57.0653L45.8593 59.9224L47.2368 60.9664L47.5675 62.1752L50.3775 60.5818L52.0856 58.5488L49.551 56.4609L50.3775 52.7246L50.9836 50.4169L50.047 48.9334L49.6613 47.6147L49.9368 45.9664L46.4103 47.0103L42.2227 48.8235L42.1125 46.6807L41.782 45.2521L40.2943 44.373L37.9801 44.318L57.4855 26.5158L70.8748 15.4169L68.9463 15.0323L66.6871 14.1532L63.1056 14.5928L61.8935 14.2081L57.9813 13.9334L54.5651 13.0543L51.9203 13.329L49.2205 12.8345L50.3225 12.1752L46.8511 12.0103L45.0328 12.5598L45.3083 11.2411Z"
      fill="#2575FC" stroke="white" stroke-linejoin="round" />
    <path fill-rule="evenodd" clip-rule="evenodd"
      d="M201.242 223.109L200.03 222.285L198.432 222.395L198.046 219.592L195.787 217.834L193.363 217.614L192.371 215.966L195.016 214.922L191.324 214.977L187.522 215.197L187.412 216.076L185.649 217.12L183.334 216.735L181.626 215.142L178.32 215.527L175.565 215.472L175.51 214.318L173.582 212.395L171.433 212.34L170.496 209.867L169.339 210.966L169.67 212.614L165.758 214.043V216.68L166.639 217.889L165.813 220.417L164.49 220.636L163.443 217.889L164.931 215.856L165.096 214.043L164.16 212.45L165.978 212.01L166.143 211.186L164.105 211.79L163.223 213.549L162.011 214.538L161.019 215.856L160.523 218.329L159.531 220.362L161.129 220.636L161.46 222.23L162.066 222.999L162.286 224.373L161.845 225.691L161.956 226.406L162.672 226.735L163.388 227.944L167.355 227.614L169.119 228.054L171.212 231.076L172.48 230.691L174.684 230.856L176.447 230.472L177.549 231.076L176.888 232.944L176.171 234.098L175.896 236.625L176.447 238.933L177.273 239.977L177.384 240.801L175.786 242.505L176.888 243.274L177.659 244.483L178.596 247.999L180.249 249.867L182.673 249.592L183.279 248.549L185.594 247.724L186.861 247.175L187.247 245.691L189.506 244.702L189.34 243.933L186.696 243.658L186.31 241.461L186.475 239.098L185.153 238.219L185.704 237.889L188.018 238.329L190.442 239.208L191.379 238.384L193.583 237.834L197.109 236.516L198.267 235.197L197.881 234.208L195.842 231.57L196.724 230.581V228.988L198.597 228.384L199.424 227.724L198.377 226.461L198.707 225.197L201.242 223.109Z"
      fill="#E9EAEB" stroke="white" stroke-linejoin="round" />
    <path fill-rule="evenodd" clip-rule="evenodd"
      d="M170.715 208.825L170.66 208.77L170.494 208.44L170.329 208.275L170.274 208.33L170.219 208.495L170.384 208.66L170.549 208.88L170.715 208.935V208.825Z"
      fill="#E9EAEB" stroke="white" stroke-linejoin="round" />
    <path fill-rule="evenodd" clip-rule="evenodd"
      d="M193.472 188.659L193.528 188.549L193.417 188.494L192.977 188.769V188.824L193.472 188.659Z"
      fill="#E9EAEB" stroke="white" stroke-linejoin="round" />
    <path fill-rule="evenodd" clip-rule="evenodd"
      d="M197 192.835L197.11 192.78V192.725V192.616L197.055 192.561L197 192.451L196.779 192.341L196.504 192.616V192.725L196.559 192.89L196.89 192.945L197 192.835ZM197.11 190.912V190.637L197.055 190.528H196.89L196.834 190.473H196.779L196.724 190.528L196.779 190.857L197.055 191.022L197.11 190.912Z"
      fill="#E9EAEB" stroke="white" stroke-linejoin="round" />
    <path fill-rule="evenodd" clip-rule="evenodd"
      d="M163.994 178.274L164.104 177.944L163.939 177.889L163.663 178.274L163.333 178.439H163.168L162.782 178.274H162.506L162.286 178.549L161.955 178.604L162.01 178.659V178.768L161.9 178.933V179.043L161.955 179.208L162.782 179.153L163.498 179.043L163.884 178.549L163.994 178.274ZM164.435 177.175L164.214 177.01L163.994 177.175L164.049 177.34L164.435 177.175ZM164.435 173.988L164.214 173.878L164.049 174.153L164.214 174.208L164.6 174.153L164.876 174.208L165.151 174.428L165.316 174.318L165.261 174.263L165.041 174.098L164.71 174.043H164.6L164.435 173.988ZM160.798 174.703L161.184 174.373L161.57 174.208L162.066 173.604L162.01 173.109L162.121 172.889L161.79 172.944L161.735 173.109L161.68 173.274L161.845 173.494V173.604L161.735 173.823L161.57 173.878L161.515 173.988L161.349 174.043L161.129 174.318L160.688 174.648L160.578 174.812L160.798 174.703ZM161.459 172.944L161.129 172.834L161.019 172.615L160.798 172.56L160.743 172.67V172.779L160.798 172.999L160.908 172.944L161.349 173.164L161.57 172.999L161.459 172.944ZM159.2 172.34V171.955L158.98 171.681L158.649 171.461L158.594 170.801L158.429 170.417L158.319 170.087L158.098 169.648V169.922L158.153 169.977L158.209 170.307L158.429 170.801L158.484 171.021L158.429 171.241L158.209 171.296L158.153 171.406L158.429 171.571L158.87 171.735L159.145 172.45L159.2 172.34ZM156.941 170.417L156.666 170.252L156.556 170.087L156.17 169.703L156.005 169.648L155.894 169.867L156.115 169.922L156.611 170.307L156.831 170.417H156.941ZM160.964 168.219L160.908 168.054H160.853L160.688 168.109L160.523 168.604H160.688L160.964 168.219ZM151.266 167.615L151.156 167.45L150.99 167.56H150.715L150.605 167.615H150.384L150.219 167.724L150.439 168.164L150.605 168.329L150.66 168.878L150.77 168.933L150.715 169.318L151.321 169.373L151.541 168.933V168.768V168.714V168.604V168.494V167.999L151.376 167.724L151.156 168.054L150.935 167.889L151.266 167.67V167.615ZM158.374 167.779L157.823 167.01V166.9L157.547 166.076L157.382 166.021L157.327 166.076L157.272 166.186L157.492 166.406V166.626L157.658 166.735L157.878 167.34L158.098 167.56L158.043 167.724L157.823 167.889L157.768 167.999H157.823L158.153 167.944H158.374V167.779ZM152.588 164.922L152.864 164.812L152.699 164.703H152.313L152.092 164.757L151.982 164.867L152.037 164.922L152.258 164.977L152.588 164.922ZM151.266 166.021L150.99 165.692L150.825 165.197L150.715 164.977L150.77 164.703L150.605 164.483L150.274 164.263L150.109 164.318L150.164 164.922L150.054 165.252L149.613 165.856L149.668 166.076L149.723 166.186L149.448 166.406V166.241L149.117 166.296L149.282 166.571L149.613 166.79L149.778 166.845L149.944 166.735V167.01L150.109 167.23L150.164 167.45L150.329 167.285L150.66 167.175L150.77 167.065L151.156 166.845V166.735L151.211 166.406L151.266 166.021ZM154.958 163.274L154.792 162.999L154.737 163.054L154.682 163.274L154.517 163.494L154.792 163.439L155.013 163.494L155.343 163.768L155.729 163.878L155.894 164.208L156.225 164.538V164.867L156.005 165.197L155.949 165.582L155.619 165.637L155.674 165.692L155.839 165.856L155.894 166.076L156.005 166.186V165.801L156.17 165.362L156.39 164.648L156.335 164.483L156.17 164.318L155.784 163.823L155.398 163.659L154.958 163.274ZM150.109 158.933L149.833 158.714L149.723 158.933V158.988L149.668 159.153L149.393 159.373L149.117 159.428L148.731 159.098L148.621 159.043L149.062 159.648L149.227 159.703H149.448L149.944 159.538L150.825 159.263L151.762 159.153L151.817 159.043L151.762 158.878L151.321 158.988L150.77 158.933L150.66 159.043H150.439L150.109 158.933ZM153.47 161.79L153.58 161.626L153.801 160.637L154.241 160.307L154.296 159.648L154.021 159.373L153.801 159.263L153.745 159.153L153.801 159.043L153.69 158.988L153.525 158.878L153.305 158.549L153.084 158.329L152.699 158.274L152.368 158.219L152.148 158.164L151.872 158.329H152.313L153.139 158.494L153.525 159.318L153.801 159.538L153.856 159.757L153.745 159.977V160.197L153.58 160.472L153.525 160.911L153.36 161.131L152.974 161.406L153.194 161.516L153.36 161.845L153.47 161.79Z"
      fill="#E9EAEB" stroke="white" stroke-linejoin="round" />
    <path fill-rule="evenodd" clip-rule="evenodd"
      d="M194.742 139.539L194.962 139.209H194.907L194.631 139.484L194.301 139.594L194.356 139.649H194.411L194.742 139.539Z"
      fill="#E9EAEB" stroke="white" stroke-linejoin="round" />
    <path fill-rule="evenodd" clip-rule="evenodd"
      d="M202.839 206.627L203.06 206.407L202.894 206.242L202.564 205.803L202.398 205.858V206.407L202.454 206.572L202.729 206.737L202.839 206.627Z"
      fill="#E9EAEB" stroke="white" stroke-linejoin="round" />
    <path fill-rule="evenodd" clip-rule="evenodd"
      d="M137.876 184.759L137.821 184.594L137.766 184.649V184.979H138.041H138.151L138.317 184.869H138.647L138.592 184.759L138.151 184.704L138.096 184.759L137.986 184.814L137.876 184.759ZM142.284 183.495L142.229 183.44H142.174L142.008 183.495H141.953H141.898L141.843 183.55L141.788 183.605H141.898L142.119 183.495H142.229H142.284ZM142.725 183.44L143 183.33L142.945 183.275H142.89L142.835 183.33H142.78L142.504 183.495H142.614L142.725 183.44Z"
      fill="#E9EAEB" stroke="white" stroke-linejoin="round" />
    <path fill-rule="evenodd" clip-rule="evenodd"
      d="M197.824 199.043L197.989 198.659L197.934 198.109L197.824 197.889L197.383 197.725V197.834L197.328 198.109L197.493 198.549L197.549 199.153L197.824 199.043Z"
      fill="#E9EAEB" stroke="white" stroke-linejoin="round" />
    <path fill-rule="evenodd" clip-rule="evenodd"
      d="M195.787 210.363L196.062 210.253L196.172 209.649L196.007 209.594L195.842 209.759L195.677 210.033V210.253L195.566 210.418L195.787 210.363Z"
      fill="#E9EAEB" stroke="white" stroke-linejoin="round" />
    <path fill-rule="evenodd" clip-rule="evenodd"
      d="M194.573 192.505V192.34L194.463 192.23H194.298V192.505L194.408 192.615L194.573 192.505ZM194.298 192.12L194.242 192.01L194.187 191.955L194.077 191.735L193.857 191.516L193.747 191.571L193.691 191.68V191.735L193.857 191.9L194.077 191.955L194.187 192.175L194.298 192.12Z"
      fill="#E9EAEB" stroke="white" stroke-linejoin="round" />
    <path fill-rule="evenodd" clip-rule="evenodd"
      d="M198.707 204.043L198.762 203.384L198.707 203.109L198.597 203.164L198.432 203.384L198.211 203.714L198.156 203.879V204.208L198.487 204.428L198.707 204.043Z"
      fill="#E9EAEB" stroke="white" stroke-linejoin="round" />
    <path fill-rule="evenodd" clip-rule="evenodd"
      d="M195.623 193.878L195.568 193.604H195.513L195.402 193.823V193.988L195.568 194.043L195.623 193.878Z"
      fill="#E9EAEB" stroke="white" stroke-linejoin="round" />
    <path fill-rule="evenodd" clip-rule="evenodd"
      d="M178.54 189.264V189.209H178.595V189.154L178.651 189.099V189.044H178.595H178.43H178.375V189.099V189.154L178.485 189.209V189.264H178.54ZM186.034 189.099L186.42 188.989V188.934L186.199 188.879H185.869L185.593 188.989L185.648 189.099H185.758H186.034ZM183.995 187.89L183.94 187.78H183.83L181.901 187.725L181.185 187.615L181.02 187.67L180.855 187.725L180.799 187.945L180.689 188.055L180.524 188.165L180.579 188.33L180.634 188.439L180.744 188.659L180.689 188.934L180.579 189.483L180.744 189.593L181.13 189.538L181.295 189.593L181.461 189.648L181.681 189.593L181.901 189.483L182.397 189.538L182.673 189.483L183.003 189.648L183.224 189.593L183.334 189.648H183.499H183.83L184.326 189.538L184.767 189.264L184.932 188.989L185.152 188.824L185.483 188.604V188.11L185.097 188.055L184.767 187.89L184.161 187.835H184.105L184.161 187.945H184.105L183.995 187.89Z"
      fill="#E9EAEB" stroke="white" stroke-linejoin="round" />
    <path fill-rule="evenodd" clip-rule="evenodd"
      d="M193.031 189.209L193.142 189.319L193.307 189.374L193.362 189.319V189.209H193.031Z"
      fill="#E9EAEB" stroke="white" stroke-linejoin="round" />
    <path fill-rule="evenodd" clip-rule="evenodd"
      d="M166.364 175.966L166.309 176.186V176.296L166.419 176.351L166.749 176.296L166.805 176.241L166.915 176.186V176.131L166.694 176.186L166.364 175.966ZM168.347 176.296L168.458 176.186L168.347 176.076L167.962 175.966L167.851 176.021V176.186H168.182L168.347 176.351V176.296ZM167.741 176.021L167.686 175.966L167.631 175.637H167.356V175.747L167.411 175.856H167.466L167.521 175.966L167.686 176.076L167.741 176.021Z"
      fill="#E9EAEB" stroke="white" stroke-linejoin="round" />
    <path fill-rule="evenodd" clip-rule="evenodd"
      d="M197.11 207.999V207.944H197.165V207.889V207.834H197.11V207.889V207.944H197.055V207.999H197.11ZM197.495 206.955L197.551 206.845L197.606 206.79L197.551 206.735V206.79L197.44 206.845V206.9V206.955H197.385L197.44 207.01L197.495 206.955ZM197.661 206.351L197.826 206.241L197.881 205.911L197.826 205.691H197.716L197.551 205.746L197.44 205.911L197.385 206.186L197.606 206.406L197.661 206.351Z"
      fill="#E9EAEB" />
    <path
      d="M197.11 207.944V207.999H197.055V207.944H197.11ZM197.11 207.944H197.165V207.889V207.834H197.11V207.889V207.944ZM197.385 206.955H197.44V206.9V206.845L197.551 206.79V206.735L197.606 206.79L197.551 206.845L197.495 206.955L197.44 207.01L197.385 206.955ZM197.385 206.955H197.33M197.661 206.351L197.826 206.241L197.881 205.911L197.826 205.691H197.716L197.551 205.746L197.44 205.911L197.385 206.186L197.606 206.406L197.661 206.351Z"
      stroke="white" stroke-linejoin="round" />
    <path fill-rule="evenodd" clip-rule="evenodd"
      d="M188.678 188.055L188.844 187.945L188.733 187.89H188.513L188.348 188L188.403 188.055H188.678ZM189.284 187.835L189.505 187.615L189.229 187.67L189.119 187.78L189.174 187.835H189.229H189.284ZM189.725 186.846H189.615H189.339L189.395 186.901H189.56L189.725 186.956V186.846Z"
      fill="#E9EAEB" stroke="white" stroke-linejoin="round" />
    <path fill-rule="evenodd" clip-rule="evenodd"
      d="M187.962 190.142L187.576 190.252L187.521 190.472H188.127L188.513 190.307H188.182L187.962 190.142ZM188.457 188.219L188.182 188.164L188.072 188.274L188.237 188.329L188.457 188.219ZM187.851 188.274L187.741 188.164L187.576 188.109L187.355 188.164L187.631 188.329L187.851 188.274Z"
      fill="#E9EAEB" stroke="white" stroke-linejoin="round" />
    <path fill-rule="evenodd" clip-rule="evenodd"
      d="M199.039 201.682L198.929 201.297L198.874 201.187L198.764 201.023L198.819 200.858V200.803H198.709L198.544 200.528L198.213 200.363H198.048L197.938 200.473V200.638L198.103 201.133L198.213 201.242L198.488 201.352L198.268 201.572V201.627L198.323 201.792H198.819L198.929 201.957L198.984 201.902L199.039 201.682Z"
      fill="#E9EAEB" stroke="white" stroke-linejoin="round" />
    <path fill-rule="evenodd" clip-rule="evenodd"
      d="M198.157 196.846L198.267 196.736V196.572L198.157 196.407L198.046 196.462L197.936 196.626V196.791L197.991 196.846H198.157ZM197.11 196.407L197.22 196.297V195.637L197.275 195.473L197.165 195.418L197.055 195.308L196.724 195.198L196.669 195.253L196.559 195.418L196.614 196.242L196.724 196.517L196.834 196.572L197.11 196.407ZM197.991 195.637L198.432 195.528L197.936 195.198L197.826 194.978V194.813L197.606 194.648L197.495 194.758L197.44 194.923L197.495 195.198L197.33 195.418L197.385 195.637L197.606 195.692L197.991 195.637Z"
      fill="#E9EAEB" stroke="white" stroke-linejoin="round" />
    <path fill-rule="evenodd" clip-rule="evenodd"
      d="M175.84 209.922V209.593L175.344 209.373V209.538L175.399 209.648L175.564 209.703L175.619 209.813L175.564 210.142L175.674 210.307L175.84 209.922Z"
      fill="#E9EAEB" stroke="white" stroke-linejoin="round" />
    <g filter="url(#filter0_d_4876_76195)">
      <path fill-rule="evenodd" clip-rule="evenodd"
        d="M123.784 94.4331C127.19 90.371 129.238 85.1552 129.238 79.4667C129.238 66.5064 118.609 56 105.498 56C92.3866 56 81.7578 66.5064 81.7578 79.4667C81.7578 85.1468 83.7994 90.3555 87.1968 94.415L90.4074 98.6667L104.682 118.847C105.08 119.41 105.916 119.41 106.314 118.847L120.605 98.6667L123.784 94.4331Z"
        fill="white" />
      <g clip-path="url(#clip1_4876_76195)">
        <rect x="84.5391" y="64.6406" width="41.9157" height="29.6533" fill="white" />
        <mask id="mask0_4876_76195" style="mask-type:luminance" maskUnits="userSpaceOnUse" x="84"
          y="64" width="43" height="31">
          <rect x="84.5391" y="64.6406" width="41.9157" height="29.6533" fill="white" />
        </mask>
        <g mask="url(#mask0_4876_76195)">
          <path fill-rule="evenodd" clip-rule="evenodd"
            d="M126.455 64.6406H84.5391V66.6175H126.455V64.6406ZM126.455 68.5944H84.5391V70.5713H126.455V68.5944ZM84.5391 72.5482H126.455V74.5251H84.5391V72.5482ZM126.455 76.502H84.5391V78.4788H126.455V76.502ZM84.5391 80.4557H126.455V82.4326H84.5391V80.4557ZM126.455 84.4095H84.5391V86.3864H126.455V84.4095ZM84.5391 88.3633H126.455V90.3402H84.5391V88.3633ZM126.455 92.3171H84.5391V94.294H126.455V92.3171Z"
            fill="#D02F44" />
          <rect x="90.5273" y="64.6406" width="17.9639" height="13.8382" fill="#46467F" />
          <path fill-rule="evenodd" clip-rule="evenodd"
            d="M93.5253 68.5921C94.0765 68.5921 94.5233 68.1496 94.5233 67.6037C94.5233 67.0578 94.0765 66.6152 93.5253 66.6152C92.9742 66.6152 92.5273 67.0578 92.5273 67.6037C92.5273 68.1496 92.9742 68.5921 93.5253 68.5921ZM97.5173 68.5921C98.0685 68.5921 98.5153 68.1496 98.5153 67.6037C98.5153 67.0578 98.0685 66.6152 97.5173 66.6152C96.9661 66.6152 96.5193 67.0578 96.5193 67.6037C96.5193 68.1496 96.9661 68.5921 97.5173 68.5921ZM102.507 67.6037C102.507 68.1496 102.06 68.5921 101.509 68.5921C100.958 68.5921 100.511 68.1496 100.511 67.6037C100.511 67.0578 100.958 66.6152 101.509 66.6152C102.06 66.6152 102.507 67.0578 102.507 67.6037ZM105.501 68.5921C106.052 68.5921 106.499 68.1496 106.499 67.6037C106.499 67.0578 106.052 66.6152 105.501 66.6152C104.95 66.6152 104.503 67.0578 104.503 67.6037C104.503 68.1496 104.95 68.5921 105.501 68.5921ZM96.5193 69.5806C96.5193 70.1265 96.0725 70.569 95.5213 70.569C94.9701 70.569 94.5233 70.1265 94.5233 69.5806C94.5233 69.0347 94.9701 68.5921 95.5213 68.5921C96.0725 68.5921 96.5193 69.0347 96.5193 69.5806ZM99.5133 70.569C100.064 70.569 100.511 70.1265 100.511 69.5806C100.511 69.0347 100.064 68.5921 99.5133 68.5921C98.9621 68.5921 98.5153 69.0347 98.5153 69.5806C98.5153 70.1265 98.9621 70.569 99.5133 70.569ZM104.503 69.5806C104.503 70.1265 104.056 70.569 103.505 70.569C102.954 70.569 102.507 70.1265 102.507 69.5806C102.507 69.0347 102.954 68.5921 103.505 68.5921C104.056 68.5921 104.503 69.0347 104.503 69.5806ZM105.501 72.5459C106.052 72.5459 106.499 72.1034 106.499 71.5575C106.499 71.0116 106.052 70.569 105.501 70.569C104.95 70.569 104.503 71.0116 104.503 71.5575C104.503 72.1034 104.95 72.5459 105.501 72.5459ZM102.507 71.5575C102.507 72.1034 102.06 72.5459 101.509 72.5459C100.958 72.5459 100.511 72.1034 100.511 71.5575C100.511 71.0116 100.958 70.569 101.509 70.569C102.06 70.569 102.507 71.0116 102.507 71.5575ZM97.5173 72.5459C98.0685 72.5459 98.5153 72.1034 98.5153 71.5575C98.5153 71.0116 98.0685 70.569 97.5173 70.569C96.9661 70.569 96.5193 71.0116 96.5193 71.5575C96.5193 72.1034 96.9661 72.5459 97.5173 72.5459ZM94.5233 71.5575C94.5233 72.1034 94.0765 72.5459 93.5253 72.5459C92.9742 72.5459 92.5273 72.1034 92.5273 71.5575C92.5273 71.0116 92.9742 70.569 93.5253 70.569C94.0765 70.569 94.5233 71.0116 94.5233 71.5575ZM95.5213 74.5228C96.0725 74.5228 96.5193 74.0802 96.5193 73.5343C96.5193 72.9884 96.0725 72.5459 95.5213 72.5459C94.9701 72.5459 94.5233 72.9884 94.5233 73.5343C94.5233 74.0802 94.9701 74.5228 95.5213 74.5228ZM100.511 73.5343C100.511 74.0802 100.064 74.5228 99.5133 74.5228C98.9621 74.5228 98.5153 74.0802 98.5153 73.5343C98.5153 72.9884 98.9621 72.5459 99.5133 72.5459C100.064 72.5459 100.511 72.9884 100.511 73.5343ZM103.505 74.5228C104.056 74.5228 104.503 74.0802 104.503 73.5343C104.503 72.9884 104.056 72.5459 103.505 72.5459C102.954 72.5459 102.507 72.9884 102.507 73.5343C102.507 74.0802 102.954 74.5228 103.505 74.5228ZM106.499 75.5112C106.499 76.0571 106.052 76.4997 105.501 76.4997C104.95 76.4997 104.503 76.0571 104.503 75.5112C104.503 74.9653 104.95 74.5228 105.501 74.5228C106.052 74.5228 106.499 74.9653 106.499 75.5112ZM101.509 76.4997C102.06 76.4997 102.507 76.0571 102.507 75.5112C102.507 74.9653 102.06 74.5228 101.509 74.5228C100.958 74.5228 100.511 74.9653 100.511 75.5112C100.511 76.0571 100.958 76.4997 101.509 76.4997ZM98.5153 75.5112C98.5153 76.0571 98.0685 76.4997 97.5173 76.4997C96.9661 76.4997 96.5193 76.0571 96.5193 75.5112C96.5193 74.9653 96.9661 74.5228 97.5173 74.5228C98.0685 74.5228 98.5153 74.9653 98.5153 75.5112ZM93.5253 76.4997C94.0765 76.4997 94.5233 76.0571 94.5233 75.5112C94.5233 74.9653 94.0765 74.5228 93.5253 74.5228C92.9742 74.5228 92.5273 74.9653 92.5273 75.5112C92.5273 76.0571 92.9742 76.4997 93.5253 76.4997Z"
            fill="url(#paint0_linear_4876_76195)" />
        </g>
      </g>
    </g>
  </g>
  <rect x="1" y="0.5" width="209" height="209" rx="104.5" stroke="#E9EAEB" />
  <defs>
    <filter id="filter0_d_4876_76195" x="67.7578" y="46" width="75.4805" height="92"
      filterUnits="userSpaceOnUse" color-interpolation-filters="sRGB">
      <feFlood flood-opacity="0" result="BackgroundImageFix" />
      <feColorMatrix in="SourceAlpha" type="matrix"
        values="0 0 0 0 0 0 0 0 0 0 0 0 0 0 0 0 0 0 127 0" result="hardAlpha" />
      <feMorphology radius="2" operator="dilate" in="SourceAlpha"
        result="effect1_dropShadow_4876_76195" />
      <feOffset dy="4" />
      <feGaussianBlur stdDeviation="6" />
      <feColorMatrix type="matrix" values="0 0 0 0 0 0 0 0 0 0 0 0 0 0 0 0 0 0 0.12 0" />
      <feBlend mode="normal" in2="BackgroundImageFix" result="effect1_dropShadow_4876_76195" />
      <feBlend mode="normal" in="SourceGraphic" in2="effect1_dropShadow_4876_76195" result="shape" />
    </filter>
    <linearGradient id="paint0_linear_4876_76195" x1="92.5273" y1="66.6152" x2="92.5273"
      y2="76.4997" gradientUnits="userSpaceOnUse">
      <stop stop-color="white" />
      <stop offset="1" stop-color="#F0F0F0" />
    </linearGradient>
    <clipPath id="clip0_4876_76195">
      <rect x="0.5" width="210" height="210" rx="105" fill="white" />
    </clipPath>
    <clipPath id="clip1_4876_76195">
      <rect x="90.5273" y="64.6406" width="29.9398" height="29.6533" rx="14.8267" fill="white" />
    </clipPath>
  </defs>
</svg>
  