<svg width="327" height="169" viewBox="0 0 327 169" fill="none" xmlns="http://www.w3.org/2000/svg">
  <path
    d="M53.7722 43.9959C61.2576 43.9959 67.3257 37.9408 67.3257 30.4715C67.3257 23.0022 61.2576 16.9471 53.7722 16.9471C46.2868 16.9471 40.2188 23.0022 40.2188 30.4715C40.2188 37.9408 46.2868 43.9959 53.7722 43.9959Z"
    fill="#DFDFDF" />
  <path
    d="M162.821 168.5C235.072 168.5 293.642 166.131 293.642 163.208C293.642 160.285 235.072 157.916 162.821 157.916C90.5707 157.916 32 160.285 32 163.208C32 166.131 90.5707 168.5 162.821 168.5Z"
    fill="#E6E6E6" />
  <path
    d="M65.2943 96.8848C83.6823 96.8848 98.5887 82.0105 98.5887 63.662C98.5887 45.3135 83.6823 30.4391 65.2943 30.4391C46.9064 30.4391 32 45.3135 32 63.662C32 82.0105 46.9064 96.8848 65.2943 96.8848Z"
    fill="#E6E6E6" />
  <path d="M68.503 163.731H61.6836L64.7923 58.6584L68.503 163.731Z" fill="#071034" />
  <path d="M65.3947 78.5721L72.7156 68.4653L65.2945 81.0739L64.4922 79.6729L65.3947 78.5721Z"
    fill="#071034" />
  <path d="M64.5941 88.7792L57.2734 78.6724L64.6945 91.2809L65.4968 89.8799L64.5941 88.7792Z"
    fill="#071034" />
  <path
    d="M167.257 163.824C201.511 163.824 229.28 136.115 229.28 101.934C229.28 67.7534 201.511 40.0444 167.257 40.0444C133.003 40.0444 105.234 67.7534 105.234 101.934C105.234 136.115 133.003 163.824 167.257 163.824Z"
    fill="#071034" />
  <path
    d="M167.256 158.7C198.674 158.7 224.144 133.285 224.144 101.934C224.144 70.5829 198.674 45.1677 167.256 45.1677C135.837 45.1677 110.367 70.5829 110.367 101.934C110.367 133.285 135.837 158.7 167.256 158.7Z"
    fill="white" />
  <path
    d="M167.052 109.722C171.249 109.722 174.651 106.327 174.651 102.139C174.651 97.9513 171.249 94.5565 167.052 94.5565C162.855 94.5565 159.453 97.9513 159.453 102.139C159.453 106.327 162.855 109.722 167.052 109.722Z"
    fill="#2575FC" />
  <path d="M168.692 48.0367H165.406V54.1847H168.692V48.0367Z" fill="#071034" />
  <path d="M168.692 150.093H165.406V156.241H168.692V150.093Z" fill="#071034" />
  <path d="M118.992 103.778V100.5H112.831V103.778H118.992Z" fill="#071034" />
  <path d="M221.27 103.778V100.5H215.108V103.778H221.27Z" fill="#071034" />
  <path d="M164.859 105.431L167.668 99.0233L202.855 118.47L164.859 105.431Z" fill="#2575FC" />
  <path d="M175.265 25.0842H159.246V43.5282H175.265V25.0842Z" fill="#071034" />
  <path
    d="M167.257 30.2076C177.465 30.2076 185.741 27.9138 185.741 25.0843C185.741 22.2547 177.465 19.9609 167.257 19.9609C157.049 19.9609 148.773 22.2547 148.773 25.0843C148.773 27.9138 157.049 30.2076 167.257 30.2076Z"
    fill="#071034" />
  <path
    d="M201.863 112.898L200.836 114.332C200.836 114.332 196.112 119.866 195.907 117.202C195.701 114.537 199.398 112.693 199.398 112.693L201.452 111.463L201.863 112.898Z"
    fill="#FFB8B8" />
  <path
    d="M231.096 117.738L231.956 119.278C231.956 119.278 234.946 125.906 232.445 124.951C229.944 123.996 229.856 119.873 229.856 119.873L229.621 117.494L231.096 117.738Z"
    fill="#FFB8B8" />
  <path
    d="M226.472 90.4305C229.926 90.4305 232.726 87.6367 232.726 84.1904C232.726 80.7441 229.926 77.9503 226.472 77.9503C223.019 77.9503 220.219 80.7441 220.219 84.1904C220.219 87.6367 223.019 90.4305 226.472 90.4305Z"
    fill="#313038" />
  <path
    d="M225.891 135.441L226.712 140.769V142.408H231.436V140.359C231.436 140.359 231.641 136.67 230.82 135.645C229.998 134.621 225.891 135.441 225.891 135.441Z"
    fill="#FFB8B8" />
  <path
    d="M217.469 135.441L218.29 140.769V142.408H223.014V140.359C223.014 140.359 223.219 136.67 222.398 135.645C221.576 134.621 217.469 135.441 217.469 135.441Z"
    fill="#FFB8B8" />
  <path
    d="M220.65 92.6409C220.65 92.6409 218.833 93.5964 220.074 95.77C221.315 97.9435 228.596 120.43 228.596 120.43L232.796 119.241L229.092 105.019L226.971 96.0809L220.65 92.6409Z"
    fill="#2575FC" />
  <path
    d="M225.786 90.6627C228.395 90.6627 230.51 88.5525 230.51 85.9493C230.51 83.3461 228.395 81.2358 225.786 81.2358C223.177 81.2358 221.062 83.3461 221.062 85.9493C221.062 88.5525 223.177 90.6627 225.786 90.6627Z"
    fill="#FFB8B8" />
  <path
    d="M227.945 86.6666L227.328 96.2985L223.016 93.2245C223.016 93.2245 224.453 87.4864 224.042 87.0765L227.945 86.6666Z"
    fill="#FFB8B8" />
  <path
    d="M227.944 95.4787L223.297 92.0456C223.297 92.0456 221.166 91.1752 220.55 92.1998C219.934 93.2245 216.853 108.39 218.496 111.259C218.496 111.259 227.327 113.103 229.176 112.078L229.997 106.75C229.997 106.75 231.024 103.471 229.381 101.422L227.944 95.4787Z"
    fill="#2575FC" />
  <path
    d="M221.781 92.4046C221.781 92.4046 220.138 91.1751 218.701 93.2244C217.263 95.2737 200.012 111.463 200.012 111.463L202.887 114.742L214.182 105.315L221.371 99.5773L221.781 92.4046Z"
    fill="#2575FC" />
  <path
    d="M229.277 111.976C229.277 111.976 219.111 110.029 218.084 111.463L217.879 113.718C217.879 113.718 215.62 118.021 216.852 124.989C218.084 131.957 217.263 136.26 217.263 136.26C217.263 136.26 222.808 135.645 226.915 136.26C231.023 136.875 231.639 136.26 231.639 136.26L229.277 111.976Z"
    fill="#313038" />
  <path
    d="M231.846 141.589L225.891 141.794L227.944 157.163C227.944 157.163 226.301 163.721 228.15 164.131C229.435 164.39 230.741 164.527 232.052 164.541C232.052 164.541 233.9 166.385 235.954 166.181C237.318 166.007 238.639 165.59 239.856 164.951C239.856 164.951 240.267 163.721 238.829 163.311C237.392 162.902 233.489 161.672 232.668 157.368L231.846 141.589Z"
    fill="#313038" />
  <path
    d="M223.425 141.589L217.469 141.794L219.522 157.163C219.522 157.163 217.879 163.721 219.728 164.131C221.013 164.39 222.319 164.527 223.63 164.541C223.63 164.541 225.478 166.385 227.532 166.181C228.896 166.007 230.218 165.59 231.434 164.951C231.434 164.951 231.845 163.721 230.407 163.311C228.97 162.902 225.068 161.672 224.246 157.368L223.425 141.589Z"
    fill="#313038" />
  <path
    d="M228.662 80.2049C230.091 80.2049 231.25 79.0488 231.25 77.6228C231.25 76.1967 230.091 75.0406 228.662 75.0406C227.233 75.0406 226.074 76.1967 226.074 77.6228C226.074 79.0488 227.233 80.2049 228.662 80.2049Z"
    fill="#313038" />
  <path
    d="M232.111 76.2242C232.111 75.586 231.874 74.9703 231.446 74.4961C231.018 74.0219 230.429 73.7226 229.793 73.6561C229.883 73.6468 229.972 73.6421 230.063 73.6421C230.749 73.6421 231.407 73.9141 231.892 74.3984C232.378 74.8826 232.65 75.5394 232.65 76.2242C232.65 76.909 232.378 77.5658 231.892 78.05C231.407 78.5343 230.749 78.8063 230.063 78.8063C229.972 78.8063 229.883 78.8016 229.793 78.7923C230.429 78.7258 231.018 78.4265 231.446 77.9523C231.874 77.4781 232.111 76.8625 232.111 76.2242Z"
    fill="#313038" />
  <path
    d="M225.746 85.4495C228.128 85.4495 230.059 84.2934 230.059 82.8674C230.059 81.4413 228.128 80.2853 225.746 80.2853C223.364 80.2853 221.434 81.4413 221.434 82.8674C221.434 84.2934 223.364 85.4495 225.746 85.4495Z"
    fill="#313038" />
</svg>
  