<svg width="40" height="40" viewBox="0 0 40 40" fill="none" xmlns="http://www.w3.org/2000/svg">
      <g clip-path="url(#clip0_5492_57633)">
            <path
                  d="M19.9518 0C18.8158 0.00536898 17.6805 0.0559646 16.5485 0.151667C14.1626 0.349121 11.7955 0.730815 9.46849 1.29333C7.78188 1.7196 6.12545 2.25745 4.51016 2.90333L4.41016 2.94C4.41016 2.94 4.60682 15.0117 4.76016 20.9917C4.79966 22.7523 5.11979 24.4953 5.70849 26.155C6.38977 28.0433 7.29751 29.8419 8.41182 31.5117C9.57763 33.2359 10.9879 34.7815 12.5985 36.1C13.2281 36.6281 13.8917 37.1141 14.5852 37.555C15.6727 38.2121 16.8081 38.7865 17.9818 39.2733C18.3702 39.4367 18.7085 39.5933 19.0152 39.6983C19.3358 39.8209 19.6643 39.9217 19.9985 40C20.3327 39.9211 20.6612 39.8198 20.9818 39.6967C21.2852 39.5917 21.6268 39.4367 22.0152 39.2717C23.1882 38.7847 24.3231 38.2103 25.4102 37.5533C26.1047 37.1125 26.7695 36.6265 27.4002 36.0983C29.0101 34.7803 30.4198 33.2353 31.5852 31.5117C32.6996 29.842 33.6074 28.0433 34.2885 26.155C34.8778 24.4954 35.1985 22.7523 35.2385 20.9917C35.3902 15.0117 35.5885 2.94667 35.5885 2.94667C35.5576 2.93067 35.5259 2.91621 35.4935 2.90333C33.8777 2.25737 32.2207 1.71952 30.5335 1.29333C28.2064 0.731363 25.8394 0.350226 23.4535 0.153333C22.3215 0.0577471 21.1862 0.00659672 20.0502 0L19.9518 0ZM19.9518 0.601667H20.0468C21.1785 0.615 22.1935 0.651667 23.3185 0.751667C25.6126 0.942617 27.8884 1.31207 30.1252 1.85667C31.7476 2.27033 33.3406 2.79205 34.8935 3.41833C34.9258 3.43062 34.9575 3.44453 34.9885 3.46L34.9252 7.25C34.9152 7.24345 34.9046 7.23787 34.8935 7.23333C33.3412 6.60721 31.7487 6.08549 30.1268 5.67167C27.8895 5.12771 25.6131 4.75882 23.3185 4.56833C22.1935 4.46833 21.1835 4.40167 20.0518 4.38833H19.9552C18.8235 4.40333 17.8052 4.46833 16.6802 4.56833C14.3859 4.76053 12.1102 5.1311 9.87349 5.67667C8.25099 6.09095 6.65799 6.61323 5.10516 7.24C5.09353 7.24447 5.08237 7.25005 5.07182 7.25667L5.00849 3.455L5.10516 3.41833C6.65746 2.7921 8.2499 2.27038 9.87182 1.85667C12.1096 1.31131 14.3865 0.9413 16.6818 0.75C17.8068 0.65 18.8202 0.616667 19.9518 0.601667ZM20.4318 0.961667C19.9307 0.95252 19.4294 0.956966 18.9285 0.975C18.7268 0.983333 18.4485 1.15667 18.4452 1.35833L18.4335 2.43833C18.4302 2.65833 18.7202 2.83167 18.9418 2.83667C19.7118 2.85333 20.3918 2.84 21.1385 2.88667C21.1935 2.89167 21.2418 2.925 21.2418 2.98L21.2368 3.19667C21.2378 3.20684 21.2366 3.21711 21.2332 3.22675C21.2298 3.2364 21.2243 3.24518 21.2172 3.25249C21.2101 3.25979 21.2014 3.26545 21.1918 3.26905C21.1823 3.27265 21.172 3.27411 21.1618 3.27333C20.2935 3.27333 19.3852 3.23167 18.5068 3.30167C18.4602 3.305 18.4618 3.29333 18.4602 3.34L18.4202 3.98L18.4168 4.03C19.4615 3.96966 20.5088 3.96966 21.5535 4.03C21.6754 4.02629 21.7923 3.98093 21.8848 3.90148C21.9773 3.82202 22.0398 3.71326 22.0618 3.59333L22.0718 2.54833C22.0718 2.33333 21.8085 2.175 21.6368 2.165C20.9002 2.11833 20.0618 2.14333 19.3135 2.12333C19.3031 2.12292 19.2929 2.12041 19.2836 2.11595C19.2742 2.11149 19.2658 2.10517 19.259 2.09737C19.2521 2.08958 19.2469 2.08048 19.2437 2.07062C19.2404 2.06076 19.2392 2.05034 19.2402 2.04L19.2552 1.79833C19.2552 1.75167 19.2868 1.73833 19.3335 1.73667C20.0735 1.71 21.1785 1.745 21.9368 1.76833C21.9645 1.76366 21.9897 1.74942 22.0079 1.7281C22.0262 1.70679 22.0364 1.67974 22.0368 1.65167V1.12333C22.0368 1.095 21.9835 1.01167 21.9318 1.01C21.4321 0.987647 20.932 0.970423 20.4318 0.961667ZM17.2985 1.06833C16.5935 1.08167 15.0635 1.27667 14.1952 1.385L14.1902 4.4V4.43833L14.9735 4.33833C14.9768 4.33796 14.98 4.33688 14.9829 4.33515C14.9858 4.33343 14.9883 4.3311 14.9902 4.32833C14.9939 4.32363 14.9957 4.31766 14.9952 4.31167V3.44L16.5735 3.27C16.7118 3.245 16.8735 3.34667 17.0002 3.55167C17.1015 3.72501 17.1662 3.91731 17.1902 4.11667L17.9685 4.05833C17.9852 4.05833 18.0185 4.05833 18.0152 4.04167C17.9921 3.62148 17.809 3.22609 17.5035 2.93667C17.6052 2.8955 17.6916 2.82357 17.7504 2.73094C17.8093 2.6383 17.8378 2.52959 17.8318 2.42C17.84 2.1062 17.8278 1.79221 17.7952 1.48C17.7685 1.36603 17.7052 1.26397 17.6148 1.18958C17.5244 1.11519 17.4121 1.07258 17.2952 1.06833H17.2985ZM23.2818 1.1C23.1197 1.09381 22.9607 1.14638 22.8343 1.24805C22.7078 1.34972 22.6223 1.49364 22.5935 1.65333L22.5768 3.645C22.5821 3.75784 22.624 3.86588 22.6962 3.95278C22.7684 4.03968 22.8669 4.10072 22.9768 4.12667C23.9935 4.22167 24.9935 4.31333 26.1268 4.485C26.1452 4.485 26.1802 4.47333 26.1802 4.45667V3.76333C26.1802 3.74833 26.1468 3.71667 26.1352 3.71333C25.3785 3.61833 24.3802 3.485 23.4868 3.39167C23.4603 3.38524 23.4365 3.3704 23.4191 3.34938C23.4017 3.32836 23.3915 3.30227 23.3902 3.275V1.92167C23.3902 1.865 23.4735 1.835 23.5302 1.83833C24.4118 1.91167 25.2902 2.07167 26.1702 2.16667C26.1935 2.17 26.2302 2.155 26.2318 2.13167L26.2485 1.495C26.2474 1.48187 26.2421 1.46945 26.2334 1.45955C26.2247 1.44965 26.213 1.4428 26.2002 1.44C25.2308 1.30314 24.2566 1.18977 23.2818 1.1ZM26.5818 1.495C26.5618 1.495 26.5452 1.51833 26.5452 1.53667C26.5352 1.99333 26.4702 3.965 26.4568 4.49V4.535C26.7152 4.58 27.0002 4.615 27.2118 4.65833C27.2352 4.66167 27.2702 4.645 27.2702 4.62167C27.2668 4.27667 27.2702 3.875 27.2635 3.56167C27.2635 3.54 27.2735 3.53833 27.2968 3.54167C27.9112 3.65292 28.5235 3.77516 29.1335 3.90833C29.1468 3.90833 29.2202 3.92 29.2202 3.95833C29.2152 4.32 29.2085 4.625 29.1985 4.98667C29.198 5.00111 29.2021 5.01534 29.2101 5.02732C29.2182 5.0393 29.2299 5.04841 29.2435 5.05333C29.4852 5.10833 29.7152 5.165 29.9435 5.22C30.0052 5.23333 30.0152 5.22167 30.0168 5.2C30.0535 4.44833 30.0668 3.24333 30.0768 2.22667C30.0768 2.21333 30.0718 2.19333 30.0602 2.19C29.8052 2.13167 29.5652 2.07 29.3052 2.015C29.2818 2.01 29.2685 2.04833 29.2668 2.07333C29.2418 2.445 29.2518 2.79 29.2235 3.16C29.2235 3.17333 29.2235 3.18 29.2085 3.17667C28.5918 3.05 27.9335 2.91333 27.3218 2.79833C27.3052 2.795 27.3118 2.765 27.3135 2.74667L27.3185 1.65833C27.3177 1.64643 27.313 1.63511 27.3052 1.62609C27.2974 1.61707 27.2868 1.61084 27.2752 1.60833C27.0438 1.56845 26.8138 1.53067 26.5818 1.495ZM13.2218 1.53333C13.2013 1.53208 13.1807 1.53208 13.1602 1.53333C12.2552 1.67667 11.3452 1.86833 10.4268 2.06667C10.2796 2.10933 10.1469 2.1918 10.0435 2.305C9.94688 2.39421 9.88638 2.5158 9.87349 2.64667L9.88016 4.51C9.8872 4.67351 9.94948 4.8298 10.0568 4.95333C10.0934 5.01011 10.1438 5.0567 10.2032 5.08876C10.2627 5.12082 10.3293 5.1373 10.3968 5.13667C11.3001 4.93764 12.2075 4.75815 13.1185 4.59833C13.2935 4.55703 13.4502 4.45992 13.5652 4.32167C13.6634 4.21734 13.7213 4.08145 13.7285 3.93833L13.7252 2C13.7193 1.93526 13.6999 1.87246 13.6683 1.81563C13.6368 1.75881 13.5937 1.7092 13.5418 1.67C13.4547 1.58955 13.342 1.54235 13.2235 1.53667L13.2218 1.53333ZM16.8168 1.86167C16.8496 1.8598 16.8819 1.87075 16.9067 1.89221C16.9316 1.91367 16.9472 1.94395 16.9502 1.97667L16.9552 2.29167C16.954 2.35758 16.9302 2.42108 16.8877 2.47148C16.8452 2.52187 16.7866 2.55608 16.7218 2.56833L14.9518 2.74167L14.9368 2.72833V2.05L14.9518 2.04333L16.8035 1.86333C16.8079 1.8631 16.8124 1.8631 16.8168 1.86333V1.86167ZM12.6168 2.345C12.6625 2.34636 12.7072 2.35896 12.7468 2.38167C12.7763 2.40038 12.8001 2.42664 12.816 2.45771C12.8318 2.48878 12.839 2.52353 12.8368 2.55833L12.8218 3.73167C12.8233 3.76526 12.8167 3.79873 12.8025 3.8292C12.7883 3.85968 12.7669 3.88625 12.7402 3.90667C12.6802 3.9474 12.6118 3.97416 12.5402 3.985C11.9872 4.09515 11.4332 4.20071 10.8785 4.30167C10.8535 4.30794 10.8274 4.30866 10.802 4.30376C10.7767 4.29887 10.7527 4.28848 10.7318 4.27333C10.7127 4.25036 10.6984 4.22375 10.6898 4.19511C10.6812 4.16647 10.6785 4.13638 10.6818 4.10667V2.89667C10.6828 2.83628 10.7066 2.7785 10.7485 2.735C10.8045 2.68356 10.8738 2.6489 10.9485 2.635C11.4318 2.545 12.0652 2.42 12.5618 2.34833C12.58 2.34541 12.5984 2.34429 12.6168 2.345ZM30.6335 2.345L30.6318 2.34667C30.6185 2.34667 30.6185 2.36667 30.6185 2.37833C30.5952 3.38833 30.5685 4.32333 30.5602 5.33333C30.5602 5.355 30.5702 5.38333 30.5902 5.38833C31.8081 5.71579 33.0086 6.10519 34.1868 6.555C34.2402 6.57333 34.2385 6.53333 34.2385 6.51833C34.2435 6.28833 34.2552 6.055 34.2435 5.825C34.2421 5.81296 34.2374 5.80152 34.2301 5.79185C34.2228 5.78219 34.213 5.77465 34.2018 5.77C33.2961 5.42113 32.3726 5.12015 31.4352 4.86833C31.4261 4.86525 31.4181 4.85943 31.4125 4.85167C31.4068 4.84392 31.4037 4.8346 31.4035 4.825L31.4168 4.525C31.4168 4.51167 31.4402 4.50833 31.4535 4.51167C32.393 4.77536 33.3215 5.07672 34.2368 5.415C34.2535 5.42 34.2535 5.39833 34.2535 5.38333C34.2654 5.12347 34.2654 4.8632 34.2535 4.60333C34.253 4.59359 34.2495 4.58424 34.2435 4.5765C34.2376 4.56877 34.2294 4.56301 34.2202 4.56C33.3222 4.23308 32.4114 3.9423 31.4902 3.68833C31.4768 3.685 31.4602 3.67167 31.4602 3.65833V3.33833C31.4602 3.325 31.4818 3.31667 31.4952 3.32167C32.4352 3.56167 33.4685 3.92167 34.1868 4.18667C34.2502 4.21 34.2868 4.2 34.2868 4.14167C34.2868 3.88 34.2968 3.86167 34.2835 3.60167C34.2802 3.56833 34.2768 3.535 34.2468 3.52333C33.0637 3.06651 31.8569 2.67317 30.6318 2.345H30.6335ZM9.01682 2.45167C8.96973 2.45123 8.92275 2.45626 8.87682 2.46667C7.79349 2.74333 6.70516 3.15667 5.61682 3.55333C5.60194 3.56248 5.58957 3.57519 5.58084 3.59033C5.57211 3.60546 5.56729 3.62253 5.56682 3.64V6.08333L5.57182 6.63333C5.57182 6.63333 6.35682 6.33833 6.52682 6.28333C6.54849 6.27667 6.54849 6.255 6.54849 6.23167L6.53182 5.365C6.53182 5.34 6.53516 5.30333 6.55849 5.29833L9.26682 4.46167C9.35793 4.42855 9.43771 4.37016 9.49682 4.29333C9.55582 4.21979 9.58656 4.12757 9.58349 4.03333L9.55516 2.895C9.54811 2.8291 9.5267 2.76555 9.49243 2.70882C9.45816 2.65209 9.41187 2.60357 9.35682 2.56667C9.25744 2.4956 9.13897 2.45611 9.01682 2.45333V2.45167ZM8.54016 3.27833C8.60016 3.26167 8.65682 3.33 8.66016 3.38333C8.67617 3.52162 8.68285 3.66082 8.68016 3.8C8.67849 3.875 8.57016 3.96167 8.49682 3.98333L6.52349 4.62667C6.50516 4.63333 6.47182 4.62667 6.47182 4.60667L6.47516 4.01C6.47516 3.98167 6.50849 3.95833 6.53516 3.95C7.18974 3.687 7.85923 3.46272 8.54016 3.27833ZM20.1518 4.91333C21.2402 4.93 22.2285 4.96333 23.3185 5.06C25.6121 5.25108 27.8873 5.62053 30.1235 6.165C31.746 6.57852 33.339 7.10025 34.8918 7.72667C34.8999 7.72998 34.9077 7.73388 34.9152 7.73833C34.9106 7.98721 34.9068 8.2361 34.9035 8.485H20.1518V4.91333ZM19.6235 4.91667L19.6218 12.6133H14.7102C14.6385 12.6067 14.6852 12.575 14.7352 12.5267C15.087 12.2638 15.4948 12.0859 15.9268 12.0067C15.9635 12.0033 15.9735 11.9833 15.9218 11.9167C15.7227 11.7181 15.4717 11.5797 15.1976 11.5172C14.9235 11.4547 14.6373 11.4707 14.3718 11.5633C14.1332 11.6403 13.9155 11.7709 13.7352 11.9451C13.5549 12.1193 13.4169 12.3325 13.3318 12.5683C13.3284 12.5833 13.3198 12.5966 13.3077 12.606C13.2956 12.6155 13.2805 12.6204 13.2652 12.62C13.0044 12.6363 12.7431 12.6436 12.4818 12.6417C12.4402 12.6417 12.4202 12.5883 12.4235 12.5483C12.4577 12.3816 12.5262 12.2238 12.6246 12.0849C12.723 11.9461 12.8492 11.8292 12.9952 11.7417C13.2538 11.5713 13.5514 11.4692 13.8602 11.445C13.8706 11.4419 13.88 11.4363 13.8878 11.4287C13.8955 11.421 13.9013 11.4117 13.9046 11.4013C13.9079 11.391 13.9086 11.38 13.9066 11.3693C13.9047 11.3586 13.9002 11.3485 13.8935 11.34C13.8425 11.2806 13.7836 11.2284 13.7185 11.185C13.4617 11.0465 13.1649 11.0012 12.8785 11.0567C12.4684 11.0964 12.0854 11.2792 11.7966 11.5729C11.5077 11.8667 11.3314 12.2527 11.2985 12.6633C11.2818 12.7633 11.3085 12.7867 11.2102 12.82C11.0235 12.8833 10.6735 12.9267 10.4868 12.9667C10.4535 12.9717 10.4035 12.895 10.4118 12.8617C10.4811 12.5451 10.62 12.2479 10.8185 11.9917C10.9695 11.7891 11.1644 11.6233 11.3885 11.5067C11.4318 11.485 11.4718 11.4333 11.4318 11.4C11.0102 11.0333 10.1468 11.42 9.79849 11.8017C9.46958 12.2363 9.30701 12.7743 9.34016 13.3183C9.34016 13.345 9.36349 13.3867 9.34016 13.3967C9.12164 13.4896 8.89921 13.573 8.67349 13.6467C8.65349 13.6517 8.65016 13.6 8.64682 13.58C8.58013 13.1864 8.66789 12.7822 8.89182 12.4517C8.98968 12.2843 9.12996 12.1458 9.29849 12.05C9.31516 12.04 9.31182 12.02 9.29849 12.0033C9.10682 11.755 8.35016 11.9333 8.11849 12.16C7.58516 12.68 7.62349 13.185 7.59849 13.9883C7.59682 14.0267 7.54849 14.1733 7.50516 14.1933C7.41047 14.2497 7.3067 14.2892 7.19849 14.31C7.16349 14.32 7.16016 14.3333 7.15182 14.2983C7.12303 14.2046 7.0734 14.1186 7.00665 14.0467C6.93989 13.9749 6.85774 13.919 6.76636 13.8835C6.67497 13.8479 6.57671 13.8334 6.47894 13.8412C6.38118 13.849 6.28644 13.8787 6.20182 13.9283C6.13038 13.9743 6.06964 14.035 6.02369 14.1064C5.97775 14.1779 5.94767 14.2583 5.93551 14.3424C5.92334 14.4265 5.92936 14.5122 5.95317 14.5937C5.97697 14.6752 6.018 14.7507 6.07349 14.815C6.09849 14.8433 6.10682 14.8717 6.06849 14.8833C5.97936 14.9108 5.8966 14.9557 5.82509 15.0156C5.75357 15.0754 5.69474 15.149 5.65204 15.2319C5.60935 15.3148 5.58365 15.4054 5.57645 15.4984C5.56926 15.5914 5.58072 15.6848 5.61016 15.7733C5.65025 15.8728 5.71805 15.9586 5.8055 16.0207C5.89295 16.0827 5.99638 16.1183 6.10349 16.1233C6.32283 16.1295 6.53855 16.0665 6.72016 15.9433C6.72782 15.9379 6.73648 15.9339 6.74565 15.9318C6.75482 15.9297 6.76432 15.9294 6.77361 15.9309C6.7829 15.9325 6.79179 15.9359 6.79977 15.9408C6.80776 15.9458 6.81469 15.9523 6.82016 15.96C6.91024 16.1046 7.05401 16.2076 7.21992 16.2463C7.38583 16.2851 7.56034 16.2564 7.70516 16.1667C7.97516 15.9883 8.09516 15.7117 7.89516 15.235C7.88349 15.2083 7.92849 15.1583 7.95182 15.145C9.54851 14.226 11.35 13.7217 13.1918 13.6783C13.4515 13.7008 13.707 13.7574 13.9518 13.8467C13.9651 13.8494 13.978 13.8539 13.9902 13.86L13.9935 15.4283C13.9762 15.4443 13.9572 15.4583 13.9368 15.47C13.5948 15.6795 13.3393 16.0048 13.2168 16.3867C13.2102 16.415 13.2068 16.4217 13.1585 16.4267C12.8368 16.4583 12.4935 16.505 12.1735 16.53C12.1552 16.5333 12.1202 16.4983 12.1268 16.48C12.3587 15.86 12.7819 15.33 13.3352 14.9667C13.3495 14.9523 13.3589 14.9337 13.3619 14.9136C13.3649 14.8935 13.3614 14.8729 13.3518 14.855C13.2735 14.7799 13.177 14.7265 13.0718 14.7C12.7935 14.6789 12.5141 14.7223 12.2553 14.827C11.9966 14.9316 11.7655 15.0947 11.5802 15.3033C11.248 15.7173 11.0648 16.231 11.0602 16.7617C11.0585 16.7983 11.0652 16.8583 11.0285 16.87C10.8218 16.935 10.5935 16.9933 10.3785 17.0533C10.3535 17.06 10.3202 17.035 10.3152 17.0083C10.2609 16.6739 10.3092 16.3308 10.4538 16.0243C10.5984 15.7179 10.8325 15.4624 11.1252 15.2917C11.2102 15.225 11.0618 15.1217 10.9552 15.1217C10.6431 15.1047 10.3328 15.1793 10.0625 15.3362C9.79218 15.4932 9.57357 15.7256 9.43349 16.005C9.27959 16.4296 9.26211 16.8917 9.38349 17.3267C9.38849 17.365 9.41516 17.4317 9.37349 17.4417C9.24182 17.4733 8.93182 17.5917 8.83516 17.6217C8.80016 17.6333 8.77682 17.6167 8.75682 17.5717C8.68082 17.3072 8.66882 17.0284 8.72182 16.7583C8.79732 16.4505 8.95119 16.1674 9.16849 15.9367C9.18182 15.92 9.18682 15.8833 9.16849 15.875C8.97041 15.7855 8.74663 15.7707 8.53849 15.8333C8.36858 15.8764 8.2098 15.9551 8.07271 16.0643C7.93563 16.1735 7.82339 16.3107 7.74349 16.4667C7.47849 16.9617 7.54682 17.4383 7.82849 18.1417C7.84182 18.175 7.85849 18.2383 7.82849 18.2583L7.60016 18.3917C7.57182 18.4133 7.54682 18.395 7.52682 18.3667C7.43516 18.2367 7.32016 18.03 7.17682 17.9667C7.06391 17.9104 6.93776 17.8861 6.81202 17.8964C6.68629 17.9067 6.56577 17.9511 6.46349 18.025C6.36346 18.112 6.29117 18.2264 6.25562 18.3541C6.22006 18.4818 6.2228 18.6172 6.26349 18.7433C6.31009 18.8333 6.36595 18.9182 6.43016 18.9967C6.44682 19.02 6.42849 19.0567 6.40849 19.075C6.31016 19.1617 6.17516 19.225 6.09516 19.3083C6.00844 19.42 5.95999 19.5567 5.95699 19.6981C5.95398 19.8395 5.99659 19.9781 6.07849 20.0933C6.15992 20.2097 6.27949 20.2938 6.41647 20.3313C6.55344 20.3687 6.6992 20.3571 6.82849 20.2983C6.96265 20.2411 7.09196 20.1731 7.21516 20.095C7.26016 20.065 7.29016 20.01 7.33182 20.0533C7.43283 20.1684 7.56124 20.2561 7.70516 20.3083C7.8051 20.335 7.90966 20.3396 8.01156 20.3218C8.11345 20.3039 8.21023 20.2641 8.29516 20.205C8.39828 20.1562 8.48198 20.074 8.53276 19.9718C8.58355 19.8697 8.59849 19.7534 8.57516 19.6417C8.52272 19.4788 8.44204 19.3265 8.33682 19.1917C8.28182 19.1333 8.27849 19.1367 8.33682 19.1017C9.20643 18.5882 10.1355 18.183 11.1035 17.895C12.0159 17.6206 12.9685 17.5039 13.9202 17.55H13.9968L14.0018 20.7983H5.34182C5.25182 17.2433 5.14849 11.615 5.08182 7.73833C5.08932 7.73391 5.09712 7.73001 5.10516 7.72667C6.65741 7.10031 8.24986 6.57858 9.87182 6.165C12.1086 5.62044 14.3843 5.25098 16.6785 5.06C17.6586 4.97504 18.6415 4.92723 19.6252 4.91667H19.6235ZM14.4768 6.27667C14.0617 6.28629 13.6591 6.42106 13.3218 6.66333C12.8452 6.97667 12.5618 7.95167 12.5052 8.3C12.5023 8.31597 12.4941 8.33052 12.4821 8.34138C12.47 8.35224 12.4547 8.35879 12.4385 8.36C12.0593 8.40785 11.6831 8.47741 11.3118 8.56833C11.3002 8.57 11.2918 8.55167 11.2918 8.54C11.3207 8.17324 11.4721 7.82687 11.7218 7.55667C11.9753 7.31237 12.2503 7.09147 12.5435 6.89667C12.5652 6.87833 12.5502 6.82167 12.5235 6.81167C12.3117 6.72704 12.0853 6.68523 11.8573 6.68866C11.6293 6.6921 11.4043 6.7407 11.1952 6.83167C10.9001 6.95678 10.6419 7.15519 10.445 7.40807C10.2481 7.66096 10.1191 7.95994 10.0702 8.27667C10.0313 8.50227 10.0151 8.73118 10.0218 8.96C10.0252 8.98833 9.97182 8.99 9.94682 8.99833C9.53682 9.12667 9.10682 9.27667 8.76349 9.39167C8.74682 9.39833 8.69849 9.395 8.69849 9.375C8.68564 8.99028 8.78714 8.61038 8.99016 8.28333C9.19016 7.95833 9.56182 7.775 9.83182 7.50167C9.85016 7.48167 9.87849 7.42833 9.85016 7.41667C9.16682 7.14167 8.52182 7.42333 7.97682 8.04167C7.79229 8.31275 7.66719 8.61981 7.60974 8.94267C7.55229 9.26553 7.56379 9.5969 7.64349 9.915C7.65849 9.975 7.64349 10.04 7.61182 10.0533C7.48758 10.1115 7.3595 10.161 7.22849 10.2017C7.22269 10.2037 7.21651 10.2044 7.21039 10.2038C7.20428 10.2031 7.19838 10.2012 7.19313 10.198C7.18787 10.1948 7.18338 10.1905 7.17999 10.1854C7.17659 10.1802 7.17437 10.1744 7.17349 10.1683C7.01849 9.675 6.44016 9.77167 6.17849 9.92167C6.0402 9.99951 5.93826 10.1288 5.89487 10.2815C5.85148 10.4341 5.87015 10.5977 5.94682 10.7367C5.95075 10.7425 5.95344 10.7491 5.95473 10.756C5.95602 10.7629 5.95588 10.7701 5.95432 10.7769C5.95276 10.7838 5.94981 10.7903 5.94565 10.796C5.9415 10.8016 5.93623 10.8064 5.93016 10.81C5.84194 10.8522 5.76299 10.9115 5.69793 10.9844C5.63286 11.0574 5.58297 11.1426 5.55117 11.2351C5.51937 11.3275 5.50629 11.4254 5.5127 11.523C5.5191 11.6205 5.54487 11.7158 5.58849 11.8033C5.66214 11.9186 5.77373 12.0045 5.90398 12.0461C6.03423 12.0878 6.17495 12.0827 6.30182 12.0317C6.4463 11.976 6.58388 11.9039 6.71182 11.8167C6.71987 11.8127 6.72893 11.8111 6.73784 11.8123C6.74676 11.8135 6.75511 11.8174 6.76182 11.8233C6.81337 11.8961 6.87924 11.9576 6.9554 12.0041C7.03157 12.0505 7.11641 12.0809 7.20474 12.0934C7.29307 12.1059 7.38301 12.1002 7.46906 12.0767C7.55511 12.0532 7.63545 12.0123 7.70516 11.9567C7.89682 11.82 7.97182 11.7967 8.04516 11.55C8.05607 11.4608 8.04837 11.3703 8.02256 11.2843C7.99674 11.1982 7.95336 11.1184 7.89516 11.05C7.87516 11.0333 7.89349 10.9833 7.91682 10.9717C10.0832 9.85567 12.474 9.2443 14.9102 9.18333C15.7945 9.20953 16.644 9.53439 17.3202 10.105C17.3316 10.1216 17.3471 10.1351 17.3652 10.1441C17.3833 10.1531 17.4033 10.1574 17.4235 10.1567C17.4441 10.1481 17.4627 10.1354 17.4781 10.1193C17.4936 10.1033 17.5057 10.0842 17.5135 10.0633C17.57 9.86214 17.5681 9.649 17.5078 9.44888C17.4476 9.24876 17.3317 9.06993 17.1735 8.93333C16.8976 8.64562 16.5427 8.44611 16.1535 8.36C16.1335 8.355 16.1202 8.31167 16.1368 8.29833C16.2953 8.1385 16.4855 8.0136 16.6952 7.93167C17.0283 7.87545 17.3656 7.84757 17.7035 7.84833C17.7268 7.84667 17.7618 7.82333 17.7535 7.80167C17.6874 7.61738 17.5693 7.45625 17.4133 7.33789C17.2574 7.21953 17.0704 7.14904 16.8752 7.135C16.4822 7.08599 16.0832 7.14355 15.7202 7.30167C15.3451 7.5045 15.051 7.82982 14.8868 8.22333C14.8819 8.23328 14.8743 8.24166 14.8649 8.24755C14.8555 8.25343 14.8446 8.25659 14.8335 8.25667C14.5036 8.2447 14.1735 8.24081 13.8435 8.245C13.8202 8.245 13.7852 8.245 13.7852 8.22167C13.8334 7.89712 13.982 7.59582 14.2102 7.36C14.5416 7.07268 14.9269 6.85401 15.3435 6.71667C15.3752 6.70667 15.4102 6.65667 15.3918 6.63167C15.3048 6.51145 15.1898 6.41421 15.0568 6.34833C14.8682 6.29831 14.6735 6.2753 14.4785 6.28L14.4768 6.27667ZM20.1518 8.955H34.8935C34.8735 10.0983 34.8518 11.3433 34.8268 12.6133H20.1518V8.955ZM14.4668 13.0017L25.5768 13.0067C25.5834 13.0061 25.5899 13.0081 25.5951 13.0121C25.6004 13.0161 25.6039 13.0219 25.6052 13.0283L25.6018 21.5917C25.5935 22.0264 25.5129 22.4567 25.3635 22.865C24.9211 24.0727 24.0727 25.089 22.9635 25.74C22.0862 26.2644 21.0855 26.5468 20.0635 26.5583C18.6779 26.5415 17.3431 26.0336 16.2968 25.125C15.7315 24.6531 15.2744 24.0649 14.9566 23.4006C14.6388 22.7363 14.4678 22.0113 14.4552 21.275L14.4435 13.0333C14.4435 13.0117 14.4452 13.0017 14.4668 13.0017ZM26.1235 13.145H34.8185C34.7985 14.22 34.7768 15.305 34.7618 16.355H26.1235V13.8633V13.145ZM14.7252 13.2633C14.7035 13.2633 14.7018 13.2717 14.7018 13.2933L14.7135 21.215C14.7241 21.9228 14.8864 22.62 15.1895 23.2598C15.4925 23.8995 15.9292 24.4668 16.4702 24.9233C17.4641 25.7952 18.7365 26.2839 20.0585 26.3017C21.0345 26.2903 21.9897 26.0181 22.8252 25.5133C23.886 24.8843 24.6955 23.9064 25.1152 22.7467C25.2574 22.3541 25.334 21.9408 25.3418 21.5233L25.3452 13.29C25.3449 13.2867 25.3441 13.2835 25.3426 13.2806C25.3412 13.2776 25.3391 13.275 25.3367 13.2728C25.3342 13.2706 25.3313 13.269 25.3282 13.2679C25.3251 13.2669 25.3218 13.2664 25.3185 13.2667L14.7252 13.2633ZM22.1185 13.77C22.1179 13.77 22.119 13.77 22.1185 13.77C22.1511 13.7749 22.1834 13.7884 22.2089 13.8093C22.2344 13.8301 22.2538 13.8574 22.2652 13.8883L22.6685 15.08C22.6767 15.0985 22.6805 15.1187 22.6796 15.1389C22.6788 15.1592 22.6732 15.1789 22.6635 15.1967C22.6526 15.2099 22.6388 15.2204 22.6232 15.2273C22.6076 15.2342 22.5906 15.2375 22.5735 15.2367C22.5505 15.2372 22.5279 15.2304 22.509 15.2172C22.4901 15.204 22.4759 15.1851 22.4685 15.1633L22.4052 14.955H21.8552L21.7952 15.1683C21.7785 15.235 21.7285 15.2417 21.6768 15.2417C21.662 15.2396 21.6478 15.2343 21.6351 15.2263C21.6225 15.2182 21.6117 15.2076 21.6035 15.195C21.5939 15.183 21.5874 15.1688 21.5845 15.1537C21.5816 15.1386 21.5824 15.123 21.5868 15.1083L21.9735 13.895C21.9821 13.8619 22.0006 13.8322 22.0265 13.8099C22.0524 13.7875 22.0845 13.7736 22.1185 13.77ZM20.8468 13.7817C20.8596 13.781 20.8724 13.781 20.8852 13.7817C20.9701 13.7761 21.0546 13.7987 21.1254 13.846C21.1963 13.8933 21.2495 13.9627 21.2768 14.0433C21.2802 14.0532 21.2815 14.0636 21.2806 14.0739C21.2798 14.0843 21.2769 14.0944 21.2721 14.1036C21.2672 14.1128 21.2606 14.1209 21.2525 14.1274C21.2445 14.134 21.2351 14.1388 21.2252 14.1417C21.2051 14.1521 21.1819 14.1544 21.1602 14.1482C21.1385 14.142 21.12 14.1277 21.1085 14.1083C21.0874 14.0668 21.0562 14.0313 21.0177 14.0051C20.9793 13.9789 20.9348 13.9628 20.8885 13.9583C20.8393 13.9613 20.792 13.9787 20.7526 14.0084C20.7132 14.038 20.6834 14.0786 20.6668 14.125C20.608 14.2396 20.5766 14.3662 20.5752 14.495C20.5719 14.6258 20.5981 14.7557 20.6518 14.875C20.6716 14.9265 20.7069 14.9706 20.7529 15.0011C20.799 15.0316 20.8533 15.0469 20.9085 15.045C20.9942 15.0196 21.0685 14.9655 21.1189 14.8917C21.1693 14.8179 21.1927 14.729 21.1852 14.64V14.575H20.9602C20.9465 14.5756 20.9329 14.5732 20.9203 14.568C20.9076 14.5628 20.8963 14.555 20.8869 14.545C20.8776 14.5351 20.8705 14.5232 20.8662 14.5102C20.8619 14.4973 20.8604 14.4836 20.8618 14.47C20.8618 14.4317 20.8735 14.3867 20.9602 14.3867H21.2802C21.3868 14.3867 21.4018 14.4667 21.4018 14.5367C21.4039 14.6215 21.3977 14.7063 21.3835 14.79C21.3503 14.947 21.2615 15.0867 21.1335 15.1833C21.0579 15.2288 20.9717 15.2535 20.8835 15.255C20.8042 15.2537 20.7269 15.2304 20.6601 15.1877C20.5933 15.145 20.5397 15.0847 20.5052 15.0133C20.4202 14.8547 20.3782 14.6766 20.3835 14.4967C20.3802 14.3187 20.4263 14.1433 20.5168 13.99C20.5476 13.9284 20.5946 13.8765 20.6527 13.8398C20.7109 13.803 20.778 13.7829 20.8468 13.7817ZM15.8668 13.785C15.869 13.785 15.8713 13.785 15.8735 13.785C16.1785 13.7883 16.2785 13.97 16.2785 14.035C16.2785 14.0933 16.1768 14.1683 16.1202 14.1C16.0876 14.0629 16.0473 14.0335 16.0021 14.0139C15.9568 13.9943 15.9078 13.985 15.8585 13.9867C15.8049 13.9811 15.7509 13.9939 15.7055 14.023C15.6601 14.0521 15.6259 14.0957 15.6085 14.1467C15.6035 14.1718 15.6036 14.1976 15.6088 14.2227C15.614 14.2478 15.6242 14.2715 15.6389 14.2926C15.6535 14.3136 15.6722 14.3314 15.6939 14.345C15.7156 14.3586 15.7399 14.3677 15.7652 14.3717C15.9218 14.3812 16.0741 14.4268 16.2102 14.505H16.2085C16.2548 14.5393 16.2915 14.5849 16.3151 14.6374C16.3388 14.6899 16.3485 14.7476 16.3435 14.805C16.346 14.9131 16.3059 15.0179 16.2318 15.0967C16.177 15.1482 16.1122 15.1878 16.0413 15.2131C15.9705 15.2383 15.8952 15.2486 15.8202 15.2433C15.733 15.2465 15.6466 15.2266 15.5696 15.1856C15.4926 15.1446 15.4279 15.0841 15.3818 15.01C15.3752 14.9933 15.3652 14.905 15.4385 14.88C15.4631 14.8742 15.4887 14.8752 15.5128 14.8828C15.5368 14.8905 15.5584 14.9045 15.5752 14.9233C15.6462 14.9887 15.7386 15.026 15.8352 15.0283C15.9247 15.0312 16.0123 15.0016 16.0818 14.945C16.1072 14.9205 16.1246 14.889 16.1317 14.8545C16.1388 14.82 16.1354 14.7842 16.1218 14.7517C16.087 14.6989 16.039 14.6561 15.9826 14.6275C15.9262 14.5988 15.8633 14.5854 15.8002 14.5883C15.6932 14.5877 15.5905 14.5459 15.5135 14.4717C15.472 14.4286 15.4403 14.3772 15.4204 14.3208C15.4006 14.2645 15.3931 14.2045 15.3985 14.145C15.4039 14.0901 15.4217 14.0371 15.4506 13.99C15.4795 13.943 15.5186 13.9031 15.5652 13.8733C15.6545 13.8141 15.7596 13.7833 15.8668 13.785ZM18.6152 13.785C18.6146 13.785 18.6157 13.785 18.6152 13.785C18.6185 13.7848 18.6235 13.7848 18.6268 13.785H19.2185C19.245 13.785 19.2704 13.7955 19.2892 13.8143C19.308 13.833 19.3185 13.8585 19.3185 13.885C19.3185 13.9115 19.308 13.937 19.2892 13.9557C19.2704 13.9745 19.245 13.985 19.2185 13.985L19.0285 13.9883V15.125C19.0253 15.1504 19.0129 15.1737 18.9937 15.1906C18.9746 15.2075 18.9499 15.2168 18.9243 15.2168C18.8988 15.2168 18.8741 15.2075 18.8549 15.1906C18.8357 15.1737 18.8234 15.1504 18.8202 15.125V13.9867H18.6268C18.6003 13.9882 18.5743 13.9792 18.5544 13.9615C18.5346 13.9438 18.5225 13.919 18.521 13.8925C18.5194 13.866 18.5285 13.8399 18.5462 13.8201C18.5638 13.8002 18.5886 13.7882 18.6152 13.7867V13.785ZM19.5485 13.785C19.549 13.785 19.5496 13.785 19.5502 13.785C19.5535 13.7848 19.5568 13.7848 19.5602 13.785H20.1502C20.1767 13.785 20.2021 13.7955 20.2209 13.8143C20.2396 13.833 20.2502 13.8585 20.2502 13.885C20.2502 13.9115 20.2396 13.937 20.2209 13.9557C20.2021 13.9745 20.1767 13.985 20.1502 13.985L19.9602 13.9883V15.125C19.9569 15.1504 19.9446 15.1737 19.9254 15.1906C19.9062 15.2075 19.8816 15.2168 19.856 15.2168C19.8304 15.2168 19.8057 15.2075 19.7866 15.1906C19.7674 15.1737 19.755 15.1504 19.7518 15.125V13.9867H19.5602C19.5336 13.9882 19.5076 13.9792 19.4877 13.9615C19.4679 13.9438 19.4559 13.919 19.4543 13.8925C19.4528 13.866 19.4618 13.8399 19.4795 13.8201C19.4971 13.8002 19.522 13.7882 19.5485 13.7867V13.785ZM24.1152 13.785C24.1163 13.785 24.1174 13.785 24.1185 13.785C24.1218 13.7848 24.1252 13.7848 24.1285 13.785H24.7168C24.7433 13.785 24.7688 13.7955 24.7875 13.8143C24.8063 13.833 24.8168 13.8585 24.8168 13.885C24.8168 13.9115 24.8063 13.937 24.7875 13.9557C24.7688 13.9745 24.7433 13.985 24.7168 13.985L24.5302 13.9883V15.125C24.5269 15.1504 24.5146 15.1737 24.4954 15.1906C24.4762 15.2075 24.4516 15.2168 24.426 15.2168C24.4004 15.2168 24.3757 15.2075 24.3566 15.1906C24.3374 15.1737 24.325 15.1504 24.3218 15.125V13.9867H24.1285C24.102 13.9882 24.0759 13.9792 24.0561 13.9615C24.0362 13.9438 24.0242 13.919 24.0227 13.8925C24.0211 13.866 24.0302 13.8399 24.0478 13.8201C24.0655 13.8002 24.0903 13.7882 24.1168 13.7867L24.1152 13.785ZM22.9868 13.7917C22.9935 13.791 23.0002 13.791 23.0068 13.7917H23.3235C23.4462 13.7881 23.567 13.8218 23.6702 13.8883C23.7232 13.9292 23.7667 13.981 23.7978 14.0403C23.8289 14.0995 23.8467 14.1648 23.8502 14.2317C23.8574 14.2921 23.8505 14.3534 23.83 14.4106C23.8094 14.4679 23.7758 14.5196 23.7318 14.5617C23.6773 14.6178 23.6106 14.6606 23.5368 14.6867L23.5035 14.6983L23.7668 15.0317C23.7905 15.0571 23.8041 15.0903 23.8052 15.125C23.8018 15.1783 23.7668 15.2083 23.7052 15.2083C23.6871 15.2091 23.6691 15.2054 23.6529 15.1975C23.6366 15.1897 23.6225 15.1779 23.6118 15.1633L23.3002 14.7333H23.1052V15.1167C23.1072 15.1312 23.1059 15.1461 23.1015 15.1601C23.097 15.1741 23.0895 15.1869 23.0794 15.1977C23.0693 15.2084 23.057 15.2167 23.0433 15.222C23.0296 15.2273 23.0148 15.2295 23.0002 15.2283C22.9857 15.2289 22.9713 15.2264 22.9579 15.2208C22.9446 15.2153 22.9326 15.2069 22.9227 15.1963C22.9129 15.1857 22.9055 15.1731 22.901 15.1593C22.8966 15.1456 22.8951 15.131 22.8968 15.1167V13.9067C22.8951 13.8765 22.9046 13.8468 22.9235 13.8233C22.9403 13.8058 22.9627 13.7946 22.9868 13.7917ZM16.5368 13.795C16.5385 13.795 16.5402 13.795 16.5418 13.795H17.1368C17.1636 13.795 17.1892 13.8056 17.2081 13.8245C17.227 13.8434 17.2377 13.8691 17.2377 13.8958C17.2377 13.9226 17.227 13.9482 17.2081 13.9671C17.1892 13.986 17.1636 13.9967 17.1368 13.9967H16.9435V15.1367C16.9403 15.162 16.9279 15.1853 16.9087 15.2022C16.8896 15.2191 16.8649 15.2285 16.8393 15.2285C16.8138 15.2285 16.7891 15.2191 16.7699 15.2022C16.7507 15.1853 16.7384 15.162 16.7352 15.1367V13.9967H16.5418C16.5153 13.9973 16.4896 13.9874 16.4704 13.9691C16.4512 13.9509 16.44 13.9257 16.4393 13.8992C16.4387 13.8726 16.4486 13.8469 16.4668 13.8277C16.4851 13.8085 16.5103 13.7957 16.5368 13.795ZM17.5085 13.795C17.5096 13.795 17.5107 13.795 17.5118 13.795C17.526 13.7945 17.5402 13.797 17.5534 13.8022C17.5667 13.8073 17.5787 13.8152 17.5888 13.8251C17.599 13.8351 17.607 13.847 17.6124 13.8602C17.6177 13.8733 17.6204 13.8875 17.6202 13.9017V14.6867C17.6143 14.7749 17.6359 14.8628 17.6818 14.9383C17.7066 14.9702 17.7389 14.9955 17.7759 15.0118C17.8128 15.0281 17.8532 15.0349 17.8935 15.0317C17.9333 15.0356 17.9735 15.029 18.0101 15.0127C18.0466 14.9963 18.0782 14.9707 18.1018 14.9383C18.1456 14.8626 18.1659 14.7756 18.1602 14.6883V13.9C18.1634 13.8746 18.1774 13.8513 18.1966 13.8344C18.2157 13.8175 18.2404 13.8082 18.266 13.8082C18.2916 13.8082 18.3162 13.8175 18.3354 13.8344C18.3546 13.8513 18.3669 13.8746 18.3702 13.9V14.62C18.3817 14.7715 18.3493 14.9231 18.2768 15.0567C18.2343 15.1164 18.1768 15.1639 18.1101 15.1944C18.0434 15.2248 17.9698 15.2371 17.8968 15.23C17.8235 15.236 17.7498 15.2233 17.6827 15.193C17.6156 15.1626 17.5574 15.1157 17.5135 15.0567C17.4365 14.9246 17.401 14.7725 17.4118 14.62V13.9C17.4117 13.8735 17.4217 13.848 17.4396 13.8286C17.4575 13.8091 17.4821 13.7971 17.5085 13.795ZM23.0985 13.9867V14.5333H23.3152C23.3564 14.538 23.3982 14.534 23.4379 14.5216C23.4775 14.5093 23.5142 14.4888 23.5455 14.4615C23.5768 14.4343 23.6022 14.4008 23.6199 14.3632C23.6376 14.3257 23.6474 14.2849 23.6485 14.2433C23.6476 14.2088 23.6396 14.1749 23.625 14.1436C23.6104 14.1123 23.5894 14.0844 23.5635 14.0617C23.5342 14.0354 23.4999 14.0153 23.4627 14.0024C23.4255 13.9895 23.3861 13.9842 23.3468 13.9867H23.0985ZM22.1252 14.0117L21.8985 14.7933H22.3618L22.1252 14.0117ZM20.2252 15.6867C20.2435 15.6867 20.2602 15.69 20.2618 15.705C20.2652 15.735 20.2352 15.7533 20.1918 15.775C20.1272 15.8024 20.0725 15.8489 20.0352 15.9083C19.989 15.9912 19.9665 16.0852 19.9702 16.18C19.9765 16.2085 19.9892 16.2352 20.0074 16.258C20.0256 16.2808 20.0488 16.2992 20.0752 16.3117C20.149 16.3464 20.2303 16.3625 20.3118 16.3583C20.4377 16.3508 20.5601 16.3149 20.6702 16.2533C20.8186 16.2053 20.9764 16.1939 21.1302 16.22C21.2461 16.2212 21.3589 16.2578 21.4535 16.325C21.4935 16.3533 21.4868 16.3883 21.4718 16.3917C21.4485 16.4 21.4235 16.3717 21.3985 16.375C21.318 16.3831 21.2387 16.3999 21.1618 16.425C21.0618 16.47 21.0168 16.4867 20.9685 16.575C20.9492 16.6126 20.945 16.6561 20.9568 16.6967C20.9735 16.7367 21.0152 16.7633 21.0235 16.7917C21.0478 16.8663 21.0838 16.9366 21.1302 17C21.1456 17.0143 21.1623 17.0271 21.1802 17.0383C21.3461 17.1622 21.5031 17.2976 21.6502 17.4433C21.6823 17.4901 21.705 17.5428 21.7168 17.5983C21.7218 17.6183 21.7052 17.6483 21.6868 17.64C21.6654 17.6257 21.6453 17.6096 21.6268 17.5917C21.6017 17.5647 21.5717 17.5427 21.5385 17.5267C21.4456 17.489 21.3449 17.4747 21.2452 17.485C21.2002 17.485 21.1102 17.525 21.1618 17.545C21.2501 17.5901 21.3257 17.6566 21.3818 17.7383C21.5072 17.8802 21.5713 18.066 21.5602 18.255C21.5602 18.265 21.5402 18.2717 21.5352 18.265C21.4918 18.1932 21.4339 18.1313 21.3652 18.0833C21.264 18.0093 21.1403 17.9728 21.0152 17.98C20.9902 17.9817 20.9152 17.98 20.9235 18.0033C21.0018 18.1027 21.0705 18.2093 21.1285 18.3217C21.1884 18.4671 21.2108 18.6253 21.1935 18.7817C21.1918 18.79 21.1602 18.7983 21.1552 18.79C21.1162 18.7441 21.0733 18.7017 21.0268 18.6633C20.9803 18.6218 20.9274 18.5881 20.8702 18.5633C20.7549 18.5368 20.634 18.5534 20.5302 18.61C20.4381 18.6608 20.3628 18.7372 20.3135 18.83C20.2544 18.9349 20.2191 19.0516 20.2102 19.1717C20.1917 19.3182 20.2161 19.4669 20.2802 19.6C20.3504 19.7254 20.4625 19.8221 20.5968 19.8733C20.7766 19.9306 20.9651 19.9554 21.1535 19.9467C21.3852 19.955 21.6168 19.92 21.8485 19.9133C22.0681 19.8925 22.2892 19.8942 22.5085 19.9183C22.6861 19.9536 22.8556 20.0214 23.0085 20.1183C23.1333 20.2135 23.2529 20.3153 23.3668 20.4233C23.3802 20.4333 23.4102 20.4183 23.4252 20.4083C23.5346 20.3032 23.6106 20.1681 23.6435 20.02C23.6651 19.8765 23.6318 19.73 23.5502 19.61C23.4718 19.4683 23.3568 19.31 23.2668 19.16C23.1447 19.0025 23.0323 18.8378 22.9302 18.6667C22.8749 18.5518 22.8647 18.4203 22.9018 18.2983C22.9336 18.208 22.9969 18.1323 23.0802 18.085C23.0985 18.0733 23.1168 18.095 23.1085 18.12C23.0847 18.1793 23.08 18.2446 23.0952 18.3067C23.1232 18.3961 23.1744 18.4766 23.2435 18.54C23.2652 18.5567 23.3218 18.5317 23.3352 18.505C23.3652 18.4333 23.3468 18.3217 23.3735 18.2483C23.4072 18.1118 23.4684 17.9836 23.5535 17.8717C23.7373 17.7353 23.9392 17.6253 24.1535 17.545C24.2085 17.5133 24.2435 17.37 24.3052 17.3933C24.3668 17.415 24.3335 17.56 24.2868 17.63C24.2202 17.7333 24.1418 17.7967 24.0685 17.89C23.9684 18.0186 23.8807 18.1564 23.8068 18.3017C23.7665 18.3706 23.7495 18.4507 23.7585 18.53C23.766 18.5634 23.7808 18.5948 23.8018 18.6219C23.8229 18.649 23.8496 18.6711 23.8802 18.6867C23.9168 18.7033 23.9635 18.67 23.9968 18.645C24.0609 18.5983 24.1157 18.5401 24.1585 18.4733C24.1968 18.41 24.1752 18.325 24.2118 18.26C24.2218 18.245 24.2618 18.2483 24.2735 18.26C24.3136 18.2966 24.3395 18.3462 24.3468 18.4C24.3504 18.4633 24.3448 18.5267 24.3302 18.5883C24.3252 18.6017 24.2902 18.6333 24.2785 18.6633C24.2694 18.6865 24.2583 18.7088 24.2452 18.73C24.1852 18.835 24.1152 18.9233 24.0368 18.94C24.0202 18.9417 24.0085 18.975 24.0202 18.99C24.0656 19.0765 24.13 19.1517 24.2085 19.21C24.2475 19.2294 24.29 19.2408 24.3335 19.2437C24.377 19.2465 24.4206 19.2408 24.4618 19.2267C24.5068 19.2133 24.5418 19.1817 24.5935 19.165C24.6152 19.1583 24.6018 19.1717 24.6018 19.1933C24.6013 19.2421 24.5929 19.2906 24.5768 19.3367C24.55 19.3943 24.5064 19.4425 24.4518 19.475C24.3669 19.5229 24.2724 19.5514 24.1752 19.5583C24.1302 19.5667 24.0618 19.6 24.0785 19.6433C24.0928 19.6945 24.1165 19.7425 24.1485 19.785C24.1832 19.8227 24.2308 19.8459 24.2818 19.85C24.3559 19.8531 24.4291 19.8321 24.4902 19.79C24.5568 19.7467 24.5918 19.6667 24.6502 19.61C24.6618 19.6 24.6935 19.61 24.6935 19.6267C24.6912 19.7185 24.6678 19.8086 24.6252 19.89C24.5693 19.9796 24.4969 20.0576 24.4118 20.12C24.3868 20.1417 24.3568 20.1683 24.3568 20.2017C24.3697 20.2535 24.3948 20.3016 24.4302 20.3417C24.4631 20.3882 24.5126 20.4204 24.5685 20.4317C24.6236 20.4421 24.6801 20.4421 24.7352 20.4317C24.7568 20.4317 24.7518 20.47 24.7335 20.4833C24.68 20.5381 24.6126 20.5773 24.5385 20.5967C24.4697 20.6196 24.3962 20.6242 24.3252 20.61C24.1902 20.5767 24.1018 20.5267 23.9685 20.4883C23.8967 20.4609 23.8183 20.4557 23.7435 20.4733C23.672 20.5005 23.6104 20.5487 23.5668 20.6117C23.5408 20.6421 23.5236 20.6789 23.5168 20.7183C23.5068 20.8233 23.5585 20.935 23.5252 21.0383C23.4916 21.172 23.4465 21.3025 23.3902 21.4283C23.3334 21.5248 23.2693 21.6167 23.1985 21.7033C23.1318 21.7933 23.0435 21.8267 22.9985 21.925C22.9794 21.9612 22.9583 21.9962 22.9352 22.03C22.8738 22.148 22.8407 22.2787 22.8385 22.4117C22.8555 22.5379 22.9042 22.6577 22.9802 22.76L23.2352 23.155C23.2532 23.1987 23.2584 23.2467 23.2502 23.2933C23.2484 23.3173 23.2408 23.3405 23.228 23.3608C23.2153 23.3812 23.1977 23.398 23.1768 23.41C22.8384 23.6005 22.5878 23.9157 22.4785 24.2883L22.4752 24.31V24.3167C22.4689 24.3423 22.4569 24.3662 22.4402 24.3867C22.3549 24.4731 22.2437 24.5293 22.1235 24.5467C22.0318 24.5717 21.9402 24.595 21.8485 24.6233C21.8186 24.6312 21.7926 24.6495 21.7752 24.675C21.7595 24.6998 21.7525 24.7291 21.7552 24.7584C21.7579 24.7876 21.7702 24.8151 21.7902 24.8367C21.8178 24.8705 21.8352 24.9116 21.8402 24.955C21.8416 24.9802 21.8339 25.005 21.8185 25.025C21.8051 25.0397 21.7893 25.0521 21.7718 25.0617C21.6589 25.126 21.5378 25.1748 21.4118 25.2067C21.3285 25.225 21.2685 25.2033 21.2952 25.1083C21.3414 24.9429 21.3959 24.7799 21.4585 24.62C21.5133 24.5261 21.5891 24.4462 21.6802 24.3867C21.7926 24.2899 21.9106 24.1997 22.0335 24.1167C22.1138 24.0616 22.1814 23.99 22.2318 23.9067C22.3296 23.7486 22.4353 23.5957 22.5485 23.4483C22.5711 23.4179 22.5871 23.383 22.5954 23.346C22.6038 23.3089 22.6042 23.2706 22.5968 23.2333C22.586 23.1664 22.5587 23.1032 22.5174 23.0493C22.476 22.9955 22.422 22.9528 22.3602 22.925C22.3138 22.9041 22.2665 22.8852 22.2185 22.8683C22.0566 22.8126 21.9143 22.7113 21.8085 22.5767C21.797 22.5589 21.7818 22.5437 21.764 22.5323C21.7462 22.5208 21.7261 22.5132 21.7052 22.51C21.6002 22.5133 21.5702 22.66 21.5668 22.74C21.5583 22.8577 21.5606 22.976 21.5735 23.0933C21.5838 23.1325 21.5861 23.1733 21.5802 23.2133C21.5748 23.2274 21.5661 23.2399 21.5547 23.2498C21.5434 23.2597 21.5298 23.2666 21.5152 23.27C21.1844 23.3883 20.8685 23.5443 20.5735 23.735C20.5311 23.7666 20.4954 23.8062 20.4685 23.8517L20.4402 23.9C20.4031 23.9617 20.3459 24.0087 20.2781 24.033C20.2104 24.0573 20.1363 24.0574 20.0685 24.0333C20.0443 24.0261 20.0199 24.02 19.9952 24.015C19.9573 24.0112 19.9194 24.0213 19.8885 24.0433C19.8625 24.0593 19.8394 24.0796 19.8202 24.1033C19.8127 24.1128 19.8071 24.1235 19.8035 24.135V24.145C19.8032 24.1494 19.8032 24.1539 19.8035 24.1583C19.8045 24.168 19.8068 24.1775 19.8102 24.1867L19.8468 24.2867C19.8551 24.301 19.86 24.317 19.8611 24.3335C19.8623 24.35 19.8598 24.3666 19.8537 24.3819C19.8476 24.3973 19.8382 24.4111 19.826 24.4223C19.8138 24.4335 19.7993 24.4418 19.7835 24.4467C19.6748 24.4906 19.5612 24.5214 19.4452 24.5383C19.3785 24.5467 19.3202 24.5217 19.3368 24.4433C19.3608 24.3077 19.3999 24.1752 19.4535 24.0483C19.4606 24.0255 19.4729 24.0046 19.4894 23.9873C19.5059 23.97 19.5261 23.9566 19.5485 23.9483C19.6587 23.8853 19.7591 23.8067 19.8468 23.715C19.9232 23.6422 20.0231 23.5991 20.1285 23.5933C20.2867 23.5795 20.4379 23.5218 20.5652 23.4267C20.6987 23.3341 20.8241 23.2304 20.9402 23.1167C21.0253 23.0065 21.0706 22.8708 21.0688 22.7316C21.067 22.5924 21.0181 22.4579 20.9302 22.35L20.8968 22.2917C20.8652 22.2417 20.8468 22.17 20.8202 22.1183C20.7852 22.0664 20.763 22.0071 20.7552 21.945C20.7552 21.8317 20.8002 21.7233 20.8068 21.61C20.8077 21.6011 20.8055 21.5921 20.8007 21.5846C20.7959 21.577 20.7886 21.5713 20.7802 21.5683C20.7069 21.5408 20.6299 21.5239 20.5518 21.5183C20.2419 21.5543 19.9291 21.5576 19.6185 21.5283C19.3879 21.4618 19.1687 21.3606 18.9685 21.2283C18.8802 21.1733 18.8268 21.1117 18.7368 21.06C18.7135 21.0467 18.7118 21.0517 18.6902 21.07C18.4691 21.2304 18.197 21.3045 17.9252 21.2783H17.9218C17.7551 21.2497 17.5912 21.2068 17.4318 21.15C17.3102 21.105 17.1152 21.0267 16.9985 21.125C16.9502 21.1667 16.9618 21.225 16.9618 21.28C16.9772 21.4495 16.9716 21.6202 16.9452 21.7883C16.942 21.797 16.9409 21.8063 16.9417 21.8156C16.9426 21.8248 16.9455 21.8337 16.9502 21.8417C16.9532 21.8453 16.9565 21.8487 16.9602 21.8517C16.9783 21.8658 16.9986 21.877 17.0202 21.885L17.0368 21.8917C17.0835 21.9083 17.0918 21.93 17.1202 21.9883C17.1346 22.0211 17.1437 22.056 17.1468 22.0917C17.152 22.1261 17.1503 22.1612 17.1418 22.195C17.1376 22.2168 17.1326 22.2385 17.1268 22.26C17.106 22.3344 17.1106 22.4136 17.1402 22.485C17.1541 22.5208 17.1785 22.5516 17.2102 22.5733C17.2155 22.576 17.2211 22.5782 17.2268 22.58C17.2322 22.5821 17.2378 22.5838 17.2435 22.585C17.249 22.5854 17.2546 22.5854 17.2602 22.585H17.2768C17.2885 22.5822 17.2998 22.5777 17.3102 22.5717L17.3168 22.5683C17.333 22.5545 17.3539 22.5473 17.3752 22.5483C17.3809 22.5494 17.3865 22.551 17.3918 22.5533C17.4204 22.5595 17.4462 22.5749 17.4652 22.5972C17.4842 22.6195 17.4953 22.6474 17.4968 22.6767C17.5007 22.8038 17.4744 22.93 17.4202 23.045C17.4151 23.0568 17.4077 23.0674 17.3985 23.0763C17.3893 23.0852 17.3784 23.0922 17.3665 23.0969C17.3545 23.1015 17.3418 23.1037 17.329 23.1034C17.3161 23.1031 17.3035 23.1002 17.2918 23.095L17.2618 23.0833C17.1714 23.0351 17.092 22.9688 17.0285 22.8883C16.9814 22.8368 16.9527 22.7712 16.9468 22.7017C16.9488 22.6519 16.9322 22.6032 16.9002 22.565C16.8843 22.5526 16.8662 22.5436 16.8468 22.5383C16.8012 22.5249 16.7606 22.4982 16.7302 22.4617C16.6901 22.4108 16.6616 22.3517 16.6466 22.2887C16.6317 22.2257 16.6306 22.1602 16.6435 22.0967C16.6952 21.7397 16.669 21.3759 16.5668 21.03C16.5454 20.9717 16.5466 20.9075 16.5702 20.85L16.5968 20.7783C16.6002 20.7692 16.6041 20.7603 16.6085 20.7517C16.6153 20.738 16.6252 20.7261 16.6373 20.7169C16.6494 20.7076 16.6635 20.7013 16.6785 20.6983C16.6944 20.6953 16.7106 20.6936 16.7268 20.6933C16.9813 20.6924 17.2341 20.6531 17.4768 20.5767C17.5097 20.564 17.5449 20.5583 17.5802 20.56C17.6206 20.5628 17.6612 20.5639 17.7018 20.5633C17.7518 20.5633 17.8018 20.5183 17.7418 20.48C17.6918 20.4351 17.645 20.3866 17.6018 20.335C17.5935 20.3201 17.5805 20.3084 17.5648 20.3018C17.5491 20.2952 17.5316 20.2939 17.5152 20.2983C17.5094 20.3007 17.5038 20.3035 17.4985 20.3067L17.4835 20.315C17.4648 20.3314 17.4426 20.3434 17.4186 20.3499C17.3946 20.3565 17.3694 20.3575 17.345 20.3528C17.3206 20.3481 17.2975 20.338 17.2776 20.323C17.2577 20.3081 17.2415 20.2888 17.2302 20.2667C17.167 20.1614 17.1182 20.0482 17.0852 19.93C17.0571 19.7852 16.9948 19.6492 16.9035 19.5333C16.8617 19.4936 16.8116 19.4636 16.7569 19.4454C16.7022 19.4273 16.6441 19.4214 16.5868 19.4283C16.4961 19.4524 16.4183 19.511 16.3702 19.5917L16.2652 19.7383C16.2385 19.7704 16.2207 19.8089 16.2135 19.85C16.2128 19.8589 16.2128 19.8678 16.2135 19.8767C16.2158 19.8949 16.2203 19.9128 16.2268 19.93C16.245 19.9741 16.2486 20.0229 16.2369 20.0691C16.2251 20.1153 16.1988 20.1566 16.1618 20.1867L16.0052 20.3117C15.9906 20.3242 15.9787 20.3395 15.9701 20.3567C15.9615 20.3738 15.9565 20.3925 15.9552 20.4117C15.9504 20.4454 15.9438 20.4787 15.9352 20.5117C15.9291 20.5362 15.9274 20.5616 15.9302 20.5867C15.9308 20.5934 15.9319 20.6001 15.9335 20.6067C15.9431 20.6338 15.9613 20.6572 15.9852 20.6733C15.9928 20.6796 16 20.6863 16.0068 20.6933C16.0148 20.7018 16.0215 20.7113 16.0268 20.7217C16.0363 20.7407 16.0395 20.7623 16.0359 20.7833C16.0323 20.8043 16.0221 20.8235 16.0068 20.8383C15.9944 20.851 15.981 20.8627 15.9668 20.8733C15.8706 20.9484 15.7639 21.0091 15.6502 21.0533C15.6362 21.0586 15.6217 21.062 15.6068 21.0633C15.5435 21.0683 15.5235 21.02 15.5202 20.9633C15.5152 20.89 15.5152 20.815 15.5152 20.74C15.5175 20.6548 15.5514 20.5734 15.6102 20.5117C15.6912 20.4037 15.7335 20.2716 15.7302 20.1367C15.726 20.0588 15.7496 19.982 15.7968 19.92C15.837 19.876 15.8692 19.8252 15.8918 19.77C15.9079 19.7303 15.9298 19.6932 15.9568 19.66C16.1259 19.4565 16.2824 19.2428 16.4252 19.02C16.5152 18.8767 16.6835 18.7 16.8202 18.8983C16.8557 18.9517 16.8996 18.999 16.9502 19.0383C17.0881 19.1386 17.2322 19.2299 17.3818 19.3117C17.5385 19.4 17.5635 19.2417 17.5902 19.11V19.105C17.6034 19.051 17.6248 18.9993 17.6535 18.9517C17.7478 18.8007 17.8609 18.6624 17.9902 18.54C18.0618 18.4767 18.1652 18.4133 18.2402 18.3517C18.2702 18.325 18.2785 18.3217 18.2902 18.285C18.3052 18.2483 18.3302 18.2017 18.3468 18.155C18.3635 18.11 18.3718 18.0633 18.3868 18.0283C18.4197 17.9781 18.4444 17.9229 18.4602 17.865V17.86C18.4605 17.8572 18.4605 17.8544 18.4602 17.8517V17.84L18.4552 17.8283C18.4482 17.8115 18.4359 17.7975 18.4202 17.7883C18.3691 17.7573 18.3099 17.7422 18.2502 17.745H18.2452C18.1603 17.7457 18.0765 17.7633 17.9985 17.7967C17.9584 17.8144 17.9263 17.8465 17.9085 17.8867C17.8912 17.9254 17.8676 17.9609 17.8385 17.9917C17.8099 18.0196 17.772 18.036 17.7321 18.0378C17.6921 18.0397 17.6529 18.0268 17.6218 18.0017C17.5818 17.975 17.5985 17.93 17.6218 17.8967C17.6433 17.8704 17.6628 17.8425 17.6802 17.8133C17.6872 17.8006 17.6901 17.7861 17.6885 17.7717V17.765L17.6852 17.7567C17.6828 17.753 17.68 17.7496 17.6768 17.7467C17.6664 17.7384 17.654 17.7329 17.6409 17.7309C17.6277 17.7289 17.6143 17.7303 17.6018 17.735C17.5551 17.7479 17.5089 17.763 17.4635 17.78C17.4484 17.7882 17.4315 17.7927 17.4143 17.793C17.3971 17.7933 17.3801 17.7895 17.3647 17.7818C17.3493 17.7741 17.336 17.7628 17.3259 17.7488C17.3158 17.7349 17.3093 17.7187 17.3068 17.7017C17.3003 17.6716 17.2986 17.6406 17.3018 17.61C17.3028 17.5909 17.3098 17.5726 17.3218 17.5576C17.3337 17.5427 17.3501 17.5319 17.3685 17.5267C17.4018 17.5167 17.4518 17.4983 17.4452 17.4567C17.4433 17.444 17.4433 17.431 17.4452 17.4183C17.4482 17.4035 17.4551 17.3897 17.4652 17.3783C17.4798 17.3622 17.4966 17.3482 17.5152 17.3367C17.6995 17.2159 17.8775 17.0857 18.0485 16.9467C18.0614 16.9317 18.0792 16.9218 18.0988 16.9187C18.1183 16.9157 18.1383 16.9197 18.1552 16.93L18.1718 16.94C18.2492 16.9803 18.3383 16.9921 18.4235 16.9733C18.4385 16.9726 18.453 16.9675 18.4652 16.9586C18.4773 16.9497 18.4866 16.9375 18.4918 16.9233C18.4921 16.9206 18.4921 16.9178 18.4918 16.915V16.9067L18.4885 16.8967L18.4835 16.89C18.4679 16.8729 18.4476 16.8607 18.4252 16.855L18.3285 16.82C18.2982 16.8093 18.2691 16.7953 18.2418 16.7783C18.2251 16.7687 18.212 16.7539 18.2044 16.7362C18.1969 16.7184 18.1954 16.6987 18.2002 16.68C18.2385 16.4917 18.4452 16.49 18.6018 16.505H18.6085C18.6876 16.5038 18.7662 16.4915 18.8418 16.4683C18.9418 16.4333 19.0185 16.3567 19.1135 16.3117C19.2085 16.2667 19.3085 16.2167 19.4068 16.1783C19.4368 16.1683 19.4618 16.175 19.4885 16.1633C19.511 16.1543 19.531 16.14 19.5468 16.1217C19.6153 16.0225 19.6947 15.9314 19.7835 15.85C19.9059 15.7789 20.0386 15.7271 20.1768 15.6967C20.1929 15.691 20.2098 15.6876 20.2268 15.6867H20.2252ZM19.5168 16.615C19.4558 16.6146 19.3956 16.6295 19.3418 16.6583C19.3268 16.6667 19.3168 16.685 19.3285 16.6983C19.3585 16.7333 19.4102 16.7483 19.4452 16.7817C19.4691 16.8035 19.4889 16.8294 19.5035 16.8583C19.5185 16.89 19.5435 16.925 19.5585 16.9583C19.5869 17.0254 19.612 17.0938 19.6335 17.1633C19.6714 17.2768 19.6993 17.3933 19.7168 17.5117C19.7335 17.6067 19.7285 17.7067 19.7335 17.8033V17.9383C19.7318 17.9767 19.7318 18.0167 19.7285 18.055C19.7239 18.1093 19.7217 18.1638 19.7218 18.2183V18.3517C19.7252 18.4683 19.7435 18.5517 19.7952 18.5517C19.8437 18.5526 19.8917 18.5417 19.9352 18.52C19.9779 18.4944 20.0133 18.4583 20.0381 18.4151C20.0629 18.3719 20.0762 18.3231 20.0768 18.2733C20.1209 17.9547 20.1192 17.6315 20.0718 17.3133C20.0639 17.1966 20.032 17.0828 19.9781 16.979C19.9242 16.8752 19.8494 16.7836 19.7585 16.71C19.6927 16.6502 19.6057 16.6164 19.5168 16.615ZM26.1168 16.8833H34.7452C34.7168 18.2583 34.6885 19.55 34.6618 20.655H26.1118L26.1185 17.5517L26.1168 16.8833ZM26.1068 21.1233H34.6452C34.5926 22.7775 34.2862 24.4138 33.7368 25.975C33.0824 27.8055 32.2094 29.5504 31.1368 31.1717C30.0177 32.8416 28.6619 34.34 27.1118 35.62C26.5064 36.1327 25.8678 36.6048 25.2002 37.0333C24.1547 37.6697 23.0627 38.2263 21.9335 38.6983C21.5602 38.8583 21.2368 39.0083 20.9402 39.11C20.6185 39.2183 20.3435 39.3183 20.1502 39.37V39.1783L20.1552 27.02C20.3312 27.0151 20.5069 27.0023 20.6818 26.9817C20.6902 27.0067 20.7085 27.0767 20.7335 27.1483C20.7711 27.2178 20.8232 27.2784 20.8861 27.3261C20.9491 27.3738 21.0215 27.4075 21.0985 27.425C21.1917 27.4439 21.2882 27.4373 21.378 27.406C21.4678 27.3746 21.5474 27.3195 21.6085 27.2467C21.6951 27.3237 21.8016 27.375 21.9159 27.3948C22.0302 27.4145 22.1477 27.4019 22.2552 27.3583C22.3387 27.3363 22.4126 27.2872 22.4653 27.2188C22.5181 27.1504 22.5467 27.0664 22.5468 26.98C22.5575 26.8617 22.5386 26.7425 22.4918 26.6333L22.4318 26.5233C22.8687 26.3411 23.2844 26.112 23.6718 25.84L23.7052 25.83C24.3268 25.6733 26.8252 24.7783 28.3568 24.7583C29.3017 24.7369 30.236 24.9609 31.0685 25.4083C31.4945 25.6572 31.8781 25.9723 32.2052 26.3417C32.2152 26.3567 32.2268 26.3883 32.2668 26.395C32.2789 26.3953 32.2907 26.3919 32.3008 26.3854C32.3109 26.3789 32.3188 26.3694 32.3235 26.3583C32.4334 26.0857 32.4784 25.7913 32.4552 25.4983C32.4218 25.0283 31.9552 24.6883 31.8168 24.5483C31.8118 24.5433 31.8002 24.5133 31.8502 24.48C31.9036 24.427 31.9622 24.3796 32.0252 24.3383C32.2929 24.1257 32.6204 24.0022 32.9618 23.985C33.0118 23.99 32.9952 23.9183 32.9818 23.8583C32.8852 23.4417 32.2902 23.1717 31.6652 23.2683C31.4574 23.3109 31.2601 23.3943 31.0848 23.5136C30.9094 23.6329 30.7594 23.7857 30.6435 23.9633C30.6318 23.9817 30.5735 24.0083 30.5502 23.985C30.3493 23.9121 30.1438 23.8526 29.9352 23.8067C29.8602 23.79 29.9002 23.7333 29.9035 23.7233C30.0272 23.4999 30.2006 23.3077 30.4102 23.1617C30.65 22.9719 30.9327 22.8438 31.2335 22.7883C31.2702 22.7883 31.2702 22.7383 31.2602 22.7217C31.201 22.5959 31.1139 22.4852 31.0057 22.398C30.8974 22.3108 30.7707 22.2493 30.6352 22.2183C30.4159 22.1478 30.1827 22.1323 29.9561 22.1729C29.7294 22.2136 29.5162 22.3093 29.3352 22.4517C28.983 22.7445 28.725 23.1346 28.5935 23.5733C28.5702 23.6067 28.5635 23.6333 28.5335 23.6267C28.3685 23.5933 27.9585 23.615 27.9218 23.59C27.8968 23.5783 27.9018 23.54 27.9068 23.515C27.9765 23.2768 28.1035 23.0593 28.2768 22.8817C28.433 22.6716 28.6424 22.507 28.8835 22.405C28.8979 22.3984 28.9104 22.3881 28.9197 22.3752C28.9289 22.3623 28.9347 22.3472 28.9364 22.3314C28.938 22.3156 28.9356 22.2996 28.9292 22.2851C28.9229 22.2705 28.9129 22.2579 28.9002 22.2483C28.5631 22.0737 28.1758 22.022 27.8047 22.102C27.4336 22.182 27.102 22.3887 26.8668 22.6867C26.6317 23.0409 26.4603 23.4335 26.3602 23.8467C26.3568 23.8617 26.3318 23.9067 26.3002 23.9067L25.4535 24.0933L25.3152 24.125L25.2785 24.1633C25.794 23.3365 26.0799 22.3873 26.1068 21.4133V21.1233ZM5.35682 21.265H14.0068V21.415C14.0228 22.7131 14.5199 23.9591 15.4018 24.9117H5.92516C5.59714 23.7217 5.40757 22.4983 5.35682 21.265ZM6.04849 25.3367H15.8202C15.8807 25.394 15.943 25.4496 16.0068 25.5033C17.0298 26.3622 18.2927 26.8849 19.6235 27V29.0167H7.59016C7.07279 28.0352 6.62718 27.0175 6.25682 25.9717C6.18332 25.7619 6.11387 25.5508 6.04849 25.3383V25.3367ZM23.6885 25.82L23.6718 25.84H23.6685L23.6652 25.8367C23.6735 25.8311 23.6818 25.8256 23.6902 25.82H23.6885ZM26.5852 26.1283C26.2841 26.1288 25.99 26.2187 25.7402 26.3867C25.4568 26.5412 25.2285 26.78 25.0868 27.07C24.927 27.4837 24.8303 27.9192 24.8002 28.3617C24.7943 28.3753 24.7857 28.3876 24.7747 28.3976C24.7638 28.4077 24.7509 28.4153 24.7368 28.42C24.548 28.4572 24.3615 28.5056 24.1785 28.565C24.1694 28.5642 24.1608 28.5605 24.1539 28.5545C24.147 28.5486 24.1422 28.5405 24.1402 28.5317C24.0813 28.111 24.1696 27.683 24.3902 27.32C24.4817 27.1517 24.6051 27.0028 24.7535 26.8817C24.7643 26.8747 24.7727 26.8645 24.7775 26.8525C24.7822 26.8405 24.7831 26.8273 24.78 26.8148C24.7768 26.8023 24.7699 26.7911 24.76 26.7828C24.7502 26.7744 24.738 26.7694 24.7252 26.7683C24.354 26.7053 23.9725 26.7724 23.6452 26.9583C23.4408 27.0711 23.2661 27.2306 23.1352 27.4238C23.0042 27.617 22.9208 27.8384 22.8918 28.07C22.8526 28.4015 22.8763 28.7374 22.9618 29.06C22.9618 29.07 22.9718 29.105 22.9352 29.1117C22.8085 29.1733 22.4652 29.3533 22.3435 29.4117C22.3352 29.415 22.3118 29.42 22.3068 29.4017C22.2756 29.2776 22.22 29.161 22.1433 29.0586C22.0666 28.9561 21.9704 28.8699 21.8602 28.805C21.7412 28.7562 21.6129 28.7342 21.4844 28.7405C21.3559 28.7469 21.2304 28.7814 21.1168 28.8417C20.9633 28.9287 20.8382 29.0584 20.7568 29.215C20.6998 29.3465 20.6897 29.4936 20.7282 29.6317C20.7668 29.7697 20.8516 29.8904 20.9685 29.9733C20.9785 29.9833 20.9968 30.0067 20.9685 30.015C20.8185 30.0967 20.8152 30.115 20.7018 30.2833C20.6447 30.4039 20.6225 30.5382 20.6378 30.6707C20.6531 30.8033 20.7053 30.9289 20.7885 31.0333C20.8509 31.1257 20.9326 31.2036 21.0278 31.2615C21.1231 31.3195 21.2297 31.3562 21.3405 31.3692C21.4512 31.3822 21.5635 31.3711 21.6696 31.3367C21.7757 31.3023 21.8731 31.2455 21.9552 31.17C21.9618 31.165 21.9852 31.1783 21.9968 31.2033C22.0595 31.3017 22.1404 31.3871 22.2352 31.455C22.3509 31.5203 22.4815 31.5546 22.6143 31.5546C22.7472 31.5546 22.8778 31.5203 22.9935 31.455C23.1145 31.3882 23.2127 31.2865 23.2751 31.1631C23.3375 31.0397 23.3614 30.9004 23.3435 30.7633C23.3411 30.5992 23.2747 30.4426 23.1585 30.3267C23.1368 30.3 23.1585 30.2867 23.2152 30.25C24.2223 29.673 25.3316 29.296 26.4818 29.14C27.0772 29.0483 27.684 29.0607 28.2752 29.1767C28.6607 29.2649 29.02 29.4431 29.3235 29.6967C29.571 29.8967 29.7977 30.1212 30.0002 30.3667C30.0681 30.3778 30.1377 30.3629 30.1952 30.325C30.2569 30.1903 30.2907 30.0446 30.2947 29.8965C30.2987 29.7485 30.2728 29.6011 30.2185 29.4633C30.0806 29.0922 29.862 28.7563 29.5785 28.48C29.5735 28.4767 29.5735 28.4583 29.5735 28.4467C29.5668 28.3967 29.5985 28.3717 29.6602 28.315C29.9227 28.0695 30.2461 27.8987 30.5968 27.82C30.6418 27.8167 30.6602 27.7833 30.6302 27.7317C30.5034 27.5004 30.2972 27.3227 30.0497 27.2314C29.8023 27.1401 29.5301 27.1414 29.2835 27.235C28.9588 27.3719 28.6898 27.6168 28.5252 27.9283C28.5152 27.9467 28.4885 28.0117 28.4635 27.9917C28.3135 27.9783 28.0602 27.9383 27.9118 27.925C27.8435 27.9217 27.8702 27.86 27.8718 27.85C27.9334 27.65 28.0447 27.4688 28.1952 27.3233C28.3968 27.091 28.6503 26.9095 28.9352 26.7933C28.9409 26.7927 28.9463 26.7906 28.9511 26.7874C28.9558 26.7841 28.9596 26.7797 28.9623 26.7746C28.9649 26.7695 28.9662 26.7638 28.9662 26.7581C28.9661 26.7523 28.9646 26.7467 28.9618 26.7417C28.8673 26.6265 28.7493 26.5328 28.6156 26.467C28.4819 26.4012 28.3357 26.3647 28.1868 26.36C27.9972 26.3501 27.8075 26.3803 27.6303 26.4486C27.4531 26.517 27.2923 26.6219 27.1585 26.7567C26.8396 27.0941 26.642 27.528 26.5968 27.99C26.5818 28.0283 26.5635 28.0483 26.5352 28.0483C26.3819 28.073 26.2271 28.0869 26.0718 28.09C26.0468 28.0833 26.0485 28.0567 26.0485 28.03C26.0513 27.7944 26.1089 27.5628 26.2168 27.3533C26.4282 26.9525 26.7452 26.617 27.1335 26.3833C27.1935 26.3417 27.1968 26.2567 27.1768 26.2467C26.9895 26.168 26.7883 26.1278 26.5852 26.1283ZM7.84349 29.4867H19.6252V33.1367H10.3535C9.81178 32.5142 9.31181 31.8567 8.85682 31.1683C8.49847 30.6195 8.15992 30.0581 7.84182 29.485L7.84349 29.4867ZM24.6368 31.4467C24.4772 31.4403 24.3192 31.4803 24.1818 31.5617C23.8072 31.7587 23.5234 32.0932 23.3902 32.495C23.3121 32.8084 23.319 33.1369 23.4102 33.4467C23.4152 33.4583 23.4302 33.4867 23.4068 33.4967C23.2768 33.5467 23.1802 33.605 23.0518 33.6567C23.0452 33.6567 23.0118 33.665 23.0052 33.6483C22.8971 33.4545 22.853 33.2315 22.8794 33.0112C22.9057 32.7909 23.0011 32.5845 23.1518 32.4217C23.1802 32.3967 23.1968 32.3633 23.1385 32.3433C22.9758 32.3183 22.8095 32.3347 22.6548 32.3909C22.5002 32.4471 22.3621 32.5414 22.2535 32.665C22.1286 32.8155 22.045 32.9958 22.0108 33.1884C21.9766 33.3809 21.993 33.5791 22.0585 33.7633C22.0911 33.9159 22.1467 34.0625 22.2235 34.1983C22.2285 34.2067 22.2735 34.2333 22.2468 34.245L21.9968 34.4367C21.9918 34.4417 21.9735 34.45 21.9652 34.4367C21.9149 34.3418 21.8463 34.2579 21.7633 34.1898C21.6803 34.1217 21.5847 34.0708 21.4818 34.04C21.3885 34.0179 21.2912 34.0198 21.1988 34.0454C21.1064 34.071 21.022 34.1196 20.9535 34.1867C20.8794 34.2597 20.8255 34.3508 20.7971 34.4509C20.7687 34.551 20.7668 34.6567 20.7914 34.7578C20.8161 34.8589 20.8666 34.9519 20.9379 35.0276C21.0093 35.1034 21.0991 35.1593 21.1985 35.19C21.2102 35.195 21.2268 35.21 21.2068 35.2233C21.0739 35.3133 20.9651 35.4347 20.8902 35.5767C20.845 35.691 20.8344 35.816 20.8596 35.9362C20.8847 36.0565 20.9446 36.1668 21.0318 36.2533C21.0973 36.3108 21.1743 36.3537 21.2576 36.3793C21.3409 36.4049 21.4287 36.4125 21.5152 36.4017C21.6444 36.3593 21.7637 36.2913 21.866 36.2016C21.9682 36.112 22.0513 36.0026 22.1102 35.88C22.1135 35.875 22.1452 35.8517 22.1618 35.87C22.2692 36.0252 22.4234 36.142 22.6018 36.2033C22.693 36.2351 22.7911 36.2418 22.8858 36.2227C22.9805 36.2036 23.0683 36.1595 23.1402 36.095C23.2381 36.0182 23.3089 35.912 23.3422 35.7921C23.3754 35.6721 23.3695 35.5447 23.3252 35.4283C23.2446 35.2827 23.1296 35.1591 22.9902 35.0683C22.9685 35.0517 22.9852 35.01 23.0285 34.9767C23.7036 34.4338 24.5093 34.0775 25.3652 33.9433C25.9494 33.8658 26.5436 33.9621 27.0735 34.22C27.2805 34.3415 27.4696 34.4912 27.6352 34.665C27.6568 34.6767 27.7185 34.6983 27.7402 34.6783C27.8657 34.5629 27.9418 34.4035 27.9527 34.2334C27.9636 34.0632 27.9083 33.8954 27.7985 33.765C27.7039 33.651 27.5871 33.5574 27.4552 33.49C27.4497 33.4825 27.4457 33.474 27.4435 33.465C27.5467 33.2043 27.7204 32.9775 27.9452 32.81C28.099 32.7113 28.2641 32.6313 28.4368 32.5717C28.4735 32.5617 28.4668 32.5383 28.4485 32.4933C28.2352 32.005 27.3902 31.9867 26.9918 32.2433C26.7485 32.4129 26.5505 32.6395 26.4152 32.9033C26.4068 32.92 26.3952 32.97 26.3735 32.955L26.0185 32.8483C26.0118 32.8483 26.0118 32.8083 26.0152 32.8017C26.1328 32.573 26.2967 32.3712 26.4964 32.2091C26.696 32.047 26.9272 31.9281 27.1752 31.86C27.2002 31.85 27.1918 31.8267 27.1868 31.8133C27.0035 31.3667 26.0852 31.405 25.6368 31.69C25.2202 31.9663 24.9259 32.3925 24.8152 32.88C24.8102 32.9133 24.8252 32.9417 24.8035 32.9467C24.6789 32.9894 24.5506 33.0201 24.4202 33.0383C24.4104 33.0375 24.4013 33.0332 24.3946 33.0261C24.3878 33.0191 24.3839 33.0098 24.3835 33C24.3506 32.7759 24.3897 32.5471 24.4952 32.3467C24.6447 32.0974 24.8263 31.8688 25.0352 31.6667C25.0421 31.6596 25.0474 31.6512 25.051 31.642C25.0545 31.6328 25.056 31.6229 25.0556 31.6131C25.0551 31.6032 25.0526 31.5936 25.0482 31.5847C25.0439 31.5759 25.0377 31.568 25.0302 31.5617C24.9109 31.4904 24.7756 31.452 24.6368 31.4467ZM19.6268 33.6067V39.3017C19.4635 39.2483 19.2702 39.1783 19.0568 39.1067C18.7602 39.0067 18.4352 38.855 18.0618 38.695C16.9325 38.2225 15.8405 37.6653 14.7952 37.0283C14.1276 36.6003 13.489 36.1288 12.8835 35.6167C12.1354 34.9953 11.4304 34.3238 10.7735 33.6067H19.6235H19.6268Z"
                  fill="black" />
      </g>
      <defs>
            <clipPath id="clip0_5492_57633">
                  <rect width="40" height="40" fill="white" />
            </clipPath>
      </defs>
</svg>
      