<svg width="16" height="16" viewBox="0 0 16 16" fill="none" xmlns="http://www.w3.org/2000/svg">
<g id="clock" clip-path="url(#clip0_5396_63456)">
<g id="Group">
<path id="Vector" d="M12 16C11.907 16.0003 11.8158 15.9745 11.7368 15.9256C11.6577 15.8767 11.5939 15.8067 11.5527 15.7233L10.8593 14.336C9.96928 14.7722 8.99126 14.999 8.00008 14.9991C7.0089 14.9992 6.03082 14.7726 5.14067 14.3367L4.44667 15.7233C4.41775 15.7824 4.37738 15.8351 4.32791 15.8783C4.27845 15.9216 4.22087 15.9547 4.15853 15.9755C4.09619 15.9963 4.03033 16.0046 3.96477 15.9998C3.89922 15.9949 3.83528 15.9771 3.77667 15.9473C3.65803 15.8881 3.56778 15.7842 3.52577 15.6584C3.48377 15.5326 3.49344 15.3953 3.55267 15.2767L4.27867 13.8253C3.42037 13.2276 2.71941 12.4311 2.23556 11.5038C1.75172 10.5765 1.49935 9.54593 1.5 8.5C1.5 4.916 4.416 2 8 2C11.584 2 14.5 4.916 14.5 8.5C14.5007 9.54585 14.2484 10.5763 13.7645 11.5035C13.2807 12.4307 12.5797 13.2271 11.7213 13.8247L12.4473 15.276C12.4853 15.3523 12.5033 15.437 12.4994 15.5221C12.4955 15.6073 12.47 15.69 12.4252 15.7625C12.3804 15.835 12.3178 15.8949 12.2434 15.9364C12.169 15.978 12.0852 15.9999 12 16ZM8 3C4.96733 3 2.5 5.46733 2.5 8.5C2.5 11.5327 4.96733 14 8 14C11.0327 14 13.5 11.5327 13.5 8.5C13.5 5.46733 11.0327 3 8 3Z" fill="#56555E"/>
<path id="Vector_2" d="M5.73828 9C5.60567 9 5.4785 8.94732 5.38473 8.85355C5.29096 8.75979 5.23828 8.63261 5.23828 8.5C5.23828 8.36739 5.29096 8.24022 5.38473 8.14645C5.4785 8.05268 5.60567 8 5.73828 8H7.49895V5C7.49895 4.86739 7.55163 4.74021 7.64539 4.64645C7.73916 4.55268 7.86634 4.5 7.99895 4.5C8.13156 4.5 8.25873 4.55268 8.3525 4.64645C8.44627 4.74021 8.49895 4.86739 8.49895 5V8.5C8.49895 8.63261 8.44627 8.75979 8.3525 8.85355C8.25873 8.94732 8.13156 9 7.99895 9H5.73828Z" fill="#56555E"/>
<path id="Vector_3" d="M1.00061 3.00006C0.896919 3.00018 0.795753 2.96807 0.711119 2.90816C0.626485 2.84825 0.562571 2.76351 0.528225 2.66567C0.493879 2.56783 0.490801 2.46174 0.519417 2.36207C0.548032 2.26241 0.606926 2.17411 0.687944 2.10939L3.18794 0.10939C3.29187 0.0271266 3.42408 -0.0107617 3.5558 0.00397118C3.68752 0.0187041 3.80809 0.0848656 3.89128 0.188057C3.97409 0.291589 4.01239 0.423772 3.99777 0.555541C3.98314 0.687309 3.91678 0.807874 3.81328 0.890724L1.31328 2.89072C1.2244 2.96145 1.11419 2.99998 1.00061 3.00006Z" fill="#56555E"/>
<path id="Vector_4" d="M14.9992 3.00006C14.8859 2.99989 14.7759 2.96136 14.6872 2.89073L12.1872 0.890731C12.0854 0.807402 12.0205 0.687295 12.0067 0.556452C11.9928 0.425608 12.0311 0.294575 12.1132 0.191764C12.1953 0.0889522 12.3146 0.0226492 12.4453 0.00723077C12.576 -0.00818767 12.7075 0.0285212 12.8112 0.109398L15.3119 2.1094C15.3929 2.17411 15.4518 2.26242 15.4804 2.36208C15.5091 2.46175 15.506 2.56784 15.4716 2.66568C15.4373 2.76352 15.3734 2.84826 15.2887 2.90817C15.2041 2.96808 15.1029 3.00019 14.9992 3.00006Z" fill="#56555E"/>
</g>
</g>
<defs>
<clipPath id="clip0_5396_63456">
<rect width="16" height="16" fill="white"/>
</clipPath>
</defs>
</svg>
