<svg width="136" height="136" viewBox="0 0 136 136" fill="none" xmlns="http://www.w3.org/2000/svg">
    <path d="M68 136C105.555 136 136 105.555 136 68C136 30.4446 105.555 0 68 0C30.4446 0 0 30.4446 0 68C0 105.555 30.4446 136 68 136Z"
          fill="#E61F27"/>
    <path d="M97.1334 38.9106C95.3298 37.1071 92.4163 37.1071 90.6128 38.9106L67.9989 61.4783L45.385 38.8644C43.5814 37.0608 40.668 37.0608 38.8644 38.8644C37.0608 40.668 37.0608 43.5814 38.8644 45.385L61.4783 67.9989L38.8644 90.6128C37.0608 92.4163 37.0608 95.3298 38.8644 97.1334C40.668 98.9369 43.5814 98.9369 45.385 97.1334L67.9989 74.5194L90.6128 97.1334C92.4163 98.9369 95.3298 98.9369 97.1334 97.1334C98.9369 95.3298 98.9369 92.4163 97.1334 90.6128L74.5194 67.9989L97.1334 45.385C98.8907 43.6276 98.8907 40.668 97.1334 38.9106Z"
          fill="white"/>
</svg>
