<svg width="26" height="16" viewBox="0 0 26 16" fill="none" xmlns="http://www.w3.org/2000/svg">
  <path d="M16.4406 1.71094H9.44141V14.2895H16.4406V1.71094Z" fill="#FF5F00"/>
  <path d="M9.88657 8.00116C9.88527 6.78959 10.1597 5.5936 10.689 4.50377C11.2183 3.41393 11.9887 2.45883 12.9418 1.71078C11.7617 0.783383 10.3445 0.206688 8.85223 0.0466091C7.35993 -0.11347 5.85268 0.149525 4.50277 0.805537C3.15287 1.46155 2.01475 2.48411 1.2185 3.75635C0.422254 5.02859 0 6.49918 0 8.00005C0 9.50092 0.422254 10.9715 1.2185 12.2438C2.01475 13.516 3.15287 14.5386 4.50277 15.1946C5.85268 15.8506 7.35993 16.1136 8.85223 15.9535C10.3445 15.7934 11.7617 15.2167 12.9418 14.2893C11.989 13.5415 11.2188 12.5868 10.6895 11.4973C10.1602 10.4079 9.88561 9.21236 9.88657 8.00116Z" fill="#EB001B"/>
  <path d="M25.8843 8.00111C25.8843 9.50209 25.462 10.9728 24.6656 12.2451C23.8692 13.5173 22.7309 14.5399 21.3808 15.1958C20.0307 15.8517 18.5233 16.1146 17.031 15.9542C15.5386 15.7939 14.1214 15.217 12.9414 14.2893C13.8938 13.5408 14.6638 12.5858 15.1932 11.4963C15.7227 10.4068 15.9978 9.21132 15.9978 8C15.9978 6.78868 15.7227 5.59318 15.1932 4.5037C14.6638 3.41422 13.8938 2.45921 12.9414 1.71073C14.1214 0.783041 15.5386 0.206066 17.031 0.0457573C18.5233 -0.114552 20.0307 0.148274 21.3808 0.804192C22.7309 1.46011 23.8692 2.48265 24.6656 3.75494C25.462 5.02722 25.8843 6.49791 25.8843 7.99889V8.00111Z" fill="#F79E1B"/>
  <path d="M25.1209 12.9556V12.6979H25.2253V12.6445H24.9609V12.6979H25.0743V12.9556H25.1209ZM25.6342 12.9556V12.6445H25.5542L25.4609 12.8667L25.3676 12.6445H25.2965V12.9556H25.3542V12.7223L25.4409 12.9245H25.5009L25.5875 12.7223V12.9578L25.6342 12.9556Z" fill="#F79E1B"/>
</svg>
  