<svg width="40" height="41" viewBox="0 0 40 41" fill="none" xmlns="http://www.w3.org/2000/svg">
<path d="M16.0162 14.0498L13.9834 25.9794H17.2346L19.2691 14.0498H16.0162Z" fill="white"/>
<path d="M11.2573 14.0631L8.07292 22.1987L7.73342 20.9703C7.10541 19.4902 5.32258 17.3645 3.22951 16.0248L6.14124 25.9734L9.58148 25.9676L14.7017 14.0605L11.2573 14.0631Z" fill="white"/>
<path d="M6.49914 14.9165C6.31016 14.1898 5.76243 13.9732 5.08258 13.9473H0.0418113L0 14.1848C3.92273 15.1364 6.51838 17.4293 7.59543 20.1863L6.49914 14.9165Z" fill="white"/>
<path d="M25.8586 16.3367C26.9223 16.32 27.6933 16.5524 28.292 16.7933L28.5855 16.9312L29.0254 14.3456C28.3815 14.104 27.3722 13.8447 26.1128 13.8447C22.9 13.8447 20.6355 15.4628 20.618 17.7817C20.5971 19.4951 22.231 20.4517 23.4653 21.0229C24.7322 21.6082 25.157 21.9804 25.1511 22.503C25.1411 23.3016 24.141 23.6679 23.2069 23.6679C21.9049 23.6679 21.2134 23.4881 20.1455 23.0432L19.7266 22.8525L19.2691 25.5226C20.0301 25.8563 21.4341 26.1431 22.8917 26.1581C26.3093 26.1581 28.5303 24.5593 28.5537 22.0815C28.568 20.726 27.7008 19.6916 25.8218 18.8428C24.6845 18.2893 23.9888 17.9213 23.9955 17.3627C23.9955 16.8668 24.5859 16.3367 25.8586 16.3367Z" fill="white"/>
<path d="M37.3692 14.0635H34.8572C34.077 14.0635 33.4967 14.2759 33.1538 15.0536L28.3263 25.9864H31.7406C31.7406 25.9864 32.2975 24.5163 32.4238 24.1943C32.7976 24.1943 36.1149 24.1994 36.5874 24.1994C36.6844 24.6158 36.9837 25.9864 36.9837 25.9864H40L37.3692 14.0635ZM33.3595 21.7526C33.6271 21.0677 34.6548 18.4185 34.6548 18.4185C34.6373 18.4512 34.9199 17.7287 35.088 17.2796L35.3071 18.3082C35.3071 18.3082 35.9301 21.1563 36.0605 21.7526H33.3595Z" fill="white"/>
</svg>
