<svg width="62" height="20" viewBox="0 0 62 20" fill="none" xmlns="http://www.w3.org/2000/svg">
    <path d="M30.7362 0.354301L26.5983 19.6975H21.5938L25.7332 0.354301H30.7362ZM51.789 12.8438L54.4231 5.58091L55.9395 12.8438H51.789ZM57.3727 19.6975H62.0008L57.961 0.354301H53.69C52.7293 0.354301 51.9194 0.912472 51.5599 1.77288L44.0516 19.6975H49.3047L50.3486 16.8077H56.768L57.3727 19.6975ZM44.3116 13.3815C44.334 8.27709 37.2525 7.99513 37.3013 5.71431C37.3168 5.02073 37.9773 4.28329 39.4237 4.09435C40.1396 4.00095 42.1169 3.9285 44.3569 4.95949L45.2362 0.858143C44.0312 0.4207 42.4828 0.000518799 40.5544 0.000518799C35.6089 0.000518799 32.1273 2.63008 32.0994 6.39432C32.0665 9.18019 34.584 10.7327 36.4808 11.659C38.4294 12.6069 39.0831 13.215 39.0759 14.0627C39.0613 15.3612 37.5209 15.9335 36.0808 15.956C33.565 15.9951 32.1049 15.276 30.9415 14.7337L30.0355 18.9726C31.2035 19.509 33.3618 19.977 35.6 20C40.8572 20 44.2953 17.4042 44.3116 13.3815ZM23.586 0.354301L15.4785 19.6975H10.1893L6.19945 4.26021C5.9571 3.30986 5.74713 2.96101 5.01069 2.5613C3.80788 1.90783 1.82162 1.29547 0.0742188 0.91514L0.192145 0.354301H8.70716C9.79179 0.354301 10.7683 1.07586 11.0146 2.32612L13.1219 13.5198L18.3299 0.354301H23.586Z"
          fill="url(#paint0_linear_2927_26299)"/>
    <defs>
        <linearGradient id="paint0_linear_2927_26299" x1="0.0742188" y1="10.0003" x2="62.0008" y2="10.0003"
                        gradientUnits="userSpaceOnUse">
            <stop stop-color="#222357"/>
            <stop offset="1" stop-color="#254AA5"/>
        </linearGradient>
    </defs>
</svg>
