<svg width="50" height="16" viewBox="0 0 50 16" fill="none" xmlns="http://www.w3.org/2000/svg">
  <path
    d="M24.5302 0.283034L21.2198 15.758H17.2161L20.5277 0.283034H24.5302ZM41.3729 10.2749L43.4803 4.46443L44.6934 10.2749H41.3729ZM45.8399 15.758H49.5426L46.3106 0.283034H42.8938C42.1252 0.283034 41.4772 0.729582 41.1896 1.41793L35.1828 15.758H39.3854L40.2205 13.4461H45.3562L45.8399 15.758ZM35.3908 10.7051C35.4087 6.62143 29.7434 6.39585 29.7824 4.57115C29.7948 4.01627 30.3233 3.4263 31.4804 3.27515C32.0531 3.20043 33.635 3.14247 35.4271 3.96728L36.1305 0.686117C35.1665 0.336155 33.9277 0 32.385 0C28.4285 0 25.6431 2.1037 25.6208 5.11518C25.5945 7.34393 27.6085 8.586 29.126 9.32703C30.685 10.0854 31.2079 10.5719 31.2022 11.25C31.1905 12.2889 29.9581 12.7467 28.806 12.7647C26.7934 12.796 25.6252 12.2207 24.6944 11.7869L23.9697 15.1781C24.9041 15.6072 26.6307 15.9816 28.4214 16C32.6272 16 35.3778 13.9233 35.3908 10.7051ZM18.8099 0.283034L12.3237 15.758H8.09225L4.90031 3.40784C4.70643 2.64754 4.53844 2.36845 3.94928 2.04868C2.987 1.52589 1.39795 1.03599 0 0.731716L0.0943437 0.283034H6.90653C7.77426 0.283034 8.55545 0.860296 8.75257 1.86053L10.4384 10.8157L14.6049 0.283034H18.8099Z"
    fill="white" />
</svg>
  